%TF.GenerationSoftware,KiCad,Pcbnew,10.0.5*%
%TF.CreationDate,2026-07-30T15:09:33-04:00*%
%TF.ProjectId,MAX2769_Dev_00-A,4d415832-3736-4395-9f44-65765f30302d,rev?*%
%TF.SameCoordinates,Original*%
%TF.FileFunction,Paste,Top*%
%TF.FilePolarity,Positive*%
%FSLAX46Y46*%
G04 Gerber Fmt 4.6, Leading zero omitted, Abs format (unit mm)*
G04 Created by KiCad (PCBNEW 10.0.5) date 2026-07-30 15:09:33*
%MOMM*%
%LPD*%
G01*
G04 APERTURE LIST*
G04 Aperture macros list*
%AMRoundRect*
0 Rectangle with rounded corners*
0 $1 Rounding radius*
0 $2 $3 $4 $5 $6 $7 $8 $9 X,Y pos of 4 corners*
0 Add a 4 corners polygon primitive as box body*
4,1,4,$2,$3,$4,$5,$6,$7,$8,$9,$2,$3,0*
0 Add four circle primitives for the rounded corners*
1,1,$1+$1,$2,$3*
1,1,$1+$1,$4,$5*
1,1,$1+$1,$6,$7*
1,1,$1+$1,$8,$9*
0 Add four rect primitives between the rounded corners*
20,1,$1+$1,$2,$3,$4,$5,0*
20,1,$1+$1,$4,$5,$6,$7,0*
20,1,$1+$1,$6,$7,$8,$9,0*
20,1,$1+$1,$8,$9,$2,$3,0*%
G04 Aperture macros list end*
%ADD10C,0.010000*%
%ADD11RoundRect,0.140000X-0.140000X-0.170000X0.140000X-0.170000X0.140000X0.170000X-0.140000X0.170000X0*%
%ADD12RoundRect,0.200000X-0.200000X-0.275000X0.200000X-0.275000X0.200000X0.275000X-0.200000X0.275000X0*%
%ADD13RoundRect,0.225000X0.225000X0.250000X-0.225000X0.250000X-0.225000X-0.250000X0.225000X-0.250000X0*%
%ADD14RoundRect,0.225000X-0.225000X-0.250000X0.225000X-0.250000X0.225000X0.250000X-0.225000X0.250000X0*%
%ADD15RoundRect,0.200000X-0.275000X0.200000X-0.275000X-0.200000X0.275000X-0.200000X0.275000X0.200000X0*%
%ADD16RoundRect,0.200000X0.275000X-0.200000X0.275000X0.200000X-0.275000X0.200000X-0.275000X-0.200000X0*%
%ADD17RoundRect,0.218750X0.256250X-0.218750X0.256250X0.218750X-0.256250X0.218750X-0.256250X-0.218750X0*%
%ADD18RoundRect,0.225000X-0.250000X0.225000X-0.250000X-0.225000X0.250000X-0.225000X0.250000X0.225000X0*%
%ADD19RoundRect,0.033750X-0.461250X-0.101250X0.461250X-0.101250X0.461250X0.101250X-0.461250X0.101250X0*%
%ADD20RoundRect,0.033750X-0.101250X-0.461250X0.101250X-0.461250X0.101250X0.461250X-0.101250X0.461250X0*%
%ADD21RoundRect,0.225000X0.250000X-0.225000X0.250000X0.225000X-0.250000X0.225000X-0.250000X-0.225000X0*%
%ADD22RoundRect,0.147500X0.172500X-0.147500X0.172500X0.147500X-0.172500X0.147500X-0.172500X-0.147500X0*%
%ADD23RoundRect,0.200000X0.200000X0.275000X-0.200000X0.275000X-0.200000X-0.275000X0.200000X-0.275000X0*%
%ADD24RoundRect,0.150000X0.150000X-0.512500X0.150000X0.512500X-0.150000X0.512500X-0.150000X-0.512500X0*%
%ADD25RoundRect,0.044500X-0.425500X-0.400500X0.425500X-0.400500X0.425500X0.400500X-0.425500X0.400500X0*%
G04 APERTURE END LIST*
D10*
%TO.C,U2*%
X143970000Y-102470000D02*
X146030000Y-102470000D01*
X146030000Y-104530000D01*
X143970000Y-104530000D01*
X143970000Y-102470000D01*
G36*
X146030000Y-104530000D02*
G01*
X143970000Y-104530000D01*
X143970000Y-102470000D01*
X146030000Y-102470000D01*
X146030000Y-104530000D01*
G37*
%TD*%
D11*
%TO.C,C24*%
X145020000Y-89750000D03*
X145980000Y-89750000D03*
%TD*%
D12*
%TO.C,R22*%
X161485000Y-95500000D03*
X163135000Y-95500000D03*
%TD*%
D13*
%TO.C,C5*%
X140525000Y-101500000D03*
X138975000Y-101500000D03*
%TD*%
D14*
%TO.C,C19*%
X134225000Y-109250000D03*
X135775000Y-109250000D03*
%TD*%
D15*
%TO.C,R3*%
X130750000Y-109175000D03*
X130750000Y-110825000D03*
%TD*%
D16*
%TO.C,R11*%
X132500000Y-110825000D03*
X132500000Y-109175000D03*
%TD*%
D12*
%TO.C,R24*%
X161485000Y-100500000D03*
X163135000Y-100500000D03*
%TD*%
D17*
%TO.C,D2*%
X158750000Y-116787500D03*
X158750000Y-115212500D03*
%TD*%
D14*
%TO.C,C18*%
X138975000Y-105000000D03*
X140525000Y-105000000D03*
%TD*%
D16*
%TO.C,R4*%
X153250000Y-98825000D03*
X153250000Y-97175000D03*
%TD*%
D18*
%TO.C,C13*%
X152250000Y-109225000D03*
X152250000Y-110775000D03*
%TD*%
D15*
%TO.C,R7*%
X158750000Y-111925000D03*
X158750000Y-113575000D03*
%TD*%
D19*
%TO.C,U2*%
X142640000Y-102000000D03*
X142640000Y-102500000D03*
X142640000Y-103000000D03*
X142640000Y-103500000D03*
X142640000Y-104000000D03*
X142640000Y-104500000D03*
X142640000Y-105000000D03*
D20*
X143500000Y-105860000D03*
X144000000Y-105860000D03*
X144500000Y-105860000D03*
X145000000Y-105860000D03*
X145500000Y-105860000D03*
X146000000Y-105860000D03*
X146500000Y-105860000D03*
D19*
X147360000Y-105000000D03*
X147360000Y-104500000D03*
X147360000Y-104000000D03*
X147360000Y-103500000D03*
X147360000Y-103000000D03*
X147360000Y-102500000D03*
X147360000Y-102000000D03*
D20*
X146500000Y-101140000D03*
X146000000Y-101140000D03*
X145500000Y-101140000D03*
X145000000Y-101140000D03*
X144500000Y-101140000D03*
X144000000Y-101140000D03*
X143500000Y-101140000D03*
%TD*%
D21*
%TO.C,C14*%
X150750000Y-98775000D03*
X150750000Y-97225000D03*
%TD*%
D16*
%TO.C,R5*%
X133750000Y-116825000D03*
X133750000Y-115175000D03*
%TD*%
D12*
%TO.C,R17*%
X146425000Y-112750000D03*
X148075000Y-112750000D03*
%TD*%
D22*
%TO.C,L1*%
X145000000Y-91735000D03*
X145000000Y-90765000D03*
%TD*%
D18*
%TO.C,C17*%
X143000000Y-109225000D03*
X143000000Y-110775000D03*
%TD*%
%TO.C,C11*%
X153000000Y-102475000D03*
X153000000Y-104025000D03*
%TD*%
D23*
%TO.C,R16*%
X129075000Y-95710000D03*
X127425000Y-95710000D03*
%TD*%
D14*
%TO.C,C28*%
X127475000Y-101500000D03*
X129025000Y-101500000D03*
%TD*%
D17*
%TO.C,D1*%
X131750000Y-116787500D03*
X131750000Y-115212500D03*
%TD*%
D24*
%TO.C,U4*%
X134550000Y-107387500D03*
X135500000Y-107387500D03*
X136450000Y-107387500D03*
X136450000Y-105112500D03*
X134550000Y-105112500D03*
%TD*%
D25*
%TO.C,U1*%
X156385000Y-109490000D03*
X156385000Y-107010000D03*
X154615000Y-107010000D03*
X154615000Y-109490000D03*
%TD*%
D23*
%TO.C,R14*%
X129075000Y-99200000D03*
X127425000Y-99200000D03*
%TD*%
D12*
%TO.C,R21*%
X161485000Y-98000000D03*
X163135000Y-98000000D03*
%TD*%
D21*
%TO.C,C22*%
X146500000Y-98775000D03*
X146500000Y-97225000D03*
%TD*%
D23*
%TO.C,R20*%
X129075000Y-92200000D03*
X127425000Y-92200000D03*
%TD*%
D14*
%TO.C,C8*%
X154725000Y-111500000D03*
X156275000Y-111500000D03*
%TD*%
D18*
%TO.C,C15*%
X144000000Y-95725000D03*
X144000000Y-97275000D03*
%TD*%
D23*
%TO.C,R18*%
X129075000Y-97450000D03*
X127425000Y-97450000D03*
%TD*%
D14*
%TO.C,C26*%
X127475000Y-103250000D03*
X129025000Y-103250000D03*
%TD*%
D13*
%TO.C,C16*%
X152775000Y-107000000D03*
X151225000Y-107000000D03*
%TD*%
D12*
%TO.C,R19*%
X161485000Y-105500000D03*
X163135000Y-105500000D03*
%TD*%
D18*
%TO.C,C4*%
X151250000Y-102475000D03*
X151250000Y-104025000D03*
%TD*%
D12*
%TO.C,R23*%
X161485000Y-103000000D03*
X163135000Y-103000000D03*
%TD*%
D14*
%TO.C,C1*%
X154725000Y-113250000D03*
X156275000Y-113250000D03*
%TD*%
D24*
%TO.C,U3*%
X127800000Y-107387500D03*
X128750000Y-107387500D03*
X129700000Y-107387500D03*
X129700000Y-105112500D03*
X127800000Y-105112500D03*
%TD*%
D23*
%TO.C,R15*%
X129075000Y-93950000D03*
X127425000Y-93950000D03*
%TD*%
D18*
%TO.C,C3*%
X146500000Y-109225000D03*
X146500000Y-110775000D03*
%TD*%
%TO.C,C9*%
X141250000Y-109225000D03*
X141250000Y-110775000D03*
%TD*%
D15*
%TO.C,R13*%
X154500000Y-115175000D03*
X154500000Y-116825000D03*
%TD*%
D18*
%TO.C,C2*%
X139500000Y-109225000D03*
X139500000Y-110775000D03*
%TD*%
D23*
%TO.C,R12*%
X151325000Y-112750000D03*
X149675000Y-112750000D03*
%TD*%
D11*
%TO.C,C23*%
X145020000Y-92750000D03*
X145980000Y-92750000D03*
%TD*%
D18*
%TO.C,C10*%
X148250000Y-109225000D03*
X148250000Y-110775000D03*
%TD*%
D15*
%TO.C,R9*%
X160750000Y-111925000D03*
X160750000Y-113575000D03*
%TD*%
D17*
%TO.C,D3*%
X160750000Y-116787500D03*
X160750000Y-115212500D03*
%TD*%
D14*
%TO.C,C25*%
X134225000Y-103250000D03*
X135775000Y-103250000D03*
%TD*%
D15*
%TO.C,R25*%
X156250000Y-115175000D03*
X156250000Y-116825000D03*
%TD*%
%TO.C,R2*%
X137500000Y-109175000D03*
X137500000Y-110825000D03*
%TD*%
D21*
%TO.C,C7*%
X149000000Y-98775000D03*
X149000000Y-97225000D03*
%TD*%
D13*
%TO.C,C21*%
X144775000Y-112750000D03*
X143225000Y-112750000D03*
%TD*%
D14*
%TO.C,C20*%
X127475000Y-109250000D03*
X129025000Y-109250000D03*
%TD*%
D13*
%TO.C,C12*%
X140525000Y-103250000D03*
X138975000Y-103250000D03*
%TD*%
D18*
%TO.C,C6*%
X150500000Y-109225000D03*
X150500000Y-110775000D03*
%TD*%
D16*
%TO.C,R1*%
X144760000Y-110825000D03*
X144760000Y-109175000D03*
%TD*%
D14*
%TO.C,C27*%
X134225000Y-101500000D03*
X135775000Y-101500000D03*
%TD*%
M02*
