%TF.GenerationSoftware,KiCad,Pcbnew,10.0.5*%
%TF.CreationDate,2026-07-30T15:09:34-04:00*%
%TF.ProjectId,MAX2769_Dev_00-A,4d415832-3736-4395-9f44-65765f30302d,rev?*%
%TF.SameCoordinates,Original*%
%TF.FileFunction,Legend,Bot*%
%TF.FilePolarity,Positive*%
%FSLAX46Y46*%
G04 Gerber Fmt 4.6, Leading zero omitted, Abs format (unit mm)*
G04 Created by KiCad (PCBNEW 10.0.5) date 2026-07-30 15:09:34*
%MOMM*%
%LPD*%
G01*
G04 APERTURE LIST*
%ADD10C,0.150000*%
%ADD11C,0.000000*%
%ADD12C,1.000000*%
%ADD13R,1.700000X1.700000*%
%ADD14C,1.700000*%
%ADD15C,0.800000*%
%ADD16C,5.400000*%
%ADD17C,2.500000*%
G04 APERTURE END LIST*
D10*
X149519048Y-113254819D02*
X149519048Y-113969104D01*
X149519048Y-113969104D02*
X149566667Y-114111961D01*
X149566667Y-114111961D02*
X149661905Y-114207200D01*
X149661905Y-114207200D02*
X149804762Y-114254819D01*
X149804762Y-114254819D02*
X149900000Y-114254819D01*
X148566667Y-114254819D02*
X149042857Y-114254819D01*
X149042857Y-114254819D02*
X149042857Y-113254819D01*
X147661905Y-114159580D02*
X147709524Y-114207200D01*
X147709524Y-114207200D02*
X147852381Y-114254819D01*
X147852381Y-114254819D02*
X147947619Y-114254819D01*
X147947619Y-114254819D02*
X148090476Y-114207200D01*
X148090476Y-114207200D02*
X148185714Y-114111961D01*
X148185714Y-114111961D02*
X148233333Y-114016723D01*
X148233333Y-114016723D02*
X148280952Y-113826247D01*
X148280952Y-113826247D02*
X148280952Y-113683390D01*
X148280952Y-113683390D02*
X148233333Y-113492914D01*
X148233333Y-113492914D02*
X148185714Y-113397676D01*
X148185714Y-113397676D02*
X148090476Y-113302438D01*
X148090476Y-113302438D02*
X147947619Y-113254819D01*
X147947619Y-113254819D02*
X147852381Y-113254819D01*
X147852381Y-113254819D02*
X147709524Y-113302438D01*
X147709524Y-113302438D02*
X147661905Y-113350057D01*
X146947619Y-113254819D02*
X146947619Y-113969104D01*
X146947619Y-113969104D02*
X146995238Y-114111961D01*
X146995238Y-114111961D02*
X147090476Y-114207200D01*
X147090476Y-114207200D02*
X147233333Y-114254819D01*
X147233333Y-114254819D02*
X147328571Y-114254819D01*
X145995238Y-114254819D02*
X146471428Y-114254819D01*
X146471428Y-114254819D02*
X146471428Y-113254819D01*
X145090476Y-114159580D02*
X145138095Y-114207200D01*
X145138095Y-114207200D02*
X145280952Y-114254819D01*
X145280952Y-114254819D02*
X145376190Y-114254819D01*
X145376190Y-114254819D02*
X145519047Y-114207200D01*
X145519047Y-114207200D02*
X145614285Y-114111961D01*
X145614285Y-114111961D02*
X145661904Y-114016723D01*
X145661904Y-114016723D02*
X145709523Y-113826247D01*
X145709523Y-113826247D02*
X145709523Y-113683390D01*
X145709523Y-113683390D02*
X145661904Y-113492914D01*
X145661904Y-113492914D02*
X145614285Y-113397676D01*
X145614285Y-113397676D02*
X145519047Y-113302438D01*
X145519047Y-113302438D02*
X145376190Y-113254819D01*
X145376190Y-113254819D02*
X145280952Y-113254819D01*
X145280952Y-113254819D02*
X145138095Y-113302438D01*
X145138095Y-113302438D02*
X145090476Y-113350057D01*
X144376190Y-113254819D02*
X144376190Y-113969104D01*
X144376190Y-113969104D02*
X144423809Y-114111961D01*
X144423809Y-114111961D02*
X144519047Y-114207200D01*
X144519047Y-114207200D02*
X144661904Y-114254819D01*
X144661904Y-114254819D02*
X144757142Y-114254819D01*
X143423809Y-114254819D02*
X143899999Y-114254819D01*
X143899999Y-114254819D02*
X143899999Y-113254819D01*
X142519047Y-114159580D02*
X142566666Y-114207200D01*
X142566666Y-114207200D02*
X142709523Y-114254819D01*
X142709523Y-114254819D02*
X142804761Y-114254819D01*
X142804761Y-114254819D02*
X142947618Y-114207200D01*
X142947618Y-114207200D02*
X143042856Y-114111961D01*
X143042856Y-114111961D02*
X143090475Y-114016723D01*
X143090475Y-114016723D02*
X143138094Y-113826247D01*
X143138094Y-113826247D02*
X143138094Y-113683390D01*
X143138094Y-113683390D02*
X143090475Y-113492914D01*
X143090475Y-113492914D02*
X143042856Y-113397676D01*
X143042856Y-113397676D02*
X142947618Y-113302438D01*
X142947618Y-113302438D02*
X142804761Y-113254819D01*
X142804761Y-113254819D02*
X142709523Y-113254819D01*
X142709523Y-113254819D02*
X142566666Y-113302438D01*
X142566666Y-113302438D02*
X142519047Y-113350057D01*
X141804761Y-113254819D02*
X141804761Y-113969104D01*
X141804761Y-113969104D02*
X141852380Y-114111961D01*
X141852380Y-114111961D02*
X141947618Y-114207200D01*
X141947618Y-114207200D02*
X142090475Y-114254819D01*
X142090475Y-114254819D02*
X142185713Y-114254819D01*
X140852380Y-114254819D02*
X141328570Y-114254819D01*
X141328570Y-114254819D02*
X141328570Y-113254819D01*
X139947618Y-114159580D02*
X139995237Y-114207200D01*
X139995237Y-114207200D02*
X140138094Y-114254819D01*
X140138094Y-114254819D02*
X140233332Y-114254819D01*
X140233332Y-114254819D02*
X140376189Y-114207200D01*
X140376189Y-114207200D02*
X140471427Y-114111961D01*
X140471427Y-114111961D02*
X140519046Y-114016723D01*
X140519046Y-114016723D02*
X140566665Y-113826247D01*
X140566665Y-113826247D02*
X140566665Y-113683390D01*
X140566665Y-113683390D02*
X140519046Y-113492914D01*
X140519046Y-113492914D02*
X140471427Y-113397676D01*
X140471427Y-113397676D02*
X140376189Y-113302438D01*
X140376189Y-113302438D02*
X140233332Y-113254819D01*
X140233332Y-113254819D02*
X140138094Y-113254819D01*
X140138094Y-113254819D02*
X139995237Y-113302438D01*
X139995237Y-113302438D02*
X139947618Y-113350057D01*
X147880952Y-112854819D02*
X148214285Y-112378628D01*
X148452380Y-112854819D02*
X148452380Y-111854819D01*
X148452380Y-111854819D02*
X148071428Y-111854819D01*
X148071428Y-111854819D02*
X147976190Y-111902438D01*
X147976190Y-111902438D02*
X147928571Y-111950057D01*
X147928571Y-111950057D02*
X147880952Y-112045295D01*
X147880952Y-112045295D02*
X147880952Y-112188152D01*
X147880952Y-112188152D02*
X147928571Y-112283390D01*
X147928571Y-112283390D02*
X147976190Y-112331009D01*
X147976190Y-112331009D02*
X148071428Y-112378628D01*
X148071428Y-112378628D02*
X148452380Y-112378628D01*
X147071428Y-112807200D02*
X147166666Y-112854819D01*
X147166666Y-112854819D02*
X147357142Y-112854819D01*
X147357142Y-112854819D02*
X147452380Y-112807200D01*
X147452380Y-112807200D02*
X147499999Y-112711961D01*
X147499999Y-112711961D02*
X147499999Y-112331009D01*
X147499999Y-112331009D02*
X147452380Y-112235771D01*
X147452380Y-112235771D02*
X147357142Y-112188152D01*
X147357142Y-112188152D02*
X147166666Y-112188152D01*
X147166666Y-112188152D02*
X147071428Y-112235771D01*
X147071428Y-112235771D02*
X147023809Y-112331009D01*
X147023809Y-112331009D02*
X147023809Y-112426247D01*
X147023809Y-112426247D02*
X147499999Y-112521485D01*
X146690475Y-112188152D02*
X146452380Y-112854819D01*
X146452380Y-112854819D02*
X146214285Y-112188152D01*
X144880951Y-111854819D02*
X144785713Y-111854819D01*
X144785713Y-111854819D02*
X144690475Y-111902438D01*
X144690475Y-111902438D02*
X144642856Y-111950057D01*
X144642856Y-111950057D02*
X144595237Y-112045295D01*
X144595237Y-112045295D02*
X144547618Y-112235771D01*
X144547618Y-112235771D02*
X144547618Y-112473866D01*
X144547618Y-112473866D02*
X144595237Y-112664342D01*
X144595237Y-112664342D02*
X144642856Y-112759580D01*
X144642856Y-112759580D02*
X144690475Y-112807200D01*
X144690475Y-112807200D02*
X144785713Y-112854819D01*
X144785713Y-112854819D02*
X144880951Y-112854819D01*
X144880951Y-112854819D02*
X144976189Y-112807200D01*
X144976189Y-112807200D02*
X145023808Y-112759580D01*
X145023808Y-112759580D02*
X145071427Y-112664342D01*
X145071427Y-112664342D02*
X145119046Y-112473866D01*
X145119046Y-112473866D02*
X145119046Y-112235771D01*
X145119046Y-112235771D02*
X145071427Y-112045295D01*
X145071427Y-112045295D02*
X145023808Y-111950057D01*
X145023808Y-111950057D02*
X144976189Y-111902438D01*
X144976189Y-111902438D02*
X144880951Y-111854819D01*
X143928570Y-111854819D02*
X143833332Y-111854819D01*
X143833332Y-111854819D02*
X143738094Y-111902438D01*
X143738094Y-111902438D02*
X143690475Y-111950057D01*
X143690475Y-111950057D02*
X143642856Y-112045295D01*
X143642856Y-112045295D02*
X143595237Y-112235771D01*
X143595237Y-112235771D02*
X143595237Y-112473866D01*
X143595237Y-112473866D02*
X143642856Y-112664342D01*
X143642856Y-112664342D02*
X143690475Y-112759580D01*
X143690475Y-112759580D02*
X143738094Y-112807200D01*
X143738094Y-112807200D02*
X143833332Y-112854819D01*
X143833332Y-112854819D02*
X143928570Y-112854819D01*
X143928570Y-112854819D02*
X144023808Y-112807200D01*
X144023808Y-112807200D02*
X144071427Y-112759580D01*
X144071427Y-112759580D02*
X144119046Y-112664342D01*
X144119046Y-112664342D02*
X144166665Y-112473866D01*
X144166665Y-112473866D02*
X144166665Y-112235771D01*
X144166665Y-112235771D02*
X144119046Y-112045295D01*
X144119046Y-112045295D02*
X144071427Y-111950057D01*
X144071427Y-111950057D02*
X144023808Y-111902438D01*
X144023808Y-111902438D02*
X143928570Y-111854819D01*
X143166665Y-112473866D02*
X142404761Y-112473866D01*
X141976189Y-112569104D02*
X141499999Y-112569104D01*
X142071427Y-112854819D02*
X141738094Y-111854819D01*
X141738094Y-111854819D02*
X141404761Y-112854819D01*
%LPC*%
D11*
G36*
X124000000Y-113300000D02*
G01*
X124000000Y-113300000D01*
G75*
G02*
X126700000Y-116000000I0J-2700000D01*
G01*
X126700000Y-120000000D01*
X124000000Y-120000000D01*
G75*
G02*
X120000000Y-116000000I0J4000000D01*
G01*
X120000000Y-113300000D01*
X124000000Y-113300000D01*
G37*
G36*
X126700000Y-54000000D02*
G01*
X126700000Y-54000000D01*
G75*
G02*
X124000000Y-56700000I-2700000J0D01*
G01*
X120000000Y-56700000D01*
X120000000Y-54000000D01*
G75*
G02*
X124000000Y-50000000I4000000J0D01*
G01*
X126700000Y-50000000D01*
X126700000Y-54000000D01*
G37*
G36*
X170000000Y-116000000D02*
G01*
X170000000Y-116000000D01*
G75*
G02*
X166000000Y-120000000I-4000000J0D01*
G01*
X163300000Y-120000000D01*
X163300000Y-116000000D01*
G75*
G02*
X166000000Y-113300000I2700000J0D01*
G01*
X170000000Y-113300000D01*
X170000000Y-116000000D01*
G37*
G36*
X166000000Y-50000000D02*
G01*
X166000000Y-50000000D01*
G75*
G02*
X170000000Y-54000000I0J-4000000D01*
G01*
X170000000Y-56700000D01*
X166000000Y-56700000D01*
G75*
G02*
X163300000Y-54000000I0J2700000D01*
G01*
X163300000Y-50000000D01*
X166000000Y-50000000D01*
G37*
D12*
X120500000Y-54000000D02*
X120500000Y-54000000D01*
G75*
G02*
X124000000Y-50500000I3500000J0D01*
G01*
X166000000Y-50500000D01*
G75*
G02*
X169500000Y-54000000I0J-3500000D01*
G01*
X169500000Y-116000000D01*
G75*
G02*
X166000000Y-119500000I-3500000J0D01*
G01*
X124000000Y-119500000D01*
G75*
G02*
X120500000Y-116000000I0J3500000D01*
G01*
X120500000Y-54000000D01*
D13*
%TO.C,J2*%
X124000000Y-95300000D03*
D14*
X124000000Y-97840000D03*
X124000000Y-100380000D03*
X124000000Y-102920000D03*
X124000000Y-105460000D03*
X124000000Y-108000000D03*
%TD*%
D15*
%TO.C,H4*%
X163975000Y-116000000D03*
X164568109Y-114568109D03*
X164568109Y-117431891D03*
X166000000Y-113975000D03*
D16*
X166000000Y-116000000D03*
D15*
X166000000Y-118025000D03*
X167431891Y-114568109D03*
X167431891Y-117431891D03*
X168025000Y-116000000D03*
%TD*%
D13*
%TO.C,J1*%
X138650000Y-116000000D03*
D14*
X141190000Y-116000000D03*
X143730000Y-116000000D03*
X146270000Y-116000000D03*
X148810000Y-116000000D03*
X151350000Y-116000000D03*
%TD*%
D15*
%TO.C,H1*%
X121975000Y-54000000D03*
X122568109Y-52568109D03*
X122568109Y-55431891D03*
X124000000Y-51975000D03*
D16*
X124000000Y-54000000D03*
D15*
X124000000Y-56025000D03*
X125431891Y-52568109D03*
X125431891Y-55431891D03*
X126025000Y-54000000D03*
%TD*%
%TO.C,H3*%
X121975000Y-116000000D03*
X122568109Y-114568109D03*
X122568109Y-117431891D03*
X124000000Y-113975000D03*
D16*
X124000000Y-116000000D03*
D15*
X124000000Y-118025000D03*
X125431891Y-114568109D03*
X125431891Y-117431891D03*
X126025000Y-116000000D03*
%TD*%
%TO.C,H2*%
X163975000Y-54000000D03*
X164568109Y-52568109D03*
X164568109Y-55431891D03*
X166000000Y-51975000D03*
D16*
X166000000Y-54000000D03*
D15*
X166000000Y-56025000D03*
X167431891Y-52568109D03*
X167431891Y-55431891D03*
X168025000Y-54000000D03*
%TD*%
D17*
%TO.C,AE2*%
X145000000Y-77000000D03*
%TD*%
D13*
%TO.C,J3*%
X166000000Y-95300000D03*
D14*
X166000000Y-97840000D03*
X166000000Y-100380000D03*
X166000000Y-102920000D03*
X166000000Y-105460000D03*
X166000000Y-108000000D03*
%TD*%
%LPD*%
M02*
