%TF.GenerationSoftware,KiCad,Pcbnew,10.0.5*%
%TF.CreationDate,2026-07-30T15:09:34-04:00*%
%TF.ProjectId,MAX2769_Dev_00-A,4d415832-3736-4395-9f44-65765f30302d,rev?*%
%TF.SameCoordinates,Original*%
%TF.FileFunction,Soldermask,Bot*%
%TF.FilePolarity,Negative*%
%FSLAX46Y46*%
G04 Gerber Fmt 4.6, Leading zero omitted, Abs format (unit mm)*
G04 Created by KiCad (PCBNEW 10.0.5) date 2026-07-30 15:09:34*
%MOMM*%
%LPD*%
G01*
G04 APERTURE LIST*
%ADD10C,0.000000*%
%ADD11C,1.000000*%
%ADD12R,1.700000X1.700000*%
%ADD13C,1.700000*%
%ADD14C,0.800000*%
%ADD15C,5.400000*%
%ADD16C,2.500000*%
G04 APERTURE END LIST*
D10*
G36*
X124000000Y-113300000D02*
G01*
X124000000Y-113300000D01*
G75*
G02*
X126700000Y-116000000I0J-2700000D01*
G01*
X126700000Y-120000000D01*
X124000000Y-120000000D01*
G75*
G02*
X120000000Y-116000000I0J4000000D01*
G01*
X120000000Y-113300000D01*
X124000000Y-113300000D01*
G37*
G36*
X126700000Y-54000000D02*
G01*
X126700000Y-54000000D01*
G75*
G02*
X124000000Y-56700000I-2700000J0D01*
G01*
X120000000Y-56700000D01*
X120000000Y-54000000D01*
G75*
G02*
X124000000Y-50000000I4000000J0D01*
G01*
X126700000Y-50000000D01*
X126700000Y-54000000D01*
G37*
G36*
X170000000Y-116000000D02*
G01*
X170000000Y-116000000D01*
G75*
G02*
X166000000Y-120000000I-4000000J0D01*
G01*
X163300000Y-120000000D01*
X163300000Y-116000000D01*
G75*
G02*
X166000000Y-113300000I2700000J0D01*
G01*
X170000000Y-113300000D01*
X170000000Y-116000000D01*
G37*
G36*
X166000000Y-50000000D02*
G01*
X166000000Y-50000000D01*
G75*
G02*
X170000000Y-54000000I0J-4000000D01*
G01*
X170000000Y-56700000D01*
X166000000Y-56700000D01*
G75*
G02*
X163300000Y-54000000I0J2700000D01*
G01*
X163300000Y-50000000D01*
X166000000Y-50000000D01*
G37*
D11*
X120500000Y-54000000D02*
X120500000Y-54000000D01*
G75*
G02*
X124000000Y-50500000I3500000J0D01*
G01*
X166000000Y-50500000D01*
G75*
G02*
X169500000Y-54000000I0J-3500000D01*
G01*
X169500000Y-116000000D01*
G75*
G02*
X166000000Y-119500000I-3500000J0D01*
G01*
X124000000Y-119500000D01*
G75*
G02*
X120500000Y-116000000I0J3500000D01*
G01*
X120500000Y-54000000D01*
D12*
%TO.C,J2*%
X124000000Y-95300000D03*
D13*
X124000000Y-97840000D03*
X124000000Y-100380000D03*
X124000000Y-102920000D03*
X124000000Y-105460000D03*
X124000000Y-108000000D03*
%TD*%
D14*
%TO.C,H4*%
X163975000Y-116000000D03*
X164568109Y-114568109D03*
X164568109Y-117431891D03*
X166000000Y-113975000D03*
D15*
X166000000Y-116000000D03*
D14*
X166000000Y-118025000D03*
X167431891Y-114568109D03*
X167431891Y-117431891D03*
X168025000Y-116000000D03*
%TD*%
D12*
%TO.C,J1*%
X138650000Y-116000000D03*
D13*
X141190000Y-116000000D03*
X143730000Y-116000000D03*
X146270000Y-116000000D03*
X148810000Y-116000000D03*
X151350000Y-116000000D03*
%TD*%
D14*
%TO.C,H1*%
X121975000Y-54000000D03*
X122568109Y-52568109D03*
X122568109Y-55431891D03*
X124000000Y-51975000D03*
D15*
X124000000Y-54000000D03*
D14*
X124000000Y-56025000D03*
X125431891Y-52568109D03*
X125431891Y-55431891D03*
X126025000Y-54000000D03*
%TD*%
%TO.C,H3*%
X121975000Y-116000000D03*
X122568109Y-114568109D03*
X122568109Y-117431891D03*
X124000000Y-113975000D03*
D15*
X124000000Y-116000000D03*
D14*
X124000000Y-118025000D03*
X125431891Y-114568109D03*
X125431891Y-117431891D03*
X126025000Y-116000000D03*
%TD*%
%TO.C,H2*%
X163975000Y-54000000D03*
X164568109Y-52568109D03*
X164568109Y-55431891D03*
X166000000Y-51975000D03*
D15*
X166000000Y-54000000D03*
D14*
X166000000Y-56025000D03*
X167431891Y-52568109D03*
X167431891Y-55431891D03*
X168025000Y-54000000D03*
%TD*%
D16*
%TO.C,AE2*%
X145000000Y-77000000D03*
%TD*%
D12*
%TO.C,J3*%
X166000000Y-95300000D03*
D13*
X166000000Y-97840000D03*
X166000000Y-100380000D03*
X166000000Y-102920000D03*
X166000000Y-105460000D03*
X166000000Y-108000000D03*
%TD*%
M02*
