%TF.GenerationSoftware,KiCad,Pcbnew,10.0.5*%
%TF.CreationDate,2026-07-30T15:09:33-04:00*%
%TF.ProjectId,MAX2769_Dev_00-A,4d415832-3736-4395-9f44-65765f30302d,rev?*%
%TF.SameCoordinates,Original*%
%TF.FileFunction,Copper,L3,Inr*%
%TF.FilePolarity,Positive*%
%FSLAX46Y46*%
G04 Gerber Fmt 4.6, Leading zero omitted, Abs format (unit mm)*
G04 Created by KiCad (PCBNEW 10.0.5) date 2026-07-30 15:09:33*
%MOMM*%
%LPD*%
G01*
G04 APERTURE LIST*
%TA.AperFunction,ComponentPad*%
%ADD10R,1.700000X1.700000*%
%TD*%
%TA.AperFunction,ComponentPad*%
%ADD11C,1.700000*%
%TD*%
%TA.AperFunction,ComponentPad*%
%ADD12C,0.800000*%
%TD*%
%TA.AperFunction,ComponentPad*%
%ADD13C,5.400000*%
%TD*%
%TA.AperFunction,ViaPad*%
%ADD14C,0.600000*%
%TD*%
%TA.AperFunction,Conductor*%
%ADD15C,0.600000*%
%TD*%
%TA.AperFunction,Conductor*%
%ADD16C,0.500000*%
%TD*%
G04 APERTURE END LIST*
D10*
%TO.N,RF_PLL_LD*%
%TO.C,J2*%
X124000000Y-95300000D03*
D11*
%TO.N,Net-(J2-Pin_2)*%
X124000000Y-97840000D03*
%TO.N,Net-(J2-Pin_3)*%
X124000000Y-100380000D03*
%TO.N,Net-(J2-Pin_4)*%
X124000000Y-102920000D03*
%TO.N,GND*%
X124000000Y-105460000D03*
X124000000Y-108000000D03*
%TD*%
D12*
%TO.N,GND*%
%TO.C,H4*%
X163975000Y-116000000D03*
X164568109Y-114568109D03*
X164568109Y-117431891D03*
X166000000Y-113975000D03*
D13*
X166000000Y-116000000D03*
D12*
X166000000Y-118025000D03*
X167431891Y-114568109D03*
X167431891Y-117431891D03*
X168025000Y-116000000D03*
%TD*%
D10*
%TO.N,VCC*%
%TO.C,J1*%
X138650000Y-116000000D03*
D11*
%TO.N,GND*%
X141190000Y-116000000D03*
X143730000Y-116000000D03*
%TO.N,/REG_nSHDN*%
X146270000Y-116000000D03*
%TO.N,Net-(J1-Pin_5)*%
X148810000Y-116000000D03*
%TO.N,Net-(J1-Pin_6)*%
X151350000Y-116000000D03*
%TD*%
D12*
%TO.N,GND*%
%TO.C,H1*%
X121975000Y-54000000D03*
X122568109Y-52568109D03*
X122568109Y-55431891D03*
X124000000Y-51975000D03*
D13*
X124000000Y-54000000D03*
D12*
X124000000Y-56025000D03*
X125431891Y-52568109D03*
X125431891Y-55431891D03*
X126025000Y-54000000D03*
%TD*%
%TO.N,GND*%
%TO.C,H3*%
X121975000Y-116000000D03*
X122568109Y-114568109D03*
X122568109Y-117431891D03*
X124000000Y-113975000D03*
D13*
X124000000Y-116000000D03*
D12*
X124000000Y-118025000D03*
X125431891Y-114568109D03*
X125431891Y-117431891D03*
X126025000Y-116000000D03*
%TD*%
%TO.N,GND*%
%TO.C,H2*%
X163975000Y-54000000D03*
X164568109Y-52568109D03*
X164568109Y-55431891D03*
X166000000Y-51975000D03*
D13*
X166000000Y-54000000D03*
D12*
X166000000Y-56025000D03*
X167431891Y-52568109D03*
X167431891Y-55431891D03*
X168025000Y-54000000D03*
%TD*%
D10*
%TO.N,RF_I1*%
%TO.C,J3*%
X166000000Y-95300000D03*
D11*
%TO.N,RF_I0*%
X166000000Y-97840000D03*
%TO.N,RF_Q1*%
X166000000Y-100380000D03*
%TO.N,RF_Q0*%
X166000000Y-102920000D03*
%TO.N,RF_CLKOUT*%
X166000000Y-105460000D03*
%TO.N,GND*%
X166000000Y-108000000D03*
%TD*%
D14*
%TO.N,GND*%
X145000000Y-60000000D03*
X155000000Y-60000000D03*
X125000000Y-70000000D03*
X146000000Y-87000000D03*
X143000000Y-98500000D03*
X155000000Y-80000000D03*
X144000000Y-84000000D03*
X146000000Y-84000000D03*
X138250000Y-101500000D03*
X144250000Y-102750000D03*
X135000000Y-70000000D03*
X139500000Y-111500000D03*
X146000000Y-82000000D03*
X165000000Y-60000000D03*
X165000000Y-90000000D03*
X129930000Y-101500000D03*
X146000000Y-80000000D03*
X146000000Y-79000000D03*
X143000000Y-99500000D03*
X141250000Y-111500000D03*
X125000000Y-80000000D03*
X146000000Y-86000000D03*
X125000000Y-90000000D03*
X150500000Y-111500000D03*
X160000000Y-75000000D03*
X144000000Y-82000000D03*
X160000000Y-65000000D03*
X165000000Y-70000000D03*
X146500000Y-111500000D03*
X152250000Y-111500000D03*
X140000000Y-55000000D03*
X157000000Y-111500000D03*
X157000000Y-113250000D03*
X153000000Y-104750000D03*
X150000000Y-55000000D03*
X130000000Y-75000000D03*
X155000000Y-99750000D03*
X144000000Y-86000000D03*
X145750000Y-102750000D03*
X150000000Y-65000000D03*
X160750000Y-117500000D03*
X144000000Y-79000000D03*
X129930000Y-103250000D03*
X158750000Y-117500000D03*
X151250000Y-104750000D03*
X129000000Y-110000000D03*
X157240000Y-107010000D03*
X144000000Y-80000000D03*
X144000000Y-85000000D03*
X131750000Y-117500000D03*
X148250000Y-111500000D03*
X140000000Y-65000000D03*
X135000000Y-80000000D03*
X144000000Y-81000000D03*
X132000000Y-106250000D03*
X144000000Y-87000000D03*
X160000000Y-85000000D03*
X144250000Y-104250000D03*
X130000000Y-55000000D03*
X146000000Y-81000000D03*
X135000000Y-90000000D03*
X135750000Y-110000000D03*
X130000000Y-65000000D03*
X144000000Y-83000000D03*
X125000000Y-60000000D03*
X138250000Y-103250000D03*
X155000000Y-70000000D03*
X165000000Y-80000000D03*
X146000000Y-85000000D03*
X160000000Y-55000000D03*
X135000000Y-60000000D03*
X136750000Y-103250000D03*
X136750000Y-101500000D03*
X142500000Y-112500000D03*
X142500000Y-111500000D03*
X130000000Y-85000000D03*
X145750000Y-104250000D03*
X146000000Y-83000000D03*
X150000000Y-85000000D03*
%TO.N,VCC_A*%
X134500000Y-100500000D03*
X140000000Y-100750000D03*
X139500000Y-108500000D03*
X148975000Y-109225000D03*
X158750000Y-111250000D03*
X151500000Y-98750000D03*
X152975000Y-109225000D03*
%TO.N,VCC*%
X127500000Y-110000000D03*
X133750000Y-117500000D03*
X134250000Y-110000000D03*
X131000000Y-112000000D03*
X137500000Y-112000000D03*
%TO.N,/REG_nSHDN*%
X132500000Y-108500000D03*
X137750000Y-108500000D03*
%TO.N,Net-(U2-Q1)*%
X160560000Y-100500000D03*
X150250000Y-103250000D03*
%TO.N,/RF_PG*%
X145250000Y-98750000D03*
X154050000Y-98850000D03*
%TO.N,Net-(U2-LD)*%
X129750000Y-92200000D03*
X141500000Y-105750000D03*
%TO.N,RF_nSHDN*%
X142750000Y-105500000D03*
X157000000Y-115250000D03*
%TO.N,RF_DATA*%
X129750000Y-93950000D03*
X142500000Y-106500000D03*
%TO.N,RF_CLK*%
X142000000Y-107150000D03*
X129750000Y-95700000D03*
%TO.N,RF_nCS*%
X129750000Y-97450000D03*
X141250000Y-107750000D03*
%TO.N,Net-(U2-Q0)*%
X160560000Y-103000000D03*
X149287500Y-103287500D03*
%TO.N,VCC_D*%
X160750000Y-111250000D03*
X154000000Y-113250000D03*
X153750000Y-102500000D03*
X153750000Y-115250000D03*
X127500000Y-100750000D03*
X152000000Y-112750000D03*
%TO.N,RF_nIDLE*%
X146425000Y-113500000D03*
X147750000Y-98750000D03*
%TD*%
%TO.N,VCC_A*%
D15*
X148975000Y-109225000D02*
X140225000Y-109225000D01*
X148975000Y-109225000D02*
X148975000Y-105893629D01*
D16*
X139750000Y-100500000D02*
X140000000Y-100750000D01*
D15*
X139500000Y-108500000D02*
X139500000Y-107500000D01*
X155000000Y-101000000D02*
X158750000Y-104750000D01*
X151500000Y-101000000D02*
X155000000Y-101000000D01*
X149800000Y-109225000D02*
X148975000Y-109225000D01*
X152975000Y-109225000D02*
X149800000Y-109225000D01*
X149800000Y-105068629D02*
X151500000Y-103368630D01*
X134500000Y-102500000D02*
X134500000Y-100500000D01*
X139500000Y-107500000D02*
X134500000Y-102500000D01*
X148975000Y-105893629D02*
X149800000Y-105068629D01*
X158750000Y-111250000D02*
X158750000Y-104750000D01*
X151500000Y-101000000D02*
X151500000Y-98750000D01*
X134500000Y-100500000D02*
X139750000Y-100500000D01*
X151500000Y-103368630D02*
X151500000Y-101000000D01*
X140225000Y-109225000D02*
X139500000Y-108500000D01*
%TD*%
%TA.AperFunction,Conductor*%
%TO.N,GND*%
G36*
X148000000Y-96640797D02*
G01*
X147938087Y-96666442D01*
X147938085Y-96666443D01*
X147830228Y-96738511D01*
X147828658Y-96739800D01*
X147827675Y-96740217D01*
X147825166Y-96741894D01*
X147824847Y-96741417D01*
X147764346Y-96767108D01*
X147695479Y-96755312D01*
X147671342Y-96739800D01*
X147669771Y-96738511D01*
X147561914Y-96666443D01*
X147561912Y-96666442D01*
X147442081Y-96616807D01*
X147442071Y-96616804D01*
X147314859Y-96591500D01*
X147314857Y-96591500D01*
X147185143Y-96591500D01*
X147185141Y-96591500D01*
X147057928Y-96616804D01*
X147057918Y-96616807D01*
X146938087Y-96666442D01*
X146938085Y-96666443D01*
X146830231Y-96738509D01*
X146830227Y-96738512D01*
X146738512Y-96830227D01*
X146738509Y-96830231D01*
X146666443Y-96938085D01*
X146666442Y-96938087D01*
X146616807Y-97057918D01*
X146616804Y-97057928D01*
X146591500Y-97185140D01*
X146591500Y-97185143D01*
X146591500Y-97314857D01*
X146591500Y-97314859D01*
X146591499Y-97314859D01*
X146616804Y-97442071D01*
X146616807Y-97442081D01*
X146666442Y-97561912D01*
X146666443Y-97561914D01*
X146738509Y-97669768D01*
X146738512Y-97669772D01*
X146830227Y-97761487D01*
X146830231Y-97761490D01*
X146938083Y-97833555D01*
X146938084Y-97833555D01*
X146938085Y-97833556D01*
X146938087Y-97833557D01*
X147057918Y-97883192D01*
X147057923Y-97883194D01*
X147177148Y-97906909D01*
X147177215Y-97906923D01*
X147239126Y-97939308D01*
X147273700Y-98000023D01*
X147269961Y-98069793D01*
X147237440Y-98116211D01*
X147238918Y-98117689D01*
X147122001Y-98234605D01*
X147121995Y-98234612D01*
X147033517Y-98367030D01*
X146972570Y-98514168D01*
X146972568Y-98514176D01*
X146941500Y-98670365D01*
X146941500Y-98829634D01*
X146972568Y-98985823D01*
X146972570Y-98985831D01*
X147033517Y-99132969D01*
X147121995Y-99265387D01*
X147122001Y-99265394D01*
X147234605Y-99377998D01*
X147234612Y-99378004D01*
X147367030Y-99466482D01*
X147367031Y-99466482D01*
X147367032Y-99466483D01*
X147514169Y-99527430D01*
X147670365Y-99558499D01*
X147670369Y-99558500D01*
X147670370Y-99558500D01*
X147829631Y-99558500D01*
X147829632Y-99558499D01*
X147985831Y-99527430D01*
X148000000Y-99521560D01*
X148000000Y-108416500D01*
X142009021Y-108416500D01*
X142000000Y-108413851D01*
X142000000Y-108052051D01*
X142009716Y-108028593D01*
X142053555Y-107974192D01*
X142100081Y-107954432D01*
X142235831Y-107927430D01*
X142382968Y-107866483D01*
X142515389Y-107778003D01*
X142628003Y-107665389D01*
X142716483Y-107532968D01*
X142777430Y-107385831D01*
X142791733Y-107313923D01*
X142824117Y-107252014D01*
X142865898Y-107223554D01*
X142873985Y-107220203D01*
X142882968Y-107216483D01*
X143015389Y-107128003D01*
X143128003Y-107015389D01*
X143216483Y-106882968D01*
X143277430Y-106735831D01*
X143308500Y-106579630D01*
X143308500Y-106420370D01*
X143277430Y-106264169D01*
X143265727Y-106235918D01*
X143258258Y-106166451D01*
X143289531Y-106103971D01*
X143292580Y-106100811D01*
X143378003Y-106015389D01*
X143466483Y-105882968D01*
X143527430Y-105735831D01*
X143558500Y-105579630D01*
X143558500Y-105420370D01*
X143527430Y-105264169D01*
X143466483Y-105117032D01*
X143438851Y-105075678D01*
X143378004Y-104984612D01*
X143377998Y-104984605D01*
X143265394Y-104872001D01*
X143265387Y-104871995D01*
X143132969Y-104783517D01*
X142985831Y-104722570D01*
X142985823Y-104722568D01*
X142829634Y-104691500D01*
X142829630Y-104691500D01*
X142670370Y-104691500D01*
X142670365Y-104691500D01*
X142514176Y-104722568D01*
X142514168Y-104722570D01*
X142367030Y-104783517D01*
X142234612Y-104871995D01*
X142234605Y-104872001D01*
X142121999Y-104984607D01*
X142094516Y-105025738D01*
X142040902Y-105070542D01*
X142000000Y-105075678D01*
X142000000Y-98670365D01*
X144441500Y-98670365D01*
X144441500Y-98829634D01*
X144472568Y-98985823D01*
X144472570Y-98985831D01*
X144533517Y-99132969D01*
X144621995Y-99265387D01*
X144622001Y-99265394D01*
X144734605Y-99377998D01*
X144734612Y-99378004D01*
X144867030Y-99466482D01*
X144867031Y-99466482D01*
X144867032Y-99466483D01*
X145014169Y-99527430D01*
X145170365Y-99558499D01*
X145170369Y-99558500D01*
X145170370Y-99558500D01*
X145329631Y-99558500D01*
X145329632Y-99558499D01*
X145485831Y-99527430D01*
X145632968Y-99466483D01*
X145765389Y-99378003D01*
X145878003Y-99265389D01*
X145966483Y-99132968D01*
X146027430Y-98985831D01*
X146058500Y-98829630D01*
X146058500Y-98670370D01*
X146027430Y-98514169D01*
X145966483Y-98367032D01*
X145878003Y-98234611D01*
X145877998Y-98234605D01*
X145765394Y-98122001D01*
X145765387Y-98121995D01*
X145632969Y-98033517D01*
X145485831Y-97972570D01*
X145485823Y-97972568D01*
X145329634Y-97941500D01*
X145329630Y-97941500D01*
X145170370Y-97941500D01*
X145170365Y-97941500D01*
X145014176Y-97972568D01*
X145014168Y-97972570D01*
X144867030Y-98033517D01*
X144734612Y-98121995D01*
X144734605Y-98122001D01*
X144622001Y-98234605D01*
X144621995Y-98234612D01*
X144533517Y-98367030D01*
X144472570Y-98514168D01*
X144472568Y-98514176D01*
X144441500Y-98670365D01*
X142000000Y-98670365D01*
X142000000Y-97272216D01*
X142016442Y-97311912D01*
X142016443Y-97311914D01*
X142088509Y-97419768D01*
X142088512Y-97419772D01*
X142180227Y-97511487D01*
X142180231Y-97511490D01*
X142288083Y-97583555D01*
X142288084Y-97583555D01*
X142288085Y-97583556D01*
X142288087Y-97583557D01*
X142407918Y-97633192D01*
X142407923Y-97633194D01*
X142407927Y-97633194D01*
X142407928Y-97633195D01*
X142535140Y-97658500D01*
X142535143Y-97658500D01*
X142664859Y-97658500D01*
X142750444Y-97641475D01*
X142792077Y-97633194D01*
X142911917Y-97583555D01*
X143019769Y-97511490D01*
X143111490Y-97419769D01*
X143183555Y-97311917D01*
X143233194Y-97192077D01*
X143258500Y-97064857D01*
X143258500Y-96935143D01*
X143258500Y-96935140D01*
X143233195Y-96807928D01*
X143233194Y-96807927D01*
X143233194Y-96807923D01*
X143226632Y-96792081D01*
X143183557Y-96688087D01*
X143183556Y-96688086D01*
X143183555Y-96688083D01*
X143168037Y-96664859D01*
X144541499Y-96664859D01*
X144566804Y-96792071D01*
X144566807Y-96792081D01*
X144616442Y-96911912D01*
X144616443Y-96911914D01*
X144688509Y-97019768D01*
X144688512Y-97019772D01*
X144780227Y-97111487D01*
X144780231Y-97111490D01*
X144888083Y-97183555D01*
X144888084Y-97183555D01*
X144888085Y-97183556D01*
X144888087Y-97183557D01*
X145007918Y-97233192D01*
X145007923Y-97233194D01*
X145007927Y-97233194D01*
X145007928Y-97233195D01*
X145135140Y-97258500D01*
X145135143Y-97258500D01*
X145264859Y-97258500D01*
X145350444Y-97241475D01*
X145392077Y-97233194D01*
X145511917Y-97183555D01*
X145619769Y-97111490D01*
X145711490Y-97019769D01*
X145783555Y-96911917D01*
X145833194Y-96792077D01*
X145843849Y-96738510D01*
X145858500Y-96664859D01*
X145858500Y-96535140D01*
X145833195Y-96407928D01*
X145833194Y-96407927D01*
X145833194Y-96407923D01*
X145823101Y-96383555D01*
X145783557Y-96288087D01*
X145783556Y-96288085D01*
X145711490Y-96180231D01*
X145711487Y-96180227D01*
X145619772Y-96088512D01*
X145619768Y-96088509D01*
X145511914Y-96016443D01*
X145511912Y-96016442D01*
X145392081Y-95966807D01*
X145392071Y-95966804D01*
X145264859Y-95941500D01*
X145264857Y-95941500D01*
X145135143Y-95941500D01*
X145135141Y-95941500D01*
X145007928Y-95966804D01*
X145007918Y-95966807D01*
X144888087Y-96016442D01*
X144888085Y-96016443D01*
X144780231Y-96088509D01*
X144780227Y-96088512D01*
X144688512Y-96180227D01*
X144688509Y-96180231D01*
X144616443Y-96288085D01*
X144616442Y-96288087D01*
X144566807Y-96407918D01*
X144566804Y-96407928D01*
X144541500Y-96535140D01*
X144541500Y-96535143D01*
X144541500Y-96664857D01*
X144541500Y-96664859D01*
X144541499Y-96664859D01*
X143168037Y-96664859D01*
X143111490Y-96580231D01*
X143019769Y-96488510D01*
X143019305Y-96488200D01*
X143015745Y-96484365D01*
X143001134Y-96455071D01*
X142985456Y-96426358D01*
X142985626Y-96423976D01*
X142984561Y-96421841D01*
X142988105Y-96389309D01*
X142990440Y-96356666D01*
X142991911Y-96354375D01*
X142992129Y-96352382D01*
X142997324Y-96345953D01*
X143018941Y-96312319D01*
X143111487Y-96219772D01*
X143111490Y-96219769D01*
X143183555Y-96111917D01*
X143233194Y-95992077D01*
X143258500Y-95864857D01*
X143258500Y-95735143D01*
X143258500Y-95735140D01*
X143233195Y-95607928D01*
X143233194Y-95607927D01*
X143233194Y-95607923D01*
X143199999Y-95527782D01*
X143183557Y-95488087D01*
X143183556Y-95488085D01*
X143111490Y-95380231D01*
X143111487Y-95380227D01*
X143082850Y-95351590D01*
X143049365Y-95290267D01*
X143054349Y-95220575D01*
X143096221Y-95164642D01*
X143146340Y-95142292D01*
X143158430Y-95139886D01*
X143192077Y-95133194D01*
X143311917Y-95083555D01*
X143339897Y-95064859D01*
X144591499Y-95064859D01*
X144616804Y-95192071D01*
X144616807Y-95192081D01*
X144666442Y-95311912D01*
X144666443Y-95311914D01*
X144738509Y-95419768D01*
X144738512Y-95419772D01*
X144830227Y-95511487D01*
X144830231Y-95511490D01*
X144938083Y-95583555D01*
X144938084Y-95583555D01*
X144938085Y-95583556D01*
X144938087Y-95583557D01*
X144996925Y-95607928D01*
X145057923Y-95633194D01*
X145057927Y-95633194D01*
X145057928Y-95633195D01*
X145185140Y-95658500D01*
X145185143Y-95658500D01*
X145314859Y-95658500D01*
X145400444Y-95641475D01*
X145442077Y-95633194D01*
X145561917Y-95583555D01*
X145669769Y-95511490D01*
X145761490Y-95419769D01*
X145833555Y-95311917D01*
X145883194Y-95192077D01*
X145893255Y-95141500D01*
X145908500Y-95064859D01*
X145908500Y-94935140D01*
X145883195Y-94807928D01*
X145883193Y-94807921D01*
X145877494Y-94794163D01*
X145870024Y-94724694D01*
X145901298Y-94662214D01*
X145944596Y-94632150D01*
X146061917Y-94583555D01*
X146169769Y-94511490D01*
X146261490Y-94419769D01*
X146333555Y-94311917D01*
X146383194Y-94192077D01*
X146408500Y-94064857D01*
X146408500Y-93935143D01*
X146408500Y-93935140D01*
X146383195Y-93807928D01*
X146383194Y-93807927D01*
X146383194Y-93807923D01*
X146335211Y-93692081D01*
X146333557Y-93688087D01*
X146333556Y-93688085D01*
X146261490Y-93580231D01*
X146261487Y-93580227D01*
X146169772Y-93488512D01*
X146169768Y-93488509D01*
X146061914Y-93416443D01*
X146061912Y-93416442D01*
X145942081Y-93366807D01*
X145942071Y-93366804D01*
X145814859Y-93341500D01*
X145814857Y-93341500D01*
X145685143Y-93341500D01*
X145685141Y-93341500D01*
X145557928Y-93366804D01*
X145557918Y-93366807D01*
X145438087Y-93416442D01*
X145438085Y-93416443D01*
X145330231Y-93488509D01*
X145330227Y-93488512D01*
X145238512Y-93580227D01*
X145238509Y-93580231D01*
X145166443Y-93688085D01*
X145166442Y-93688087D01*
X145116807Y-93807918D01*
X145116804Y-93807928D01*
X145091500Y-93935140D01*
X145091500Y-93935143D01*
X145091500Y-94064857D01*
X145091500Y-94064859D01*
X145091499Y-94064859D01*
X145116804Y-94192071D01*
X145116807Y-94192081D01*
X145122506Y-94205839D01*
X145129975Y-94275309D01*
X145098699Y-94337788D01*
X145055397Y-94367852D01*
X144938087Y-94416442D01*
X144938085Y-94416443D01*
X144830231Y-94488509D01*
X144830227Y-94488512D01*
X144738512Y-94580227D01*
X144738509Y-94580231D01*
X144666443Y-94688085D01*
X144666442Y-94688087D01*
X144616807Y-94807918D01*
X144616804Y-94807928D01*
X144591500Y-94935140D01*
X144591500Y-94935143D01*
X144591500Y-95064857D01*
X144591500Y-95064859D01*
X144591499Y-95064859D01*
X143339897Y-95064859D01*
X143419769Y-95011490D01*
X143511490Y-94919769D01*
X143583555Y-94811917D01*
X143633194Y-94692077D01*
X143658500Y-94564857D01*
X143658500Y-94435143D01*
X143658500Y-94435140D01*
X143633195Y-94307928D01*
X143633193Y-94307921D01*
X143627494Y-94294163D01*
X143620024Y-94224694D01*
X143651298Y-94162214D01*
X143694596Y-94132150D01*
X143811917Y-94083555D01*
X143919769Y-94011490D01*
X144011490Y-93919769D01*
X144083555Y-93811917D01*
X144133194Y-93692077D01*
X144158500Y-93564857D01*
X144158500Y-93435143D01*
X144158500Y-93435140D01*
X144133195Y-93307928D01*
X144133194Y-93307927D01*
X144133194Y-93307923D01*
X144127177Y-93293396D01*
X144119708Y-93223927D01*
X144150983Y-93161448D01*
X144172843Y-93142845D01*
X144219769Y-93111490D01*
X144311490Y-93019769D01*
X144383555Y-92911917D01*
X144433194Y-92792077D01*
X144454465Y-92685143D01*
X144458500Y-92664859D01*
X144458500Y-92535140D01*
X144433195Y-92407928D01*
X144433194Y-92407927D01*
X144433194Y-92407923D01*
X144401013Y-92330231D01*
X144383557Y-92288087D01*
X144383556Y-92288086D01*
X144383555Y-92288083D01*
X144329025Y-92206474D01*
X144308148Y-92139799D01*
X144326632Y-92072419D01*
X144329014Y-92068712D01*
X144333555Y-92061917D01*
X144383194Y-91942077D01*
X144408500Y-91814857D01*
X144408500Y-91685143D01*
X144408500Y-91685140D01*
X144383195Y-91557928D01*
X144383194Y-91557927D01*
X144383194Y-91557923D01*
X144333555Y-91438083D01*
X144261490Y-91330231D01*
X144261489Y-91330229D01*
X144260207Y-91328667D01*
X144259791Y-91327688D01*
X144258106Y-91325166D01*
X144258584Y-91324846D01*
X144232892Y-91264358D01*
X144244682Y-91195490D01*
X144260207Y-91171333D01*
X144261489Y-91169770D01*
X144261490Y-91169769D01*
X144333555Y-91061917D01*
X144383194Y-90942077D01*
X144408500Y-90814859D01*
X145591499Y-90814859D01*
X145616804Y-90942071D01*
X145616807Y-90942081D01*
X145666442Y-91061912D01*
X145666443Y-91061914D01*
X145738511Y-91169771D01*
X145739800Y-91171342D01*
X145740217Y-91172324D01*
X145741894Y-91174834D01*
X145741417Y-91175152D01*
X145767108Y-91235654D01*
X145755312Y-91304521D01*
X145739800Y-91328658D01*
X145738511Y-91330228D01*
X145666443Y-91438085D01*
X145666442Y-91438087D01*
X145616807Y-91557918D01*
X145616804Y-91557928D01*
X145591500Y-91685140D01*
X145591500Y-91685143D01*
X145591500Y-91814857D01*
X145591500Y-91814859D01*
X145591499Y-91814859D01*
X145616804Y-91942071D01*
X145616807Y-91942081D01*
X145666442Y-92061912D01*
X145666443Y-92061914D01*
X145738509Y-92169768D01*
X145738512Y-92169772D01*
X145830227Y-92261487D01*
X145830231Y-92261490D01*
X145938083Y-92333555D01*
X146055399Y-92382148D01*
X146109800Y-92425987D01*
X146131866Y-92492281D01*
X146122507Y-92544158D01*
X146116807Y-92557918D01*
X146116804Y-92557928D01*
X146091500Y-92685140D01*
X146091500Y-92685143D01*
X146091500Y-92814857D01*
X146091500Y-92814859D01*
X146091499Y-92814859D01*
X146116804Y-92942071D01*
X146116807Y-92942081D01*
X146166442Y-93061912D01*
X146166443Y-93061914D01*
X146238509Y-93169768D01*
X146238512Y-93169772D01*
X146330227Y-93261487D01*
X146330231Y-93261490D01*
X146438083Y-93333555D01*
X146438084Y-93333555D01*
X146438085Y-93333556D01*
X146438087Y-93333557D01*
X146518361Y-93366807D01*
X146557923Y-93383194D01*
X146557927Y-93383194D01*
X146557928Y-93383195D01*
X146685140Y-93408500D01*
X146685143Y-93408500D01*
X146814859Y-93408500D01*
X146900444Y-93391475D01*
X146942077Y-93383194D01*
X147061917Y-93333555D01*
X147169769Y-93261490D01*
X147261490Y-93169769D01*
X147333555Y-93061917D01*
X147383194Y-92942077D01*
X147391475Y-92900444D01*
X147408500Y-92814859D01*
X147408500Y-92685140D01*
X147383195Y-92557928D01*
X147383194Y-92557927D01*
X147383194Y-92557923D01*
X147373757Y-92535140D01*
X147333557Y-92438087D01*
X147333556Y-92438085D01*
X147325472Y-92425987D01*
X147261490Y-92330231D01*
X147261487Y-92330227D01*
X147169772Y-92238512D01*
X147169768Y-92238509D01*
X147061914Y-92166443D01*
X147061912Y-92166442D01*
X146944602Y-92117852D01*
X146890198Y-92074012D01*
X146868133Y-92007718D01*
X146877494Y-91955837D01*
X146883194Y-91942077D01*
X146908500Y-91814857D01*
X146908500Y-91685143D01*
X146908500Y-91685140D01*
X146883195Y-91557928D01*
X146883194Y-91557927D01*
X146883194Y-91557923D01*
X146833555Y-91438083D01*
X146761490Y-91330231D01*
X146761489Y-91330229D01*
X146760207Y-91328667D01*
X146759791Y-91327688D01*
X146758106Y-91325166D01*
X146758584Y-91324846D01*
X146732892Y-91264358D01*
X146744682Y-91195490D01*
X146760207Y-91171333D01*
X146761489Y-91169770D01*
X146761490Y-91169769D01*
X146833555Y-91061917D01*
X146883194Y-90942077D01*
X146908500Y-90814857D01*
X146908500Y-90685143D01*
X146908500Y-90685140D01*
X146883195Y-90557928D01*
X146883193Y-90557921D01*
X146877494Y-90544163D01*
X146870024Y-90474694D01*
X146901298Y-90412214D01*
X146944596Y-90382150D01*
X147061917Y-90333555D01*
X147169769Y-90261490D01*
X147261490Y-90169769D01*
X147333555Y-90061917D01*
X147383194Y-89942077D01*
X147408500Y-89814857D01*
X147408500Y-89685143D01*
X147408500Y-89685140D01*
X147383195Y-89557928D01*
X147383194Y-89557927D01*
X147383194Y-89557923D01*
X147333555Y-89438083D01*
X147261490Y-89330231D01*
X147261487Y-89330227D01*
X147169772Y-89238512D01*
X147169768Y-89238509D01*
X147061914Y-89166443D01*
X147061912Y-89166442D01*
X146942081Y-89116807D01*
X146942071Y-89116804D01*
X146814859Y-89091500D01*
X146814857Y-89091500D01*
X146685143Y-89091500D01*
X146685141Y-89091500D01*
X146557928Y-89116804D01*
X146557918Y-89116807D01*
X146438087Y-89166442D01*
X146438085Y-89166443D01*
X146330231Y-89238509D01*
X146330227Y-89238512D01*
X146238512Y-89330227D01*
X146238509Y-89330231D01*
X146166443Y-89438085D01*
X146166442Y-89438087D01*
X146116807Y-89557918D01*
X146116804Y-89557928D01*
X146091500Y-89685140D01*
X146091500Y-89685143D01*
X146091500Y-89814857D01*
X146091500Y-89814859D01*
X146091499Y-89814859D01*
X146116804Y-89942071D01*
X146116807Y-89942081D01*
X146122506Y-89955839D01*
X146129975Y-90025309D01*
X146098699Y-90087788D01*
X146055397Y-90117852D01*
X145938087Y-90166442D01*
X145938085Y-90166443D01*
X145830231Y-90238509D01*
X145830227Y-90238512D01*
X145738512Y-90330227D01*
X145738509Y-90330231D01*
X145666443Y-90438085D01*
X145666442Y-90438087D01*
X145616807Y-90557918D01*
X145616804Y-90557928D01*
X145591500Y-90685140D01*
X145591500Y-90685143D01*
X145591500Y-90814857D01*
X145591500Y-90814859D01*
X145591499Y-90814859D01*
X144408500Y-90814859D01*
X144408500Y-90814857D01*
X144408500Y-90685143D01*
X144408500Y-90685140D01*
X144383195Y-90557928D01*
X144383194Y-90557927D01*
X144383194Y-90557923D01*
X144383192Y-90557918D01*
X144333557Y-90438087D01*
X144333556Y-90438085D01*
X144316269Y-90412214D01*
X144261490Y-90330231D01*
X144261487Y-90330227D01*
X144233058Y-90301798D01*
X144199573Y-90240475D01*
X144204557Y-90170783D01*
X144246429Y-90114850D01*
X144273284Y-90099556D01*
X144311917Y-90083555D01*
X144419769Y-90011490D01*
X144511490Y-89919769D01*
X144583555Y-89811917D01*
X144633194Y-89692077D01*
X144658500Y-89564857D01*
X144658500Y-89435143D01*
X144658500Y-89435140D01*
X144633195Y-89307928D01*
X144633194Y-89307927D01*
X144633194Y-89307923D01*
X144604443Y-89238512D01*
X144583557Y-89188087D01*
X144583556Y-89188085D01*
X144535929Y-89116807D01*
X144511490Y-89080231D01*
X144511487Y-89080227D01*
X144419772Y-88988512D01*
X144419768Y-88988509D01*
X144311914Y-88916443D01*
X144311912Y-88916442D01*
X144186657Y-88864561D01*
X144132253Y-88820721D01*
X144110188Y-88754427D01*
X144127467Y-88686727D01*
X144178604Y-88639116D01*
X144186656Y-88635439D01*
X144192074Y-88633194D01*
X144192077Y-88633194D01*
X144311094Y-88583895D01*
X144380562Y-88576427D01*
X144443041Y-88607702D01*
X144461647Y-88629566D01*
X144488509Y-88669769D01*
X144580227Y-88761487D01*
X144580231Y-88761490D01*
X144688083Y-88833555D01*
X144688084Y-88833555D01*
X144688085Y-88833556D01*
X144688087Y-88833557D01*
X144807918Y-88883192D01*
X144807923Y-88883194D01*
X144807927Y-88883194D01*
X144807928Y-88883195D01*
X144935140Y-88908500D01*
X144935143Y-88908500D01*
X145064859Y-88908500D01*
X145150444Y-88891475D01*
X145192077Y-88883194D01*
X145311917Y-88833555D01*
X145419769Y-88761490D01*
X145511490Y-88669769D01*
X145538352Y-88629566D01*
X145591962Y-88584762D01*
X145661287Y-88576053D01*
X145688904Y-88583895D01*
X145807923Y-88633194D01*
X145807927Y-88633194D01*
X145807928Y-88633195D01*
X145935140Y-88658500D01*
X145935143Y-88658500D01*
X146064859Y-88658500D01*
X146150444Y-88641475D01*
X146192077Y-88633194D01*
X146311917Y-88583555D01*
X146419769Y-88511490D01*
X146511490Y-88419769D01*
X146583555Y-88311917D01*
X146633194Y-88192077D01*
X146658500Y-88064857D01*
X146658500Y-87935143D01*
X146658500Y-87935140D01*
X146633195Y-87807928D01*
X146633194Y-87807927D01*
X146633194Y-87807923D01*
X146583555Y-87688083D01*
X146511490Y-87580231D01*
X146511487Y-87580227D01*
X146419772Y-87488512D01*
X146419768Y-87488509D01*
X146311914Y-87416443D01*
X146311912Y-87416442D01*
X146192081Y-87366807D01*
X146192071Y-87366804D01*
X146064859Y-87341500D01*
X146064857Y-87341500D01*
X145935143Y-87341500D01*
X145935141Y-87341500D01*
X145807928Y-87366804D01*
X145807918Y-87366807D01*
X145688087Y-87416442D01*
X145688085Y-87416443D01*
X145580231Y-87488509D01*
X145580227Y-87488512D01*
X145488512Y-87580227D01*
X145461647Y-87620434D01*
X145408034Y-87665238D01*
X145338709Y-87673945D01*
X145311093Y-87666103D01*
X145192081Y-87616807D01*
X145192071Y-87616804D01*
X145064859Y-87591500D01*
X145064857Y-87591500D01*
X144935143Y-87591500D01*
X144935141Y-87591500D01*
X144807928Y-87616804D01*
X144807918Y-87616807D01*
X144688906Y-87666103D01*
X144619436Y-87673572D01*
X144556957Y-87642296D01*
X144538353Y-87620434D01*
X144511490Y-87580231D01*
X144511488Y-87580228D01*
X144419772Y-87488512D01*
X144419768Y-87488509D01*
X144311914Y-87416443D01*
X144311912Y-87416442D01*
X144192081Y-87366807D01*
X144192071Y-87366804D01*
X144064859Y-87341500D01*
X144064857Y-87341500D01*
X143935143Y-87341500D01*
X143935141Y-87341500D01*
X143807928Y-87366804D01*
X143807918Y-87366807D01*
X143688087Y-87416442D01*
X143688085Y-87416443D01*
X143580231Y-87488509D01*
X143580227Y-87488512D01*
X143488512Y-87580227D01*
X143488509Y-87580231D01*
X143416443Y-87688085D01*
X143416442Y-87688087D01*
X143366807Y-87807918D01*
X143366804Y-87807928D01*
X143341500Y-87935140D01*
X143341500Y-87935143D01*
X143341500Y-88064857D01*
X143341500Y-88064859D01*
X143341499Y-88064859D01*
X143366804Y-88192071D01*
X143366807Y-88192081D01*
X143416442Y-88311912D01*
X143416443Y-88311914D01*
X143488509Y-88419768D01*
X143488512Y-88419772D01*
X143580227Y-88511487D01*
X143580231Y-88511490D01*
X143688083Y-88583555D01*
X143688084Y-88583555D01*
X143688085Y-88583556D01*
X143688087Y-88583557D01*
X143813342Y-88635439D01*
X143867746Y-88679280D01*
X143889811Y-88745574D01*
X143872532Y-88813273D01*
X143821395Y-88860884D01*
X143813342Y-88864561D01*
X143688087Y-88916442D01*
X143688085Y-88916443D01*
X143580231Y-88988509D01*
X143580227Y-88988512D01*
X143488512Y-89080227D01*
X143488509Y-89080231D01*
X143416443Y-89188085D01*
X143416442Y-89188087D01*
X143366807Y-89307918D01*
X143366804Y-89307928D01*
X143341500Y-89435140D01*
X143341500Y-89435143D01*
X143341500Y-89564857D01*
X143341500Y-89564859D01*
X143341499Y-89564859D01*
X143366804Y-89692071D01*
X143366807Y-89692081D01*
X143416442Y-89811912D01*
X143416443Y-89811914D01*
X143488509Y-89919768D01*
X143488512Y-89919772D01*
X143516941Y-89948201D01*
X143550426Y-90009524D01*
X143545442Y-90079216D01*
X143503570Y-90135149D01*
X143476714Y-90150442D01*
X143438089Y-90166441D01*
X143438085Y-90166443D01*
X143330231Y-90238509D01*
X143330227Y-90238512D01*
X143238512Y-90330227D01*
X143238509Y-90330231D01*
X143166443Y-90438085D01*
X143166442Y-90438087D01*
X143116807Y-90557918D01*
X143116804Y-90557928D01*
X143091500Y-90685140D01*
X143091500Y-90685143D01*
X143091500Y-90814857D01*
X143091500Y-90814859D01*
X143091499Y-90814859D01*
X143116804Y-90942071D01*
X143116807Y-90942081D01*
X143166442Y-91061912D01*
X143166443Y-91061914D01*
X143238511Y-91169771D01*
X143239800Y-91171342D01*
X143240217Y-91172324D01*
X143241894Y-91174834D01*
X143241417Y-91175152D01*
X143267108Y-91235654D01*
X143255312Y-91304521D01*
X143239800Y-91328658D01*
X143238511Y-91330228D01*
X143166443Y-91438085D01*
X143166442Y-91438087D01*
X143116807Y-91557918D01*
X143116804Y-91557928D01*
X143091500Y-91685140D01*
X143091500Y-91685143D01*
X143091500Y-91814857D01*
X143091500Y-91814859D01*
X143091499Y-91814859D01*
X143116804Y-91942071D01*
X143116807Y-91942081D01*
X143166442Y-92061912D01*
X143166443Y-92061913D01*
X143166445Y-92061917D01*
X143174527Y-92074012D01*
X143220973Y-92143523D01*
X143241851Y-92210200D01*
X143223367Y-92277581D01*
X143220974Y-92281303D01*
X143216450Y-92288073D01*
X143216441Y-92288089D01*
X143166807Y-92407918D01*
X143166804Y-92407928D01*
X143141500Y-92535140D01*
X143141500Y-92535143D01*
X143141500Y-92664857D01*
X143141500Y-92664859D01*
X143141499Y-92664859D01*
X143166804Y-92792070D01*
X143166806Y-92792078D01*
X143172823Y-92806603D01*
X143180292Y-92876072D01*
X143149017Y-92938551D01*
X143127153Y-92957157D01*
X143080231Y-92988509D01*
X143080227Y-92988512D01*
X142988512Y-93080227D01*
X142988509Y-93080231D01*
X142916443Y-93188085D01*
X142916442Y-93188087D01*
X142866807Y-93307918D01*
X142866804Y-93307928D01*
X142841500Y-93435140D01*
X142841500Y-93435143D01*
X142841500Y-93564857D01*
X142841500Y-93564859D01*
X142841499Y-93564859D01*
X142866804Y-93692071D01*
X142866807Y-93692081D01*
X142872506Y-93705839D01*
X142879975Y-93775309D01*
X142848699Y-93837788D01*
X142805397Y-93867852D01*
X142688087Y-93916442D01*
X142688085Y-93916443D01*
X142580231Y-93988509D01*
X142580227Y-93988512D01*
X142488512Y-94080227D01*
X142488509Y-94080231D01*
X142416443Y-94188085D01*
X142416442Y-94188087D01*
X142366807Y-94307918D01*
X142366804Y-94307928D01*
X142341500Y-94435140D01*
X142341500Y-94435143D01*
X142341500Y-94564857D01*
X142341500Y-94564859D01*
X142341499Y-94564859D01*
X142366804Y-94692071D01*
X142366807Y-94692081D01*
X142416442Y-94811912D01*
X142416443Y-94811914D01*
X142488509Y-94919768D01*
X142488512Y-94919772D01*
X142517149Y-94948409D01*
X142550634Y-95009732D01*
X142545650Y-95079424D01*
X142503778Y-95135357D01*
X142453662Y-95157707D01*
X142407925Y-95166805D01*
X142407918Y-95166807D01*
X142288087Y-95216442D01*
X142288085Y-95216443D01*
X142180231Y-95288509D01*
X142180227Y-95288512D01*
X142088512Y-95380227D01*
X142088509Y-95380231D01*
X142016443Y-95488085D01*
X142016442Y-95488087D01*
X142000000Y-95527782D01*
X142000000Y-76984482D01*
X143500000Y-76984482D01*
X143500500Y-77039287D01*
X143508498Y-77148568D01*
X143508500Y-77148582D01*
X143508501Y-77148594D01*
X143522179Y-77241537D01*
X143524459Y-77257029D01*
X143524462Y-77257044D01*
X143548286Y-77363996D01*
X143548292Y-77364018D01*
X143579859Y-77468939D01*
X143579871Y-77468976D01*
X143619020Y-77571337D01*
X143665536Y-77670563D01*
X143665537Y-77670565D01*
X143719184Y-77766155D01*
X143779662Y-77857568D01*
X143846638Y-77944304D01*
X143846643Y-77944310D01*
X143846645Y-77944312D01*
X143919784Y-78025941D01*
X143998688Y-78102013D01*
X144082934Y-78172123D01*
X144082938Y-78172126D01*
X144172063Y-78235890D01*
X144172067Y-78235892D01*
X144172072Y-78235896D01*
X144265628Y-78292993D01*
X144363103Y-78343108D01*
X144463975Y-78385974D01*
X144567707Y-78421362D01*
X144673746Y-78449084D01*
X144724854Y-78458524D01*
X144781507Y-78468989D01*
X144781510Y-78468989D01*
X144781525Y-78468992D01*
X144890470Y-78480980D01*
X144890487Y-78480980D01*
X144890493Y-78480981D01*
X144999992Y-78484983D01*
X145000000Y-78484983D01*
X145000008Y-78484983D01*
X145109506Y-78480981D01*
X145109510Y-78480980D01*
X145109530Y-78480980D01*
X145218475Y-78468992D01*
X145218490Y-78468989D01*
X145218492Y-78468989D01*
X145242926Y-78464475D01*
X145326254Y-78449084D01*
X145432293Y-78421362D01*
X145536025Y-78385974D01*
X145636897Y-78343108D01*
X145734372Y-78292993D01*
X145827928Y-78235896D01*
X145917066Y-78172123D01*
X146001312Y-78102013D01*
X146080216Y-78025941D01*
X146153355Y-77944312D01*
X146220342Y-77857562D01*
X146280817Y-77766153D01*
X146334458Y-77670574D01*
X146380980Y-77571335D01*
X146420133Y-77468964D01*
X146451710Y-77364009D01*
X146475541Y-77257028D01*
X146491499Y-77148594D01*
X146499499Y-77039283D01*
X146499499Y-76929681D01*
X146499499Y-76929676D01*
X146499498Y-76929660D01*
X146491501Y-76820395D01*
X146491500Y-76820392D01*
X146491499Y-76820370D01*
X146475541Y-76711936D01*
X146451710Y-76604955D01*
X146420133Y-76500000D01*
X146380980Y-76397629D01*
X146334458Y-76298390D01*
X146280817Y-76202811D01*
X146220342Y-76111402D01*
X146220337Y-76111395D01*
X146153361Y-76024659D01*
X146153355Y-76024652D01*
X146080216Y-75943023D01*
X146001312Y-75866951D01*
X145917066Y-75796841D01*
X145917064Y-75796840D01*
X145917061Y-75796837D01*
X145827936Y-75733073D01*
X145827928Y-75733068D01*
X145734372Y-75675971D01*
X145636897Y-75625856D01*
X145636888Y-75625852D01*
X145536031Y-75582992D01*
X145432290Y-75547601D01*
X145326246Y-75519878D01*
X145218492Y-75499974D01*
X145218482Y-75499973D01*
X145218478Y-75499972D01*
X145218475Y-75499972D01*
X145181118Y-75495861D01*
X145109534Y-75487984D01*
X145109510Y-75487982D01*
X145000010Y-75483982D01*
X144999990Y-75483982D01*
X144890489Y-75487982D01*
X144890465Y-75487984D01*
X144800984Y-75497830D01*
X144781525Y-75499972D01*
X144781523Y-75499972D01*
X144781517Y-75499973D01*
X144781507Y-75499974D01*
X144673753Y-75519878D01*
X144567709Y-75547601D01*
X144463968Y-75582992D01*
X144363111Y-75625852D01*
X144363105Y-75625855D01*
X144265641Y-75675964D01*
X144265637Y-75675966D01*
X144265628Y-75675971D01*
X144204381Y-75713349D01*
X144172063Y-75733073D01*
X144082938Y-75796837D01*
X144040811Y-75831896D01*
X143998688Y-75866951D01*
X143919784Y-75943023D01*
X143886027Y-75980697D01*
X143846638Y-76024659D01*
X143779662Y-76111395D01*
X143719184Y-76202808D01*
X143665537Y-76298398D01*
X143665536Y-76298400D01*
X143619020Y-76397626D01*
X143579871Y-76499987D01*
X143579859Y-76500024D01*
X143548292Y-76604945D01*
X143548286Y-76604967D01*
X143524462Y-76711919D01*
X143524459Y-76711934D01*
X143524459Y-76711936D01*
X143508501Y-76820370D01*
X143508501Y-76820375D01*
X143508498Y-76820395D01*
X143500500Y-76929676D01*
X143500000Y-76984482D01*
X142000000Y-76984482D01*
X142000000Y-75000000D01*
X148000000Y-75000000D01*
X148000000Y-96640797D01*
G37*
%TD.AperFunction*%
%TA.AperFunction,Conductor*%
G36*
X142016442Y-96111912D02*
G01*
X142016443Y-96111914D01*
X142088509Y-96219768D01*
X142088512Y-96219772D01*
X142181059Y-96312319D01*
X142214544Y-96373642D01*
X142209560Y-96443334D01*
X142181059Y-96487681D01*
X142088512Y-96580227D01*
X142088509Y-96580231D01*
X142016443Y-96688085D01*
X142016442Y-96688087D01*
X142000000Y-96727782D01*
X142000000Y-96072216D01*
X142016442Y-96111912D01*
G37*
%TD.AperFunction*%
%TD*%
%TA.AperFunction,Conductor*%
%TO.N,VCC*%
G36*
X123565078Y-109013516D02*
G01*
X123577550Y-109019871D01*
X123577552Y-109019871D01*
X123577555Y-109019873D01*
X123742299Y-109073402D01*
X123913389Y-109100500D01*
X123913390Y-109100500D01*
X124086610Y-109100500D01*
X124086611Y-109100500D01*
X124257701Y-109073402D01*
X124422445Y-109019873D01*
X124422814Y-109019685D01*
X124434922Y-109013516D01*
X124491218Y-109000000D01*
X132231801Y-109000000D01*
X132278867Y-109012618D01*
X132280005Y-109009873D01*
X132287513Y-109012983D01*
X132287515Y-109012984D01*
X132427525Y-109050500D01*
X132427528Y-109050500D01*
X132572472Y-109050500D01*
X132572475Y-109050500D01*
X132712485Y-109012984D01*
X132712488Y-109012981D01*
X132719995Y-109009873D01*
X132721132Y-109012618D01*
X132768199Y-109000000D01*
X135548638Y-109000000D01*
X135615677Y-109019685D01*
X135636319Y-109036319D01*
X135837819Y-109237819D01*
X135871304Y-109299142D01*
X135866320Y-109368834D01*
X135824448Y-109424767D01*
X135758984Y-109449184D01*
X135750138Y-109449500D01*
X135677525Y-109449500D01*
X135548993Y-109483940D01*
X135537511Y-109487017D01*
X135411988Y-109559488D01*
X135411982Y-109559493D01*
X135309493Y-109661982D01*
X135309488Y-109661988D01*
X135237017Y-109787511D01*
X135237016Y-109787515D01*
X135199500Y-109927525D01*
X135199500Y-110072475D01*
X135237016Y-110212485D01*
X135237017Y-110212488D01*
X135309488Y-110338011D01*
X135309490Y-110338013D01*
X135309491Y-110338015D01*
X135411985Y-110440509D01*
X135411986Y-110440510D01*
X135411988Y-110440511D01*
X135537511Y-110512982D01*
X135537512Y-110512982D01*
X135537515Y-110512984D01*
X135677525Y-110550500D01*
X135677528Y-110550500D01*
X135822472Y-110550500D01*
X135822475Y-110550500D01*
X135962485Y-110512984D01*
X136088015Y-110440509D01*
X136190509Y-110338015D01*
X136262984Y-110212485D01*
X136300500Y-110072475D01*
X136300500Y-109999862D01*
X136320185Y-109932823D01*
X136372989Y-109887068D01*
X136442147Y-109877124D01*
X136505703Y-109906149D01*
X136512181Y-109912181D01*
X137963681Y-111363681D01*
X137997166Y-111425004D01*
X138000000Y-111451362D01*
X138000000Y-114250000D01*
X139876000Y-114250000D01*
X139943039Y-114269685D01*
X139988794Y-114322489D01*
X140000000Y-114374000D01*
X140000000Y-114651997D01*
X139980315Y-114719036D01*
X139927511Y-114764791D01*
X139858353Y-114774735D01*
X139801689Y-114751263D01*
X139742093Y-114706649D01*
X139742086Y-114706645D01*
X139607379Y-114656403D01*
X139607372Y-114656401D01*
X139547844Y-114650000D01*
X138900000Y-114650000D01*
X138900000Y-115566988D01*
X138842993Y-115534075D01*
X138715826Y-115500000D01*
X138584174Y-115500000D01*
X138457007Y-115534075D01*
X138400000Y-115566988D01*
X138400000Y-114650000D01*
X137752155Y-114650000D01*
X137692627Y-114656401D01*
X137692620Y-114656403D01*
X137557913Y-114706645D01*
X137557906Y-114706649D01*
X137442812Y-114792809D01*
X137442809Y-114792812D01*
X137356649Y-114907906D01*
X137356645Y-114907913D01*
X137306403Y-115042620D01*
X137306401Y-115042627D01*
X137300000Y-115102155D01*
X137300000Y-115750000D01*
X138216988Y-115750000D01*
X138184075Y-115807007D01*
X138150000Y-115934174D01*
X138150000Y-116065826D01*
X138184075Y-116192993D01*
X138216988Y-116250000D01*
X137300000Y-116250000D01*
X137300000Y-116897844D01*
X137306401Y-116957372D01*
X137306403Y-116957379D01*
X137356645Y-117092086D01*
X137356649Y-117092093D01*
X137442809Y-117207187D01*
X137442812Y-117207190D01*
X137557906Y-117293350D01*
X137557913Y-117293354D01*
X137692620Y-117343596D01*
X137692627Y-117343598D01*
X137752155Y-117349999D01*
X137752172Y-117350000D01*
X138400000Y-117350000D01*
X138400000Y-116433012D01*
X138457007Y-116465925D01*
X138584174Y-116500000D01*
X138715826Y-116500000D01*
X138842993Y-116465925D01*
X138900000Y-116433012D01*
X138900000Y-117350000D01*
X139547828Y-117350000D01*
X139547844Y-117349999D01*
X139607372Y-117343598D01*
X139607379Y-117343596D01*
X139742086Y-117293354D01*
X139742089Y-117293352D01*
X139801688Y-117248736D01*
X139867152Y-117224318D01*
X139935425Y-117239169D01*
X139984831Y-117288573D01*
X140000000Y-117348002D01*
X140000000Y-119675500D01*
X139980315Y-119742539D01*
X139927511Y-119788294D01*
X139876000Y-119799500D01*
X124003052Y-119799500D01*
X123996967Y-119799351D01*
X123633664Y-119781502D01*
X123621555Y-119780309D01*
X123264782Y-119727388D01*
X123252846Y-119725014D01*
X122902964Y-119637373D01*
X122891323Y-119633841D01*
X122551734Y-119512334D01*
X122540495Y-119507679D01*
X122214429Y-119353462D01*
X122203702Y-119347727D01*
X121894340Y-119162303D01*
X121884222Y-119155543D01*
X121594511Y-118940678D01*
X121585105Y-118932958D01*
X121482160Y-118839654D01*
X121317853Y-118690735D01*
X121309264Y-118682146D01*
X121067041Y-118414894D01*
X121059321Y-118405488D01*
X120844456Y-118115777D01*
X120837696Y-118105659D01*
X120782149Y-118012984D01*
X120652267Y-117796290D01*
X120646543Y-117785582D01*
X120492317Y-117459497D01*
X120487669Y-117448275D01*
X120366154Y-117108663D01*
X120362629Y-117097046D01*
X120274982Y-116747140D01*
X120272613Y-116735230D01*
X120219689Y-116378440D01*
X120218497Y-116366334D01*
X120215582Y-116307007D01*
X120200649Y-116003031D01*
X120200500Y-115996947D01*
X120200500Y-115834296D01*
X121049500Y-115834296D01*
X121049500Y-116165703D01*
X121086601Y-116494991D01*
X121086604Y-116495005D01*
X121160346Y-116818093D01*
X121160349Y-116818101D01*
X121269799Y-117130890D01*
X121413582Y-117429458D01*
X121413584Y-117429461D01*
X121589896Y-117710060D01*
X121796516Y-117969153D01*
X122030847Y-118203484D01*
X122289940Y-118410104D01*
X122570539Y-118586416D01*
X122869113Y-118730202D01*
X123104037Y-118812405D01*
X123181898Y-118839650D01*
X123181906Y-118839653D01*
X123181909Y-118839653D01*
X123181910Y-118839654D01*
X123504994Y-118913396D01*
X123505003Y-118913397D01*
X123505008Y-118913398D01*
X123714957Y-118937053D01*
X123834297Y-118950499D01*
X123834300Y-118950500D01*
X123834303Y-118950500D01*
X124165700Y-118950500D01*
X124165701Y-118950499D01*
X124333996Y-118931537D01*
X124494991Y-118913398D01*
X124494994Y-118913397D01*
X124495006Y-118913396D01*
X124818090Y-118839654D01*
X125130887Y-118730202D01*
X125429461Y-118586416D01*
X125710060Y-118410104D01*
X125969153Y-118203484D01*
X126203484Y-117969153D01*
X126410104Y-117710060D01*
X126586416Y-117429461D01*
X126587348Y-117427525D01*
X131199500Y-117427525D01*
X131199500Y-117572475D01*
X131233264Y-117698483D01*
X131237017Y-117712488D01*
X131309488Y-117838011D01*
X131309490Y-117838013D01*
X131309491Y-117838015D01*
X131411985Y-117940509D01*
X131411986Y-117940510D01*
X131411988Y-117940511D01*
X131537511Y-118012982D01*
X131537512Y-118012982D01*
X131537515Y-118012984D01*
X131677525Y-118050500D01*
X131677528Y-118050500D01*
X131822472Y-118050500D01*
X131822475Y-118050500D01*
X131962485Y-118012984D01*
X132088015Y-117940509D01*
X132190509Y-117838015D01*
X132262984Y-117712485D01*
X132300500Y-117572475D01*
X132300500Y-117427525D01*
X132262984Y-117287515D01*
X132235071Y-117239169D01*
X132190511Y-117161988D01*
X132190506Y-117161982D01*
X132088017Y-117059493D01*
X132088011Y-117059488D01*
X131962488Y-116987017D01*
X131962489Y-116987017D01*
X131951006Y-116983940D01*
X131822475Y-116949500D01*
X131677525Y-116949500D01*
X131548993Y-116983940D01*
X131537511Y-116987017D01*
X131411988Y-117059488D01*
X131411982Y-117059493D01*
X131309493Y-117161982D01*
X131309488Y-117161988D01*
X131237017Y-117287511D01*
X131235452Y-117293350D01*
X131199500Y-117427525D01*
X126587348Y-117427525D01*
X126624683Y-117350000D01*
X126693456Y-117207190D01*
X126730202Y-117130887D01*
X126839654Y-116818090D01*
X126913396Y-116495006D01*
X126924090Y-116400099D01*
X126948353Y-116184755D01*
X126948353Y-116184753D01*
X126950500Y-116165699D01*
X126950500Y-115834300D01*
X126950499Y-115834296D01*
X126913398Y-115505008D01*
X126913397Y-115505003D01*
X126913396Y-115504994D01*
X126839654Y-115181910D01*
X126839650Y-115181898D01*
X126824922Y-115139806D01*
X126769047Y-114980127D01*
X126730202Y-114869113D01*
X126586416Y-114570539D01*
X126410104Y-114289940D01*
X126203484Y-114030847D01*
X125969153Y-113796516D01*
X125710060Y-113589896D01*
X125429461Y-113413584D01*
X125429458Y-113413582D01*
X125130890Y-113269799D01*
X124818101Y-113160349D01*
X124818093Y-113160346D01*
X124575777Y-113105039D01*
X124495006Y-113086604D01*
X124495003Y-113086603D01*
X124494991Y-113086601D01*
X124165703Y-113049500D01*
X124165697Y-113049500D01*
X123834303Y-113049500D01*
X123834296Y-113049500D01*
X123505008Y-113086601D01*
X123504994Y-113086604D01*
X123181906Y-113160346D01*
X123181898Y-113160349D01*
X122869109Y-113269799D01*
X122570541Y-113413582D01*
X122289941Y-113589895D01*
X122030847Y-113796515D01*
X121796515Y-114030847D01*
X121589895Y-114289941D01*
X121413582Y-114570541D01*
X121269799Y-114869109D01*
X121160349Y-115181898D01*
X121160346Y-115181906D01*
X121086604Y-115504994D01*
X121086601Y-115505008D01*
X121049500Y-115834296D01*
X120200500Y-115834296D01*
X120200500Y-109927525D01*
X128449500Y-109927525D01*
X128449500Y-110072475D01*
X128487016Y-110212485D01*
X128487017Y-110212488D01*
X128559488Y-110338011D01*
X128559490Y-110338013D01*
X128559491Y-110338015D01*
X128661985Y-110440509D01*
X128661986Y-110440510D01*
X128661988Y-110440511D01*
X128787511Y-110512982D01*
X128787512Y-110512982D01*
X128787515Y-110512984D01*
X128927525Y-110550500D01*
X128927528Y-110550500D01*
X129072472Y-110550500D01*
X129072475Y-110550500D01*
X129212485Y-110512984D01*
X129338015Y-110440509D01*
X129440509Y-110338015D01*
X129512984Y-110212485D01*
X129550500Y-110072475D01*
X129550500Y-109927525D01*
X129512984Y-109787515D01*
X129440509Y-109661985D01*
X129338015Y-109559491D01*
X129338013Y-109559490D01*
X129338011Y-109559488D01*
X129212488Y-109487017D01*
X129212489Y-109487017D01*
X129201006Y-109483940D01*
X129072475Y-109449500D01*
X128927525Y-109449500D01*
X128798993Y-109483940D01*
X128787511Y-109487017D01*
X128661988Y-109559488D01*
X128661982Y-109559493D01*
X128559493Y-109661982D01*
X128559488Y-109661988D01*
X128487017Y-109787511D01*
X128487016Y-109787515D01*
X128449500Y-109927525D01*
X120200500Y-109927525D01*
X120200500Y-109124000D01*
X120220185Y-109056961D01*
X120272989Y-109011206D01*
X120324500Y-109000000D01*
X123508782Y-109000000D01*
X123565078Y-109013516D01*
G37*
%TD.AperFunction*%
%TD*%
%TA.AperFunction,Conductor*%
%TO.N,GND*%
G36*
X165998438Y-50200537D02*
G01*
X166001392Y-50200608D01*
X166001482Y-50200611D01*
X166004511Y-50200721D01*
X166067797Y-50203830D01*
X166363333Y-50218349D01*
X166369347Y-50218793D01*
X166375437Y-50219393D01*
X166381415Y-50220130D01*
X166732248Y-50272170D01*
X166738196Y-50273202D01*
X166744168Y-50274390D01*
X166750063Y-50275714D01*
X167094107Y-50361892D01*
X167099956Y-50363512D01*
X167105773Y-50365277D01*
X167111513Y-50367173D01*
X167445416Y-50486646D01*
X167451052Y-50488819D01*
X167456699Y-50491158D01*
X167462228Y-50493608D01*
X167782838Y-50645245D01*
X167788242Y-50647964D01*
X167793642Y-50650851D01*
X167798875Y-50653816D01*
X167984308Y-50764961D01*
X168103053Y-50836134D01*
X168108171Y-50839374D01*
X168113249Y-50842767D01*
X168118212Y-50846262D01*
X168403044Y-51057509D01*
X168407842Y-51061254D01*
X168412543Y-51065112D01*
X168417151Y-51069087D01*
X168679893Y-51307222D01*
X168684301Y-51311419D01*
X168688579Y-51315697D01*
X168692776Y-51320105D01*
X168894324Y-51542479D01*
X168930911Y-51582847D01*
X168934886Y-51587455D01*
X168938744Y-51592156D01*
X168942489Y-51596954D01*
X169153736Y-51881786D01*
X169157236Y-51886757D01*
X169157253Y-51886782D01*
X169160611Y-51891807D01*
X169163864Y-51896945D01*
X169346156Y-52201080D01*
X169349154Y-52206372D01*
X169352024Y-52211741D01*
X169354763Y-52217181D01*
X169506379Y-52537747D01*
X169508848Y-52543318D01*
X169511173Y-52548932D01*
X169513360Y-52554603D01*
X169632814Y-52888453D01*
X169634720Y-52894221D01*
X169636484Y-52900034D01*
X169638111Y-52905911D01*
X169724274Y-53249892D01*
X169725607Y-53255829D01*
X169726794Y-53261796D01*
X169727835Y-53267795D01*
X169779861Y-53618537D01*
X169780606Y-53624576D01*
X169781203Y-53630637D01*
X169781651Y-53636707D01*
X169799276Y-53995452D01*
X169799387Y-53998477D01*
X169799462Y-54001515D01*
X169799500Y-54004575D01*
X169799500Y-100621458D01*
X169779815Y-100688497D01*
X169727011Y-100734252D01*
X169666658Y-100745142D01*
X169657682Y-100744500D01*
X169657670Y-100744500D01*
X167201672Y-100744500D01*
X167134633Y-100724815D01*
X167088878Y-100672011D01*
X167078934Y-100602853D01*
X167079199Y-100601102D01*
X167100500Y-100466610D01*
X167100500Y-100293389D01*
X167097114Y-100272011D01*
X167073402Y-100122299D01*
X167019873Y-99957555D01*
X166941232Y-99803212D01*
X166839414Y-99663072D01*
X166716928Y-99540586D01*
X166576788Y-99438768D01*
X166422449Y-99360128D01*
X166266532Y-99309467D01*
X166262010Y-99307614D01*
X166252820Y-99305444D01*
X166248057Y-99305070D01*
X166167872Y-99292370D01*
X166126271Y-99285781D01*
X166110407Y-99283268D01*
X166086614Y-99279500D01*
X166086611Y-99279500D01*
X165913389Y-99279500D01*
X165913388Y-99279500D01*
X165873726Y-99285781D01*
X165873725Y-99285780D01*
X165742304Y-99306596D01*
X165577549Y-99360129D01*
X165423210Y-99438768D01*
X165343256Y-99496859D01*
X165343255Y-99496859D01*
X165294941Y-99531961D01*
X165287564Y-99536092D01*
X165156092Y-99667564D01*
X165151961Y-99674941D01*
X165116859Y-99723255D01*
X165116859Y-99723256D01*
X165058768Y-99803210D01*
X164980129Y-99957549D01*
X164926596Y-100122305D01*
X164899500Y-100293383D01*
X164899500Y-100466615D01*
X164920800Y-100601103D01*
X164911845Y-100670396D01*
X164866849Y-100723848D01*
X164800097Y-100744487D01*
X164798327Y-100744500D01*
X161226006Y-100744500D01*
X161158967Y-100724815D01*
X161113212Y-100672011D01*
X161103268Y-100602853D01*
X161106231Y-100588408D01*
X161110499Y-100572477D01*
X161110500Y-100572475D01*
X161110500Y-100427525D01*
X161081852Y-100320610D01*
X161081852Y-100320608D01*
X161072984Y-100287516D01*
X161072982Y-100287511D01*
X161000511Y-100161988D01*
X161000506Y-100161982D01*
X161000493Y-100161968D01*
X160898030Y-100059505D01*
X160898014Y-100059490D01*
X160898006Y-100059485D01*
X160844243Y-100028445D01*
X160815808Y-99998624D01*
X160761007Y-99983939D01*
X160761007Y-99983940D01*
X160662514Y-99957549D01*
X160632475Y-99949500D01*
X160632474Y-99949500D01*
X160487525Y-99949500D01*
X160358994Y-99983939D01*
X160358993Y-99983940D01*
X160351338Y-99985991D01*
X160347510Y-99987017D01*
X160221991Y-100059485D01*
X160221984Y-100059490D01*
X160221968Y-100059505D01*
X160119505Y-100161968D01*
X160119490Y-100161984D01*
X160119485Y-100161992D01*
X160047017Y-100287509D01*
X160046989Y-100287578D01*
X160046748Y-100288511D01*
X160009500Y-100427525D01*
X160009500Y-100572477D01*
X160013769Y-100588408D01*
X160012106Y-100658258D01*
X159972942Y-100716120D01*
X159908713Y-100743623D01*
X159893994Y-100744500D01*
X156021551Y-100744500D01*
X155976207Y-100748556D01*
X155932893Y-100756367D01*
X155932888Y-100756368D01*
X155932884Y-100756369D01*
X155932881Y-100756369D01*
X155889030Y-100768390D01*
X155889023Y-100768392D01*
X155885731Y-100769618D01*
X155885732Y-100769619D01*
X155885649Y-100769650D01*
X155885606Y-100769666D01*
X155881730Y-100771111D01*
X155881728Y-100771112D01*
X155881723Y-100771115D01*
X155817899Y-100805969D01*
X155817897Y-100805970D01*
X155817896Y-100805971D01*
X155770435Y-100841502D01*
X155704972Y-100865920D01*
X155636698Y-100851069D01*
X155608442Y-100829917D01*
X155338016Y-100559491D01*
X155338015Y-100559490D01*
X155212485Y-100487016D01*
X155212480Y-100487014D01*
X155152101Y-100470835D01*
X155152098Y-100470834D01*
X155072476Y-100449500D01*
X155072475Y-100449500D01*
X152192330Y-100449500D01*
X152157389Y-100444475D01*
X152142390Y-100440070D01*
X152083644Y-100402327D01*
X152082457Y-100400958D01*
X152054977Y-100346083D01*
X152053332Y-100338521D01*
X152050500Y-100312168D01*
X152050500Y-98777525D01*
X153499500Y-98777525D01*
X153499500Y-98784925D01*
X153499500Y-98922475D01*
X153510220Y-98962485D01*
X153537016Y-99062487D01*
X153537018Y-99062491D01*
X153607635Y-99184802D01*
X153609123Y-99187568D01*
X153609353Y-99187877D01*
X153711985Y-99290509D01*
X153712674Y-99291005D01*
X153715178Y-99292353D01*
X153834069Y-99360995D01*
X153837087Y-99362869D01*
X153837514Y-99362983D01*
X153837515Y-99362984D01*
X153977525Y-99400500D01*
X153977528Y-99400500D01*
X154122472Y-99400500D01*
X154122475Y-99400500D01*
X154262485Y-99362984D01*
X154388015Y-99290509D01*
X154490509Y-99188015D01*
X154562984Y-99062485D01*
X154600500Y-98922475D01*
X154600500Y-98777525D01*
X154562984Y-98637515D01*
X154505246Y-98537511D01*
X154505246Y-98537510D01*
X154505244Y-98537508D01*
X154490511Y-98511988D01*
X154490506Y-98511982D01*
X154490502Y-98511978D01*
X154490493Y-98511968D01*
X154388030Y-98409505D01*
X154388014Y-98409490D01*
X154388006Y-98409485D01*
X154334243Y-98378445D01*
X154305808Y-98348624D01*
X154251007Y-98333939D01*
X154251007Y-98333940D01*
X154159739Y-98309485D01*
X154122475Y-98299500D01*
X154122474Y-98299500D01*
X153977525Y-98299500D01*
X153848994Y-98333939D01*
X153848993Y-98333940D01*
X153841338Y-98335991D01*
X153837510Y-98337017D01*
X153711991Y-98409485D01*
X153711984Y-98409490D01*
X153711968Y-98409505D01*
X153609505Y-98511968D01*
X153609492Y-98511983D01*
X153609485Y-98511992D01*
X153537017Y-98637509D01*
X153537004Y-98637541D01*
X153536909Y-98637914D01*
X153499500Y-98777525D01*
X152050500Y-98777525D01*
X152050500Y-98677527D01*
X152050500Y-98677525D01*
X152012984Y-98537515D01*
X151998244Y-98511985D01*
X151940511Y-98411988D01*
X151940506Y-98411982D01*
X151940493Y-98411968D01*
X151838030Y-98309505D01*
X151838014Y-98309490D01*
X151838006Y-98309485D01*
X151784243Y-98278445D01*
X151755808Y-98248624D01*
X151701007Y-98233939D01*
X151701007Y-98233940D01*
X151636740Y-98216720D01*
X151572475Y-98199500D01*
X151572474Y-98199500D01*
X151427525Y-98199500D01*
X151298994Y-98233939D01*
X151298993Y-98233940D01*
X151291338Y-98235991D01*
X151287510Y-98237017D01*
X151161991Y-98309485D01*
X151161984Y-98309490D01*
X151161968Y-98309505D01*
X151059505Y-98411968D01*
X151059490Y-98411984D01*
X151059485Y-98411992D01*
X150987019Y-98537506D01*
X150986989Y-98537578D01*
X150986748Y-98538511D01*
X150949500Y-98677525D01*
X150949500Y-102879965D01*
X150945435Y-102893805D01*
X150944476Y-102914903D01*
X150941289Y-102925756D01*
X150931650Y-102940753D01*
X150929815Y-102947004D01*
X150924891Y-102951270D01*
X150903514Y-102984533D01*
X150839957Y-103013556D01*
X150770864Y-103003641D01*
X150770304Y-103003385D01*
X150726129Y-102969503D01*
X150724691Y-102967762D01*
X150712942Y-102950838D01*
X150690513Y-102911991D01*
X150690510Y-102911988D01*
X150690509Y-102911985D01*
X150588015Y-102809491D01*
X150588013Y-102809490D01*
X150588011Y-102809488D01*
X150582777Y-102806466D01*
X150582776Y-102806465D01*
X150534243Y-102778445D01*
X150505808Y-102748624D01*
X150451007Y-102733939D01*
X150451007Y-102733940D01*
X150386740Y-102716720D01*
X150322475Y-102699500D01*
X150322474Y-102699500D01*
X150177525Y-102699500D01*
X150048994Y-102733939D01*
X150048993Y-102733940D01*
X150041338Y-102735991D01*
X150037510Y-102737017D01*
X149911991Y-102809485D01*
X149911986Y-102809489D01*
X149850285Y-102871190D01*
X149822027Y-102892342D01*
X149808309Y-102899832D01*
X149740051Y-102914683D01*
X149738245Y-102914554D01*
X149680044Y-102895186D01*
X149673529Y-102890999D01*
X149652896Y-102874372D01*
X149625517Y-102846993D01*
X149625514Y-102846990D01*
X149625506Y-102846985D01*
X149571743Y-102815945D01*
X149543308Y-102786124D01*
X149488507Y-102771439D01*
X149488507Y-102771440D01*
X149403356Y-102748624D01*
X149359975Y-102737000D01*
X149359974Y-102737000D01*
X149215025Y-102737000D01*
X149086494Y-102771439D01*
X149086493Y-102771440D01*
X149078838Y-102773491D01*
X149075010Y-102774517D01*
X148949491Y-102846985D01*
X148949484Y-102846990D01*
X148949468Y-102847005D01*
X148847005Y-102949468D01*
X148846990Y-102949484D01*
X148846985Y-102949492D01*
X148774517Y-103075009D01*
X148774489Y-103075078D01*
X148774248Y-103076011D01*
X148737000Y-103215025D01*
X148737000Y-103359974D01*
X148774513Y-103499977D01*
X148774517Y-103499988D01*
X148774518Y-103499989D01*
X148845135Y-103622302D01*
X148846623Y-103625068D01*
X148846853Y-103625377D01*
X148949485Y-103728009D01*
X148950174Y-103728505D01*
X148952678Y-103729853D01*
X149071569Y-103798495D01*
X149074587Y-103800369D01*
X149075014Y-103800483D01*
X149075015Y-103800484D01*
X149215025Y-103838000D01*
X149215028Y-103838000D01*
X149359972Y-103838000D01*
X149359975Y-103838000D01*
X149499985Y-103800484D01*
X149625515Y-103728009D01*
X149687217Y-103666306D01*
X149715464Y-103645161D01*
X149729188Y-103637667D01*
X149797446Y-103622816D01*
X149799256Y-103622945D01*
X149857453Y-103642311D01*
X149863971Y-103646500D01*
X149884606Y-103663130D01*
X149911985Y-103690509D01*
X149912674Y-103691005D01*
X149915178Y-103692353D01*
X150034078Y-103761000D01*
X150037086Y-103762869D01*
X150037514Y-103762983D01*
X150037515Y-103762984D01*
X150041236Y-103763980D01*
X150073687Y-103777876D01*
X150085537Y-103785099D01*
X150132536Y-103836799D01*
X150144122Y-103905702D01*
X150144119Y-103905730D01*
X150143926Y-103907341D01*
X150123506Y-103962080D01*
X150120696Y-103966233D01*
X150105677Y-103984425D01*
X148534495Y-105555606D01*
X148534492Y-105555610D01*
X148534472Y-105555641D01*
X148501886Y-105612086D01*
X148501883Y-105612092D01*
X148470179Y-105667003D01*
X148470178Y-105667004D01*
X148462016Y-105681140D01*
X148452220Y-105717701D01*
X148424500Y-105821154D01*
X148424500Y-108532670D01*
X148419475Y-108567614D01*
X148415070Y-108582612D01*
X148377327Y-108641355D01*
X148375958Y-108642542D01*
X148321097Y-108670018D01*
X148313539Y-108671663D01*
X148287168Y-108674500D01*
X148124000Y-108674500D01*
X148056961Y-108654815D01*
X148011206Y-108602011D01*
X148000000Y-108550500D01*
X148000000Y-99312915D01*
X148019685Y-99245876D01*
X148062000Y-99205528D01*
X148088015Y-99190509D01*
X148190509Y-99088015D01*
X148262984Y-98962485D01*
X148300500Y-98822475D01*
X148300500Y-98677525D01*
X148262984Y-98537515D01*
X148248244Y-98511985D01*
X148190511Y-98411988D01*
X148190506Y-98411982D01*
X148190493Y-98411968D01*
X148088030Y-98309505D01*
X148088014Y-98309490D01*
X148088008Y-98309485D01*
X148061998Y-98294468D01*
X148013783Y-98243900D01*
X148000000Y-98187082D01*
X148000000Y-97759240D01*
X148001720Y-97753383D01*
X164899500Y-97753383D01*
X164899500Y-97753389D01*
X164899500Y-97926611D01*
X164926598Y-98097701D01*
X164980127Y-98262445D01*
X165058768Y-98416788D01*
X165160586Y-98556928D01*
X165283072Y-98679414D01*
X165423212Y-98781232D01*
X165577555Y-98859873D01*
X165742299Y-98913402D01*
X165913389Y-98940500D01*
X165913390Y-98940500D01*
X166086610Y-98940500D01*
X166086611Y-98940500D01*
X166257701Y-98913402D01*
X166422445Y-98859873D01*
X166576788Y-98781232D01*
X166716928Y-98679414D01*
X166839414Y-98556928D01*
X166941232Y-98416788D01*
X167019873Y-98262445D01*
X167073402Y-98097701D01*
X167100500Y-97926611D01*
X167100500Y-97753389D01*
X167073402Y-97582299D01*
X167019873Y-97417555D01*
X166941232Y-97263212D01*
X166839414Y-97123072D01*
X166716928Y-97000586D01*
X166576788Y-96898768D01*
X166576780Y-96898764D01*
X166422449Y-96820128D01*
X166266532Y-96769467D01*
X166262010Y-96767614D01*
X166252820Y-96765444D01*
X166248057Y-96765070D01*
X166237513Y-96763400D01*
X166126271Y-96745781D01*
X166110407Y-96743268D01*
X166086614Y-96739500D01*
X166086611Y-96739500D01*
X165913389Y-96739500D01*
X165913388Y-96739500D01*
X165873726Y-96745781D01*
X165873725Y-96745780D01*
X165742304Y-96766596D01*
X165577549Y-96820129D01*
X165423218Y-96898764D01*
X165423205Y-96898772D01*
X165370567Y-96937015D01*
X165370568Y-96937016D01*
X165294943Y-96991961D01*
X165287562Y-96996094D01*
X165156094Y-97127562D01*
X165151960Y-97134945D01*
X165137688Y-97154586D01*
X165137689Y-97154587D01*
X165058768Y-97263210D01*
X164980129Y-97417547D01*
X164926598Y-97582297D01*
X164926597Y-97582301D01*
X164919241Y-97628744D01*
X164899500Y-97753383D01*
X148001720Y-97753383D01*
X148019685Y-97692201D01*
X148072489Y-97646446D01*
X148141647Y-97636502D01*
X148156070Y-97639460D01*
X148197273Y-97650500D01*
X148197275Y-97650500D01*
X148302725Y-97650500D01*
X148302727Y-97650500D01*
X148404587Y-97623207D01*
X148495913Y-97570480D01*
X148570480Y-97495913D01*
X148623207Y-97404587D01*
X148650500Y-97302727D01*
X148650500Y-97197273D01*
X151099500Y-97197273D01*
X151099500Y-97302727D01*
X151126793Y-97404587D01*
X151179520Y-97495913D01*
X151254087Y-97570480D01*
X151345413Y-97623207D01*
X151447273Y-97650500D01*
X151447275Y-97650500D01*
X151552725Y-97650500D01*
X151552727Y-97650500D01*
X151654587Y-97623207D01*
X151745913Y-97570480D01*
X151820480Y-97495913D01*
X151873207Y-97404587D01*
X151900500Y-97302727D01*
X151900500Y-97197273D01*
X151873207Y-97095413D01*
X151820480Y-97004087D01*
X151745913Y-96929520D01*
X151679059Y-96890922D01*
X151654589Y-96876794D01*
X151654588Y-96876793D01*
X151654587Y-96876793D01*
X151552727Y-96849500D01*
X151552726Y-96849500D01*
X151447273Y-96849500D01*
X151345413Y-96876792D01*
X151345408Y-96876795D01*
X151254088Y-96929518D01*
X151254082Y-96929523D01*
X151179523Y-97004082D01*
X151179518Y-97004088D01*
X151126795Y-97095408D01*
X151126792Y-97095413D01*
X151099500Y-97197273D01*
X148650500Y-97197273D01*
X148623207Y-97095413D01*
X148570480Y-97004087D01*
X148495913Y-96929520D01*
X148429059Y-96890922D01*
X148404589Y-96876794D01*
X148404588Y-96876793D01*
X148404587Y-96876793D01*
X148302727Y-96849500D01*
X148302726Y-96849500D01*
X148197271Y-96849500D01*
X148156092Y-96860534D01*
X148086242Y-96858871D01*
X148028380Y-96819708D01*
X148000877Y-96755479D01*
X148000000Y-96740759D01*
X148000000Y-96174680D01*
X164899499Y-96174680D01*
X164914028Y-96247717D01*
X164914032Y-96247735D01*
X164914033Y-96247739D01*
X164917480Y-96253826D01*
X164920816Y-96257891D01*
X164969399Y-96330601D01*
X165052256Y-96385964D01*
X165052258Y-96385965D01*
X165052259Y-96385965D01*
X165052260Y-96385966D01*
X165052264Y-96385967D01*
X165052279Y-96385970D01*
X165052288Y-96385972D01*
X165097021Y-96394869D01*
X165117681Y-96398979D01*
X165120415Y-96399703D01*
X165125323Y-96400500D01*
X166874676Y-96400500D01*
X166878796Y-96400500D01*
X166886648Y-96398117D01*
X166947740Y-96385966D01*
X167030601Y-96330601D01*
X167085966Y-96247740D01*
X167100500Y-96174674D01*
X167100500Y-94425326D01*
X167100500Y-94425323D01*
X167100500Y-94425139D01*
X167100064Y-94423134D01*
X167085972Y-94352289D01*
X167085967Y-94352266D01*
X167085967Y-94352264D01*
X167085966Y-94352260D01*
X167081391Y-94345413D01*
X167030601Y-94269399D01*
X167030600Y-94269398D01*
X166957891Y-94220816D01*
X166953826Y-94217480D01*
X166947739Y-94214033D01*
X166947735Y-94214032D01*
X166947709Y-94214026D01*
X166874680Y-94199500D01*
X166874677Y-94199500D01*
X166874674Y-94199500D01*
X165125326Y-94199500D01*
X165125323Y-94199500D01*
X165125319Y-94199500D01*
X165052285Y-94214027D01*
X165052262Y-94214032D01*
X165052258Y-94214033D01*
X164969399Y-94269399D01*
X164914033Y-94352258D01*
X164914032Y-94352266D01*
X164914028Y-94352281D01*
X164899500Y-94425318D01*
X164899500Y-94425321D01*
X164899500Y-96174678D01*
X164899500Y-96174680D01*
X164899499Y-96174680D01*
X148000000Y-96174680D01*
X148000000Y-94947273D01*
X149599500Y-94947273D01*
X149599500Y-95052727D01*
X149626793Y-95154587D01*
X149679520Y-95245913D01*
X149754087Y-95320480D01*
X149845413Y-95373207D01*
X149947273Y-95400500D01*
X149947275Y-95400500D01*
X150052725Y-95400500D01*
X150052727Y-95400500D01*
X150154587Y-95373207D01*
X150245913Y-95320480D01*
X150320480Y-95245913D01*
X150373207Y-95154587D01*
X150400500Y-95052727D01*
X150400500Y-94947273D01*
X150373207Y-94845413D01*
X150320480Y-94754087D01*
X150245913Y-94679520D01*
X150179059Y-94640922D01*
X150154589Y-94626794D01*
X150154588Y-94626793D01*
X150154587Y-94626793D01*
X150052727Y-94599500D01*
X150052726Y-94599500D01*
X149947273Y-94599500D01*
X149845413Y-94626792D01*
X149845408Y-94626795D01*
X149754088Y-94679518D01*
X149754082Y-94679523D01*
X149679523Y-94754082D01*
X149679518Y-94754088D01*
X149626795Y-94845408D01*
X149626792Y-94845413D01*
X149599500Y-94947273D01*
X148000000Y-94947273D01*
X148000000Y-89947273D01*
X154599500Y-89947273D01*
X154599500Y-90052727D01*
X154626793Y-90154587D01*
X154679520Y-90245913D01*
X154754087Y-90320480D01*
X154845413Y-90373207D01*
X154947273Y-90400500D01*
X154947275Y-90400500D01*
X155052725Y-90400500D01*
X155052727Y-90400500D01*
X155154587Y-90373207D01*
X155245913Y-90320480D01*
X155320480Y-90245913D01*
X155373207Y-90154587D01*
X155400500Y-90052727D01*
X155400500Y-89947273D01*
X155373207Y-89845413D01*
X155320480Y-89754087D01*
X155245913Y-89679520D01*
X155179059Y-89640922D01*
X155154589Y-89626794D01*
X155154588Y-89626793D01*
X155154587Y-89626793D01*
X155052727Y-89599500D01*
X155052726Y-89599500D01*
X154947273Y-89599500D01*
X154845413Y-89626792D01*
X154845408Y-89626795D01*
X154754088Y-89679518D01*
X154754082Y-89679523D01*
X154679523Y-89754082D01*
X154679518Y-89754088D01*
X154626795Y-89845408D01*
X154626792Y-89845413D01*
X154599500Y-89947273D01*
X148000000Y-89947273D01*
X148000000Y-75000000D01*
X142000000Y-75000000D01*
X142000000Y-105188238D01*
X141980315Y-105255277D01*
X141927511Y-105301032D01*
X141858353Y-105310976D01*
X141814001Y-105295625D01*
X141784244Y-105278445D01*
X141755809Y-105248624D01*
X141701007Y-105233939D01*
X141701007Y-105233940D01*
X141636740Y-105216720D01*
X141572475Y-105199500D01*
X141572474Y-105199500D01*
X141427525Y-105199500D01*
X141298994Y-105233939D01*
X141298993Y-105233940D01*
X141291338Y-105235991D01*
X141287510Y-105237017D01*
X141161991Y-105309485D01*
X141161984Y-105309490D01*
X141161968Y-105309505D01*
X141059505Y-105411968D01*
X141059490Y-105411984D01*
X141059485Y-105411992D01*
X140987017Y-105537509D01*
X140986989Y-105537578D01*
X140986748Y-105538511D01*
X140965147Y-105619129D01*
X140949500Y-105677525D01*
X140949500Y-105822475D01*
X140962292Y-105870217D01*
X140983527Y-105949466D01*
X140983538Y-105949502D01*
X140987017Y-105962488D01*
X141057635Y-106084802D01*
X141059123Y-106087568D01*
X141059353Y-106087877D01*
X141161985Y-106190509D01*
X141162674Y-106191005D01*
X141165178Y-106192353D01*
X141284069Y-106260995D01*
X141287087Y-106262869D01*
X141287514Y-106262983D01*
X141287515Y-106262984D01*
X141427525Y-106300500D01*
X141427528Y-106300500D01*
X141572472Y-106300500D01*
X141572475Y-106300500D01*
X141696724Y-106267207D01*
X141701984Y-106267332D01*
X141704974Y-106266094D01*
X141712690Y-106263474D01*
X141719994Y-106259873D01*
X141720091Y-106259832D01*
X141726617Y-106254824D01*
X141770347Y-106229576D01*
X141803104Y-106216464D01*
X141814102Y-106213796D01*
X141883893Y-106217124D01*
X141940805Y-106257656D01*
X141966768Y-106322514D01*
X141967497Y-106330148D01*
X141963834Y-106374028D01*
X141949500Y-106427523D01*
X141949500Y-106480633D01*
X141944475Y-106515577D01*
X141940070Y-106530575D01*
X141902301Y-106589341D01*
X141895601Y-106595147D01*
X141846491Y-106621211D01*
X141787529Y-106637011D01*
X141787509Y-106637017D01*
X141661992Y-106709485D01*
X141661984Y-106709490D01*
X141661968Y-106709505D01*
X141559505Y-106811968D01*
X141559490Y-106811984D01*
X141559485Y-106811992D01*
X141487018Y-106937506D01*
X141456094Y-107052916D01*
X141455296Y-107055757D01*
X141440072Y-107107604D01*
X141402327Y-107166355D01*
X141400958Y-107167542D01*
X141346097Y-107195018D01*
X141338539Y-107196663D01*
X141312168Y-107199500D01*
X141177525Y-107199500D01*
X141048994Y-107233939D01*
X141048993Y-107233940D01*
X141041338Y-107235991D01*
X141037510Y-107237017D01*
X140911991Y-107309485D01*
X140911984Y-107309490D01*
X140911968Y-107309505D01*
X140809505Y-107411968D01*
X140809490Y-107411984D01*
X140809485Y-107411992D01*
X140737017Y-107537509D01*
X140736989Y-107537578D01*
X140736748Y-107538511D01*
X140699500Y-107677525D01*
X140699500Y-107822474D01*
X140729429Y-107934173D01*
X140737015Y-107962484D01*
X140737018Y-107962491D01*
X140807635Y-108084802D01*
X140809123Y-108087568D01*
X140809353Y-108087877D01*
X140911985Y-108190509D01*
X140912674Y-108191005D01*
X140915178Y-108192353D01*
X141034069Y-108260995D01*
X141037087Y-108262869D01*
X141037514Y-108262983D01*
X141037515Y-108262984D01*
X141177525Y-108300500D01*
X141177528Y-108300500D01*
X141322472Y-108300500D01*
X141322475Y-108300500D01*
X141462485Y-108262984D01*
X141588015Y-108190509D01*
X141690509Y-108088015D01*
X141716653Y-108042731D01*
X141767048Y-107955447D01*
X141769143Y-107956656D01*
X141805273Y-107911817D01*
X141871565Y-107889747D01*
X141939266Y-107907022D01*
X141986880Y-107958156D01*
X142000000Y-108013668D01*
X142000000Y-108550500D01*
X141980315Y-108617539D01*
X141927511Y-108663294D01*
X141876000Y-108674500D01*
X140522217Y-108674500D01*
X140487281Y-108669477D01*
X140462039Y-108662065D01*
X140409294Y-108630769D01*
X140099426Y-108320901D01*
X140078274Y-108292645D01*
X140065667Y-108269556D01*
X140050500Y-108210131D01*
X140050500Y-107427527D01*
X140050500Y-107427525D01*
X140012984Y-107287515D01*
X139940510Y-107161985D01*
X135099426Y-102320901D01*
X135078274Y-102292645D01*
X135065667Y-102269556D01*
X135050500Y-102210131D01*
X135050500Y-101192329D01*
X135055523Y-101157393D01*
X135059927Y-101142395D01*
X135097672Y-101083644D01*
X135099041Y-101082457D01*
X135153920Y-101054977D01*
X135161479Y-101053333D01*
X135187832Y-101050500D01*
X139452784Y-101050500D01*
X139487716Y-101055521D01*
X139512960Y-101062934D01*
X139565706Y-101094230D01*
X139661985Y-101190509D01*
X139662674Y-101191005D01*
X139665178Y-101192353D01*
X139784069Y-101260995D01*
X139787087Y-101262869D01*
X139787514Y-101262983D01*
X139787515Y-101262984D01*
X139927525Y-101300500D01*
X139927528Y-101300500D01*
X140072472Y-101300500D01*
X140072475Y-101300500D01*
X140212485Y-101262984D01*
X140338015Y-101190509D01*
X140440509Y-101088015D01*
X140512984Y-100962485D01*
X140550500Y-100822475D01*
X140550500Y-100677525D01*
X140512984Y-100537515D01*
X140483828Y-100487016D01*
X140442360Y-100415190D01*
X140440874Y-100412429D01*
X140440644Y-100412120D01*
X140338015Y-100309491D01*
X140338011Y-100309488D01*
X140301678Y-100288511D01*
X140287409Y-100280272D01*
X140261729Y-100260567D01*
X140239430Y-100238268D01*
X140219724Y-100212587D01*
X140190515Y-100161996D01*
X140190509Y-100161985D01*
X140088015Y-100059491D01*
X140087877Y-100059353D01*
X140087568Y-100059123D01*
X140084802Y-100057635D01*
X140034243Y-100028445D01*
X140005808Y-99998624D01*
X139951007Y-99983939D01*
X139951007Y-99983940D01*
X139852514Y-99957549D01*
X139822475Y-99949500D01*
X139822474Y-99949500D01*
X134427525Y-99949500D01*
X134298994Y-99983939D01*
X134298993Y-99983940D01*
X134291338Y-99985991D01*
X134287510Y-99987017D01*
X134161991Y-100059485D01*
X134161984Y-100059490D01*
X134161968Y-100059505D01*
X134059505Y-100161968D01*
X134059490Y-100161984D01*
X134059482Y-100161996D01*
X133989098Y-100283903D01*
X133938531Y-100332118D01*
X133872871Y-100345586D01*
X133857685Y-100344500D01*
X133857670Y-100344500D01*
X127924386Y-100344500D01*
X127857347Y-100324815D01*
X127840998Y-100311640D01*
X127839509Y-100310567D01*
X127837568Y-100309123D01*
X127834802Y-100307635D01*
X127784243Y-100278445D01*
X127755808Y-100248624D01*
X127701007Y-100233939D01*
X127701007Y-100233940D01*
X127621316Y-100212587D01*
X127572475Y-100199500D01*
X127572474Y-100199500D01*
X127427525Y-100199500D01*
X127298994Y-100233939D01*
X127298993Y-100233940D01*
X127291338Y-100235991D01*
X127287510Y-100237017D01*
X127161991Y-100309485D01*
X127161984Y-100309490D01*
X127159898Y-100311396D01*
X127159647Y-100311121D01*
X127157631Y-100312528D01*
X127156996Y-100311618D01*
X127101970Y-100341666D01*
X127075612Y-100344500D01*
X125214501Y-100344500D01*
X125147462Y-100324815D01*
X125101707Y-100272011D01*
X125092028Y-100239898D01*
X125079689Y-100161996D01*
X125073402Y-100122299D01*
X125019873Y-99957555D01*
X124941232Y-99803212D01*
X124839414Y-99663072D01*
X124716928Y-99540586D01*
X124576788Y-99438768D01*
X124422449Y-99360128D01*
X124266532Y-99309467D01*
X124262010Y-99307614D01*
X124252820Y-99305444D01*
X124248057Y-99305070D01*
X124167872Y-99292370D01*
X124126271Y-99285781D01*
X124110407Y-99283268D01*
X124086614Y-99279500D01*
X124086611Y-99279500D01*
X123913389Y-99279500D01*
X123913388Y-99279500D01*
X123873726Y-99285781D01*
X123873725Y-99285780D01*
X123742304Y-99306596D01*
X123577549Y-99360129D01*
X123423210Y-99438768D01*
X123343256Y-99496859D01*
X123343255Y-99496859D01*
X123294941Y-99531961D01*
X123287564Y-99536092D01*
X123156092Y-99667564D01*
X123151961Y-99674941D01*
X123116859Y-99723255D01*
X123116859Y-99723256D01*
X123058768Y-99803210D01*
X122980129Y-99957549D01*
X122926596Y-100122305D01*
X122907971Y-100239898D01*
X122878042Y-100303033D01*
X122818730Y-100339964D01*
X122785498Y-100344500D01*
X120337835Y-100344500D01*
X120337832Y-100344500D01*
X120336058Y-100344595D01*
X120331127Y-100344859D01*
X120263131Y-100328785D01*
X120214620Y-100278502D01*
X120200500Y-100221036D01*
X120200500Y-97753383D01*
X122899500Y-97753383D01*
X122899500Y-97753389D01*
X122899500Y-97926611D01*
X122926598Y-98097701D01*
X122980127Y-98262445D01*
X123058768Y-98416788D01*
X123160586Y-98556928D01*
X123283072Y-98679414D01*
X123423212Y-98781232D01*
X123577555Y-98859873D01*
X123742299Y-98913402D01*
X123913389Y-98940500D01*
X123913390Y-98940500D01*
X124086610Y-98940500D01*
X124086611Y-98940500D01*
X124257701Y-98913402D01*
X124422445Y-98859873D01*
X124576788Y-98781232D01*
X124716928Y-98679414D01*
X124839414Y-98556928D01*
X124941232Y-98416788D01*
X125019873Y-98262445D01*
X125073402Y-98097701D01*
X125100500Y-97926611D01*
X125100500Y-97753389D01*
X125073402Y-97582299D01*
X125019873Y-97417555D01*
X124999477Y-97377525D01*
X129199500Y-97377525D01*
X129199500Y-97522475D01*
X129211268Y-97566393D01*
X129233801Y-97650487D01*
X129233806Y-97650503D01*
X129237017Y-97662488D01*
X129307635Y-97784802D01*
X129309123Y-97787568D01*
X129309353Y-97787877D01*
X129411985Y-97890509D01*
X129412674Y-97891005D01*
X129415178Y-97892353D01*
X129534069Y-97960995D01*
X129537087Y-97962869D01*
X129537514Y-97962983D01*
X129537515Y-97962984D01*
X129677525Y-98000500D01*
X129677528Y-98000500D01*
X129822472Y-98000500D01*
X129822475Y-98000500D01*
X129962485Y-97962984D01*
X130088015Y-97890509D01*
X130190509Y-97788015D01*
X130262984Y-97662485D01*
X130300500Y-97522475D01*
X130300500Y-97377525D01*
X130262984Y-97237515D01*
X130239751Y-97197275D01*
X130190511Y-97111988D01*
X130190506Y-97111982D01*
X130190493Y-97111968D01*
X130088030Y-97009505D01*
X130088014Y-97009490D01*
X130088011Y-97009488D01*
X130078653Y-97004085D01*
X130034240Y-96978443D01*
X130005808Y-96948624D01*
X129949759Y-96933606D01*
X129949759Y-96933605D01*
X129849372Y-96906707D01*
X129822475Y-96899500D01*
X129822474Y-96899500D01*
X129677525Y-96899500D01*
X129550243Y-96933604D01*
X129550244Y-96933605D01*
X129537509Y-96937017D01*
X129537507Y-96937018D01*
X129411992Y-97009485D01*
X129411984Y-97009490D01*
X129411968Y-97009505D01*
X129309505Y-97111968D01*
X129309490Y-97111984D01*
X129309485Y-97111992D01*
X129237017Y-97237509D01*
X129237004Y-97237541D01*
X129236909Y-97237914D01*
X129199500Y-97377525D01*
X124999477Y-97377525D01*
X124941232Y-97263212D01*
X124839414Y-97123072D01*
X124716928Y-97000586D01*
X124576788Y-96898768D01*
X124576780Y-96898764D01*
X124422449Y-96820128D01*
X124266532Y-96769467D01*
X124262010Y-96767614D01*
X124252820Y-96765444D01*
X124248057Y-96765070D01*
X124237513Y-96763400D01*
X124126271Y-96745781D01*
X124110407Y-96743268D01*
X124086614Y-96739500D01*
X124086611Y-96739500D01*
X123913389Y-96739500D01*
X123913388Y-96739500D01*
X123873726Y-96745781D01*
X123873725Y-96745780D01*
X123742304Y-96766596D01*
X123577549Y-96820129D01*
X123423218Y-96898764D01*
X123423205Y-96898772D01*
X123370567Y-96937015D01*
X123370568Y-96937016D01*
X123294943Y-96991961D01*
X123287562Y-96996094D01*
X123156094Y-97127562D01*
X123151960Y-97134945D01*
X123137688Y-97154586D01*
X123137689Y-97154587D01*
X123058768Y-97263210D01*
X122980129Y-97417547D01*
X122926598Y-97582297D01*
X122926597Y-97582301D01*
X122919241Y-97628744D01*
X122899500Y-97753383D01*
X120200500Y-97753383D01*
X120200500Y-96174680D01*
X122899499Y-96174680D01*
X122914028Y-96247717D01*
X122914032Y-96247735D01*
X122914033Y-96247739D01*
X122917480Y-96253826D01*
X122920816Y-96257891D01*
X122969399Y-96330601D01*
X123052256Y-96385964D01*
X123052258Y-96385965D01*
X123052259Y-96385965D01*
X123052260Y-96385966D01*
X123052264Y-96385967D01*
X123052279Y-96385970D01*
X123052288Y-96385972D01*
X123097021Y-96394869D01*
X123117681Y-96398979D01*
X123120415Y-96399703D01*
X123125323Y-96400500D01*
X124874676Y-96400500D01*
X124878796Y-96400500D01*
X124886648Y-96398117D01*
X124947740Y-96385966D01*
X125030601Y-96330601D01*
X125085966Y-96247740D01*
X125100500Y-96174674D01*
X125100500Y-95627525D01*
X129199500Y-95627525D01*
X129199500Y-95772475D01*
X129221004Y-95852727D01*
X129221003Y-95852727D01*
X129237016Y-95912487D01*
X129237018Y-95912491D01*
X129307635Y-96034802D01*
X129309123Y-96037568D01*
X129309353Y-96037877D01*
X129411985Y-96140509D01*
X129412674Y-96141005D01*
X129415178Y-96142353D01*
X129534069Y-96210995D01*
X129537087Y-96212869D01*
X129537514Y-96212983D01*
X129537515Y-96212984D01*
X129677525Y-96250500D01*
X129677528Y-96250500D01*
X129822472Y-96250500D01*
X129822475Y-96250500D01*
X129962485Y-96212984D01*
X130088015Y-96140509D01*
X130190509Y-96038015D01*
X130262984Y-95912485D01*
X130300500Y-95772475D01*
X130300500Y-95627525D01*
X130262984Y-95487515D01*
X130212168Y-95399500D01*
X130190511Y-95361988D01*
X130190506Y-95361982D01*
X130190502Y-95361978D01*
X130190493Y-95361968D01*
X130088030Y-95259505D01*
X130088014Y-95259490D01*
X130088006Y-95259485D01*
X130034243Y-95228445D01*
X130005808Y-95198624D01*
X129951007Y-95183939D01*
X129951007Y-95183940D01*
X129841467Y-95154589D01*
X129822475Y-95149500D01*
X129822474Y-95149500D01*
X129677525Y-95149500D01*
X129548994Y-95183939D01*
X129548993Y-95183940D01*
X129541338Y-95185991D01*
X129537510Y-95187017D01*
X129411991Y-95259485D01*
X129411984Y-95259490D01*
X129411968Y-95259505D01*
X129309505Y-95361968D01*
X129309490Y-95361984D01*
X129309485Y-95361992D01*
X129237017Y-95487509D01*
X129237004Y-95487541D01*
X129236909Y-95487914D01*
X129199500Y-95627525D01*
X125100500Y-95627525D01*
X125100500Y-94947273D01*
X139599500Y-94947273D01*
X139599500Y-95052727D01*
X139626793Y-95154587D01*
X139679520Y-95245913D01*
X139754087Y-95320480D01*
X139845413Y-95373207D01*
X139947273Y-95400500D01*
X139947275Y-95400500D01*
X140052725Y-95400500D01*
X140052727Y-95400500D01*
X140154587Y-95373207D01*
X140245913Y-95320480D01*
X140320480Y-95245913D01*
X140373207Y-95154587D01*
X140400500Y-95052727D01*
X140400500Y-94947273D01*
X140373207Y-94845413D01*
X140320480Y-94754087D01*
X140245913Y-94679520D01*
X140179059Y-94640922D01*
X140154589Y-94626794D01*
X140154588Y-94626793D01*
X140154587Y-94626793D01*
X140052727Y-94599500D01*
X140052726Y-94599500D01*
X139947273Y-94599500D01*
X139845413Y-94626792D01*
X139845408Y-94626795D01*
X139754088Y-94679518D01*
X139754082Y-94679523D01*
X139679523Y-94754082D01*
X139679518Y-94754088D01*
X139626795Y-94845408D01*
X139626792Y-94845413D01*
X139599500Y-94947273D01*
X125100500Y-94947273D01*
X125100500Y-94425326D01*
X125100500Y-94425323D01*
X125100500Y-94425139D01*
X125100064Y-94423134D01*
X125085972Y-94352289D01*
X125085967Y-94352266D01*
X125085967Y-94352264D01*
X125085966Y-94352260D01*
X125081391Y-94345413D01*
X125030601Y-94269399D01*
X125030600Y-94269398D01*
X124957891Y-94220816D01*
X124953826Y-94217480D01*
X124947739Y-94214033D01*
X124947735Y-94214032D01*
X124947709Y-94214026D01*
X124874680Y-94199500D01*
X124874677Y-94199500D01*
X124874674Y-94199500D01*
X123125326Y-94199500D01*
X123125323Y-94199500D01*
X123125319Y-94199500D01*
X123052285Y-94214027D01*
X123052262Y-94214032D01*
X123052258Y-94214033D01*
X122969399Y-94269399D01*
X122914033Y-94352258D01*
X122914032Y-94352266D01*
X122914028Y-94352281D01*
X122899500Y-94425318D01*
X122899500Y-94425321D01*
X122899500Y-96174678D01*
X122899500Y-96174680D01*
X122899499Y-96174680D01*
X120200500Y-96174680D01*
X120200500Y-93877525D01*
X129199500Y-93877525D01*
X129199500Y-94022475D01*
X129234900Y-94154587D01*
X129234900Y-94154589D01*
X129237015Y-94162485D01*
X129237016Y-94162486D01*
X129307635Y-94284802D01*
X129309123Y-94287568D01*
X129309353Y-94287877D01*
X129411985Y-94390509D01*
X129412674Y-94391005D01*
X129415178Y-94392353D01*
X129534069Y-94460995D01*
X129537087Y-94462869D01*
X129537514Y-94462983D01*
X129537515Y-94462984D01*
X129677525Y-94500500D01*
X129677528Y-94500500D01*
X129822472Y-94500500D01*
X129822475Y-94500500D01*
X129962485Y-94462984D01*
X130088015Y-94390509D01*
X130190509Y-94288015D01*
X130262984Y-94162485D01*
X130300500Y-94022475D01*
X130300500Y-93877525D01*
X130262984Y-93737515D01*
X130229500Y-93679520D01*
X130229500Y-93679519D01*
X130190513Y-93611991D01*
X130190508Y-93611984D01*
X130190493Y-93611968D01*
X130088030Y-93509505D01*
X130088014Y-93509490D01*
X130088006Y-93509485D01*
X130034243Y-93478445D01*
X130005808Y-93448624D01*
X129951007Y-93433939D01*
X129951007Y-93433940D01*
X129886740Y-93416720D01*
X129822475Y-93399500D01*
X129822474Y-93399500D01*
X129677525Y-93399500D01*
X129548994Y-93433939D01*
X129548993Y-93433940D01*
X129541338Y-93435991D01*
X129537510Y-93437017D01*
X129411991Y-93509485D01*
X129411984Y-93509490D01*
X129411968Y-93509505D01*
X129309505Y-93611968D01*
X129309490Y-93611984D01*
X129309485Y-93611992D01*
X129237017Y-93737509D01*
X129237004Y-93737541D01*
X129236909Y-93737914D01*
X129199500Y-93877525D01*
X120200500Y-93877525D01*
X120200500Y-92127525D01*
X129199500Y-92127525D01*
X129199500Y-92134925D01*
X129199500Y-92272474D01*
X129237013Y-92412477D01*
X129237017Y-92412488D01*
X129237018Y-92412489D01*
X129307635Y-92534802D01*
X129309123Y-92537568D01*
X129309353Y-92537877D01*
X129411985Y-92640509D01*
X129412674Y-92641005D01*
X129415178Y-92642353D01*
X129534069Y-92710995D01*
X129537087Y-92712869D01*
X129537514Y-92712983D01*
X129537515Y-92712984D01*
X129677525Y-92750500D01*
X129677528Y-92750500D01*
X129822472Y-92750500D01*
X129822475Y-92750500D01*
X129962485Y-92712984D01*
X130088015Y-92640509D01*
X130190509Y-92538015D01*
X130262984Y-92412485D01*
X130300500Y-92272475D01*
X130300500Y-92127525D01*
X130262984Y-91987515D01*
X130215105Y-91904587D01*
X130190511Y-91861988D01*
X130190506Y-91861982D01*
X130190502Y-91861978D01*
X130190493Y-91861968D01*
X130088030Y-91759505D01*
X130088014Y-91759490D01*
X130088006Y-91759485D01*
X130034243Y-91728445D01*
X130005808Y-91698624D01*
X129951007Y-91683939D01*
X129951007Y-91683940D01*
X129886740Y-91666720D01*
X129822475Y-91649500D01*
X129822474Y-91649500D01*
X129677525Y-91649500D01*
X129548994Y-91683939D01*
X129548993Y-91683940D01*
X129541338Y-91685991D01*
X129537510Y-91687017D01*
X129411991Y-91759485D01*
X129411984Y-91759490D01*
X129411968Y-91759505D01*
X129309505Y-91861968D01*
X129309490Y-91861984D01*
X129309485Y-91861992D01*
X129237017Y-91987509D01*
X129237004Y-91987541D01*
X129236909Y-91987914D01*
X129199500Y-92127525D01*
X120200500Y-92127525D01*
X120200500Y-84947273D01*
X139599500Y-84947273D01*
X139599500Y-85052727D01*
X139626793Y-85154587D01*
X139679520Y-85245913D01*
X139754087Y-85320480D01*
X139845413Y-85373207D01*
X139947273Y-85400500D01*
X139947275Y-85400500D01*
X140052725Y-85400500D01*
X140052727Y-85400500D01*
X140154587Y-85373207D01*
X140245913Y-85320480D01*
X140320480Y-85245913D01*
X140373207Y-85154587D01*
X140400500Y-85052727D01*
X140400500Y-84947273D01*
X140373207Y-84845413D01*
X140320480Y-84754087D01*
X140245913Y-84679520D01*
X140179059Y-84640922D01*
X140154589Y-84626794D01*
X140154588Y-84626793D01*
X140154587Y-84626793D01*
X140052727Y-84599500D01*
X140052726Y-84599500D01*
X139947273Y-84599500D01*
X139845413Y-84626792D01*
X139845408Y-84626795D01*
X139754088Y-84679518D01*
X139754082Y-84679523D01*
X139679523Y-84754082D01*
X139679518Y-84754088D01*
X139626795Y-84845408D01*
X139626792Y-84845413D01*
X139599500Y-84947273D01*
X120200500Y-84947273D01*
X120200500Y-54004577D01*
X120200537Y-54001561D01*
X120200611Y-53998519D01*
X120200723Y-53995452D01*
X120218348Y-53636684D01*
X120218796Y-53630632D01*
X120219393Y-53624573D01*
X120220134Y-53618558D01*
X120272170Y-53267752D01*
X120273209Y-53261771D01*
X120274386Y-53255854D01*
X120275719Y-53249916D01*
X120275725Y-53249892D01*
X120361897Y-52905875D01*
X120363508Y-52900053D01*
X120365278Y-52894221D01*
X120367182Y-52888463D01*
X120486646Y-52554584D01*
X120488837Y-52548903D01*
X120491148Y-52543324D01*
X120493613Y-52537762D01*
X120493620Y-52537747D01*
X120645260Y-52217129D01*
X120647973Y-52211741D01*
X120650843Y-52206370D01*
X120653811Y-52201131D01*
X120836141Y-51896934D01*
X120839381Y-51891817D01*
X120839801Y-51891187D01*
X120842757Y-51886762D01*
X120846239Y-51881816D01*
X121057530Y-51596924D01*
X121061253Y-51592156D01*
X121065128Y-51587434D01*
X121069041Y-51582898D01*
X121307249Y-51320075D01*
X121311408Y-51315707D01*
X121315707Y-51311408D01*
X121320075Y-51307249D01*
X121582898Y-51069041D01*
X121587434Y-51065128D01*
X121592165Y-51061245D01*
X121596924Y-51057530D01*
X121881816Y-50846239D01*
X121886762Y-50842757D01*
X121891817Y-50839381D01*
X121896941Y-50836137D01*
X121896946Y-50836134D01*
X122201131Y-50653811D01*
X122206370Y-50650843D01*
X122211746Y-50647970D01*
X122217129Y-50645260D01*
X122537769Y-50493609D01*
X122543324Y-50491148D01*
X122548919Y-50488830D01*
X122554584Y-50486646D01*
X122888463Y-50367182D01*
X122894225Y-50365277D01*
X122894232Y-50365275D01*
X122900053Y-50363508D01*
X122905875Y-50361897D01*
X123249923Y-50275717D01*
X123255847Y-50274387D01*
X123261787Y-50273206D01*
X123267746Y-50272171D01*
X123618606Y-50220127D01*
X123624536Y-50219395D01*
X123630671Y-50218791D01*
X123636668Y-50218349D01*
X123942885Y-50203305D01*
X123995499Y-50200721D01*
X123998517Y-50200611D01*
X123998593Y-50200609D01*
X124001566Y-50200537D01*
X124004577Y-50200500D01*
X165995423Y-50200500D01*
X165998438Y-50200537D01*
G37*
%TD.AperFunction*%
%TA.AperFunction,Conductor*%
G36*
X151277124Y-104472542D02*
G01*
X151315721Y-104496067D01*
X151315882Y-104495878D01*
X151317098Y-104496906D01*
X151317196Y-104496966D01*
X151317574Y-104497310D01*
X151345304Y-104519118D01*
X151345313Y-104519125D01*
X151375505Y-104539558D01*
X151375506Y-104539559D01*
X151375513Y-104539563D01*
X151375516Y-104539565D01*
X151378488Y-104541281D01*
X151378509Y-104541303D01*
X151378514Y-104541296D01*
X151386293Y-104545787D01*
X151411976Y-104565494D01*
X151434505Y-104588023D01*
X151454211Y-104613704D01*
X151470139Y-104641292D01*
X151482526Y-104671196D01*
X151490774Y-104701975D01*
X151490426Y-104716586D01*
X151495000Y-104734071D01*
X151495000Y-104765928D01*
X151490774Y-104798024D01*
X151482527Y-104828800D01*
X151470140Y-104858705D01*
X151454210Y-104886296D01*
X151434504Y-104911976D01*
X151411976Y-104934504D01*
X151386298Y-104954209D01*
X151358708Y-104970139D01*
X151340690Y-104977602D01*
X151337603Y-104979814D01*
X151335036Y-104979943D01*
X151328800Y-104982527D01*
X151298023Y-104990774D01*
X151265928Y-104995000D01*
X151234070Y-104995000D01*
X151201974Y-104990774D01*
X151171198Y-104982527D01*
X151147748Y-104972813D01*
X151145165Y-104972284D01*
X151144204Y-104971345D01*
X151141293Y-104970140D01*
X151113702Y-104954210D01*
X151088022Y-104934504D01*
X151065491Y-104911973D01*
X151045787Y-104886296D01*
X151037020Y-104871111D01*
X151006838Y-104829257D01*
X150995546Y-104816535D01*
X150965769Y-104753331D01*
X150974889Y-104684059D01*
X151000602Y-104646550D01*
X151146112Y-104501039D01*
X151207432Y-104467558D01*
X151277124Y-104472542D01*
G37*
%TD.AperFunction*%
%TD*%
%TA.AperFunction,Conductor*%
%TO.N,VCC_D*%
G36*
X122888796Y-100605023D02*
G01*
X122903794Y-100609427D01*
X122962567Y-100647196D01*
X122970583Y-100656446D01*
X122991435Y-100690201D01*
X123069056Y-100877593D01*
X123069057Y-100877595D01*
X123069058Y-100877596D01*
X123184023Y-101049656D01*
X123184027Y-101049661D01*
X123330336Y-101195970D01*
X123330340Y-101195973D01*
X123330342Y-101195975D01*
X123330345Y-101195977D01*
X123330349Y-101195980D01*
X123330348Y-101195980D01*
X123330411Y-101196032D01*
X123330448Y-101196046D01*
X123502402Y-101310941D01*
X123693580Y-101390130D01*
X123884540Y-101428114D01*
X123893559Y-101429908D01*
X123895794Y-101430409D01*
X123896532Y-101430500D01*
X124103466Y-101430500D01*
X124107586Y-101430500D01*
X124115435Y-101428118D01*
X124306420Y-101390130D01*
X124493546Y-101312618D01*
X124497030Y-101311319D01*
X124497592Y-101310943D01*
X124497594Y-101310943D01*
X124497595Y-101310942D01*
X124497598Y-101310941D01*
X124499758Y-101309497D01*
X124507705Y-101304193D01*
X124507740Y-101304163D01*
X124669655Y-101195977D01*
X124741632Y-101124000D01*
X124815976Y-101049657D01*
X124815977Y-101049655D01*
X124817636Y-101047172D01*
X124930941Y-100877598D01*
X125004718Y-100699483D01*
X125015568Y-100678968D01*
X125027997Y-100660007D01*
X125081208Y-100614733D01*
X125090161Y-100610741D01*
X125140643Y-100600000D01*
X133857670Y-100600000D01*
X133892606Y-100605023D01*
X133907604Y-100609427D01*
X133966355Y-100647172D01*
X133967542Y-100648541D01*
X133995018Y-100703402D01*
X133996663Y-100710960D01*
X133999500Y-100737331D01*
X133999500Y-102565891D01*
X134008505Y-102599498D01*
X134033608Y-102693188D01*
X134066121Y-102749500D01*
X134099500Y-102807314D01*
X134099502Y-102807316D01*
X138950573Y-107658387D01*
X138971723Y-107686639D01*
X138984331Y-107709728D01*
X138999500Y-107769157D01*
X138999500Y-108565891D01*
X139005201Y-108587168D01*
X139028991Y-108675958D01*
X139033608Y-108693187D01*
X139033610Y-108693190D01*
X139040324Y-108704819D01*
X139046849Y-108716120D01*
X139099500Y-108807314D01*
X139917686Y-109625500D01*
X140031814Y-109691392D01*
X140159108Y-109725500D01*
X140159110Y-109725500D01*
X153040890Y-109725500D01*
X153040892Y-109725500D01*
X153168186Y-109691392D01*
X153282314Y-109625500D01*
X153375500Y-109532314D01*
X153441392Y-109418186D01*
X153475500Y-109290892D01*
X153475500Y-109159108D01*
X153441392Y-109031814D01*
X153375500Y-108917686D01*
X153282314Y-108824500D01*
X153225250Y-108791554D01*
X153168187Y-108758608D01*
X153104539Y-108741554D01*
X153040892Y-108724500D01*
X153040891Y-108724500D01*
X149617330Y-108724500D01*
X149582389Y-108719475D01*
X149567390Y-108715070D01*
X149508644Y-108677327D01*
X149507457Y-108675958D01*
X149479977Y-108621083D01*
X149478332Y-108613521D01*
X149475500Y-108587168D01*
X149475500Y-106944108D01*
X156739500Y-106944108D01*
X156739500Y-107075892D01*
X156745826Y-107099500D01*
X156768474Y-107184027D01*
X156773609Y-107203189D01*
X156773611Y-107203194D01*
X156800346Y-107249499D01*
X156800347Y-107249500D01*
X156839500Y-107317314D01*
X156932686Y-107410500D01*
X157046814Y-107476392D01*
X157174108Y-107510500D01*
X157174110Y-107510500D01*
X157305890Y-107510500D01*
X157305892Y-107510500D01*
X157433186Y-107476392D01*
X157547314Y-107410500D01*
X157640500Y-107317314D01*
X157706392Y-107203186D01*
X157740500Y-107075892D01*
X157740500Y-106944108D01*
X157706392Y-106816814D01*
X157706387Y-106816806D01*
X157668105Y-106750500D01*
X157640500Y-106702686D01*
X157547314Y-106609500D01*
X157456929Y-106557316D01*
X157433187Y-106543608D01*
X157369539Y-106526554D01*
X157305892Y-106509500D01*
X157305891Y-106509500D01*
X157174108Y-106509500D01*
X157046808Y-106543609D01*
X157046806Y-106543610D01*
X156932696Y-106609493D01*
X156932682Y-106609502D01*
X156932677Y-106609506D01*
X156839506Y-106702677D01*
X156839502Y-106702682D01*
X156839493Y-106702696D01*
X156773610Y-106816806D01*
X156773609Y-106816808D01*
X156773608Y-106816812D01*
X156739500Y-106944108D01*
X149475500Y-106944108D01*
X149475500Y-106170132D01*
X149480522Y-106135199D01*
X149482148Y-106129661D01*
X149487934Y-106109954D01*
X149519228Y-106057212D01*
X150089870Y-105486569D01*
X150089876Y-105486566D01*
X150107313Y-105469129D01*
X150107314Y-105469129D01*
X150601706Y-104974734D01*
X150629952Y-104953591D01*
X150632104Y-104952415D01*
X150642132Y-104946939D01*
X150710404Y-104932087D01*
X150775869Y-104956503D01*
X150782674Y-104961597D01*
X150815752Y-104998864D01*
X150849495Y-105057307D01*
X150849498Y-105057311D01*
X150849500Y-105057314D01*
X150942686Y-105150500D01*
X151056814Y-105216392D01*
X151184108Y-105250500D01*
X151184110Y-105250500D01*
X151315890Y-105250500D01*
X151315892Y-105250500D01*
X151443186Y-105216392D01*
X151557314Y-105150500D01*
X151650500Y-105057314D01*
X151716392Y-104943186D01*
X151750500Y-104815892D01*
X151750500Y-104684108D01*
X152499500Y-104684108D01*
X152499500Y-104815891D01*
X152531048Y-104933634D01*
X152533609Y-104943189D01*
X152544548Y-104962136D01*
X152544549Y-104962137D01*
X152599497Y-105057310D01*
X152599498Y-105057311D01*
X152599500Y-105057314D01*
X152692686Y-105150500D01*
X152806814Y-105216392D01*
X152934108Y-105250500D01*
X152934110Y-105250500D01*
X153065890Y-105250500D01*
X153065892Y-105250500D01*
X153193186Y-105216392D01*
X153307314Y-105150500D01*
X153400500Y-105057314D01*
X153466392Y-104943186D01*
X153500500Y-104815892D01*
X153500500Y-104684108D01*
X153466392Y-104556814D01*
X153466387Y-104556806D01*
X153457563Y-104541521D01*
X153400500Y-104442686D01*
X153307314Y-104349500D01*
X153237816Y-104309375D01*
X153193188Y-104283608D01*
X153129539Y-104266554D01*
X153065892Y-104249500D01*
X153065891Y-104249500D01*
X152934108Y-104249500D01*
X152806808Y-104283609D01*
X152806806Y-104283610D01*
X152692696Y-104349493D01*
X152692682Y-104349502D01*
X152692677Y-104349506D01*
X152599506Y-104442677D01*
X152599502Y-104442682D01*
X152599493Y-104442696D01*
X152533610Y-104556806D01*
X152533609Y-104556808D01*
X152533608Y-104556812D01*
X152499500Y-104684108D01*
X151750500Y-104684108D01*
X151716392Y-104556814D01*
X151716387Y-104556806D01*
X151707563Y-104541521D01*
X151650500Y-104442686D01*
X151557314Y-104349500D01*
X151506248Y-104320017D01*
X151506248Y-104320016D01*
X151506245Y-104320015D01*
X151503248Y-104318285D01*
X151475518Y-104296477D01*
X151465933Y-104286425D01*
X151433920Y-104224327D01*
X151440560Y-104154775D01*
X151443724Y-104146873D01*
X151471155Y-104105288D01*
X151633758Y-103942686D01*
X151900499Y-103675945D01*
X151947341Y-103594814D01*
X151966392Y-103561816D01*
X151967598Y-103557314D01*
X151967599Y-103557313D01*
X151982821Y-103500500D01*
X152000500Y-103434523D01*
X152000500Y-103302738D01*
X152000500Y-101642329D01*
X152005523Y-101607393D01*
X152009927Y-101592395D01*
X152047672Y-101533644D01*
X152049041Y-101532457D01*
X152103920Y-101504977D01*
X152111479Y-101503333D01*
X152137832Y-101500500D01*
X154723494Y-101500500D01*
X154758426Y-101505521D01*
X154783670Y-101512934D01*
X154836416Y-101544230D01*
X158200573Y-104908387D01*
X158221723Y-104936639D01*
X158234331Y-104959728D01*
X158249500Y-105019157D01*
X158249500Y-111315891D01*
X158266554Y-111379539D01*
X158283608Y-111443188D01*
X158316121Y-111499500D01*
X158349500Y-111557314D01*
X158442686Y-111650500D01*
X158556814Y-111716392D01*
X158684108Y-111750500D01*
X158684110Y-111750500D01*
X158815890Y-111750500D01*
X158815892Y-111750500D01*
X158943186Y-111716392D01*
X159057314Y-111650500D01*
X159150500Y-111557314D01*
X159216392Y-111443186D01*
X159250500Y-111315892D01*
X159250500Y-108103471D01*
X164949499Y-108103471D01*
X164989864Y-108306394D01*
X164989868Y-108306412D01*
X164989870Y-108306420D01*
X165069058Y-108497596D01*
X165176408Y-108658258D01*
X165184027Y-108669661D01*
X165330336Y-108815970D01*
X165330340Y-108815973D01*
X165330342Y-108815975D01*
X165330345Y-108815977D01*
X165330349Y-108815980D01*
X165330348Y-108815980D01*
X165330411Y-108816032D01*
X165330448Y-108816046D01*
X165502402Y-108930941D01*
X165693580Y-109010130D01*
X165802594Y-109031814D01*
X165893559Y-109049908D01*
X165895794Y-109050409D01*
X165896532Y-109050500D01*
X166103466Y-109050500D01*
X166107586Y-109050500D01*
X166115435Y-109048118D01*
X166306420Y-109010130D01*
X166497598Y-108930941D01*
X166669655Y-108815977D01*
X166815977Y-108669655D01*
X166930941Y-108497598D01*
X167010130Y-108306420D01*
X167050500Y-108103465D01*
X167050500Y-107896535D01*
X167010130Y-107693580D01*
X166930941Y-107502402D01*
X166816046Y-107330449D01*
X166816036Y-107330417D01*
X166815980Y-107330348D01*
X166815980Y-107330349D01*
X166815977Y-107330345D01*
X166815975Y-107330342D01*
X166815973Y-107330340D01*
X166815970Y-107330336D01*
X166669662Y-107184028D01*
X166669655Y-107184022D01*
X166543156Y-107099499D01*
X166543156Y-107099500D01*
X166497598Y-107069059D01*
X166497595Y-107069057D01*
X166497594Y-107069057D01*
X166410977Y-107033179D01*
X166306420Y-106989870D01*
X166306412Y-106989868D01*
X166306404Y-106989866D01*
X166306394Y-106989864D01*
X166103471Y-106949500D01*
X166103469Y-106949500D01*
X166103465Y-106949500D01*
X165896535Y-106949500D01*
X165896530Y-106949500D01*
X165896528Y-106949500D01*
X165693604Y-106989864D01*
X165693579Y-106989870D01*
X165502404Y-107069057D01*
X165330337Y-107184027D01*
X165184027Y-107330337D01*
X165069057Y-107502404D01*
X164989870Y-107693579D01*
X164989864Y-107693604D01*
X164949500Y-107896527D01*
X164949500Y-107896530D01*
X164949500Y-108103469D01*
X164949500Y-108103471D01*
X164949499Y-108103471D01*
X159250500Y-108103471D01*
X159250500Y-105563471D01*
X164949499Y-105563471D01*
X164989864Y-105766394D01*
X164989868Y-105766412D01*
X164989868Y-105766416D01*
X165006809Y-105807314D01*
X165069058Y-105957596D01*
X165184023Y-106129655D01*
X165184027Y-106129661D01*
X165330336Y-106275970D01*
X165330340Y-106275973D01*
X165330342Y-106275975D01*
X165330345Y-106275977D01*
X165330349Y-106275980D01*
X165330348Y-106275980D01*
X165330411Y-106276032D01*
X165330448Y-106276046D01*
X165502402Y-106390941D01*
X165693580Y-106470130D01*
X165891508Y-106509500D01*
X165893555Y-106509907D01*
X165895793Y-106510409D01*
X165896532Y-106510500D01*
X166103466Y-106510500D01*
X166107586Y-106510500D01*
X166115435Y-106508118D01*
X166306420Y-106470130D01*
X166497598Y-106390941D01*
X166669655Y-106275977D01*
X166815977Y-106129655D01*
X166930941Y-105957598D01*
X167010130Y-105766420D01*
X167050500Y-105563465D01*
X167050500Y-105356535D01*
X167010130Y-105153580D01*
X166930941Y-104962402D01*
X166816046Y-104790449D01*
X166816036Y-104790417D01*
X166815980Y-104790348D01*
X166815980Y-104790349D01*
X166815977Y-104790345D01*
X166815975Y-104790342D01*
X166815973Y-104790340D01*
X166815970Y-104790336D01*
X166669659Y-104644025D01*
X166539885Y-104557314D01*
X166539125Y-104556806D01*
X166497598Y-104529059D01*
X166497593Y-104529057D01*
X166441602Y-104505864D01*
X166306420Y-104449870D01*
X166306412Y-104449868D01*
X166306404Y-104449866D01*
X166306394Y-104449864D01*
X166103471Y-104409500D01*
X166103469Y-104409500D01*
X166103465Y-104409500D01*
X165896535Y-104409500D01*
X165896530Y-104409500D01*
X165896528Y-104409500D01*
X165693604Y-104449864D01*
X165693579Y-104449870D01*
X165502404Y-104529057D01*
X165330337Y-104644027D01*
X165184027Y-104790337D01*
X165069057Y-104962404D01*
X164989870Y-105153579D01*
X164989864Y-105153604D01*
X164949500Y-105356527D01*
X164949500Y-105356530D01*
X164949500Y-105563469D01*
X164949500Y-105563471D01*
X164949499Y-105563471D01*
X159250500Y-105563471D01*
X159250500Y-104684108D01*
X159216392Y-104556814D01*
X159216387Y-104556806D01*
X159207563Y-104541521D01*
X159150500Y-104442686D01*
X159057314Y-104349500D01*
X157641922Y-102934108D01*
X160059500Y-102934108D01*
X160059500Y-103065891D01*
X160076554Y-103129539D01*
X160093608Y-103193188D01*
X160112780Y-103226394D01*
X160126554Y-103250250D01*
X160159500Y-103307314D01*
X160252686Y-103400500D01*
X160366814Y-103466392D01*
X160494108Y-103500500D01*
X160494110Y-103500500D01*
X160625890Y-103500500D01*
X160625892Y-103500500D01*
X160753186Y-103466392D01*
X160867314Y-103400500D01*
X160960500Y-103307314D01*
X161026392Y-103193186D01*
X161060500Y-103065892D01*
X161060500Y-103023471D01*
X164949499Y-103023471D01*
X164983259Y-103193187D01*
X164989868Y-103226412D01*
X164989870Y-103226420D01*
X165026930Y-103315890D01*
X165061976Y-103400500D01*
X165069058Y-103417596D01*
X165165423Y-103561818D01*
X165184027Y-103589661D01*
X165330336Y-103735970D01*
X165330340Y-103735973D01*
X165330342Y-103735975D01*
X165330345Y-103735977D01*
X165330349Y-103735980D01*
X165330348Y-103735980D01*
X165330411Y-103736032D01*
X165330448Y-103736046D01*
X165502402Y-103850941D01*
X165693580Y-103930130D01*
X165884540Y-103968114D01*
X165893559Y-103969908D01*
X165895794Y-103970409D01*
X165896532Y-103970500D01*
X166103466Y-103970500D01*
X166107586Y-103970500D01*
X166115435Y-103968118D01*
X166306420Y-103930130D01*
X166497598Y-103850941D01*
X166669655Y-103735977D01*
X166815977Y-103589655D01*
X166930941Y-103417598D01*
X167010130Y-103226420D01*
X167050500Y-103023465D01*
X167050500Y-102816535D01*
X167010130Y-102613580D01*
X166930941Y-102422402D01*
X166816046Y-102250449D01*
X166816036Y-102250417D01*
X166815980Y-102250348D01*
X166815980Y-102250349D01*
X166815977Y-102250345D01*
X166815975Y-102250342D01*
X166815973Y-102250340D01*
X166815970Y-102250336D01*
X166669662Y-102104028D01*
X166669655Y-102104022D01*
X166583626Y-102046540D01*
X166583625Y-102046540D01*
X166497604Y-101989062D01*
X166497591Y-101989055D01*
X166442876Y-101966392D01*
X166442875Y-101966392D01*
X166306420Y-101909870D01*
X166306412Y-101909868D01*
X166306404Y-101909866D01*
X166306394Y-101909864D01*
X166103471Y-101869500D01*
X166103469Y-101869500D01*
X166103465Y-101869500D01*
X165896535Y-101869500D01*
X165896530Y-101869500D01*
X165896528Y-101869500D01*
X165693604Y-101909864D01*
X165693579Y-101909870D01*
X165502404Y-101989057D01*
X165330337Y-102104027D01*
X165184027Y-102250337D01*
X165069057Y-102422404D01*
X164989870Y-102613579D01*
X164989864Y-102613604D01*
X164949500Y-102816527D01*
X164949500Y-102816530D01*
X164949500Y-103023469D01*
X164949500Y-103023471D01*
X164949499Y-103023471D01*
X161060500Y-103023471D01*
X161060500Y-102934108D01*
X161026392Y-102806814D01*
X160960500Y-102692686D01*
X160867314Y-102599500D01*
X160793380Y-102556814D01*
X160753187Y-102533608D01*
X160689539Y-102516554D01*
X160625892Y-102499500D01*
X160625891Y-102499500D01*
X160494108Y-102499500D01*
X160366808Y-102533609D01*
X160366806Y-102533610D01*
X160252696Y-102599493D01*
X160252682Y-102599502D01*
X160252677Y-102599506D01*
X160159506Y-102692677D01*
X160159502Y-102692682D01*
X160159493Y-102692696D01*
X160093610Y-102806806D01*
X160093609Y-102806808D01*
X160082168Y-102849506D01*
X160059500Y-102934108D01*
X157641922Y-102934108D01*
X155932102Y-101224288D01*
X155910953Y-101196038D01*
X155910950Y-101196032D01*
X155905531Y-101186108D01*
X155890678Y-101117838D01*
X155915092Y-101052373D01*
X155971022Y-101010501D01*
X155974901Y-101009054D01*
X155978237Y-101007811D01*
X156021551Y-101000000D01*
X160478123Y-101000000D01*
X160486225Y-101000265D01*
X160488749Y-101000430D01*
X160489813Y-101000500D01*
X160494108Y-101000500D01*
X160630186Y-101000500D01*
X160630187Y-101000500D01*
X160631250Y-101000430D01*
X160633775Y-101000265D01*
X160641877Y-101000000D01*
X165066795Y-101000000D01*
X165101729Y-101005023D01*
X165124946Y-101011840D01*
X165172477Y-101038214D01*
X165173612Y-101039224D01*
X165183013Y-101048541D01*
X165184022Y-101049654D01*
X165184027Y-101049660D01*
X165330342Y-101195975D01*
X165330345Y-101195977D01*
X165330349Y-101195980D01*
X165330348Y-101195980D01*
X165330411Y-101196032D01*
X165330448Y-101196046D01*
X165502402Y-101310941D01*
X165693580Y-101390130D01*
X165884540Y-101428114D01*
X165893559Y-101429908D01*
X165895794Y-101430409D01*
X165896532Y-101430500D01*
X166103466Y-101430500D01*
X166107586Y-101430500D01*
X166115435Y-101428118D01*
X166306420Y-101390130D01*
X166497598Y-101310941D01*
X166669655Y-101195977D01*
X166813714Y-101051917D01*
X166831571Y-101037129D01*
X166854247Y-101021681D01*
X166904825Y-101001661D01*
X166905407Y-101001569D01*
X166905846Y-101001501D01*
X166925080Y-101000000D01*
X169657670Y-101000000D01*
X169692606Y-101005023D01*
X169707604Y-101009427D01*
X169766355Y-101047172D01*
X169767542Y-101048541D01*
X169795018Y-101103402D01*
X169796663Y-101110960D01*
X169799500Y-101137331D01*
X169799500Y-115995423D01*
X169799462Y-115998483D01*
X169799387Y-116001521D01*
X169799276Y-116004546D01*
X169781651Y-116363291D01*
X169781203Y-116369361D01*
X169780606Y-116375422D01*
X169779861Y-116381461D01*
X169727835Y-116732203D01*
X169726794Y-116738202D01*
X169725607Y-116744169D01*
X169724274Y-116750106D01*
X169638111Y-117094087D01*
X169636484Y-117099964D01*
X169634720Y-117105777D01*
X169632814Y-117111545D01*
X169513360Y-117445395D01*
X169511173Y-117451066D01*
X169508848Y-117456680D01*
X169506379Y-117462251D01*
X169354763Y-117782817D01*
X169352024Y-117788257D01*
X169349154Y-117793626D01*
X169346156Y-117798918D01*
X169163864Y-118103053D01*
X169160611Y-118108191D01*
X169157243Y-118113232D01*
X169153736Y-118118212D01*
X168942489Y-118403044D01*
X168938744Y-118407842D01*
X168934886Y-118412543D01*
X168930911Y-118417151D01*
X168692784Y-118679885D01*
X168688587Y-118684293D01*
X168684293Y-118688587D01*
X168679885Y-118692784D01*
X168417151Y-118930911D01*
X168412543Y-118934886D01*
X168407842Y-118938744D01*
X168403044Y-118942489D01*
X168118212Y-119153736D01*
X168113232Y-119157243D01*
X168108191Y-119160611D01*
X168103053Y-119163864D01*
X167798918Y-119346156D01*
X167793626Y-119349154D01*
X167788257Y-119352024D01*
X167782817Y-119354763D01*
X167462251Y-119506379D01*
X167456680Y-119508848D01*
X167451066Y-119511173D01*
X167445395Y-119513360D01*
X167111545Y-119632814D01*
X167105777Y-119634720D01*
X167099964Y-119636484D01*
X167094087Y-119638111D01*
X166750106Y-119724274D01*
X166744169Y-119725607D01*
X166738202Y-119726794D01*
X166732203Y-119727835D01*
X166381461Y-119779861D01*
X166375422Y-119780606D01*
X166369361Y-119781203D01*
X166363291Y-119781651D01*
X166004547Y-119799276D01*
X166001522Y-119799387D01*
X165998484Y-119799462D01*
X165995424Y-119799500D01*
X140379500Y-119799500D01*
X140312461Y-119779815D01*
X140266706Y-119727011D01*
X140255500Y-119675500D01*
X140255500Y-117434108D01*
X158249500Y-117434108D01*
X158249500Y-117565891D01*
X158283608Y-117693187D01*
X158286659Y-117698471D01*
X158286662Y-117698484D01*
X158286666Y-117698483D01*
X158349500Y-117807314D01*
X158442686Y-117900500D01*
X158556814Y-117966392D01*
X158684108Y-118000500D01*
X158684110Y-118000500D01*
X158815890Y-118000500D01*
X158815892Y-118000500D01*
X158943186Y-117966392D01*
X159057314Y-117900500D01*
X159150500Y-117807314D01*
X159216392Y-117693186D01*
X159250500Y-117565892D01*
X159250500Y-117434108D01*
X160249500Y-117434108D01*
X160249500Y-117565891D01*
X160283608Y-117693187D01*
X160286659Y-117698471D01*
X160286662Y-117698484D01*
X160286666Y-117698483D01*
X160349500Y-117807314D01*
X160442686Y-117900500D01*
X160556814Y-117966392D01*
X160684108Y-118000500D01*
X160684110Y-118000500D01*
X160815890Y-118000500D01*
X160815892Y-118000500D01*
X160943186Y-117966392D01*
X161057314Y-117900500D01*
X161150500Y-117807314D01*
X161216392Y-117693186D01*
X161250500Y-117565892D01*
X161250500Y-117434108D01*
X161216392Y-117306814D01*
X161216387Y-117306806D01*
X161169378Y-117225384D01*
X161150500Y-117192686D01*
X161057314Y-117099500D01*
X160952297Y-117038868D01*
X160952292Y-117038865D01*
X160943189Y-117033608D01*
X160879539Y-117016554D01*
X160855560Y-117010129D01*
X160815892Y-116999500D01*
X160815891Y-116999500D01*
X160684108Y-116999500D01*
X160556808Y-117033609D01*
X160556806Y-117033610D01*
X160442696Y-117099493D01*
X160442682Y-117099502D01*
X160442677Y-117099506D01*
X160349506Y-117192677D01*
X160349502Y-117192682D01*
X160349493Y-117192696D01*
X160283610Y-117306806D01*
X160283609Y-117306808D01*
X160272571Y-117348002D01*
X160249500Y-117434108D01*
X159250500Y-117434108D01*
X159216392Y-117306814D01*
X159216387Y-117306806D01*
X159169378Y-117225384D01*
X159150500Y-117192686D01*
X159057314Y-117099500D01*
X158952297Y-117038868D01*
X158952292Y-117038865D01*
X158943189Y-117033608D01*
X158879539Y-117016554D01*
X158855560Y-117010129D01*
X158815892Y-116999500D01*
X158815891Y-116999500D01*
X158684108Y-116999500D01*
X158556808Y-117033609D01*
X158556806Y-117033610D01*
X158442696Y-117099493D01*
X158442682Y-117099502D01*
X158442677Y-117099506D01*
X158349506Y-117192677D01*
X158349502Y-117192682D01*
X158349493Y-117192696D01*
X158283610Y-117306806D01*
X158283609Y-117306808D01*
X158272571Y-117348002D01*
X158249500Y-117434108D01*
X140255500Y-117434108D01*
X140255500Y-117348005D01*
X140255499Y-117347998D01*
X140250325Y-117306808D01*
X140247563Y-117284813D01*
X140232394Y-117225384D01*
X140220880Y-117190793D01*
X140165493Y-117107904D01*
X140116087Y-117058500D01*
X140081140Y-117029294D01*
X140081138Y-117029293D01*
X140081132Y-117029289D01*
X139989738Y-116989508D01*
X139989735Y-116989507D01*
X139938527Y-116978368D01*
X139921459Y-116974656D01*
X139914967Y-116973840D01*
X139876265Y-116968980D01*
X139844336Y-116974155D01*
X139775011Y-116965448D01*
X139721398Y-116920643D01*
X139700520Y-116853966D01*
X139700500Y-116851752D01*
X139700500Y-116103471D01*
X140139499Y-116103471D01*
X140179864Y-116306394D01*
X140179868Y-116306412D01*
X140179870Y-116306420D01*
X140210953Y-116381461D01*
X140254511Y-116486620D01*
X140259058Y-116497596D01*
X140374023Y-116669655D01*
X140374027Y-116669661D01*
X140520336Y-116815970D01*
X140520340Y-116815973D01*
X140520342Y-116815975D01*
X140520345Y-116815977D01*
X140520349Y-116815980D01*
X140520348Y-116815980D01*
X140520411Y-116816032D01*
X140520448Y-116816046D01*
X140692402Y-116930941D01*
X140883580Y-117010130D01*
X141001613Y-117033608D01*
X141071714Y-117047552D01*
X141083559Y-117049908D01*
X141085794Y-117050409D01*
X141086532Y-117050500D01*
X141293466Y-117050500D01*
X141297586Y-117050500D01*
X141305435Y-117048118D01*
X141496420Y-117010130D01*
X141687598Y-116930941D01*
X141859655Y-116815977D01*
X142005977Y-116669655D01*
X142120941Y-116497598D01*
X142200130Y-116306420D01*
X142240499Y-116103471D01*
X142679499Y-116103471D01*
X142719864Y-116306394D01*
X142719868Y-116306412D01*
X142719870Y-116306420D01*
X142750953Y-116381461D01*
X142794511Y-116486620D01*
X142799058Y-116497596D01*
X142914023Y-116669655D01*
X142914027Y-116669661D01*
X143060336Y-116815970D01*
X143060340Y-116815973D01*
X143060342Y-116815975D01*
X143060345Y-116815977D01*
X143060349Y-116815980D01*
X143060348Y-116815980D01*
X143060411Y-116816032D01*
X143060448Y-116816046D01*
X143232402Y-116930941D01*
X143423580Y-117010130D01*
X143541613Y-117033608D01*
X143611714Y-117047552D01*
X143623559Y-117049908D01*
X143625794Y-117050409D01*
X143626532Y-117050500D01*
X143833466Y-117050500D01*
X143837586Y-117050500D01*
X143845435Y-117048118D01*
X144036420Y-117010130D01*
X144227598Y-116930941D01*
X144399655Y-116815977D01*
X144545977Y-116669655D01*
X144660941Y-116497598D01*
X144740130Y-116306420D01*
X144780499Y-116103471D01*
X145219499Y-116103471D01*
X145259864Y-116306394D01*
X145259868Y-116306412D01*
X145259870Y-116306420D01*
X145290953Y-116381461D01*
X145334511Y-116486620D01*
X145339058Y-116497596D01*
X145454023Y-116669655D01*
X145454027Y-116669661D01*
X145600336Y-116815970D01*
X145600340Y-116815973D01*
X145600342Y-116815975D01*
X145600345Y-116815977D01*
X145600349Y-116815980D01*
X145600348Y-116815980D01*
X145600411Y-116816032D01*
X145600448Y-116816046D01*
X145772402Y-116930941D01*
X145963580Y-117010130D01*
X146081613Y-117033608D01*
X146151714Y-117047552D01*
X146163559Y-117049908D01*
X146165794Y-117050409D01*
X146166532Y-117050500D01*
X146373466Y-117050500D01*
X146377586Y-117050500D01*
X146385435Y-117048118D01*
X146576420Y-117010130D01*
X146767598Y-116930941D01*
X146939655Y-116815977D01*
X147085977Y-116669655D01*
X147200941Y-116497598D01*
X147280130Y-116306420D01*
X147320499Y-116103471D01*
X147759499Y-116103471D01*
X147799864Y-116306394D01*
X147799868Y-116306412D01*
X147799870Y-116306420D01*
X147830953Y-116381461D01*
X147874511Y-116486620D01*
X147879058Y-116497596D01*
X147994023Y-116669655D01*
X147994027Y-116669661D01*
X148140336Y-116815970D01*
X148140340Y-116815973D01*
X148140342Y-116815975D01*
X148140345Y-116815977D01*
X148140349Y-116815980D01*
X148140348Y-116815980D01*
X148140411Y-116816032D01*
X148140448Y-116816046D01*
X148312402Y-116930941D01*
X148503580Y-117010130D01*
X148621613Y-117033608D01*
X148691714Y-117047552D01*
X148703559Y-117049908D01*
X148705794Y-117050409D01*
X148706532Y-117050500D01*
X148913466Y-117050500D01*
X148917586Y-117050500D01*
X148925435Y-117048118D01*
X149116420Y-117010130D01*
X149307598Y-116930941D01*
X149479655Y-116815977D01*
X149625977Y-116669655D01*
X149740941Y-116497598D01*
X149820130Y-116306420D01*
X149860499Y-116103471D01*
X150299499Y-116103471D01*
X150339864Y-116306394D01*
X150339868Y-116306412D01*
X150339870Y-116306420D01*
X150370953Y-116381461D01*
X150414511Y-116486620D01*
X150419058Y-116497596D01*
X150534023Y-116669655D01*
X150534027Y-116669661D01*
X150680336Y-116815970D01*
X150680340Y-116815973D01*
X150680342Y-116815975D01*
X150680345Y-116815977D01*
X150680349Y-116815980D01*
X150680348Y-116815980D01*
X150680411Y-116816032D01*
X150680448Y-116816046D01*
X150852402Y-116930941D01*
X151043580Y-117010130D01*
X151161613Y-117033608D01*
X151231714Y-117047552D01*
X151243559Y-117049908D01*
X151245794Y-117050409D01*
X151246532Y-117050500D01*
X151453466Y-117050500D01*
X151457586Y-117050500D01*
X151465435Y-117048118D01*
X151656420Y-117010130D01*
X151847598Y-116930941D01*
X152019655Y-116815977D01*
X152165977Y-116669655D01*
X152280941Y-116497598D01*
X152360130Y-116306420D01*
X152400500Y-116103465D01*
X152400500Y-115896535D01*
X152388678Y-115837101D01*
X163099500Y-115837101D01*
X163099500Y-116162897D01*
X163135971Y-116486584D01*
X163135975Y-116486616D01*
X163135976Y-116486620D01*
X163194759Y-116744169D01*
X163208467Y-116804225D01*
X163208471Y-116804241D01*
X163208478Y-116804262D01*
X163316063Y-117111718D01*
X163316069Y-117111732D01*
X163457411Y-117405231D01*
X163457413Y-117405234D01*
X163491513Y-117459504D01*
X163630739Y-117681081D01*
X163833857Y-117935783D01*
X164064217Y-118166143D01*
X164318919Y-118369261D01*
X164594763Y-118542585D01*
X164888278Y-118683935D01*
X164888284Y-118683937D01*
X165119205Y-118764740D01*
X165119209Y-118764741D01*
X165119217Y-118764744D01*
X165154947Y-118777246D01*
X165195757Y-118791527D01*
X165195761Y-118791528D01*
X165195773Y-118791532D01*
X165513383Y-118864024D01*
X165513391Y-118864024D01*
X165513396Y-118864026D01*
X165658588Y-118880384D01*
X165819711Y-118898539D01*
X165827312Y-118900500D01*
X166162893Y-118900500D01*
X166188391Y-118900500D01*
X166193525Y-118897696D01*
X166205996Y-118895642D01*
X166386294Y-118875327D01*
X166486603Y-118864026D01*
X166486609Y-118864024D01*
X166486617Y-118864024D01*
X166804227Y-118791532D01*
X167111722Y-118683935D01*
X167405237Y-118542585D01*
X167681081Y-118369261D01*
X167935783Y-118166143D01*
X168166143Y-117935783D01*
X168369261Y-117681081D01*
X168542585Y-117405237D01*
X168683935Y-117111722D01*
X168791532Y-116804227D01*
X168864024Y-116486617D01*
X168900500Y-116162889D01*
X168900500Y-115837111D01*
X168864024Y-115513383D01*
X168791532Y-115195773D01*
X168768603Y-115130247D01*
X168764744Y-115119217D01*
X168683935Y-114888278D01*
X168683929Y-114888266D01*
X168542586Y-114594765D01*
X168542585Y-114594763D01*
X168369261Y-114318919D01*
X168166143Y-114064217D01*
X167935783Y-113833857D01*
X167681081Y-113630739D01*
X167406649Y-113458302D01*
X167405590Y-113457616D01*
X167405232Y-113457412D01*
X167111732Y-113316069D01*
X167111718Y-113316063D01*
X166804262Y-113208478D01*
X166804241Y-113208471D01*
X166804229Y-113208468D01*
X166804226Y-113208467D01*
X166486620Y-113135976D01*
X166486616Y-113135975D01*
X166486584Y-113135971D01*
X166162897Y-113099500D01*
X166162893Y-113099500D01*
X166162889Y-113099500D01*
X165837111Y-113099500D01*
X165837107Y-113099500D01*
X165837102Y-113099500D01*
X165513414Y-113135971D01*
X165513382Y-113135975D01*
X165195773Y-113208467D01*
X165195757Y-113208471D01*
X165195736Y-113208478D01*
X164888280Y-113316063D01*
X164888266Y-113316069D01*
X164594767Y-113457411D01*
X164318917Y-113630739D01*
X164318915Y-113630740D01*
X164064223Y-113833849D01*
X163833849Y-114064223D01*
X163630740Y-114318915D01*
X163630739Y-114318917D01*
X163457411Y-114594767D01*
X163316069Y-114888266D01*
X163316063Y-114888280D01*
X163208478Y-115195736D01*
X163208471Y-115195757D01*
X163208467Y-115195773D01*
X163135975Y-115513382D01*
X163135971Y-115513414D01*
X163099500Y-115837101D01*
X152388678Y-115837101D01*
X152360130Y-115693580D01*
X152280941Y-115502402D01*
X152165977Y-115330345D01*
X152165975Y-115330342D01*
X152098425Y-115262792D01*
X152098401Y-115262767D01*
X152019742Y-115184108D01*
X156499500Y-115184108D01*
X156499500Y-115315891D01*
X156503371Y-115330337D01*
X156533608Y-115443188D01*
X156563234Y-115494500D01*
X156566554Y-115500250D01*
X156599500Y-115557314D01*
X156692686Y-115650500D01*
X156806814Y-115716392D01*
X156934108Y-115750500D01*
X156934110Y-115750500D01*
X157065890Y-115750500D01*
X157065892Y-115750500D01*
X157193186Y-115716392D01*
X157307314Y-115650500D01*
X157400500Y-115557314D01*
X157466392Y-115443186D01*
X157500500Y-115315892D01*
X157500500Y-115184108D01*
X157466392Y-115056814D01*
X157466387Y-115056806D01*
X157446465Y-115022299D01*
X157400500Y-114942686D01*
X157307314Y-114849500D01*
X157250250Y-114816554D01*
X157193187Y-114783608D01*
X157129539Y-114766554D01*
X157065892Y-114749500D01*
X157065891Y-114749500D01*
X156934108Y-114749500D01*
X156806808Y-114783609D01*
X156806806Y-114783610D01*
X156692696Y-114849493D01*
X156692682Y-114849502D01*
X156692677Y-114849506D01*
X156599506Y-114942677D01*
X156599502Y-114942682D01*
X156599493Y-114942696D01*
X156533610Y-115056806D01*
X156533609Y-115056808D01*
X156516886Y-115119220D01*
X156499500Y-115184108D01*
X152019742Y-115184108D01*
X152019662Y-115184028D01*
X152019655Y-115184022D01*
X151851655Y-115071769D01*
X151851655Y-115071770D01*
X151847598Y-115069059D01*
X151847597Y-115069058D01*
X151847595Y-115069057D01*
X151823493Y-115059074D01*
X151818031Y-115056812D01*
X151656420Y-114989870D01*
X151656412Y-114989868D01*
X151656404Y-114989866D01*
X151656394Y-114989864D01*
X151453471Y-114949500D01*
X151453469Y-114949500D01*
X151453465Y-114949500D01*
X151246535Y-114949500D01*
X151246530Y-114949500D01*
X151246528Y-114949500D01*
X151043604Y-114989864D01*
X151043579Y-114989870D01*
X150852404Y-115069057D01*
X150680337Y-115184027D01*
X150534027Y-115330337D01*
X150419057Y-115502404D01*
X150339870Y-115693579D01*
X150339864Y-115693604D01*
X150299500Y-115896527D01*
X150299500Y-115896528D01*
X150299500Y-115896530D01*
X150299500Y-116103469D01*
X150299500Y-116103471D01*
X150299499Y-116103471D01*
X149860499Y-116103471D01*
X149860500Y-116103465D01*
X149860500Y-115896535D01*
X149860498Y-115896527D01*
X149831452Y-115750499D01*
X149820130Y-115693580D01*
X149740941Y-115502402D01*
X149626046Y-115330449D01*
X149626036Y-115330417D01*
X149625980Y-115330348D01*
X149625980Y-115330349D01*
X149625977Y-115330345D01*
X149625975Y-115330342D01*
X149625973Y-115330340D01*
X149625970Y-115330336D01*
X149479662Y-115184028D01*
X149479655Y-115184022D01*
X149311655Y-115071769D01*
X149311655Y-115071770D01*
X149307598Y-115069059D01*
X149307597Y-115069058D01*
X149307595Y-115069057D01*
X149283493Y-115059074D01*
X149278031Y-115056812D01*
X149116420Y-114989870D01*
X149116412Y-114989868D01*
X149116404Y-114989866D01*
X149116394Y-114989864D01*
X148913471Y-114949500D01*
X148913469Y-114949500D01*
X148913465Y-114949500D01*
X148706535Y-114949500D01*
X148706530Y-114949500D01*
X148706528Y-114949500D01*
X148503604Y-114989864D01*
X148503579Y-114989870D01*
X148312404Y-115069057D01*
X148140337Y-115184027D01*
X147994027Y-115330337D01*
X147879057Y-115502404D01*
X147799870Y-115693579D01*
X147799864Y-115693604D01*
X147759500Y-115896527D01*
X147759500Y-115896528D01*
X147759500Y-115896530D01*
X147759500Y-116103469D01*
X147759500Y-116103471D01*
X147759499Y-116103471D01*
X147320499Y-116103471D01*
X147320500Y-116103465D01*
X147320500Y-115896535D01*
X147320498Y-115896527D01*
X147291452Y-115750499D01*
X147280130Y-115693580D01*
X147200941Y-115502402D01*
X147086046Y-115330449D01*
X147086036Y-115330417D01*
X147085980Y-115330348D01*
X147085980Y-115330349D01*
X147085977Y-115330345D01*
X147085975Y-115330342D01*
X147085973Y-115330340D01*
X147085970Y-115330336D01*
X146939662Y-115184028D01*
X146939655Y-115184022D01*
X146771655Y-115071769D01*
X146771655Y-115071770D01*
X146767598Y-115069059D01*
X146767597Y-115069058D01*
X146767595Y-115069057D01*
X146743493Y-115059074D01*
X146738031Y-115056812D01*
X146576420Y-114989870D01*
X146576412Y-114989868D01*
X146576404Y-114989866D01*
X146576394Y-114989864D01*
X146373471Y-114949500D01*
X146373469Y-114949500D01*
X146373465Y-114949500D01*
X146166535Y-114949500D01*
X146166530Y-114949500D01*
X146166528Y-114949500D01*
X145963604Y-114989864D01*
X145963579Y-114989870D01*
X145772404Y-115069057D01*
X145600337Y-115184027D01*
X145454027Y-115330337D01*
X145339057Y-115502404D01*
X145259870Y-115693579D01*
X145259864Y-115693604D01*
X145219500Y-115896527D01*
X145219500Y-115896528D01*
X145219500Y-115896530D01*
X145219500Y-116103469D01*
X145219500Y-116103471D01*
X145219499Y-116103471D01*
X144780499Y-116103471D01*
X144780500Y-116103465D01*
X144780500Y-115896535D01*
X144780498Y-115896527D01*
X144751452Y-115750499D01*
X144740130Y-115693580D01*
X144660941Y-115502402D01*
X144546046Y-115330449D01*
X144546036Y-115330417D01*
X144545980Y-115330348D01*
X144545980Y-115330349D01*
X144545977Y-115330345D01*
X144545975Y-115330342D01*
X144545973Y-115330340D01*
X144545970Y-115330336D01*
X144399662Y-115184028D01*
X144399655Y-115184022D01*
X144231655Y-115071769D01*
X144231655Y-115071770D01*
X144227598Y-115069059D01*
X144227597Y-115069058D01*
X144227595Y-115069057D01*
X144203493Y-115059074D01*
X144198031Y-115056812D01*
X144036420Y-114989870D01*
X144036412Y-114989868D01*
X144036404Y-114989866D01*
X144036394Y-114989864D01*
X143833471Y-114949500D01*
X143833469Y-114949500D01*
X143833465Y-114949500D01*
X143626535Y-114949500D01*
X143626530Y-114949500D01*
X143626528Y-114949500D01*
X143423604Y-114989864D01*
X143423579Y-114989870D01*
X143232404Y-115069057D01*
X143060337Y-115184027D01*
X142914027Y-115330337D01*
X142799057Y-115502404D01*
X142719870Y-115693579D01*
X142719864Y-115693604D01*
X142679500Y-115896527D01*
X142679500Y-115896528D01*
X142679500Y-115896530D01*
X142679500Y-116103469D01*
X142679500Y-116103471D01*
X142679499Y-116103471D01*
X142240499Y-116103471D01*
X142240500Y-116103465D01*
X142240500Y-115896535D01*
X142240498Y-115896527D01*
X142211452Y-115750499D01*
X142200130Y-115693580D01*
X142120941Y-115502402D01*
X142006046Y-115330449D01*
X142006036Y-115330417D01*
X142005980Y-115330348D01*
X142005980Y-115330349D01*
X142005977Y-115330345D01*
X142005975Y-115330342D01*
X142005973Y-115330340D01*
X142005970Y-115330336D01*
X141859662Y-115184028D01*
X141859655Y-115184022D01*
X141691655Y-115071769D01*
X141691655Y-115071770D01*
X141687598Y-115069059D01*
X141687597Y-115069058D01*
X141687595Y-115069057D01*
X141663493Y-115059074D01*
X141658031Y-115056812D01*
X141496420Y-114989870D01*
X141496412Y-114989868D01*
X141496404Y-114989866D01*
X141496394Y-114989864D01*
X141293471Y-114949500D01*
X141293469Y-114949500D01*
X141293465Y-114949500D01*
X141086535Y-114949500D01*
X141086530Y-114949500D01*
X141086528Y-114949500D01*
X140883604Y-114989864D01*
X140883579Y-114989870D01*
X140692404Y-115069057D01*
X140520337Y-115184027D01*
X140374027Y-115330337D01*
X140259057Y-115502404D01*
X140179870Y-115693579D01*
X140179864Y-115693604D01*
X140139500Y-115896527D01*
X140139500Y-115896528D01*
X140139500Y-115896530D01*
X140139500Y-116103469D01*
X140139500Y-116103471D01*
X140139499Y-116103471D01*
X139700500Y-116103471D01*
X139700500Y-115148048D01*
X139720185Y-115081009D01*
X139772989Y-115035254D01*
X139831134Y-115024226D01*
X139894717Y-115027634D01*
X139963875Y-115017690D01*
X139963883Y-115017688D01*
X139963884Y-115017688D01*
X139974198Y-115015250D01*
X140008198Y-115007216D01*
X140094828Y-114957885D01*
X140147632Y-114912130D01*
X140179257Y-114879356D01*
X140225465Y-114791021D01*
X140227642Y-114783609D01*
X140237657Y-114749500D01*
X140245150Y-114723982D01*
X140255500Y-114651997D01*
X140255500Y-114374000D01*
X140249661Y-114319687D01*
X140238455Y-114268176D01*
X140231219Y-114241802D01*
X140231216Y-114241796D01*
X140181894Y-114155181D01*
X140181890Y-114155176D01*
X140181888Y-114155172D01*
X140136133Y-114102368D01*
X140103359Y-114070743D01*
X140015024Y-114024535D01*
X140015023Y-114024534D01*
X140015022Y-114024534D01*
X140015022Y-114024533D01*
X139947990Y-114004851D01*
X139947978Y-114004848D01*
X139876001Y-113994500D01*
X139876000Y-113994500D01*
X138379500Y-113994500D01*
X138312461Y-113974815D01*
X138266706Y-113922011D01*
X138255500Y-113870500D01*
X138255500Y-113434108D01*
X145924500Y-113434108D01*
X145924500Y-113565891D01*
X145941554Y-113629539D01*
X145958608Y-113693188D01*
X145972005Y-113716391D01*
X146024500Y-113807314D01*
X146117686Y-113900500D01*
X146231814Y-113966392D01*
X146359108Y-114000500D01*
X146359110Y-114000500D01*
X146490890Y-114000500D01*
X146490892Y-114000500D01*
X146618186Y-113966392D01*
X146732314Y-113900500D01*
X146825500Y-113807314D01*
X146891392Y-113693186D01*
X146925500Y-113565892D01*
X146925500Y-113434108D01*
X146891392Y-113306814D01*
X146825500Y-113192686D01*
X146816922Y-113184108D01*
X156499500Y-113184108D01*
X156499500Y-113315892D01*
X156499547Y-113316066D01*
X156503426Y-113330546D01*
X156503427Y-113330547D01*
X156533608Y-113443188D01*
X156537569Y-113450048D01*
X156541818Y-113457406D01*
X156541820Y-113457413D01*
X156541822Y-113457413D01*
X156599500Y-113557314D01*
X156692686Y-113650500D01*
X156806814Y-113716392D01*
X156934108Y-113750500D01*
X156934110Y-113750500D01*
X157065890Y-113750500D01*
X157065892Y-113750500D01*
X157193186Y-113716392D01*
X157307314Y-113650500D01*
X157400500Y-113557314D01*
X157466392Y-113443186D01*
X157500500Y-113315892D01*
X157500500Y-113184108D01*
X157466392Y-113056814D01*
X157466387Y-113056806D01*
X157452995Y-113033610D01*
X157400500Y-112942686D01*
X157307314Y-112849500D01*
X157250250Y-112816554D01*
X157193187Y-112783608D01*
X157129539Y-112766554D01*
X157065892Y-112749500D01*
X157065891Y-112749500D01*
X156934108Y-112749500D01*
X156806808Y-112783609D01*
X156806806Y-112783610D01*
X156692696Y-112849493D01*
X156692682Y-112849502D01*
X156692677Y-112849506D01*
X156599506Y-112942677D01*
X156599502Y-112942682D01*
X156599493Y-112942696D01*
X156533610Y-113056806D01*
X156533609Y-113056807D01*
X156533608Y-113056812D01*
X156522170Y-113099500D01*
X156522170Y-113099501D01*
X156522169Y-113099500D01*
X156499722Y-113183276D01*
X156499722Y-113183279D01*
X156499500Y-113184108D01*
X146816922Y-113184108D01*
X146732314Y-113099500D01*
X146658380Y-113056814D01*
X146618187Y-113033608D01*
X146554539Y-113016554D01*
X146490892Y-112999500D01*
X146490891Y-112999500D01*
X146359108Y-112999500D01*
X146231808Y-113033609D01*
X146231806Y-113033610D01*
X146117696Y-113099493D01*
X146117682Y-113099502D01*
X146117677Y-113099506D01*
X146024506Y-113192677D01*
X146024502Y-113192682D01*
X146024493Y-113192696D01*
X145958610Y-113306806D01*
X145958609Y-113306808D01*
X145958608Y-113306812D01*
X145924500Y-113434108D01*
X138255500Y-113434108D01*
X138255500Y-111451363D01*
X138254575Y-111434108D01*
X138999500Y-111434108D01*
X138999500Y-111565891D01*
X139016554Y-111629539D01*
X139033608Y-111693188D01*
X139047005Y-111716391D01*
X139099500Y-111807314D01*
X139192686Y-111900500D01*
X139306814Y-111966392D01*
X139434108Y-112000500D01*
X139434110Y-112000500D01*
X139565890Y-112000500D01*
X139565892Y-112000500D01*
X139693186Y-111966392D01*
X139807314Y-111900500D01*
X139900500Y-111807314D01*
X139966392Y-111693186D01*
X140000500Y-111565892D01*
X140000500Y-111434108D01*
X140749500Y-111434108D01*
X140749500Y-111565891D01*
X140766554Y-111629539D01*
X140783608Y-111693188D01*
X140797005Y-111716391D01*
X140849500Y-111807314D01*
X140942686Y-111900500D01*
X141056814Y-111966392D01*
X141184108Y-112000500D01*
X141184110Y-112000500D01*
X141315890Y-112000500D01*
X141315892Y-112000500D01*
X141443186Y-111966392D01*
X141557314Y-111900500D01*
X141650500Y-111807314D01*
X141716392Y-111693186D01*
X141750500Y-111565892D01*
X141750500Y-111434108D01*
X141999500Y-111434108D01*
X141999500Y-111565891D01*
X142016554Y-111629539D01*
X142033608Y-111693188D01*
X142047005Y-111716391D01*
X142099500Y-111807314D01*
X142099502Y-111807316D01*
X142188283Y-111896097D01*
X142200754Y-111910664D01*
X142212855Y-111927240D01*
X142236484Y-111992993D01*
X142220817Y-112061078D01*
X142215994Y-112069665D01*
X142195562Y-112096622D01*
X142099502Y-112192682D01*
X142099493Y-112192696D01*
X142033610Y-112306806D01*
X142033609Y-112306808D01*
X142033608Y-112306812D01*
X141999500Y-112434108D01*
X141999500Y-112565891D01*
X142016554Y-112629539D01*
X142033608Y-112693188D01*
X142066121Y-112749500D01*
X142099500Y-112807314D01*
X142192686Y-112900500D01*
X142306814Y-112966392D01*
X142434108Y-113000500D01*
X142434110Y-113000500D01*
X142565890Y-113000500D01*
X142565892Y-113000500D01*
X142693186Y-112966392D01*
X142807314Y-112900500D01*
X142900500Y-112807314D01*
X142966392Y-112693186D01*
X143000500Y-112565892D01*
X143000500Y-112434108D01*
X142966392Y-112306814D01*
X142966387Y-112306806D01*
X142957563Y-112291521D01*
X142900500Y-112192686D01*
X142811717Y-112103903D01*
X142799254Y-112089345D01*
X142787150Y-112072768D01*
X142763514Y-112007017D01*
X142779176Y-111938931D01*
X142783998Y-111930344D01*
X142804436Y-111903376D01*
X142807310Y-111900502D01*
X142807314Y-111900500D01*
X142900500Y-111807314D01*
X142966392Y-111693186D01*
X143000500Y-111565892D01*
X143000500Y-111434108D01*
X145999500Y-111434108D01*
X145999500Y-111565891D01*
X146016554Y-111629539D01*
X146033608Y-111693188D01*
X146047005Y-111716391D01*
X146099500Y-111807314D01*
X146192686Y-111900500D01*
X146306814Y-111966392D01*
X146434108Y-112000500D01*
X146434110Y-112000500D01*
X146565890Y-112000500D01*
X146565892Y-112000500D01*
X146693186Y-111966392D01*
X146807314Y-111900500D01*
X146900500Y-111807314D01*
X146966392Y-111693186D01*
X147000500Y-111565892D01*
X147000500Y-111434108D01*
X147749500Y-111434108D01*
X147749500Y-111565891D01*
X147766554Y-111629539D01*
X147783608Y-111693188D01*
X147797005Y-111716391D01*
X147849500Y-111807314D01*
X147942686Y-111900500D01*
X148056814Y-111966392D01*
X148184108Y-112000500D01*
X148184110Y-112000500D01*
X148315890Y-112000500D01*
X148315892Y-112000500D01*
X148443186Y-111966392D01*
X148557314Y-111900500D01*
X148650500Y-111807314D01*
X148716392Y-111693186D01*
X148750500Y-111565892D01*
X148750500Y-111434108D01*
X149999500Y-111434108D01*
X149999500Y-111565891D01*
X150016554Y-111629539D01*
X150033608Y-111693188D01*
X150047005Y-111716391D01*
X150099500Y-111807314D01*
X150192686Y-111900500D01*
X150306814Y-111966392D01*
X150434108Y-112000500D01*
X150434110Y-112000500D01*
X150565890Y-112000500D01*
X150565892Y-112000500D01*
X150693186Y-111966392D01*
X150807314Y-111900500D01*
X150900500Y-111807314D01*
X150966392Y-111693186D01*
X151000500Y-111565892D01*
X151000500Y-111434108D01*
X151749500Y-111434108D01*
X151749500Y-111565891D01*
X151766554Y-111629539D01*
X151783608Y-111693188D01*
X151797005Y-111716391D01*
X151849500Y-111807314D01*
X151942686Y-111900500D01*
X152056814Y-111966392D01*
X152184108Y-112000500D01*
X152184110Y-112000500D01*
X152315890Y-112000500D01*
X152315892Y-112000500D01*
X152443186Y-111966392D01*
X152557314Y-111900500D01*
X152650500Y-111807314D01*
X152716392Y-111693186D01*
X152750500Y-111565892D01*
X152750500Y-111434108D01*
X156499500Y-111434108D01*
X156499500Y-111565891D01*
X156516554Y-111629539D01*
X156533608Y-111693188D01*
X156547005Y-111716391D01*
X156599500Y-111807314D01*
X156692686Y-111900500D01*
X156806814Y-111966392D01*
X156934108Y-112000500D01*
X156934110Y-112000500D01*
X157065890Y-112000500D01*
X157065892Y-112000500D01*
X157193186Y-111966392D01*
X157307314Y-111900500D01*
X157400500Y-111807314D01*
X157466392Y-111693186D01*
X157500500Y-111565892D01*
X157500500Y-111434108D01*
X157466392Y-111306814D01*
X157466387Y-111306806D01*
X157457563Y-111291521D01*
X157400500Y-111192686D01*
X157307314Y-111099500D01*
X157250250Y-111066554D01*
X157193187Y-111033608D01*
X157129539Y-111016554D01*
X157065892Y-110999500D01*
X157065891Y-110999500D01*
X156934108Y-110999500D01*
X156806808Y-111033609D01*
X156806806Y-111033610D01*
X156692696Y-111099493D01*
X156692682Y-111099502D01*
X156692677Y-111099506D01*
X156599506Y-111192677D01*
X156599502Y-111192682D01*
X156599493Y-111192696D01*
X156533610Y-111306806D01*
X156533609Y-111306808D01*
X156502189Y-111424071D01*
X156499500Y-111434108D01*
X152750500Y-111434108D01*
X152716392Y-111306814D01*
X152716387Y-111306806D01*
X152707563Y-111291521D01*
X152650500Y-111192686D01*
X152557314Y-111099500D01*
X152500250Y-111066554D01*
X152443187Y-111033608D01*
X152379539Y-111016554D01*
X152315892Y-110999500D01*
X152315891Y-110999500D01*
X152184108Y-110999500D01*
X152056808Y-111033609D01*
X152056806Y-111033610D01*
X151942696Y-111099493D01*
X151942682Y-111099502D01*
X151942677Y-111099506D01*
X151849506Y-111192677D01*
X151849502Y-111192682D01*
X151849493Y-111192696D01*
X151783610Y-111306806D01*
X151783609Y-111306808D01*
X151752189Y-111424071D01*
X151749500Y-111434108D01*
X151000500Y-111434108D01*
X150966392Y-111306814D01*
X150966387Y-111306806D01*
X150957563Y-111291521D01*
X150900500Y-111192686D01*
X150807314Y-111099500D01*
X150750250Y-111066554D01*
X150693187Y-111033608D01*
X150629539Y-111016554D01*
X150565892Y-110999500D01*
X150565891Y-110999500D01*
X150434108Y-110999500D01*
X150306808Y-111033609D01*
X150306806Y-111033610D01*
X150192696Y-111099493D01*
X150192682Y-111099502D01*
X150192677Y-111099506D01*
X150099506Y-111192677D01*
X150099502Y-111192682D01*
X150099493Y-111192696D01*
X150033610Y-111306806D01*
X150033609Y-111306808D01*
X150002189Y-111424071D01*
X149999500Y-111434108D01*
X148750500Y-111434108D01*
X148716392Y-111306814D01*
X148716387Y-111306806D01*
X148707563Y-111291521D01*
X148650500Y-111192686D01*
X148557314Y-111099500D01*
X148500250Y-111066554D01*
X148443187Y-111033608D01*
X148379539Y-111016554D01*
X148315892Y-110999500D01*
X148315891Y-110999500D01*
X148184108Y-110999500D01*
X148056808Y-111033609D01*
X148056806Y-111033610D01*
X147942696Y-111099493D01*
X147942682Y-111099502D01*
X147942677Y-111099506D01*
X147849506Y-111192677D01*
X147849502Y-111192682D01*
X147849493Y-111192696D01*
X147783610Y-111306806D01*
X147783609Y-111306808D01*
X147752189Y-111424071D01*
X147749500Y-111434108D01*
X147000500Y-111434108D01*
X146966392Y-111306814D01*
X146966387Y-111306806D01*
X146957563Y-111291521D01*
X146900500Y-111192686D01*
X146807314Y-111099500D01*
X146750250Y-111066554D01*
X146693187Y-111033608D01*
X146629539Y-111016554D01*
X146565892Y-110999500D01*
X146565891Y-110999500D01*
X146434108Y-110999500D01*
X146306808Y-111033609D01*
X146306806Y-111033610D01*
X146192696Y-111099493D01*
X146192682Y-111099502D01*
X146192677Y-111099506D01*
X146099506Y-111192677D01*
X146099502Y-111192682D01*
X146099493Y-111192696D01*
X146033610Y-111306806D01*
X146033609Y-111306808D01*
X146002189Y-111424071D01*
X145999500Y-111434108D01*
X143000500Y-111434108D01*
X142966392Y-111306814D01*
X142966387Y-111306806D01*
X142957563Y-111291521D01*
X142900500Y-111192686D01*
X142807314Y-111099500D01*
X142750250Y-111066554D01*
X142693187Y-111033608D01*
X142629539Y-111016554D01*
X142565892Y-110999500D01*
X142565891Y-110999500D01*
X142434108Y-110999500D01*
X142306808Y-111033609D01*
X142306806Y-111033610D01*
X142192696Y-111099493D01*
X142192682Y-111099502D01*
X142192677Y-111099506D01*
X142099506Y-111192677D01*
X142099502Y-111192682D01*
X142099493Y-111192696D01*
X142033610Y-111306806D01*
X142033609Y-111306808D01*
X142002189Y-111424071D01*
X141999500Y-111434108D01*
X141750500Y-111434108D01*
X141716392Y-111306814D01*
X141716387Y-111306806D01*
X141707563Y-111291521D01*
X141650500Y-111192686D01*
X141557314Y-111099500D01*
X141500250Y-111066554D01*
X141443187Y-111033608D01*
X141379539Y-111016554D01*
X141315892Y-110999500D01*
X141315891Y-110999500D01*
X141184108Y-110999500D01*
X141056808Y-111033609D01*
X141056806Y-111033610D01*
X140942696Y-111099493D01*
X140942682Y-111099502D01*
X140942677Y-111099506D01*
X140849506Y-111192677D01*
X140849502Y-111192682D01*
X140849493Y-111192696D01*
X140783610Y-111306806D01*
X140783609Y-111306808D01*
X140752189Y-111424071D01*
X140749500Y-111434108D01*
X140000500Y-111434108D01*
X139966392Y-111306814D01*
X139966387Y-111306806D01*
X139957563Y-111291521D01*
X139900500Y-111192686D01*
X139807314Y-111099500D01*
X139750250Y-111066554D01*
X139693187Y-111033608D01*
X139629539Y-111016554D01*
X139565892Y-110999500D01*
X139565891Y-110999500D01*
X139434108Y-110999500D01*
X139306808Y-111033609D01*
X139306806Y-111033610D01*
X139192696Y-111099493D01*
X139192682Y-111099502D01*
X139192677Y-111099506D01*
X139099506Y-111192677D01*
X139099502Y-111192682D01*
X139099493Y-111192696D01*
X139033610Y-111306806D01*
X139033609Y-111306808D01*
X139002189Y-111424071D01*
X138999500Y-111434108D01*
X138254575Y-111434108D01*
X138254036Y-111424048D01*
X138251202Y-111397690D01*
X138221413Y-111302556D01*
X138187928Y-111241233D01*
X138144347Y-111183015D01*
X138144342Y-111183010D01*
X138144334Y-111183001D01*
X136692867Y-109731535D01*
X136692847Y-109731515D01*
X136686295Y-109725193D01*
X136685526Y-109724477D01*
X136679820Y-109719163D01*
X136679813Y-109719158D01*
X136611843Y-109673739D01*
X136611831Y-109673733D01*
X136548295Y-109644717D01*
X136548283Y-109644712D01*
X136505332Y-109629560D01*
X136505325Y-109629559D01*
X136405786Y-109624225D01*
X136405780Y-109624225D01*
X136336617Y-109634170D01*
X136336615Y-109634170D01*
X136292307Y-109644641D01*
X136292297Y-109644644D01*
X136255952Y-109665341D01*
X136187955Y-109681408D01*
X136122066Y-109658163D01*
X136079204Y-109602985D01*
X136072977Y-109533393D01*
X136089099Y-109492419D01*
X136094795Y-109483199D01*
X136121169Y-109387059D01*
X136126153Y-109317367D01*
X136125340Y-109271830D01*
X136125339Y-109271828D01*
X136125339Y-109271824D01*
X136110941Y-109225846D01*
X136095551Y-109176694D01*
X136062066Y-109115371D01*
X136018485Y-109057153D01*
X136018480Y-109057148D01*
X136018472Y-109057139D01*
X135816999Y-108855667D01*
X135816985Y-108855653D01*
X135796635Y-108837374D01*
X135796629Y-108837369D01*
X135796620Y-108837361D01*
X135775999Y-108820744D01*
X135775996Y-108820742D01*
X135775993Y-108820740D01*
X135687662Y-108774535D01*
X135660404Y-108766531D01*
X135620624Y-108754850D01*
X135620616Y-108754848D01*
X135548639Y-108744500D01*
X135548638Y-108744500D01*
X133114242Y-108744500D01*
X133047203Y-108724815D01*
X133001448Y-108672011D01*
X132990414Y-108613970D01*
X132991099Y-108600976D01*
X133000500Y-108565892D01*
X133000500Y-108434108D01*
X137249500Y-108434108D01*
X137249500Y-108565891D01*
X137255201Y-108587168D01*
X137278991Y-108675958D01*
X137283608Y-108693187D01*
X137283610Y-108693190D01*
X137290324Y-108704819D01*
X137296849Y-108716120D01*
X137349500Y-108807314D01*
X137442686Y-108900500D01*
X137556814Y-108966392D01*
X137684108Y-109000500D01*
X137684110Y-109000500D01*
X137815890Y-109000500D01*
X137815892Y-109000500D01*
X137943186Y-108966392D01*
X138057314Y-108900500D01*
X138150500Y-108807314D01*
X138216392Y-108693186D01*
X138250500Y-108565892D01*
X138250500Y-108434108D01*
X138216392Y-108306814D01*
X138216387Y-108306806D01*
X138207563Y-108291521D01*
X138150500Y-108192686D01*
X138057314Y-108099500D01*
X137984246Y-108057314D01*
X137984246Y-108057313D01*
X137984242Y-108057312D01*
X137972044Y-108050269D01*
X137943190Y-108033609D01*
X137943187Y-108033608D01*
X137879539Y-108016554D01*
X137815892Y-107999500D01*
X137815891Y-107999500D01*
X137684108Y-107999500D01*
X137556808Y-108033609D01*
X137556806Y-108033610D01*
X137442696Y-108099493D01*
X137442682Y-108099502D01*
X137442677Y-108099506D01*
X137349506Y-108192677D01*
X137349502Y-108192682D01*
X137349493Y-108192696D01*
X137283610Y-108306806D01*
X137283609Y-108306808D01*
X137283608Y-108306812D01*
X137249500Y-108434108D01*
X133000500Y-108434108D01*
X132966392Y-108306814D01*
X132966387Y-108306806D01*
X132957563Y-108291521D01*
X132900500Y-108192686D01*
X132807314Y-108099500D01*
X132734246Y-108057314D01*
X132734246Y-108057313D01*
X132734242Y-108057312D01*
X132722044Y-108050269D01*
X132693190Y-108033609D01*
X132693187Y-108033608D01*
X132629539Y-108016554D01*
X132565892Y-107999500D01*
X132565891Y-107999500D01*
X132434108Y-107999500D01*
X132306808Y-108033609D01*
X132306806Y-108033610D01*
X132192696Y-108099493D01*
X132192682Y-108099502D01*
X132192677Y-108099506D01*
X132099506Y-108192677D01*
X132099502Y-108192682D01*
X132099493Y-108192696D01*
X132033610Y-108306806D01*
X132033609Y-108306808D01*
X131999500Y-108434108D01*
X131999500Y-108565892D01*
X132005533Y-108588408D01*
X132003869Y-108658258D01*
X131964706Y-108716120D01*
X131900477Y-108743623D01*
X131885758Y-108744500D01*
X124997954Y-108744500D01*
X124930915Y-108724815D01*
X124885160Y-108672011D01*
X124875216Y-108602853D01*
X124894852Y-108551609D01*
X124930941Y-108497598D01*
X125010130Y-108306420D01*
X125050500Y-108103465D01*
X125050500Y-107896535D01*
X125010130Y-107693580D01*
X124930941Y-107502402D01*
X124816046Y-107330449D01*
X124816036Y-107330417D01*
X124815980Y-107330348D01*
X124815980Y-107330349D01*
X124815977Y-107330345D01*
X124815975Y-107330342D01*
X124815973Y-107330340D01*
X124815970Y-107330336D01*
X124669662Y-107184028D01*
X124669655Y-107184022D01*
X124543156Y-107099499D01*
X124543156Y-107099500D01*
X124497598Y-107069059D01*
X124497595Y-107069057D01*
X124497594Y-107069057D01*
X124410977Y-107033179D01*
X124306420Y-106989870D01*
X124306412Y-106989868D01*
X124306404Y-106989866D01*
X124306394Y-106989864D01*
X124103471Y-106949500D01*
X124103469Y-106949500D01*
X124103465Y-106949500D01*
X123896535Y-106949500D01*
X123896530Y-106949500D01*
X123896528Y-106949500D01*
X123693604Y-106989864D01*
X123693579Y-106989870D01*
X123502404Y-107069057D01*
X123330337Y-107184027D01*
X123184027Y-107330337D01*
X123069057Y-107502404D01*
X122989870Y-107693579D01*
X122989864Y-107693604D01*
X122949500Y-107896527D01*
X122949500Y-107896530D01*
X122949500Y-108103469D01*
X122949500Y-108103471D01*
X122949499Y-108103471D01*
X122989864Y-108306394D01*
X122989868Y-108306412D01*
X122989870Y-108306420D01*
X123016266Y-108370145D01*
X123069058Y-108497598D01*
X123105148Y-108551610D01*
X123126026Y-108618287D01*
X123107541Y-108685667D01*
X123055562Y-108732357D01*
X123002046Y-108744500D01*
X120324500Y-108744500D01*
X120257461Y-108724815D01*
X120211706Y-108672011D01*
X120200500Y-108620500D01*
X120200500Y-105563471D01*
X122949499Y-105563471D01*
X122989864Y-105766394D01*
X122989868Y-105766412D01*
X122989868Y-105766416D01*
X123006809Y-105807314D01*
X123069058Y-105957596D01*
X123184023Y-106129655D01*
X123184027Y-106129661D01*
X123330336Y-106275970D01*
X123330340Y-106275973D01*
X123330342Y-106275975D01*
X123330345Y-106275977D01*
X123330349Y-106275980D01*
X123330348Y-106275980D01*
X123330411Y-106276032D01*
X123330448Y-106276046D01*
X123502402Y-106390941D01*
X123693580Y-106470130D01*
X123891508Y-106509500D01*
X123893555Y-106509907D01*
X123895793Y-106510409D01*
X123896532Y-106510500D01*
X124103466Y-106510500D01*
X124107586Y-106510500D01*
X124115435Y-106508118D01*
X124306420Y-106470130D01*
X124497598Y-106390941D01*
X124669655Y-106275977D01*
X124761524Y-106184108D01*
X131499500Y-106184108D01*
X131499500Y-106315891D01*
X131516554Y-106379539D01*
X131533608Y-106443188D01*
X131549163Y-106470129D01*
X131566554Y-106500250D01*
X131599500Y-106557314D01*
X131692686Y-106650500D01*
X131806814Y-106716392D01*
X131934108Y-106750500D01*
X131934110Y-106750500D01*
X132065890Y-106750500D01*
X132065892Y-106750500D01*
X132193186Y-106716392D01*
X132307314Y-106650500D01*
X132400500Y-106557314D01*
X132466392Y-106443186D01*
X132500500Y-106315892D01*
X132500500Y-106184108D01*
X132466392Y-106056814D01*
X132466387Y-106056806D01*
X132409109Y-105957598D01*
X132400500Y-105942686D01*
X132307314Y-105849500D01*
X132234246Y-105807314D01*
X132234246Y-105807313D01*
X132234242Y-105807312D01*
X132222044Y-105800269D01*
X132193190Y-105783609D01*
X132193187Y-105783608D01*
X132129009Y-105766412D01*
X132065892Y-105749500D01*
X132065891Y-105749500D01*
X131934108Y-105749500D01*
X131806808Y-105783609D01*
X131806806Y-105783610D01*
X131692696Y-105849493D01*
X131692682Y-105849502D01*
X131692677Y-105849506D01*
X131599506Y-105942677D01*
X131599502Y-105942682D01*
X131599493Y-105942696D01*
X131533610Y-106056806D01*
X131533609Y-106056808D01*
X131520137Y-106107087D01*
X131499500Y-106184108D01*
X124761524Y-106184108D01*
X124815977Y-106129655D01*
X124823588Y-106118264D01*
X124831055Y-106107090D01*
X124880153Y-106033608D01*
X124930941Y-105957598D01*
X125010130Y-105766420D01*
X125050500Y-105563465D01*
X125050500Y-105356535D01*
X125010130Y-105153580D01*
X124930941Y-104962402D01*
X124816046Y-104790449D01*
X124816036Y-104790417D01*
X124815980Y-104790348D01*
X124815980Y-104790349D01*
X124815977Y-104790345D01*
X124815975Y-104790342D01*
X124815973Y-104790340D01*
X124815970Y-104790336D01*
X124669659Y-104644025D01*
X124539885Y-104557314D01*
X124539125Y-104556806D01*
X124497598Y-104529059D01*
X124497593Y-104529057D01*
X124441602Y-104505864D01*
X124306420Y-104449870D01*
X124306412Y-104449868D01*
X124306404Y-104449866D01*
X124306394Y-104449864D01*
X124103471Y-104409500D01*
X124103469Y-104409500D01*
X124103465Y-104409500D01*
X123896535Y-104409500D01*
X123896530Y-104409500D01*
X123896528Y-104409500D01*
X123693604Y-104449864D01*
X123693579Y-104449870D01*
X123502404Y-104529057D01*
X123330337Y-104644027D01*
X123184027Y-104790337D01*
X123069057Y-104962404D01*
X122989870Y-105153579D01*
X122989864Y-105153604D01*
X122949500Y-105356527D01*
X122949500Y-105356530D01*
X122949500Y-105563469D01*
X122949500Y-105563471D01*
X122949499Y-105563471D01*
X120200500Y-105563471D01*
X120200500Y-103023471D01*
X122949499Y-103023471D01*
X122983259Y-103193187D01*
X122989868Y-103226412D01*
X122989870Y-103226420D01*
X123026930Y-103315890D01*
X123061976Y-103400500D01*
X123069058Y-103417596D01*
X123165423Y-103561818D01*
X123184027Y-103589661D01*
X123330336Y-103735970D01*
X123330340Y-103735973D01*
X123330342Y-103735975D01*
X123330345Y-103735977D01*
X123330349Y-103735980D01*
X123330348Y-103735980D01*
X123330411Y-103736032D01*
X123330448Y-103736046D01*
X123502402Y-103850941D01*
X123693580Y-103930130D01*
X123884540Y-103968114D01*
X123893559Y-103969908D01*
X123895794Y-103970409D01*
X123896532Y-103970500D01*
X124103466Y-103970500D01*
X124107586Y-103970500D01*
X124115435Y-103968118D01*
X124306420Y-103930130D01*
X124497598Y-103850941D01*
X124669655Y-103735977D01*
X124815977Y-103589655D01*
X124930941Y-103417598D01*
X125010130Y-103226420D01*
X125018547Y-103184108D01*
X129429500Y-103184108D01*
X129429500Y-103315891D01*
X129446554Y-103379539D01*
X129463608Y-103443188D01*
X129496554Y-103500250D01*
X129529500Y-103557314D01*
X129622686Y-103650500D01*
X129736814Y-103716392D01*
X129864108Y-103750500D01*
X129864110Y-103750500D01*
X129995890Y-103750500D01*
X129995892Y-103750500D01*
X130123186Y-103716392D01*
X130237314Y-103650500D01*
X130330500Y-103557314D01*
X130396392Y-103443186D01*
X130430500Y-103315892D01*
X130430500Y-103184108D01*
X130396392Y-103056814D01*
X130396387Y-103056806D01*
X130377137Y-103023464D01*
X130330500Y-102942686D01*
X130237314Y-102849500D01*
X130179104Y-102815892D01*
X130179104Y-102815891D01*
X130179101Y-102815891D01*
X130123187Y-102783608D01*
X130059539Y-102766554D01*
X129995892Y-102749500D01*
X129995891Y-102749500D01*
X129864108Y-102749500D01*
X129736808Y-102783609D01*
X129736806Y-102783610D01*
X129622696Y-102849493D01*
X129622682Y-102849502D01*
X129622677Y-102849506D01*
X129529506Y-102942677D01*
X129529502Y-102942682D01*
X129529493Y-102942696D01*
X129463610Y-103056806D01*
X129463609Y-103056808D01*
X129463608Y-103056812D01*
X129429500Y-103184108D01*
X125018547Y-103184108D01*
X125025232Y-103150500D01*
X125042061Y-103065892D01*
X125043767Y-103057317D01*
X125043767Y-103057314D01*
X125050500Y-103023465D01*
X125050500Y-102816535D01*
X125010130Y-102613580D01*
X124930941Y-102422402D01*
X124816046Y-102250449D01*
X124816036Y-102250417D01*
X124815980Y-102250348D01*
X124815980Y-102250349D01*
X124815977Y-102250345D01*
X124815975Y-102250342D01*
X124815973Y-102250340D01*
X124815970Y-102250336D01*
X124669662Y-102104028D01*
X124669655Y-102104022D01*
X124583626Y-102046540D01*
X124583625Y-102046540D01*
X124497604Y-101989062D01*
X124497591Y-101989055D01*
X124442876Y-101966392D01*
X124442875Y-101966392D01*
X124306420Y-101909870D01*
X124306412Y-101909868D01*
X124306404Y-101909866D01*
X124306394Y-101909864D01*
X124103471Y-101869500D01*
X124103469Y-101869500D01*
X124103465Y-101869500D01*
X123896535Y-101869500D01*
X123896530Y-101869500D01*
X123896528Y-101869500D01*
X123693604Y-101909864D01*
X123693579Y-101909870D01*
X123502404Y-101989057D01*
X123330337Y-102104027D01*
X123184027Y-102250337D01*
X123069057Y-102422404D01*
X122989870Y-102613579D01*
X122989864Y-102613604D01*
X122949500Y-102816527D01*
X122949500Y-102816530D01*
X122949500Y-103023469D01*
X122949500Y-103023471D01*
X122949499Y-103023471D01*
X120200500Y-103023471D01*
X120200500Y-101434108D01*
X129429500Y-101434108D01*
X129429500Y-101565891D01*
X129436602Y-101592395D01*
X129463608Y-101693188D01*
X129496554Y-101750250D01*
X129529500Y-101807314D01*
X129622686Y-101900500D01*
X129736814Y-101966392D01*
X129864108Y-102000500D01*
X129864110Y-102000500D01*
X129995890Y-102000500D01*
X129995892Y-102000500D01*
X130123186Y-101966392D01*
X130237314Y-101900500D01*
X130330500Y-101807314D01*
X130396392Y-101693186D01*
X130430500Y-101565892D01*
X130430500Y-101434108D01*
X130396392Y-101306814D01*
X130396387Y-101306806D01*
X130348745Y-101224288D01*
X130330500Y-101192686D01*
X130237314Y-101099500D01*
X130150984Y-101049657D01*
X130150984Y-101049656D01*
X130150981Y-101049655D01*
X130132914Y-101039224D01*
X130123188Y-101033608D01*
X130059539Y-101016554D01*
X130026909Y-101007811D01*
X129995892Y-100999500D01*
X129995891Y-100999500D01*
X129864108Y-100999500D01*
X129736808Y-101033609D01*
X129736806Y-101033610D01*
X129622696Y-101099493D01*
X129622682Y-101099502D01*
X129622677Y-101099506D01*
X129529506Y-101192677D01*
X129529502Y-101192682D01*
X129529493Y-101192696D01*
X129463610Y-101306806D01*
X129463609Y-101306808D01*
X129463608Y-101306812D01*
X129429500Y-101434108D01*
X120200500Y-101434108D01*
X120200500Y-100741829D01*
X120205523Y-100706893D01*
X120209927Y-100691895D01*
X120247672Y-100633144D01*
X120249041Y-100631957D01*
X120303920Y-100604477D01*
X120311479Y-100602833D01*
X120337832Y-100600000D01*
X122853860Y-100600000D01*
X122888796Y-100605023D01*
G37*
%TD.AperFunction*%
%TD*%
%TA.AperFunction,Conductor*%
%TO.N,GND*%
G36*
X143265387Y-104871995D02*
G01*
X143265394Y-104872001D01*
X143377998Y-104984605D01*
X143378004Y-104984612D01*
X143438851Y-105075678D01*
X143466483Y-105117032D01*
X143521561Y-105250000D01*
X143512901Y-105250000D01*
X143459397Y-105120827D01*
X143459390Y-105120814D01*
X143371789Y-104989711D01*
X143371786Y-104989707D01*
X143260292Y-104878213D01*
X143260288Y-104878210D01*
X143250000Y-104871335D01*
X143250000Y-104861713D01*
X143265387Y-104871995D01*
G37*
%TD.AperFunction*%
%TD*%
M02*
