M48
; DRILL file KiCad 10.0.5 date 2026-07-30T15:09:34
; FORMAT={-:-/ absolute / inch / decimal}
; #@! TF.CreationDate,2026-07-30T15:09:34-04:00
; #@! TF.GenerationSoftware,Kicad,Pcbnew,10.0.5
; #@! TF.FileFunction,Plated,1,4,PTH
FMAT,2
INCH
; #@! TA.AperFunction,Plated,PTH,ViaDrill
T1C0.0118
; #@! TA.AperFunction,Plated,PTH,ComponentDrill
T2C0.0197
; #@! TA.AperFunction,Plated,PTH,ComponentDrill
T3C0.0394
; #@! TA.AperFunction,Plated,PTH,ComponentDrill
T4C0.1063
%
G90
G05
T1
X4.9213Y-2.3622
X4.9213Y-2.7559
X4.9213Y-3.1496
X4.9213Y-3.5433
X5.0197Y-3.9665
X5.0197Y-4.3307
X5.0787Y-4.3307
X5.1083Y-3.6299
X5.1083Y-3.6988
X5.1083Y-3.7677
X5.1083Y-3.8366
X5.1154Y-3.9961
X5.1154Y-4.065
X5.1181Y-2.1654
X5.1181Y-2.5591
X5.1181Y-2.9528
X5.1181Y-3.3465
X5.1575Y-4.4094
X5.187Y-4.626
X5.1969Y-4.1831
X5.2165Y-4.2717
X5.2657Y-4.626
X5.2854Y-4.3307
X5.2953Y-3.9567
X5.315Y-2.3622
X5.315Y-2.7559
X5.315Y-3.1496
X5.315Y-3.5433
X5.3445Y-4.3307
X5.3839Y-3.9961
X5.3839Y-4.065
X5.4134Y-4.4094
X5.4232Y-4.2717
X5.4429Y-3.9961
X5.4429Y-4.065
X5.4921Y-4.2717
X5.4921Y-4.3898
X5.5118Y-2.1654
X5.5118Y-2.5591
X5.5118Y-3.3465
X5.5118Y-3.7402
X5.5118Y-3.9665
X5.561Y-4.2421
X5.561Y-4.3898
X5.5709Y-4.1634
X5.5906Y-4.2185
X5.6102Y-4.1929
X5.6102Y-4.3898
X5.6102Y-4.4291
X5.6142Y-3.7717
X5.6142Y-3.8189
X5.6201Y-4.1535
X5.6299Y-3.7205
X5.6299Y-3.878
X5.6299Y-3.9173
X5.6496Y-3.6811
X5.6594Y-3.5728
X5.6594Y-3.6122
X5.6614Y-3.6457
X5.6693Y-3.1102
X5.6693Y-3.1496
X5.6693Y-3.189
X5.6693Y-3.2283
X5.6693Y-3.2677
X5.6693Y-3.3071
X5.6693Y-3.3465
X5.6693Y-3.3858
X5.6693Y-3.4252
X5.6693Y-3.4646
X5.6693Y-3.5236
X5.6791Y-4.0453
X5.6791Y-4.1043
X5.7087Y-2.3622
X5.7087Y-3.4744
X5.7165Y-3.8031
X5.7185Y-3.7402
X5.7185Y-3.8878
X5.7382Y-3.7008
X5.7382Y-4.0453
X5.7382Y-4.1043
X5.748Y-3.1102
X5.748Y-3.1496
X5.748Y-3.189
X5.748Y-3.2283
X5.748Y-3.2677
X5.748Y-3.3071
X5.748Y-3.3465
X5.748Y-3.3858
X5.748Y-3.4252
X5.748Y-3.4646
X5.7579Y-3.5728
X5.7579Y-3.6122
X5.7648Y-4.4685
X5.7677Y-4.3898
X5.7776Y-3.5335
X5.7776Y-3.6516
X5.7972Y-3.8287
X5.8169Y-3.8878
X5.8366Y-3.8287
X5.8366Y-4.3898
X5.8652Y-4.3002
X5.8775Y-4.0664
X5.9055Y-2.1654
X5.9055Y-2.5591
X5.9055Y-3.3465
X5.9055Y-3.7402
X5.9154Y-4.065
X5.9252Y-4.3898
X5.9547Y-4.124
X5.9646Y-3.8287
X5.9646Y-3.8878
X5.9843Y-4.439
X5.9941Y-4.3898
X6.0226Y-4.3002
X6.0236Y-4.124
X6.0531Y-4.0354
X6.0531Y-4.5374
X6.063Y-4.4587
X6.065Y-3.8917
X6.1024Y-2.3622
X6.1024Y-2.7559
X6.1024Y-3.1496
X6.1024Y-3.5433
X6.1024Y-3.9272
X6.1811Y-4.3898
X6.1811Y-4.4587
X6.1811Y-4.5374
X6.1906Y-4.213
X6.25Y-4.3799
X6.25Y-4.626
X6.2992Y-2.1654
X6.2992Y-2.5591
X6.2992Y-2.9528
X6.2992Y-3.3465
X6.3213Y-3.9567
X6.3213Y-4.0551
X6.3287Y-4.3799
X6.3287Y-4.626
X6.4961Y-2.3622
X6.4961Y-2.7559
X6.4961Y-3.1496
X6.4961Y-3.5433
T2
X4.8022Y-2.126
X4.8022Y-4.5669
X4.8255Y-2.0696
X4.8255Y-2.1824
X4.8255Y-4.5106
X4.8255Y-4.6233
X4.8819Y-2.0463
X4.8819Y-2.2057
X4.8819Y-4.4872
X4.8819Y-4.6467
X4.9383Y-2.0696
X4.9383Y-2.1824
X4.9383Y-4.5106
X4.9383Y-4.6233
X4.9616Y-2.126
X4.9616Y-4.5669
X6.4557Y-2.126
X6.4557Y-4.5669
X6.4791Y-2.0696
X6.4791Y-2.1824
X6.4791Y-4.5106
X6.4791Y-4.6233
X6.5354Y-2.0463
X6.5354Y-2.2057
X6.5354Y-4.4872
X6.5354Y-4.6467
X6.5918Y-2.0696
X6.5918Y-2.1824
X6.5918Y-4.5106
X6.5918Y-4.6233
X6.6152Y-2.126
X6.6152Y-4.5669
T3
X4.8819Y-3.752
X4.8819Y-3.852
X4.8819Y-3.952
X4.8819Y-4.052
X4.8819Y-4.152
X4.8819Y-4.252
X5.4587Y-4.5669
X5.5587Y-4.5669
X5.6587Y-4.5669
X5.7087Y-3.0315
X5.7587Y-4.5669
X5.8587Y-4.5669
X5.9587Y-4.5669
X6.5354Y-3.752
X6.5354Y-3.852
X6.5354Y-3.952
X6.5354Y-4.052
X6.5354Y-4.152
X6.5354Y-4.252
T4
X4.8819Y-2.126
X4.8819Y-4.5669
X6.5354Y-2.126
X6.5354Y-4.5669
M30
