%TF.GenerationSoftware,KiCad,Pcbnew,10.0.5*%
%TF.CreationDate,2026-07-30T15:09:33-04:00*%
%TF.ProjectId,MAX2769_Dev_00-A,4d415832-3736-4395-9f44-65765f30302d,rev?*%
%TF.SameCoordinates,Original*%
%TF.FileFunction,Legend,Top*%
%TF.FilePolarity,Positive*%
%FSLAX46Y46*%
G04 Gerber Fmt 4.6, Leading zero omitted, Abs format (unit mm)*
G04 Created by KiCad (PCBNEW 10.0.5) date 2026-07-30 15:09:33*
%MOMM*%
%LPD*%
G01*
G04 APERTURE LIST*
G04 Aperture macros list*
%AMRoundRect*
0 Rectangle with rounded corners*
0 $1 Rounding radius*
0 $2 $3 $4 $5 $6 $7 $8 $9 X,Y pos of 4 corners*
0 Add a 4 corners polygon primitive as box body*
4,1,4,$2,$3,$4,$5,$6,$7,$8,$9,$2,$3,0*
0 Add four circle primitives for the rounded corners*
1,1,$1+$1,$2,$3*
1,1,$1+$1,$4,$5*
1,1,$1+$1,$6,$7*
1,1,$1+$1,$8,$9*
0 Add four rect primitives between the rounded corners*
20,1,$1+$1,$2,$3,$4,$5,0*
20,1,$1+$1,$4,$5,$6,$7,0*
20,1,$1+$1,$6,$7,$8,$9,0*
20,1,$1+$1,$8,$9,$2,$3,0*%
G04 Aperture macros list end*
%ADD10C,0.100000*%
%ADD11C,0.150000*%
%ADD12C,0.200000*%
%ADD13C,0.300000*%
%ADD14C,0.120000*%
%ADD15C,0.127000*%
%ADD16C,0.256155*%
%ADD17C,0.000000*%
%ADD18C,1.000000*%
%ADD19RoundRect,0.140000X-0.140000X-0.170000X0.140000X-0.170000X0.140000X0.170000X-0.140000X0.170000X0*%
%ADD20RoundRect,0.200000X-0.200000X-0.275000X0.200000X-0.275000X0.200000X0.275000X-0.200000X0.275000X0*%
%ADD21RoundRect,0.225000X0.225000X0.250000X-0.225000X0.250000X-0.225000X-0.250000X0.225000X-0.250000X0*%
%ADD22RoundRect,0.225000X-0.225000X-0.250000X0.225000X-0.250000X0.225000X0.250000X-0.225000X0.250000X0*%
%ADD23R,1.700000X1.700000*%
%ADD24C,1.700000*%
%ADD25RoundRect,0.200000X-0.275000X0.200000X-0.275000X-0.200000X0.275000X-0.200000X0.275000X0.200000X0*%
%ADD26RoundRect,0.200000X0.275000X-0.200000X0.275000X0.200000X-0.275000X0.200000X-0.275000X-0.200000X0*%
%ADD27RoundRect,0.218750X0.256250X-0.218750X0.256250X0.218750X-0.256250X0.218750X-0.256250X-0.218750X0*%
%ADD28RoundRect,0.225000X-0.250000X0.225000X-0.250000X-0.225000X0.250000X-0.225000X0.250000X0.225000X0*%
%ADD29RoundRect,0.135750X-0.461250X-0.101250X0.461250X-0.101250X0.461250X0.101250X-0.461250X0.101250X0*%
%ADD30RoundRect,0.135750X-0.101250X-0.461250X0.101250X-0.461250X0.101250X0.461250X-0.101250X0.461250X0*%
%ADD31RoundRect,0.102000X-1.625000X-1.625000X1.625000X-1.625000X1.625000X1.625000X-1.625000X1.625000X0*%
%ADD32RoundRect,0.225000X0.250000X-0.225000X0.250000X0.225000X-0.250000X0.225000X-0.250000X-0.225000X0*%
%ADD33RoundRect,0.147500X0.172500X-0.147500X0.172500X0.147500X-0.172500X0.147500X-0.172500X-0.147500X0*%
%ADD34C,0.800000*%
%ADD35C,5.400000*%
%ADD36RoundRect,0.200000X0.200000X0.275000X-0.200000X0.275000X-0.200000X-0.275000X0.200000X-0.275000X0*%
%ADD37RoundRect,0.150000X0.150000X-0.512500X0.150000X0.512500X-0.150000X0.512500X-0.150000X-0.512500X0*%
%ADD38RoundRect,0.044500X-0.425500X-0.400500X0.425500X-0.400500X0.425500X0.400500X-0.425500X0.400500X0*%
%ADD39C,1.000000*%
G04 APERTURE END LIST*
D10*
X167000000Y-83000000D02*
X168400000Y-84000000D01*
X168400000Y-94200000D01*
X168000000Y-94200000D01*
X168000000Y-84200000D01*
X167000000Y-83500000D01*
X167000000Y-83000000D01*
G36*
X168400000Y-84000000D02*
G01*
X168400000Y-94200000D01*
X168000000Y-94200000D01*
X168000000Y-84200000D01*
X167000000Y-83500000D01*
X167000000Y-83000000D01*
X168400000Y-84000000D01*
G37*
X168600000Y-59600000D02*
X167200000Y-58600000D01*
X167200000Y-56900000D01*
X167600000Y-56900000D01*
X167600000Y-58300000D01*
X168600000Y-59100000D01*
X168600000Y-59600000D01*
G36*
X167600000Y-58300000D02*
G01*
X168600000Y-59100000D01*
X168600000Y-59600000D01*
X167200000Y-58600000D01*
X167200000Y-56900000D01*
X167600000Y-56900000D01*
X167600000Y-58300000D01*
G37*
D11*
X159200000Y-108100000D02*
X159200000Y-108400000D01*
X159200000Y-108100000D02*
X159700000Y-108600000D01*
X159200000Y-108850000D02*
X159200000Y-109100000D01*
X159400000Y-108600000D02*
G75*
G02*
X159700000Y-108300000I-200000J500000D01*
G01*
X159700000Y-108600000D02*
X160200000Y-108100000D01*
X160200000Y-108100000D02*
X160200000Y-109100000D01*
D10*
X168050000Y-109900000D02*
X168450000Y-109900000D01*
X168450000Y-113150000D01*
X168050000Y-113150000D01*
X168050000Y-109900000D01*
G36*
X168050000Y-109900000D02*
G01*
X168450000Y-109900000D01*
X168450000Y-113150000D01*
X168050000Y-113150000D01*
X168050000Y-109900000D01*
G37*
D12*
X131476816Y-117867219D02*
X131810149Y-118867219D01*
X131810149Y-118867219D02*
X132143482Y-117867219D01*
X137524435Y-117717219D02*
X138143482Y-117717219D01*
X138143482Y-117717219D02*
X137810149Y-118098171D01*
X137810149Y-118098171D02*
X137953006Y-118098171D01*
X137953006Y-118098171D02*
X138048244Y-118145790D01*
X138048244Y-118145790D02*
X138095863Y-118193409D01*
X138095863Y-118193409D02*
X138143482Y-118288647D01*
X138143482Y-118288647D02*
X138143482Y-118526742D01*
X138143482Y-118526742D02*
X138095863Y-118621980D01*
X138095863Y-118621980D02*
X138048244Y-118669600D01*
X138048244Y-118669600D02*
X137953006Y-118717219D01*
X137953006Y-118717219D02*
X137667292Y-118717219D01*
X137667292Y-118717219D02*
X137572054Y-118669600D01*
X137572054Y-118669600D02*
X137524435Y-118621980D01*
X138429197Y-117717219D02*
X138762530Y-118717219D01*
X138762530Y-118717219D02*
X139095863Y-117717219D01*
X139333959Y-117717219D02*
X139953006Y-117717219D01*
X139953006Y-117717219D02*
X139619673Y-118098171D01*
X139619673Y-118098171D02*
X139762530Y-118098171D01*
X139762530Y-118098171D02*
X139857768Y-118145790D01*
X139857768Y-118145790D02*
X139905387Y-118193409D01*
X139905387Y-118193409D02*
X139953006Y-118288647D01*
X139953006Y-118288647D02*
X139953006Y-118526742D01*
X139953006Y-118526742D02*
X139905387Y-118621980D01*
X139905387Y-118621980D02*
X139857768Y-118669600D01*
X139857768Y-118669600D02*
X139762530Y-118717219D01*
X139762530Y-118717219D02*
X139476816Y-118717219D01*
X139476816Y-118717219D02*
X139381578Y-118669600D01*
X139381578Y-118669600D02*
X139333959Y-118621980D01*
X141893482Y-117764838D02*
X141798244Y-117717219D01*
X141798244Y-117717219D02*
X141655387Y-117717219D01*
X141655387Y-117717219D02*
X141512530Y-117764838D01*
X141512530Y-117764838D02*
X141417292Y-117860076D01*
X141417292Y-117860076D02*
X141369673Y-117955314D01*
X141369673Y-117955314D02*
X141322054Y-118145790D01*
X141322054Y-118145790D02*
X141322054Y-118288647D01*
X141322054Y-118288647D02*
X141369673Y-118479123D01*
X141369673Y-118479123D02*
X141417292Y-118574361D01*
X141417292Y-118574361D02*
X141512530Y-118669600D01*
X141512530Y-118669600D02*
X141655387Y-118717219D01*
X141655387Y-118717219D02*
X141750625Y-118717219D01*
X141750625Y-118717219D02*
X141893482Y-118669600D01*
X141893482Y-118669600D02*
X141941101Y-118621980D01*
X141941101Y-118621980D02*
X141941101Y-118288647D01*
X141941101Y-118288647D02*
X141750625Y-118288647D01*
X142369673Y-118717219D02*
X142369673Y-117717219D01*
X142369673Y-117717219D02*
X142941101Y-118717219D01*
X142941101Y-118717219D02*
X142941101Y-117717219D01*
X143417292Y-118717219D02*
X143417292Y-117717219D01*
X143417292Y-117717219D02*
X143655387Y-117717219D01*
X143655387Y-117717219D02*
X143798244Y-117764838D01*
X143798244Y-117764838D02*
X143893482Y-117860076D01*
X143893482Y-117860076D02*
X143941101Y-117955314D01*
X143941101Y-117955314D02*
X143988720Y-118145790D01*
X143988720Y-118145790D02*
X143988720Y-118288647D01*
X143988720Y-118288647D02*
X143941101Y-118479123D01*
X143941101Y-118479123D02*
X143893482Y-118574361D01*
X143893482Y-118574361D02*
X143798244Y-118669600D01*
X143798244Y-118669600D02*
X143655387Y-118717219D01*
X143655387Y-118717219D02*
X143417292Y-118717219D01*
X144976816Y-117717219D02*
X145310149Y-118717219D01*
X145310149Y-118717219D02*
X145643482Y-117717219D01*
X145929197Y-118669600D02*
X146072054Y-118717219D01*
X146072054Y-118717219D02*
X146310149Y-118717219D01*
X146310149Y-118717219D02*
X146405387Y-118669600D01*
X146405387Y-118669600D02*
X146453006Y-118621980D01*
X146453006Y-118621980D02*
X146500625Y-118526742D01*
X146500625Y-118526742D02*
X146500625Y-118431504D01*
X146500625Y-118431504D02*
X146453006Y-118336266D01*
X146453006Y-118336266D02*
X146405387Y-118288647D01*
X146405387Y-118288647D02*
X146310149Y-118241028D01*
X146310149Y-118241028D02*
X146119673Y-118193409D01*
X146119673Y-118193409D02*
X146024435Y-118145790D01*
X146024435Y-118145790D02*
X145976816Y-118098171D01*
X145976816Y-118098171D02*
X145929197Y-118002933D01*
X145929197Y-118002933D02*
X145929197Y-117907695D01*
X145929197Y-117907695D02*
X145976816Y-117812457D01*
X145976816Y-117812457D02*
X146024435Y-117764838D01*
X146024435Y-117764838D02*
X146119673Y-117717219D01*
X146119673Y-117717219D02*
X146357768Y-117717219D01*
X146357768Y-117717219D02*
X146500625Y-117764838D01*
X146929197Y-118717219D02*
X146929197Y-117717219D01*
X146929197Y-117717219D02*
X147167292Y-117717219D01*
X147167292Y-117717219D02*
X147310149Y-117764838D01*
X147310149Y-117764838D02*
X147405387Y-117860076D01*
X147405387Y-117860076D02*
X147453006Y-117955314D01*
X147453006Y-117955314D02*
X147500625Y-118145790D01*
X147500625Y-118145790D02*
X147500625Y-118288647D01*
X147500625Y-118288647D02*
X147453006Y-118479123D01*
X147453006Y-118479123D02*
X147405387Y-118574361D01*
X147405387Y-118574361D02*
X147310149Y-118669600D01*
X147310149Y-118669600D02*
X147167292Y-118717219D01*
X147167292Y-118717219D02*
X146929197Y-118717219D01*
X148369673Y-118717219D02*
X148369673Y-117717219D01*
X148845863Y-118193409D02*
X149179196Y-118193409D01*
X149322053Y-118717219D02*
X148845863Y-118717219D01*
X148845863Y-118717219D02*
X148845863Y-117717219D01*
X148845863Y-117717219D02*
X149322053Y-117717219D01*
X150941101Y-118717219D02*
X150607768Y-118241028D01*
X150369673Y-118717219D02*
X150369673Y-117717219D01*
X150369673Y-117717219D02*
X150750625Y-117717219D01*
X150750625Y-117717219D02*
X150845863Y-117764838D01*
X150845863Y-117764838D02*
X150893482Y-117812457D01*
X150893482Y-117812457D02*
X150941101Y-117907695D01*
X150941101Y-117907695D02*
X150941101Y-118050552D01*
X150941101Y-118050552D02*
X150893482Y-118145790D01*
X150893482Y-118145790D02*
X150845863Y-118193409D01*
X150845863Y-118193409D02*
X150750625Y-118241028D01*
X150750625Y-118241028D02*
X150369673Y-118241028D01*
X151322054Y-118669600D02*
X151464911Y-118717219D01*
X151464911Y-118717219D02*
X151703006Y-118717219D01*
X151703006Y-118717219D02*
X151798244Y-118669600D01*
X151798244Y-118669600D02*
X151845863Y-118621980D01*
X151845863Y-118621980D02*
X151893482Y-118526742D01*
X151893482Y-118526742D02*
X151893482Y-118431504D01*
X151893482Y-118431504D02*
X151845863Y-118336266D01*
X151845863Y-118336266D02*
X151798244Y-118288647D01*
X151798244Y-118288647D02*
X151703006Y-118241028D01*
X151703006Y-118241028D02*
X151512530Y-118193409D01*
X151512530Y-118193409D02*
X151417292Y-118145790D01*
X151417292Y-118145790D02*
X151369673Y-118098171D01*
X151369673Y-118098171D02*
X151322054Y-118002933D01*
X151322054Y-118002933D02*
X151322054Y-117907695D01*
X151322054Y-117907695D02*
X151369673Y-117812457D01*
X151369673Y-117812457D02*
X151417292Y-117764838D01*
X151417292Y-117764838D02*
X151512530Y-117717219D01*
X151512530Y-117717219D02*
X151750625Y-117717219D01*
X151750625Y-117717219D02*
X151893482Y-117764838D01*
X152322054Y-118717219D02*
X152322054Y-117717219D01*
X152322054Y-117717219D02*
X152560149Y-117717219D01*
X152560149Y-117717219D02*
X152703006Y-117764838D01*
X152703006Y-117764838D02*
X152798244Y-117860076D01*
X152798244Y-117860076D02*
X152845863Y-117955314D01*
X152845863Y-117955314D02*
X152893482Y-118145790D01*
X152893482Y-118145790D02*
X152893482Y-118288647D01*
X152893482Y-118288647D02*
X152845863Y-118479123D01*
X152845863Y-118479123D02*
X152798244Y-118574361D01*
X152798244Y-118574361D02*
X152703006Y-118669600D01*
X152703006Y-118669600D02*
X152560149Y-118717219D01*
X152560149Y-118717219D02*
X152322054Y-118717219D01*
X158572054Y-118581504D02*
X159048244Y-118581504D01*
X158476816Y-118867219D02*
X158810149Y-117867219D01*
X158810149Y-117867219D02*
X159143482Y-118867219D01*
X160619673Y-118867219D02*
X160619673Y-117867219D01*
X160619673Y-117867219D02*
X160857768Y-117867219D01*
X160857768Y-117867219D02*
X161000625Y-117914838D01*
X161000625Y-117914838D02*
X161095863Y-118010076D01*
X161095863Y-118010076D02*
X161143482Y-118105314D01*
X161143482Y-118105314D02*
X161191101Y-118295790D01*
X161191101Y-118295790D02*
X161191101Y-118438647D01*
X161191101Y-118438647D02*
X161143482Y-118629123D01*
X161143482Y-118629123D02*
X161095863Y-118724361D01*
X161095863Y-118724361D02*
X161000625Y-118819600D01*
X161000625Y-118819600D02*
X160857768Y-118867219D01*
X160857768Y-118867219D02*
X160619673Y-118867219D01*
X168767219Y-95630326D02*
X167767219Y-95630326D01*
X168767219Y-94630327D02*
X168767219Y-95201755D01*
X168767219Y-94916041D02*
X167767219Y-94916041D01*
X167767219Y-94916041D02*
X167910076Y-95011279D01*
X167910076Y-95011279D02*
X168005314Y-95106517D01*
X168005314Y-95106517D02*
X168052933Y-95201755D01*
X168767219Y-98380326D02*
X167767219Y-98380326D01*
X167767219Y-97713660D02*
X167767219Y-97618422D01*
X167767219Y-97618422D02*
X167814838Y-97523184D01*
X167814838Y-97523184D02*
X167862457Y-97475565D01*
X167862457Y-97475565D02*
X167957695Y-97427946D01*
X167957695Y-97427946D02*
X168148171Y-97380327D01*
X168148171Y-97380327D02*
X168386266Y-97380327D01*
X168386266Y-97380327D02*
X168576742Y-97427946D01*
X168576742Y-97427946D02*
X168671980Y-97475565D01*
X168671980Y-97475565D02*
X168719600Y-97523184D01*
X168719600Y-97523184D02*
X168767219Y-97618422D01*
X168767219Y-97618422D02*
X168767219Y-97713660D01*
X168767219Y-97713660D02*
X168719600Y-97808898D01*
X168719600Y-97808898D02*
X168671980Y-97856517D01*
X168671980Y-97856517D02*
X168576742Y-97904136D01*
X168576742Y-97904136D02*
X168386266Y-97951755D01*
X168386266Y-97951755D02*
X168148171Y-97951755D01*
X168148171Y-97951755D02*
X167957695Y-97904136D01*
X167957695Y-97904136D02*
X167862457Y-97856517D01*
X167862457Y-97856517D02*
X167814838Y-97808898D01*
X167814838Y-97808898D02*
X167767219Y-97713660D01*
X168862457Y-100213660D02*
X168814838Y-100308898D01*
X168814838Y-100308898D02*
X168719600Y-100404136D01*
X168719600Y-100404136D02*
X168576742Y-100546993D01*
X168576742Y-100546993D02*
X168529123Y-100642231D01*
X168529123Y-100642231D02*
X168529123Y-100737469D01*
X168767219Y-100689850D02*
X168719600Y-100785088D01*
X168719600Y-100785088D02*
X168624361Y-100880326D01*
X168624361Y-100880326D02*
X168433885Y-100927945D01*
X168433885Y-100927945D02*
X168100552Y-100927945D01*
X168100552Y-100927945D02*
X167910076Y-100880326D01*
X167910076Y-100880326D02*
X167814838Y-100785088D01*
X167814838Y-100785088D02*
X167767219Y-100689850D01*
X167767219Y-100689850D02*
X167767219Y-100499374D01*
X167767219Y-100499374D02*
X167814838Y-100404136D01*
X167814838Y-100404136D02*
X167910076Y-100308898D01*
X167910076Y-100308898D02*
X168100552Y-100261279D01*
X168100552Y-100261279D02*
X168433885Y-100261279D01*
X168433885Y-100261279D02*
X168624361Y-100308898D01*
X168624361Y-100308898D02*
X168719600Y-100404136D01*
X168719600Y-100404136D02*
X168767219Y-100499374D01*
X168767219Y-100499374D02*
X168767219Y-100689850D01*
X168767219Y-99308898D02*
X168767219Y-99880326D01*
X168767219Y-99594612D02*
X167767219Y-99594612D01*
X167767219Y-99594612D02*
X167910076Y-99689850D01*
X167910076Y-99689850D02*
X168005314Y-99785088D01*
X168005314Y-99785088D02*
X168052933Y-99880326D01*
X168862457Y-102963660D02*
X168814838Y-103058898D01*
X168814838Y-103058898D02*
X168719600Y-103154136D01*
X168719600Y-103154136D02*
X168576742Y-103296993D01*
X168576742Y-103296993D02*
X168529123Y-103392231D01*
X168529123Y-103392231D02*
X168529123Y-103487469D01*
X168767219Y-103439850D02*
X168719600Y-103535088D01*
X168719600Y-103535088D02*
X168624361Y-103630326D01*
X168624361Y-103630326D02*
X168433885Y-103677945D01*
X168433885Y-103677945D02*
X168100552Y-103677945D01*
X168100552Y-103677945D02*
X167910076Y-103630326D01*
X167910076Y-103630326D02*
X167814838Y-103535088D01*
X167814838Y-103535088D02*
X167767219Y-103439850D01*
X167767219Y-103439850D02*
X167767219Y-103249374D01*
X167767219Y-103249374D02*
X167814838Y-103154136D01*
X167814838Y-103154136D02*
X167910076Y-103058898D01*
X167910076Y-103058898D02*
X168100552Y-103011279D01*
X168100552Y-103011279D02*
X168433885Y-103011279D01*
X168433885Y-103011279D02*
X168624361Y-103058898D01*
X168624361Y-103058898D02*
X168719600Y-103154136D01*
X168719600Y-103154136D02*
X168767219Y-103249374D01*
X168767219Y-103249374D02*
X168767219Y-103439850D01*
X167767219Y-102392231D02*
X167767219Y-102296993D01*
X167767219Y-102296993D02*
X167814838Y-102201755D01*
X167814838Y-102201755D02*
X167862457Y-102154136D01*
X167862457Y-102154136D02*
X167957695Y-102106517D01*
X167957695Y-102106517D02*
X168148171Y-102058898D01*
X168148171Y-102058898D02*
X168386266Y-102058898D01*
X168386266Y-102058898D02*
X168576742Y-102106517D01*
X168576742Y-102106517D02*
X168671980Y-102154136D01*
X168671980Y-102154136D02*
X168719600Y-102201755D01*
X168719600Y-102201755D02*
X168767219Y-102296993D01*
X168767219Y-102296993D02*
X168767219Y-102392231D01*
X168767219Y-102392231D02*
X168719600Y-102487469D01*
X168719600Y-102487469D02*
X168671980Y-102535088D01*
X168671980Y-102535088D02*
X168576742Y-102582707D01*
X168576742Y-102582707D02*
X168386266Y-102630326D01*
X168386266Y-102630326D02*
X168148171Y-102630326D01*
X168148171Y-102630326D02*
X167957695Y-102582707D01*
X167957695Y-102582707D02*
X167862457Y-102535088D01*
X167862457Y-102535088D02*
X167814838Y-102487469D01*
X167814838Y-102487469D02*
X167767219Y-102392231D01*
X168671980Y-105558898D02*
X168719600Y-105606517D01*
X168719600Y-105606517D02*
X168767219Y-105749374D01*
X168767219Y-105749374D02*
X168767219Y-105844612D01*
X168767219Y-105844612D02*
X168719600Y-105987469D01*
X168719600Y-105987469D02*
X168624361Y-106082707D01*
X168624361Y-106082707D02*
X168529123Y-106130326D01*
X168529123Y-106130326D02*
X168338647Y-106177945D01*
X168338647Y-106177945D02*
X168195790Y-106177945D01*
X168195790Y-106177945D02*
X168005314Y-106130326D01*
X168005314Y-106130326D02*
X167910076Y-106082707D01*
X167910076Y-106082707D02*
X167814838Y-105987469D01*
X167814838Y-105987469D02*
X167767219Y-105844612D01*
X167767219Y-105844612D02*
X167767219Y-105749374D01*
X167767219Y-105749374D02*
X167814838Y-105606517D01*
X167814838Y-105606517D02*
X167862457Y-105558898D01*
X167767219Y-104939850D02*
X167767219Y-104749374D01*
X167767219Y-104749374D02*
X167814838Y-104654136D01*
X167814838Y-104654136D02*
X167910076Y-104558898D01*
X167910076Y-104558898D02*
X168100552Y-104511279D01*
X168100552Y-104511279D02*
X168433885Y-104511279D01*
X168433885Y-104511279D02*
X168624361Y-104558898D01*
X168624361Y-104558898D02*
X168719600Y-104654136D01*
X168719600Y-104654136D02*
X168767219Y-104749374D01*
X168767219Y-104749374D02*
X168767219Y-104939850D01*
X168767219Y-104939850D02*
X168719600Y-105035088D01*
X168719600Y-105035088D02*
X168624361Y-105130326D01*
X168624361Y-105130326D02*
X168433885Y-105177945D01*
X168433885Y-105177945D02*
X168100552Y-105177945D01*
X168100552Y-105177945D02*
X167910076Y-105130326D01*
X167910076Y-105130326D02*
X167814838Y-105035088D01*
X167814838Y-105035088D02*
X167767219Y-104939850D01*
X167814838Y-108856517D02*
X167767219Y-108951755D01*
X167767219Y-108951755D02*
X167767219Y-109094612D01*
X167767219Y-109094612D02*
X167814838Y-109237469D01*
X167814838Y-109237469D02*
X167910076Y-109332707D01*
X167910076Y-109332707D02*
X168005314Y-109380326D01*
X168005314Y-109380326D02*
X168195790Y-109427945D01*
X168195790Y-109427945D02*
X168338647Y-109427945D01*
X168338647Y-109427945D02*
X168529123Y-109380326D01*
X168529123Y-109380326D02*
X168624361Y-109332707D01*
X168624361Y-109332707D02*
X168719600Y-109237469D01*
X168719600Y-109237469D02*
X168767219Y-109094612D01*
X168767219Y-109094612D02*
X168767219Y-108999374D01*
X168767219Y-108999374D02*
X168719600Y-108856517D01*
X168719600Y-108856517D02*
X168671980Y-108808898D01*
X168671980Y-108808898D02*
X168338647Y-108808898D01*
X168338647Y-108808898D02*
X168338647Y-108999374D01*
X168767219Y-108380326D02*
X167767219Y-108380326D01*
X167767219Y-108380326D02*
X168767219Y-107808898D01*
X168767219Y-107808898D02*
X167767219Y-107808898D01*
X168767219Y-107332707D02*
X167767219Y-107332707D01*
X167767219Y-107332707D02*
X167767219Y-107094612D01*
X167767219Y-107094612D02*
X167814838Y-106951755D01*
X167814838Y-106951755D02*
X167910076Y-106856517D01*
X167910076Y-106856517D02*
X168005314Y-106808898D01*
X168005314Y-106808898D02*
X168195790Y-106761279D01*
X168195790Y-106761279D02*
X168338647Y-106761279D01*
X168338647Y-106761279D02*
X168529123Y-106808898D01*
X168529123Y-106808898D02*
X168624361Y-106856517D01*
X168624361Y-106856517D02*
X168719600Y-106951755D01*
X168719600Y-106951755D02*
X168767219Y-107094612D01*
X168767219Y-107094612D02*
X168767219Y-107332707D01*
X121282780Y-95095863D02*
X121282780Y-94619673D01*
X121282780Y-94619673D02*
X122282780Y-94619673D01*
X121282780Y-95429197D02*
X122282780Y-95429197D01*
X122282780Y-95429197D02*
X122282780Y-95667292D01*
X122282780Y-95667292D02*
X122235161Y-95810149D01*
X122235161Y-95810149D02*
X122139923Y-95905387D01*
X122139923Y-95905387D02*
X122044685Y-95953006D01*
X122044685Y-95953006D02*
X121854209Y-96000625D01*
X121854209Y-96000625D02*
X121711352Y-96000625D01*
X121711352Y-96000625D02*
X121520876Y-95953006D01*
X121520876Y-95953006D02*
X121425638Y-95905387D01*
X121425638Y-95905387D02*
X121330400Y-95810149D01*
X121330400Y-95810149D02*
X121282780Y-95667292D01*
X121282780Y-95667292D02*
X121282780Y-95429197D01*
X121282780Y-97119673D02*
X122282780Y-97119673D01*
X122282780Y-97119673D02*
X122282780Y-97357768D01*
X122282780Y-97357768D02*
X122235161Y-97500625D01*
X122235161Y-97500625D02*
X122139923Y-97595863D01*
X122139923Y-97595863D02*
X122044685Y-97643482D01*
X122044685Y-97643482D02*
X121854209Y-97691101D01*
X121854209Y-97691101D02*
X121711352Y-97691101D01*
X121711352Y-97691101D02*
X121520876Y-97643482D01*
X121520876Y-97643482D02*
X121425638Y-97595863D01*
X121425638Y-97595863D02*
X121330400Y-97500625D01*
X121330400Y-97500625D02*
X121282780Y-97357768D01*
X121282780Y-97357768D02*
X121282780Y-97119673D01*
X121568495Y-98072054D02*
X121568495Y-98548244D01*
X121282780Y-97976816D02*
X122282780Y-98310149D01*
X122282780Y-98310149D02*
X121282780Y-98643482D01*
X121378019Y-100191101D02*
X121330400Y-100143482D01*
X121330400Y-100143482D02*
X121282780Y-100000625D01*
X121282780Y-100000625D02*
X121282780Y-99905387D01*
X121282780Y-99905387D02*
X121330400Y-99762530D01*
X121330400Y-99762530D02*
X121425638Y-99667292D01*
X121425638Y-99667292D02*
X121520876Y-99619673D01*
X121520876Y-99619673D02*
X121711352Y-99572054D01*
X121711352Y-99572054D02*
X121854209Y-99572054D01*
X121854209Y-99572054D02*
X122044685Y-99619673D01*
X122044685Y-99619673D02*
X122139923Y-99667292D01*
X122139923Y-99667292D02*
X122235161Y-99762530D01*
X122235161Y-99762530D02*
X122282780Y-99905387D01*
X122282780Y-99905387D02*
X122282780Y-100000625D01*
X122282780Y-100000625D02*
X122235161Y-100143482D01*
X122235161Y-100143482D02*
X122187542Y-100191101D01*
X121282780Y-100619673D02*
X122282780Y-100619673D01*
X121282780Y-101191101D02*
X121854209Y-100762530D01*
X122282780Y-101191101D02*
X121711352Y-100619673D01*
X121378019Y-102691101D02*
X121330400Y-102643482D01*
X121330400Y-102643482D02*
X121282780Y-102500625D01*
X121282780Y-102500625D02*
X121282780Y-102405387D01*
X121282780Y-102405387D02*
X121330400Y-102262530D01*
X121330400Y-102262530D02*
X121425638Y-102167292D01*
X121425638Y-102167292D02*
X121520876Y-102119673D01*
X121520876Y-102119673D02*
X121711352Y-102072054D01*
X121711352Y-102072054D02*
X121854209Y-102072054D01*
X121854209Y-102072054D02*
X122044685Y-102119673D01*
X122044685Y-102119673D02*
X122139923Y-102167292D01*
X122139923Y-102167292D02*
X122235161Y-102262530D01*
X122235161Y-102262530D02*
X122282780Y-102405387D01*
X122282780Y-102405387D02*
X122282780Y-102500625D01*
X122282780Y-102500625D02*
X122235161Y-102643482D01*
X122235161Y-102643482D02*
X122187542Y-102691101D01*
X121330400Y-103072054D02*
X121282780Y-103214911D01*
X121282780Y-103214911D02*
X121282780Y-103453006D01*
X121282780Y-103453006D02*
X121330400Y-103548244D01*
X121330400Y-103548244D02*
X121378019Y-103595863D01*
X121378019Y-103595863D02*
X121473257Y-103643482D01*
X121473257Y-103643482D02*
X121568495Y-103643482D01*
X121568495Y-103643482D02*
X121663733Y-103595863D01*
X121663733Y-103595863D02*
X121711352Y-103548244D01*
X121711352Y-103548244D02*
X121758971Y-103453006D01*
X121758971Y-103453006D02*
X121806590Y-103262530D01*
X121806590Y-103262530D02*
X121854209Y-103167292D01*
X121854209Y-103167292D02*
X121901828Y-103119673D01*
X121901828Y-103119673D02*
X121997066Y-103072054D01*
X121997066Y-103072054D02*
X122092304Y-103072054D01*
X122092304Y-103072054D02*
X122187542Y-103119673D01*
X122187542Y-103119673D02*
X122235161Y-103167292D01*
X122235161Y-103167292D02*
X122282780Y-103262530D01*
X122282780Y-103262530D02*
X122282780Y-103500625D01*
X122282780Y-103500625D02*
X122235161Y-103643482D01*
X122235161Y-106143482D02*
X122282780Y-106048244D01*
X122282780Y-106048244D02*
X122282780Y-105905387D01*
X122282780Y-105905387D02*
X122235161Y-105762530D01*
X122235161Y-105762530D02*
X122139923Y-105667292D01*
X122139923Y-105667292D02*
X122044685Y-105619673D01*
X122044685Y-105619673D02*
X121854209Y-105572054D01*
X121854209Y-105572054D02*
X121711352Y-105572054D01*
X121711352Y-105572054D02*
X121520876Y-105619673D01*
X121520876Y-105619673D02*
X121425638Y-105667292D01*
X121425638Y-105667292D02*
X121330400Y-105762530D01*
X121330400Y-105762530D02*
X121282780Y-105905387D01*
X121282780Y-105905387D02*
X121282780Y-106000625D01*
X121282780Y-106000625D02*
X121330400Y-106143482D01*
X121330400Y-106143482D02*
X121378019Y-106191101D01*
X121378019Y-106191101D02*
X121711352Y-106191101D01*
X121711352Y-106191101D02*
X121711352Y-106000625D01*
X121282780Y-106619673D02*
X122282780Y-106619673D01*
X122282780Y-106619673D02*
X121282780Y-107191101D01*
X121282780Y-107191101D02*
X122282780Y-107191101D01*
X121282780Y-107667292D02*
X122282780Y-107667292D01*
X122282780Y-107667292D02*
X122282780Y-107905387D01*
X122282780Y-107905387D02*
X122235161Y-108048244D01*
X122235161Y-108048244D02*
X122139923Y-108143482D01*
X122139923Y-108143482D02*
X122044685Y-108191101D01*
X122044685Y-108191101D02*
X121854209Y-108238720D01*
X121854209Y-108238720D02*
X121711352Y-108238720D01*
X121711352Y-108238720D02*
X121520876Y-108191101D01*
X121520876Y-108191101D02*
X121425638Y-108143482D01*
X121425638Y-108143482D02*
X121330400Y-108048244D01*
X121330400Y-108048244D02*
X121282780Y-107905387D01*
X121282780Y-107905387D02*
X121282780Y-107667292D01*
D13*
G36*
X167016253Y-80733374D02*
G01*
X168545000Y-80733374D01*
X168545000Y-81046065D01*
X167665725Y-81046065D01*
X167599688Y-81044508D01*
X167527240Y-81038647D01*
X168313091Y-81444761D01*
X168345734Y-81467254D01*
X168368778Y-81495686D01*
X168382814Y-81529452D01*
X168387646Y-81568592D01*
X168387646Y-81616861D01*
X168382814Y-81656001D01*
X168368778Y-81689767D01*
X168345745Y-81718143D01*
X168313091Y-81740692D01*
X167525133Y-82146715D01*
X167599139Y-82141495D01*
X167665725Y-82139388D01*
X168545000Y-82139388D01*
X168545000Y-82452080D01*
X167016253Y-82452080D01*
X167016253Y-82181337D01*
X167017352Y-82140945D01*
X167023580Y-82109987D01*
X167039883Y-82085349D01*
X167070750Y-82063825D01*
X167846160Y-81670350D01*
X167929141Y-81629959D01*
X168017252Y-81592681D01*
X167927035Y-81555495D01*
X167843046Y-81514004D01*
X167070750Y-81121628D01*
X167039883Y-81100104D01*
X167023580Y-81075466D01*
X167017352Y-81044508D01*
X167016253Y-81004025D01*
X167016253Y-80733374D01*
G37*
G36*
X168545000Y-79340548D02*
G01*
X168539253Y-79383507D01*
X168523476Y-79415103D01*
X168499049Y-79439918D01*
X168468429Y-79458060D01*
X168201899Y-79548277D01*
X168201899Y-80129605D01*
X168468429Y-80219822D01*
X168495679Y-80235467D01*
X168521369Y-80261313D01*
X168538871Y-80294037D01*
X168545000Y-80335227D01*
X168545000Y-80612290D01*
X167016253Y-80020520D01*
X167016253Y-79839994D01*
X167330960Y-79839994D01*
X167449570Y-79873608D01*
X167544001Y-79907131D01*
X167960557Y-80047814D01*
X167960557Y-79629152D01*
X167541894Y-79770751D01*
X167448013Y-79804365D01*
X167330960Y-79839994D01*
X167016253Y-79839994D01*
X167016253Y-79657453D01*
X168545000Y-79065683D01*
X168545000Y-79340548D01*
G37*
G36*
X168545000Y-77633657D02*
G01*
X168545000Y-77988298D01*
X168540548Y-78020502D01*
X168528238Y-78044443D01*
X168488305Y-78078515D01*
X167953230Y-78384887D01*
X167993072Y-78403755D01*
X168488305Y-78689153D01*
X168527139Y-78723866D01*
X168540343Y-78746105D01*
X168545000Y-78775248D01*
X168545000Y-79106808D01*
X167758049Y-78614689D01*
X167016253Y-79087940D01*
X167016253Y-78733299D01*
X167018858Y-78701174D01*
X167025137Y-78682375D01*
X167054996Y-78653524D01*
X167570196Y-78349258D01*
X167544001Y-78337168D01*
X167517806Y-78321964D01*
X167060308Y-78055434D01*
X167026786Y-78024568D01*
X167019035Y-78006859D01*
X167016253Y-77984084D01*
X167016253Y-77644098D01*
X167743394Y-78123669D01*
X168545000Y-77633657D01*
G37*
G36*
X168251175Y-76621209D02*
G01*
X168258816Y-76573039D01*
X168280027Y-76538319D01*
X168312887Y-76515753D01*
X168356139Y-76507911D01*
X168545000Y-76507911D01*
X168545000Y-77582366D01*
X168440036Y-77582366D01*
X168409361Y-77579379D01*
X168375006Y-77569818D01*
X168342509Y-77552842D01*
X168312083Y-77525671D01*
X167868233Y-77084935D01*
X167760156Y-76986383D01*
X167708138Y-76947352D01*
X167658948Y-76917140D01*
X167608460Y-76893015D01*
X167559205Y-76876199D01*
X167508407Y-76866025D01*
X167453784Y-76862552D01*
X167394393Y-76868031D01*
X167348740Y-76882972D01*
X167313741Y-76906149D01*
X167287671Y-76938359D01*
X167271036Y-76981413D01*
X167264923Y-77038773D01*
X167274843Y-77106668D01*
X167303208Y-77161047D01*
X167346393Y-77203348D01*
X167398188Y-77229740D01*
X167448309Y-77256866D01*
X167474758Y-77287534D01*
X167485980Y-77327385D01*
X167483184Y-77389292D01*
X167452684Y-77561392D01*
X167343586Y-77536131D01*
X167253382Y-77496820D01*
X167174840Y-77442810D01*
X167111691Y-77378301D01*
X167062484Y-77302810D01*
X167027244Y-77216185D01*
X167006524Y-77122596D01*
X166999400Y-77019905D01*
X167007999Y-76910209D01*
X167032465Y-76815840D01*
X167072560Y-76730758D01*
X167124330Y-76661051D01*
X167188568Y-76604607D01*
X167264373Y-76562957D01*
X167348652Y-76537616D01*
X167443251Y-76528886D01*
X167525140Y-76534956D01*
X167598589Y-76552516D01*
X167668102Y-76580338D01*
X167734510Y-76616996D01*
X167797511Y-76660871D01*
X167859349Y-76711976D01*
X167981531Y-76826831D01*
X168287903Y-77125876D01*
X168260701Y-77011571D01*
X168251175Y-76906607D01*
X168251175Y-76621209D01*
G37*
G36*
X167016253Y-75270150D02*
G01*
X167152632Y-75270150D01*
X167210320Y-75273958D01*
X167250726Y-75283797D01*
X167313191Y-75309992D01*
X168437930Y-75840945D01*
X168478745Y-75867457D01*
X168513584Y-75903410D01*
X168536585Y-75948609D01*
X168545000Y-76010938D01*
X168545000Y-76248067D01*
X167450578Y-75702459D01*
X167370344Y-75653641D01*
X167301651Y-75598595D01*
X167301651Y-76271148D01*
X167295881Y-76298992D01*
X167280127Y-76322073D01*
X167257046Y-76338376D01*
X167230301Y-76344604D01*
X167016253Y-76344604D01*
X167016253Y-75270150D01*
G37*
G36*
X168139682Y-74050869D02*
G01*
X168238078Y-74080748D01*
X168328194Y-74128958D01*
X168405964Y-74193497D01*
X168469809Y-74273017D01*
X168519812Y-74369260D01*
X168550966Y-74475908D01*
X168561761Y-74596955D01*
X168551269Y-74720601D01*
X168521369Y-74826757D01*
X168472445Y-74921601D01*
X168408620Y-74999315D01*
X168329730Y-75061352D01*
X168235513Y-75107392D01*
X168131361Y-75135081D01*
X168014046Y-75144670D01*
X167905588Y-75134681D01*
X167794118Y-75103919D01*
X167677945Y-75050267D01*
X167555541Y-74970464D01*
X167090717Y-74626264D01*
X167063312Y-74597979D01*
X167038326Y-74556564D01*
X167021973Y-74508552D01*
X167016253Y-74452150D01*
X167016253Y-74162539D01*
X167557648Y-74615823D01*
X167603810Y-74655665D01*
X167590998Y-74607397D01*
X167811538Y-74607397D01*
X167815978Y-74655239D01*
X167828849Y-74697705D01*
X167849990Y-74735839D01*
X167878766Y-74768505D01*
X167914024Y-74794861D01*
X167956435Y-74815217D01*
X168003346Y-74827615D01*
X168058101Y-74831978D01*
X168113100Y-74828405D01*
X168159951Y-74818331D01*
X168202311Y-74800797D01*
X168237620Y-74776382D01*
X168266118Y-74744656D01*
X168287445Y-74705033D01*
X168300162Y-74659585D01*
X168304756Y-74603183D01*
X168299972Y-74554260D01*
X168285888Y-74509394D01*
X168263276Y-74468636D01*
X168233865Y-74434289D01*
X168198185Y-74406238D01*
X168156287Y-74384464D01*
X168110211Y-74370752D01*
X168059200Y-74366054D01*
X168002398Y-74370576D01*
X167954237Y-74383365D01*
X167911273Y-74404533D01*
X167876659Y-74432183D01*
X167849037Y-74466653D01*
X167828391Y-74508295D01*
X167815892Y-74554554D01*
X167811538Y-74607397D01*
X167590998Y-74607397D01*
X167583580Y-74579449D01*
X167576516Y-74491992D01*
X167583293Y-74409908D01*
X167603810Y-74328319D01*
X167638439Y-74251751D01*
X167687799Y-74183513D01*
X167750953Y-74126351D01*
X167830956Y-74080198D01*
X167922521Y-74051195D01*
X168035020Y-74040814D01*
X168139682Y-74050869D01*
G37*
G36*
X167611793Y-72867169D02*
G01*
X167700948Y-72882463D01*
X167781222Y-72907008D01*
X167896071Y-72959557D01*
X168004612Y-73027634D01*
X168472643Y-73357087D01*
X168499795Y-73383640D01*
X168524025Y-73423765D01*
X168539570Y-73470435D01*
X168545000Y-73524973D01*
X168545000Y-73825026D01*
X167965778Y-73340326D01*
X167931248Y-73312024D01*
X167897634Y-73286837D01*
X167925794Y-73352924D01*
X167943062Y-73425583D01*
X167949016Y-73506106D01*
X167942430Y-73580034D01*
X167922272Y-73655124D01*
X167888705Y-73725831D01*
X167840939Y-73789946D01*
X167780237Y-73843915D01*
X167703461Y-73888040D01*
X167615678Y-73915813D01*
X167507273Y-73925776D01*
X167405836Y-73916115D01*
X167311085Y-73887491D01*
X167224441Y-73841016D01*
X167149518Y-73778406D01*
X167087898Y-73701337D01*
X167039792Y-73608962D01*
X167009833Y-73506357D01*
X166999773Y-73392807D01*
X167256496Y-73392807D01*
X167260998Y-73440205D01*
X167273807Y-73480368D01*
X167294513Y-73515925D01*
X167321618Y-73545490D01*
X167354447Y-73568898D01*
X167393517Y-73586431D01*
X167436092Y-73596924D01*
X167483184Y-73600536D01*
X167571119Y-73590697D01*
X167632797Y-73564571D01*
X167675293Y-73524239D01*
X167702009Y-73467536D01*
X167711887Y-73388594D01*
X167704333Y-73322082D01*
X167683310Y-73269851D01*
X167649514Y-73228585D01*
X167604865Y-73198184D01*
X167550317Y-73179208D01*
X167483184Y-73172439D01*
X167429543Y-73176726D01*
X167384999Y-73188743D01*
X167345534Y-73208443D01*
X167314199Y-73233805D01*
X167289502Y-73265367D01*
X167271243Y-73303598D01*
X167260277Y-73345804D01*
X167256496Y-73392807D01*
X166999773Y-73392807D01*
X166999400Y-73388594D01*
X167009260Y-73269002D01*
X167037227Y-73167219D01*
X167083143Y-73076207D01*
X167143198Y-73001897D01*
X167217333Y-72942387D01*
X167305314Y-72898032D01*
X167402535Y-72871165D01*
X167512493Y-72861854D01*
X167611793Y-72867169D01*
G37*
G36*
X167889489Y-70760547D02*
G01*
X167991065Y-70779765D01*
X168085945Y-70811222D01*
X168175745Y-70854874D01*
X168256241Y-70908450D01*
X168328295Y-70972239D01*
X168390868Y-71045359D01*
X168444016Y-71128406D01*
X168487847Y-71222465D01*
X168519097Y-71321548D01*
X168538364Y-71429382D01*
X168545000Y-71547247D01*
X168545000Y-72141124D01*
X167016253Y-72141124D01*
X167016253Y-71547247D01*
X167289011Y-71547247D01*
X167289011Y-71784377D01*
X168272150Y-71784377D01*
X168272150Y-71547247D01*
X168263285Y-71449113D01*
X168238078Y-71365714D01*
X168196465Y-71291857D01*
X168140533Y-71230892D01*
X168071358Y-71182900D01*
X167985744Y-71146445D01*
X167890953Y-71124723D01*
X167780122Y-71117044D01*
X167670111Y-71124709D01*
X167575508Y-71146445D01*
X167489894Y-71182900D01*
X167420719Y-71230892D01*
X167364787Y-71291857D01*
X167323175Y-71365714D01*
X167297899Y-71449118D01*
X167289011Y-71547247D01*
X167016253Y-71547247D01*
X167022950Y-71429404D01*
X167042398Y-71321573D01*
X167073955Y-71222465D01*
X167118008Y-71128356D01*
X167171133Y-71045309D01*
X167233415Y-70972239D01*
X167305137Y-70908480D01*
X167385472Y-70854901D01*
X167475307Y-70811222D01*
X167570178Y-70779739D01*
X167671429Y-70760533D01*
X167780122Y-70753977D01*
X167889489Y-70760547D01*
G37*
G36*
X167289011Y-70187028D02*
G01*
X167645758Y-70187028D01*
X167645758Y-69706450D01*
X167908075Y-69706450D01*
X167908075Y-70187028D01*
X168272150Y-70187028D01*
X168272150Y-69559538D01*
X168545000Y-69559538D01*
X168545000Y-70543776D01*
X167016253Y-70543776D01*
X167016253Y-69559538D01*
X167289011Y-69559538D01*
X167289011Y-70187028D01*
G37*
G36*
X167016253Y-67969242D02*
G01*
X168545000Y-68581987D01*
X168545000Y-68903105D01*
X167016253Y-69515849D01*
X167016253Y-69230451D01*
X167022002Y-69187507D01*
X167037777Y-69155988D01*
X167062152Y-69131110D01*
X167092823Y-69112940D01*
X167911281Y-68817009D01*
X168028243Y-68776160D01*
X168160958Y-68738333D01*
X168028243Y-68705360D01*
X167911281Y-68665976D01*
X167092823Y-68372151D01*
X167065507Y-68356512D01*
X167039883Y-68330752D01*
X167022379Y-68297951D01*
X167016253Y-68256747D01*
X167016253Y-67969242D01*
G37*
G36*
X168179178Y-66268826D02*
G01*
X168265922Y-66297064D01*
X168344073Y-66343322D01*
X168412284Y-66407798D01*
X168466875Y-66487442D01*
X168509829Y-66587774D01*
X168535756Y-66699266D01*
X168545000Y-66832139D01*
X168545000Y-67442868D01*
X167016253Y-67442868D01*
X167016253Y-66880408D01*
X167281684Y-66880408D01*
X167281684Y-67088228D01*
X167659405Y-67088228D01*
X167659405Y-66903489D01*
X167654452Y-66840566D01*
X167896535Y-66840566D01*
X167896535Y-67088228D01*
X168277462Y-67088228D01*
X168277462Y-66838459D01*
X168272538Y-66771759D01*
X168259602Y-66723604D01*
X168238431Y-66682803D01*
X168213440Y-66653811D01*
X168183199Y-66632504D01*
X168149509Y-66619190D01*
X168077061Y-66609756D01*
X168036315Y-66612627D01*
X168001498Y-66620747D01*
X167970514Y-66635679D01*
X167944803Y-66658483D01*
X167924956Y-66688393D01*
X167909174Y-66729374D01*
X167900023Y-66776401D01*
X167896535Y-66840566D01*
X167654452Y-66840566D01*
X167651071Y-66797609D01*
X167639126Y-66752865D01*
X167621670Y-66717284D01*
X167596887Y-66688271D01*
X167563968Y-66666909D01*
X167524397Y-66654286D01*
X167471644Y-66649598D01*
X167419610Y-66653326D01*
X167380877Y-66663245D01*
X167347897Y-66680760D01*
X167322625Y-66705194D01*
X167304148Y-66736333D01*
X167291118Y-66777093D01*
X167284230Y-66822661D01*
X167281684Y-66880408D01*
X167016253Y-66880408D01*
X167024240Y-66728074D01*
X167045654Y-66610764D01*
X167082443Y-66506743D01*
X167128544Y-66429322D01*
X167188309Y-66368177D01*
X167258603Y-66327015D01*
X167338277Y-66303229D01*
X167429603Y-66294958D01*
X167480319Y-66298671D01*
X167528797Y-66309704D01*
X167574728Y-66328452D01*
X167618006Y-66355866D01*
X167657004Y-66391021D01*
X167694027Y-66436649D01*
X167725511Y-66489380D01*
X167753836Y-66555168D01*
X167785601Y-66457802D01*
X167825460Y-66384915D01*
X167872446Y-66331686D01*
X167930719Y-66292246D01*
X168000350Y-66267858D01*
X168084388Y-66259237D01*
X168179178Y-66268826D01*
G37*
G36*
X167889509Y-64543574D02*
G01*
X167992003Y-64562731D01*
X168088601Y-64594203D01*
X168180242Y-64637869D01*
X168262664Y-64691483D01*
X168336721Y-64755312D01*
X168401376Y-64828548D01*
X168456399Y-64911609D01*
X168501952Y-65005539D01*
X168534688Y-65104743D01*
X168554831Y-65212532D01*
X168561761Y-65330229D01*
X168554837Y-65447989D01*
X168534700Y-65555999D01*
X168501952Y-65655560D01*
X168456395Y-65749869D01*
X168401370Y-65833296D01*
X168336721Y-65906886D01*
X168262644Y-65970943D01*
X168180221Y-66024706D01*
X168088601Y-66068453D01*
X167992003Y-66099925D01*
X167889509Y-66119082D01*
X167780122Y-66125606D01*
X167670736Y-66119082D01*
X167568242Y-66099925D01*
X167471644Y-66068453D01*
X167380043Y-66024688D01*
X167297778Y-65970923D01*
X167223982Y-65906886D01*
X167159608Y-65833325D01*
X167104731Y-65749899D01*
X167059209Y-65655560D01*
X167026461Y-65555999D01*
X167006323Y-65447989D01*
X166999400Y-65330229D01*
X167292217Y-65330229D01*
X167300974Y-65429357D01*
X167325831Y-65513411D01*
X167366931Y-65587690D01*
X167422276Y-65648783D01*
X167490906Y-65696726D01*
X167575966Y-65733230D01*
X167670164Y-65754888D01*
X167780122Y-65762539D01*
X167890889Y-65754872D01*
X167985195Y-65733230D01*
X168070271Y-65696730D01*
X168138976Y-65648783D01*
X168194220Y-65587673D01*
X168234964Y-65513411D01*
X168259409Y-65429387D01*
X168268028Y-65330229D01*
X168259418Y-65232121D01*
X168234964Y-65148787D01*
X168194245Y-65074927D01*
X168138976Y-65013965D01*
X168070263Y-64965946D01*
X167985195Y-64929426D01*
X167890885Y-64907716D01*
X167780122Y-64900026D01*
X167670168Y-64907699D01*
X167575966Y-64929426D01*
X167490913Y-64965950D01*
X167422276Y-65013965D01*
X167366906Y-65074910D01*
X167325831Y-65148787D01*
X167300965Y-65232150D01*
X167292217Y-65330229D01*
X166999400Y-65330229D01*
X167006391Y-65212554D01*
X167026715Y-65104768D01*
X167059759Y-65005539D01*
X167105595Y-64911562D01*
X167160655Y-64828500D01*
X167225081Y-64755312D01*
X167298801Y-64691507D01*
X167381034Y-64637890D01*
X167472651Y-64594203D01*
X167569241Y-64562705D01*
X167671407Y-64543561D01*
X167780122Y-64537050D01*
X167889509Y-64543574D01*
G37*
G36*
X168545000Y-63282069D02*
G01*
X168539253Y-63325028D01*
X168523476Y-63356625D01*
X168499049Y-63381439D01*
X168468429Y-63399581D01*
X168201899Y-63489798D01*
X168201899Y-64071127D01*
X168468429Y-64161344D01*
X168495679Y-64176988D01*
X168521369Y-64202834D01*
X168538871Y-64235558D01*
X168545000Y-64276748D01*
X168545000Y-64553811D01*
X167016253Y-63962042D01*
X167016253Y-63781516D01*
X167330960Y-63781516D01*
X167449570Y-63815129D01*
X167544001Y-63848652D01*
X167960557Y-63989336D01*
X167960557Y-63570673D01*
X167541894Y-63712273D01*
X167448013Y-63745887D01*
X167330960Y-63781516D01*
X167016253Y-63781516D01*
X167016253Y-63598975D01*
X168545000Y-63007205D01*
X168545000Y-63282069D01*
G37*
G36*
X168545000Y-61957113D02*
G01*
X168536992Y-62012671D01*
X168514721Y-62054132D01*
X168477863Y-62085066D01*
X168034013Y-62339048D01*
X168008817Y-62358567D01*
X167992614Y-62378890D01*
X167983138Y-62403747D01*
X167979425Y-62441813D01*
X167979425Y-62532122D01*
X168545000Y-62532122D01*
X168545000Y-62886762D01*
X167016253Y-62886762D01*
X167016253Y-62389423D01*
X167281684Y-62389423D01*
X167281684Y-62532122D01*
X167734968Y-62532122D01*
X167734968Y-62389423D01*
X167730032Y-62320029D01*
X167716650Y-62266141D01*
X167694193Y-62218970D01*
X167665725Y-62182702D01*
X167630455Y-62154647D01*
X167589705Y-62135532D01*
X167544931Y-62124555D01*
X167495732Y-62120786D01*
X167431559Y-62128568D01*
X167380098Y-62150502D01*
X167338379Y-62186366D01*
X167308849Y-62233547D01*
X167289123Y-62299260D01*
X167281684Y-62389423D01*
X167016253Y-62389423D01*
X167025477Y-62230124D01*
X167050325Y-62106681D01*
X167092576Y-61997480D01*
X167145305Y-61915714D01*
X167212246Y-61851353D01*
X167289011Y-61808094D01*
X167374621Y-61783065D01*
X167469537Y-61774480D01*
X167542559Y-61779564D01*
X167610129Y-61794447D01*
X167673771Y-61819168D01*
X167732312Y-61853249D01*
X167785105Y-61896280D01*
X167832604Y-61949236D01*
X167872277Y-62009933D01*
X167904961Y-62080944D01*
X167949566Y-62015823D01*
X168013039Y-61961326D01*
X168545000Y-61635995D01*
X168545000Y-61957113D01*
G37*
G36*
X167889489Y-60125724D02*
G01*
X167991065Y-60144943D01*
X168085945Y-60176400D01*
X168175745Y-60220052D01*
X168256241Y-60273628D01*
X168328295Y-60337417D01*
X168390868Y-60410537D01*
X168444016Y-60493584D01*
X168487847Y-60587643D01*
X168519097Y-60686726D01*
X168538364Y-60794559D01*
X168545000Y-60912425D01*
X168545000Y-61506302D01*
X167016253Y-61506302D01*
X167016253Y-60912425D01*
X167289011Y-60912425D01*
X167289011Y-61149555D01*
X168272150Y-61149555D01*
X168272150Y-60912425D01*
X168263285Y-60814291D01*
X168238078Y-60730892D01*
X168196465Y-60657035D01*
X168140533Y-60596070D01*
X168071358Y-60548078D01*
X167985744Y-60511623D01*
X167890953Y-60489901D01*
X167780122Y-60482222D01*
X167670111Y-60489887D01*
X167575508Y-60511623D01*
X167489894Y-60548078D01*
X167420719Y-60596070D01*
X167364787Y-60657035D01*
X167323175Y-60730892D01*
X167297899Y-60814296D01*
X167289011Y-60912425D01*
X167016253Y-60912425D01*
X167022950Y-60794582D01*
X167042398Y-60686751D01*
X167073955Y-60587643D01*
X167118008Y-60493534D01*
X167171133Y-60410487D01*
X167233415Y-60337417D01*
X167305137Y-60273658D01*
X167385472Y-60220079D01*
X167475307Y-60176400D01*
X167570178Y-60144917D01*
X167671429Y-60125711D01*
X167780122Y-60119155D01*
X167889489Y-60125724D01*
G37*
D11*
X148059580Y-89942857D02*
X148107200Y-89990476D01*
X148107200Y-89990476D02*
X148154819Y-90133333D01*
X148154819Y-90133333D02*
X148154819Y-90228571D01*
X148154819Y-90228571D02*
X148107200Y-90371428D01*
X148107200Y-90371428D02*
X148011961Y-90466666D01*
X148011961Y-90466666D02*
X147916723Y-90514285D01*
X147916723Y-90514285D02*
X147726247Y-90561904D01*
X147726247Y-90561904D02*
X147583390Y-90561904D01*
X147583390Y-90561904D02*
X147392914Y-90514285D01*
X147392914Y-90514285D02*
X147297676Y-90466666D01*
X147297676Y-90466666D02*
X147202438Y-90371428D01*
X147202438Y-90371428D02*
X147154819Y-90228571D01*
X147154819Y-90228571D02*
X147154819Y-90133333D01*
X147154819Y-90133333D02*
X147202438Y-89990476D01*
X147202438Y-89990476D02*
X147250057Y-89942857D01*
X147250057Y-89561904D02*
X147202438Y-89514285D01*
X147202438Y-89514285D02*
X147154819Y-89419047D01*
X147154819Y-89419047D02*
X147154819Y-89180952D01*
X147154819Y-89180952D02*
X147202438Y-89085714D01*
X147202438Y-89085714D02*
X147250057Y-89038095D01*
X147250057Y-89038095D02*
X147345295Y-88990476D01*
X147345295Y-88990476D02*
X147440533Y-88990476D01*
X147440533Y-88990476D02*
X147583390Y-89038095D01*
X147583390Y-89038095D02*
X148154819Y-89609523D01*
X148154819Y-89609523D02*
X148154819Y-88990476D01*
X147488152Y-88133333D02*
X148154819Y-88133333D01*
X147107200Y-88371428D02*
X147821485Y-88609523D01*
X147821485Y-88609523D02*
X147821485Y-87990476D01*
X158757142Y-95954819D02*
X158423809Y-95478628D01*
X158185714Y-95954819D02*
X158185714Y-94954819D01*
X158185714Y-94954819D02*
X158566666Y-94954819D01*
X158566666Y-94954819D02*
X158661904Y-95002438D01*
X158661904Y-95002438D02*
X158709523Y-95050057D01*
X158709523Y-95050057D02*
X158757142Y-95145295D01*
X158757142Y-95145295D02*
X158757142Y-95288152D01*
X158757142Y-95288152D02*
X158709523Y-95383390D01*
X158709523Y-95383390D02*
X158661904Y-95431009D01*
X158661904Y-95431009D02*
X158566666Y-95478628D01*
X158566666Y-95478628D02*
X158185714Y-95478628D01*
X159138095Y-95050057D02*
X159185714Y-95002438D01*
X159185714Y-95002438D02*
X159280952Y-94954819D01*
X159280952Y-94954819D02*
X159519047Y-94954819D01*
X159519047Y-94954819D02*
X159614285Y-95002438D01*
X159614285Y-95002438D02*
X159661904Y-95050057D01*
X159661904Y-95050057D02*
X159709523Y-95145295D01*
X159709523Y-95145295D02*
X159709523Y-95240533D01*
X159709523Y-95240533D02*
X159661904Y-95383390D01*
X159661904Y-95383390D02*
X159090476Y-95954819D01*
X159090476Y-95954819D02*
X159709523Y-95954819D01*
X160090476Y-95050057D02*
X160138095Y-95002438D01*
X160138095Y-95002438D02*
X160233333Y-94954819D01*
X160233333Y-94954819D02*
X160471428Y-94954819D01*
X160471428Y-94954819D02*
X160566666Y-95002438D01*
X160566666Y-95002438D02*
X160614285Y-95050057D01*
X160614285Y-95050057D02*
X160661904Y-95145295D01*
X160661904Y-95145295D02*
X160661904Y-95240533D01*
X160661904Y-95240533D02*
X160614285Y-95383390D01*
X160614285Y-95383390D02*
X160042857Y-95954819D01*
X160042857Y-95954819D02*
X160661904Y-95954819D01*
X138533333Y-100459580D02*
X138485714Y-100507200D01*
X138485714Y-100507200D02*
X138342857Y-100554819D01*
X138342857Y-100554819D02*
X138247619Y-100554819D01*
X138247619Y-100554819D02*
X138104762Y-100507200D01*
X138104762Y-100507200D02*
X138009524Y-100411961D01*
X138009524Y-100411961D02*
X137961905Y-100316723D01*
X137961905Y-100316723D02*
X137914286Y-100126247D01*
X137914286Y-100126247D02*
X137914286Y-99983390D01*
X137914286Y-99983390D02*
X137961905Y-99792914D01*
X137961905Y-99792914D02*
X138009524Y-99697676D01*
X138009524Y-99697676D02*
X138104762Y-99602438D01*
X138104762Y-99602438D02*
X138247619Y-99554819D01*
X138247619Y-99554819D02*
X138342857Y-99554819D01*
X138342857Y-99554819D02*
X138485714Y-99602438D01*
X138485714Y-99602438D02*
X138533333Y-99650057D01*
X139438095Y-99554819D02*
X138961905Y-99554819D01*
X138961905Y-99554819D02*
X138914286Y-100031009D01*
X138914286Y-100031009D02*
X138961905Y-99983390D01*
X138961905Y-99983390D02*
X139057143Y-99935771D01*
X139057143Y-99935771D02*
X139295238Y-99935771D01*
X139295238Y-99935771D02*
X139390476Y-99983390D01*
X139390476Y-99983390D02*
X139438095Y-100031009D01*
X139438095Y-100031009D02*
X139485714Y-100126247D01*
X139485714Y-100126247D02*
X139485714Y-100364342D01*
X139485714Y-100364342D02*
X139438095Y-100459580D01*
X139438095Y-100459580D02*
X139390476Y-100507200D01*
X139390476Y-100507200D02*
X139295238Y-100554819D01*
X139295238Y-100554819D02*
X139057143Y-100554819D01*
X139057143Y-100554819D02*
X138961905Y-100507200D01*
X138961905Y-100507200D02*
X138914286Y-100459580D01*
X134357142Y-111259580D02*
X134309523Y-111307200D01*
X134309523Y-111307200D02*
X134166666Y-111354819D01*
X134166666Y-111354819D02*
X134071428Y-111354819D01*
X134071428Y-111354819D02*
X133928571Y-111307200D01*
X133928571Y-111307200D02*
X133833333Y-111211961D01*
X133833333Y-111211961D02*
X133785714Y-111116723D01*
X133785714Y-111116723D02*
X133738095Y-110926247D01*
X133738095Y-110926247D02*
X133738095Y-110783390D01*
X133738095Y-110783390D02*
X133785714Y-110592914D01*
X133785714Y-110592914D02*
X133833333Y-110497676D01*
X133833333Y-110497676D02*
X133928571Y-110402438D01*
X133928571Y-110402438D02*
X134071428Y-110354819D01*
X134071428Y-110354819D02*
X134166666Y-110354819D01*
X134166666Y-110354819D02*
X134309523Y-110402438D01*
X134309523Y-110402438D02*
X134357142Y-110450057D01*
X135309523Y-111354819D02*
X134738095Y-111354819D01*
X135023809Y-111354819D02*
X135023809Y-110354819D01*
X135023809Y-110354819D02*
X134928571Y-110497676D01*
X134928571Y-110497676D02*
X134833333Y-110592914D01*
X134833333Y-110592914D02*
X134738095Y-110640533D01*
X135785714Y-111354819D02*
X135976190Y-111354819D01*
X135976190Y-111354819D02*
X136071428Y-111307200D01*
X136071428Y-111307200D02*
X136119047Y-111259580D01*
X136119047Y-111259580D02*
X136214285Y-111116723D01*
X136214285Y-111116723D02*
X136261904Y-110926247D01*
X136261904Y-110926247D02*
X136261904Y-110545295D01*
X136261904Y-110545295D02*
X136214285Y-110450057D01*
X136214285Y-110450057D02*
X136166666Y-110402438D01*
X136166666Y-110402438D02*
X136071428Y-110354819D01*
X136071428Y-110354819D02*
X135880952Y-110354819D01*
X135880952Y-110354819D02*
X135785714Y-110402438D01*
X135785714Y-110402438D02*
X135738095Y-110450057D01*
X135738095Y-110450057D02*
X135690476Y-110545295D01*
X135690476Y-110545295D02*
X135690476Y-110783390D01*
X135690476Y-110783390D02*
X135738095Y-110878628D01*
X135738095Y-110878628D02*
X135785714Y-110926247D01*
X135785714Y-110926247D02*
X135880952Y-110973866D01*
X135880952Y-110973866D02*
X136071428Y-110973866D01*
X136071428Y-110973866D02*
X136166666Y-110926247D01*
X136166666Y-110926247D02*
X136214285Y-110878628D01*
X136214285Y-110878628D02*
X136261904Y-110783390D01*
X123666666Y-92374819D02*
X123666666Y-93089104D01*
X123666666Y-93089104D02*
X123619047Y-93231961D01*
X123619047Y-93231961D02*
X123523809Y-93327200D01*
X123523809Y-93327200D02*
X123380952Y-93374819D01*
X123380952Y-93374819D02*
X123285714Y-93374819D01*
X124095238Y-92470057D02*
X124142857Y-92422438D01*
X124142857Y-92422438D02*
X124238095Y-92374819D01*
X124238095Y-92374819D02*
X124476190Y-92374819D01*
X124476190Y-92374819D02*
X124571428Y-92422438D01*
X124571428Y-92422438D02*
X124619047Y-92470057D01*
X124619047Y-92470057D02*
X124666666Y-92565295D01*
X124666666Y-92565295D02*
X124666666Y-92660533D01*
X124666666Y-92660533D02*
X124619047Y-92803390D01*
X124619047Y-92803390D02*
X124047619Y-93374819D01*
X124047619Y-93374819D02*
X124666666Y-93374819D01*
X131274819Y-112766666D02*
X130798628Y-113099999D01*
X131274819Y-113338094D02*
X130274819Y-113338094D01*
X130274819Y-113338094D02*
X130274819Y-112957142D01*
X130274819Y-112957142D02*
X130322438Y-112861904D01*
X130322438Y-112861904D02*
X130370057Y-112814285D01*
X130370057Y-112814285D02*
X130465295Y-112766666D01*
X130465295Y-112766666D02*
X130608152Y-112766666D01*
X130608152Y-112766666D02*
X130703390Y-112814285D01*
X130703390Y-112814285D02*
X130751009Y-112861904D01*
X130751009Y-112861904D02*
X130798628Y-112957142D01*
X130798628Y-112957142D02*
X130798628Y-113338094D01*
X130274819Y-112433332D02*
X130274819Y-111814285D01*
X130274819Y-111814285D02*
X130655771Y-112147618D01*
X130655771Y-112147618D02*
X130655771Y-112004761D01*
X130655771Y-112004761D02*
X130703390Y-111909523D01*
X130703390Y-111909523D02*
X130751009Y-111861904D01*
X130751009Y-111861904D02*
X130846247Y-111814285D01*
X130846247Y-111814285D02*
X131084342Y-111814285D01*
X131084342Y-111814285D02*
X131179580Y-111861904D01*
X131179580Y-111861904D02*
X131227200Y-111909523D01*
X131227200Y-111909523D02*
X131274819Y-112004761D01*
X131274819Y-112004761D02*
X131274819Y-112290475D01*
X131274819Y-112290475D02*
X131227200Y-112385713D01*
X131227200Y-112385713D02*
X131179580Y-112433332D01*
X132854819Y-113542857D02*
X132378628Y-113876190D01*
X132854819Y-114114285D02*
X131854819Y-114114285D01*
X131854819Y-114114285D02*
X131854819Y-113733333D01*
X131854819Y-113733333D02*
X131902438Y-113638095D01*
X131902438Y-113638095D02*
X131950057Y-113590476D01*
X131950057Y-113590476D02*
X132045295Y-113542857D01*
X132045295Y-113542857D02*
X132188152Y-113542857D01*
X132188152Y-113542857D02*
X132283390Y-113590476D01*
X132283390Y-113590476D02*
X132331009Y-113638095D01*
X132331009Y-113638095D02*
X132378628Y-113733333D01*
X132378628Y-113733333D02*
X132378628Y-114114285D01*
X132854819Y-112590476D02*
X132854819Y-113161904D01*
X132854819Y-112876190D02*
X131854819Y-112876190D01*
X131854819Y-112876190D02*
X131997676Y-112971428D01*
X131997676Y-112971428D02*
X132092914Y-113066666D01*
X132092914Y-113066666D02*
X132140533Y-113161904D01*
X132854819Y-111638095D02*
X132854819Y-112209523D01*
X132854819Y-111923809D02*
X131854819Y-111923809D01*
X131854819Y-111923809D02*
X131997676Y-112019047D01*
X131997676Y-112019047D02*
X132092914Y-112114285D01*
X132092914Y-112114285D02*
X132140533Y-112209523D01*
X158657142Y-100954819D02*
X158323809Y-100478628D01*
X158085714Y-100954819D02*
X158085714Y-99954819D01*
X158085714Y-99954819D02*
X158466666Y-99954819D01*
X158466666Y-99954819D02*
X158561904Y-100002438D01*
X158561904Y-100002438D02*
X158609523Y-100050057D01*
X158609523Y-100050057D02*
X158657142Y-100145295D01*
X158657142Y-100145295D02*
X158657142Y-100288152D01*
X158657142Y-100288152D02*
X158609523Y-100383390D01*
X158609523Y-100383390D02*
X158561904Y-100431009D01*
X158561904Y-100431009D02*
X158466666Y-100478628D01*
X158466666Y-100478628D02*
X158085714Y-100478628D01*
X159038095Y-100050057D02*
X159085714Y-100002438D01*
X159085714Y-100002438D02*
X159180952Y-99954819D01*
X159180952Y-99954819D02*
X159419047Y-99954819D01*
X159419047Y-99954819D02*
X159514285Y-100002438D01*
X159514285Y-100002438D02*
X159561904Y-100050057D01*
X159561904Y-100050057D02*
X159609523Y-100145295D01*
X159609523Y-100145295D02*
X159609523Y-100240533D01*
X159609523Y-100240533D02*
X159561904Y-100383390D01*
X159561904Y-100383390D02*
X158990476Y-100954819D01*
X158990476Y-100954819D02*
X159609523Y-100954819D01*
X160466666Y-100288152D02*
X160466666Y-100954819D01*
X160228571Y-99907200D02*
X159990476Y-100621485D01*
X159990476Y-100621485D02*
X160609523Y-100621485D01*
X162854819Y-112888094D02*
X161854819Y-112888094D01*
X161854819Y-112888094D02*
X161854819Y-112649999D01*
X161854819Y-112649999D02*
X161902438Y-112507142D01*
X161902438Y-112507142D02*
X161997676Y-112411904D01*
X161997676Y-112411904D02*
X162092914Y-112364285D01*
X162092914Y-112364285D02*
X162283390Y-112316666D01*
X162283390Y-112316666D02*
X162426247Y-112316666D01*
X162426247Y-112316666D02*
X162616723Y-112364285D01*
X162616723Y-112364285D02*
X162711961Y-112411904D01*
X162711961Y-112411904D02*
X162807200Y-112507142D01*
X162807200Y-112507142D02*
X162854819Y-112649999D01*
X162854819Y-112649999D02*
X162854819Y-112888094D01*
X161950057Y-111935713D02*
X161902438Y-111888094D01*
X161902438Y-111888094D02*
X161854819Y-111792856D01*
X161854819Y-111792856D02*
X161854819Y-111554761D01*
X161854819Y-111554761D02*
X161902438Y-111459523D01*
X161902438Y-111459523D02*
X161950057Y-111411904D01*
X161950057Y-111411904D02*
X162045295Y-111364285D01*
X162045295Y-111364285D02*
X162140533Y-111364285D01*
X162140533Y-111364285D02*
X162283390Y-111411904D01*
X162283390Y-111411904D02*
X162854819Y-111983332D01*
X162854819Y-111983332D02*
X162854819Y-111364285D01*
X139057142Y-106859580D02*
X139009523Y-106907200D01*
X139009523Y-106907200D02*
X138866666Y-106954819D01*
X138866666Y-106954819D02*
X138771428Y-106954819D01*
X138771428Y-106954819D02*
X138628571Y-106907200D01*
X138628571Y-106907200D02*
X138533333Y-106811961D01*
X138533333Y-106811961D02*
X138485714Y-106716723D01*
X138485714Y-106716723D02*
X138438095Y-106526247D01*
X138438095Y-106526247D02*
X138438095Y-106383390D01*
X138438095Y-106383390D02*
X138485714Y-106192914D01*
X138485714Y-106192914D02*
X138533333Y-106097676D01*
X138533333Y-106097676D02*
X138628571Y-106002438D01*
X138628571Y-106002438D02*
X138771428Y-105954819D01*
X138771428Y-105954819D02*
X138866666Y-105954819D01*
X138866666Y-105954819D02*
X139009523Y-106002438D01*
X139009523Y-106002438D02*
X139057142Y-106050057D01*
X140009523Y-106954819D02*
X139438095Y-106954819D01*
X139723809Y-106954819D02*
X139723809Y-105954819D01*
X139723809Y-105954819D02*
X139628571Y-106097676D01*
X139628571Y-106097676D02*
X139533333Y-106192914D01*
X139533333Y-106192914D02*
X139438095Y-106240533D01*
X140580952Y-106383390D02*
X140485714Y-106335771D01*
X140485714Y-106335771D02*
X140438095Y-106288152D01*
X140438095Y-106288152D02*
X140390476Y-106192914D01*
X140390476Y-106192914D02*
X140390476Y-106145295D01*
X140390476Y-106145295D02*
X140438095Y-106050057D01*
X140438095Y-106050057D02*
X140485714Y-106002438D01*
X140485714Y-106002438D02*
X140580952Y-105954819D01*
X140580952Y-105954819D02*
X140771428Y-105954819D01*
X140771428Y-105954819D02*
X140866666Y-106002438D01*
X140866666Y-106002438D02*
X140914285Y-106050057D01*
X140914285Y-106050057D02*
X140961904Y-106145295D01*
X140961904Y-106145295D02*
X140961904Y-106192914D01*
X140961904Y-106192914D02*
X140914285Y-106288152D01*
X140914285Y-106288152D02*
X140866666Y-106335771D01*
X140866666Y-106335771D02*
X140771428Y-106383390D01*
X140771428Y-106383390D02*
X140580952Y-106383390D01*
X140580952Y-106383390D02*
X140485714Y-106431009D01*
X140485714Y-106431009D02*
X140438095Y-106478628D01*
X140438095Y-106478628D02*
X140390476Y-106573866D01*
X140390476Y-106573866D02*
X140390476Y-106764342D01*
X140390476Y-106764342D02*
X140438095Y-106859580D01*
X140438095Y-106859580D02*
X140485714Y-106907200D01*
X140485714Y-106907200D02*
X140580952Y-106954819D01*
X140580952Y-106954819D02*
X140771428Y-106954819D01*
X140771428Y-106954819D02*
X140866666Y-106907200D01*
X140866666Y-106907200D02*
X140914285Y-106859580D01*
X140914285Y-106859580D02*
X140961904Y-106764342D01*
X140961904Y-106764342D02*
X140961904Y-106573866D01*
X140961904Y-106573866D02*
X140914285Y-106478628D01*
X140914285Y-106478628D02*
X140866666Y-106431009D01*
X140866666Y-106431009D02*
X140771428Y-106383390D01*
X153654819Y-95566666D02*
X153178628Y-95899999D01*
X153654819Y-96138094D02*
X152654819Y-96138094D01*
X152654819Y-96138094D02*
X152654819Y-95757142D01*
X152654819Y-95757142D02*
X152702438Y-95661904D01*
X152702438Y-95661904D02*
X152750057Y-95614285D01*
X152750057Y-95614285D02*
X152845295Y-95566666D01*
X152845295Y-95566666D02*
X152988152Y-95566666D01*
X152988152Y-95566666D02*
X153083390Y-95614285D01*
X153083390Y-95614285D02*
X153131009Y-95661904D01*
X153131009Y-95661904D02*
X153178628Y-95757142D01*
X153178628Y-95757142D02*
X153178628Y-96138094D01*
X152988152Y-94709523D02*
X153654819Y-94709523D01*
X152607200Y-94947618D02*
X153321485Y-95185713D01*
X153321485Y-95185713D02*
X153321485Y-94566666D01*
X151357142Y-108559580D02*
X151309523Y-108607200D01*
X151309523Y-108607200D02*
X151166666Y-108654819D01*
X151166666Y-108654819D02*
X151071428Y-108654819D01*
X151071428Y-108654819D02*
X150928571Y-108607200D01*
X150928571Y-108607200D02*
X150833333Y-108511961D01*
X150833333Y-108511961D02*
X150785714Y-108416723D01*
X150785714Y-108416723D02*
X150738095Y-108226247D01*
X150738095Y-108226247D02*
X150738095Y-108083390D01*
X150738095Y-108083390D02*
X150785714Y-107892914D01*
X150785714Y-107892914D02*
X150833333Y-107797676D01*
X150833333Y-107797676D02*
X150928571Y-107702438D01*
X150928571Y-107702438D02*
X151071428Y-107654819D01*
X151071428Y-107654819D02*
X151166666Y-107654819D01*
X151166666Y-107654819D02*
X151309523Y-107702438D01*
X151309523Y-107702438D02*
X151357142Y-107750057D01*
X152309523Y-108654819D02*
X151738095Y-108654819D01*
X152023809Y-108654819D02*
X152023809Y-107654819D01*
X152023809Y-107654819D02*
X151928571Y-107797676D01*
X151928571Y-107797676D02*
X151833333Y-107892914D01*
X151833333Y-107892914D02*
X151738095Y-107940533D01*
X152642857Y-107654819D02*
X153261904Y-107654819D01*
X153261904Y-107654819D02*
X152928571Y-108035771D01*
X152928571Y-108035771D02*
X153071428Y-108035771D01*
X153071428Y-108035771D02*
X153166666Y-108083390D01*
X153166666Y-108083390D02*
X153214285Y-108131009D01*
X153214285Y-108131009D02*
X153261904Y-108226247D01*
X153261904Y-108226247D02*
X153261904Y-108464342D01*
X153261904Y-108464342D02*
X153214285Y-108559580D01*
X153214285Y-108559580D02*
X153166666Y-108607200D01*
X153166666Y-108607200D02*
X153071428Y-108654819D01*
X153071428Y-108654819D02*
X152785714Y-108654819D01*
X152785714Y-108654819D02*
X152690476Y-108607200D01*
X152690476Y-108607200D02*
X152642857Y-108559580D01*
X162854819Y-110366666D02*
X162378628Y-110699999D01*
X162854819Y-110938094D02*
X161854819Y-110938094D01*
X161854819Y-110938094D02*
X161854819Y-110557142D01*
X161854819Y-110557142D02*
X161902438Y-110461904D01*
X161902438Y-110461904D02*
X161950057Y-110414285D01*
X161950057Y-110414285D02*
X162045295Y-110366666D01*
X162045295Y-110366666D02*
X162188152Y-110366666D01*
X162188152Y-110366666D02*
X162283390Y-110414285D01*
X162283390Y-110414285D02*
X162331009Y-110461904D01*
X162331009Y-110461904D02*
X162378628Y-110557142D01*
X162378628Y-110557142D02*
X162378628Y-110938094D01*
X161854819Y-110033332D02*
X161854819Y-109366666D01*
X161854819Y-109366666D02*
X162854819Y-109795237D01*
X142038095Y-99154819D02*
X142038095Y-99964342D01*
X142038095Y-99964342D02*
X142085714Y-100059580D01*
X142085714Y-100059580D02*
X142133333Y-100107200D01*
X142133333Y-100107200D02*
X142228571Y-100154819D01*
X142228571Y-100154819D02*
X142419047Y-100154819D01*
X142419047Y-100154819D02*
X142514285Y-100107200D01*
X142514285Y-100107200D02*
X142561904Y-100059580D01*
X142561904Y-100059580D02*
X142609523Y-99964342D01*
X142609523Y-99964342D02*
X142609523Y-99154819D01*
X143038095Y-99250057D02*
X143085714Y-99202438D01*
X143085714Y-99202438D02*
X143180952Y-99154819D01*
X143180952Y-99154819D02*
X143419047Y-99154819D01*
X143419047Y-99154819D02*
X143514285Y-99202438D01*
X143514285Y-99202438D02*
X143561904Y-99250057D01*
X143561904Y-99250057D02*
X143609523Y-99345295D01*
X143609523Y-99345295D02*
X143609523Y-99440533D01*
X143609523Y-99440533D02*
X143561904Y-99583390D01*
X143561904Y-99583390D02*
X142990476Y-100154819D01*
X142990476Y-100154819D02*
X143609523Y-100154819D01*
X151359580Y-95642857D02*
X151407200Y-95690476D01*
X151407200Y-95690476D02*
X151454819Y-95833333D01*
X151454819Y-95833333D02*
X151454819Y-95928571D01*
X151454819Y-95928571D02*
X151407200Y-96071428D01*
X151407200Y-96071428D02*
X151311961Y-96166666D01*
X151311961Y-96166666D02*
X151216723Y-96214285D01*
X151216723Y-96214285D02*
X151026247Y-96261904D01*
X151026247Y-96261904D02*
X150883390Y-96261904D01*
X150883390Y-96261904D02*
X150692914Y-96214285D01*
X150692914Y-96214285D02*
X150597676Y-96166666D01*
X150597676Y-96166666D02*
X150502438Y-96071428D01*
X150502438Y-96071428D02*
X150454819Y-95928571D01*
X150454819Y-95928571D02*
X150454819Y-95833333D01*
X150454819Y-95833333D02*
X150502438Y-95690476D01*
X150502438Y-95690476D02*
X150550057Y-95642857D01*
X151454819Y-94690476D02*
X151454819Y-95261904D01*
X151454819Y-94976190D02*
X150454819Y-94976190D01*
X150454819Y-94976190D02*
X150597676Y-95071428D01*
X150597676Y-95071428D02*
X150692914Y-95166666D01*
X150692914Y-95166666D02*
X150740533Y-95261904D01*
X150788152Y-93833333D02*
X151454819Y-93833333D01*
X150407200Y-94071428D02*
X151121485Y-94309523D01*
X151121485Y-94309523D02*
X151121485Y-93690476D01*
X134354819Y-113666666D02*
X133878628Y-113999999D01*
X134354819Y-114238094D02*
X133354819Y-114238094D01*
X133354819Y-114238094D02*
X133354819Y-113857142D01*
X133354819Y-113857142D02*
X133402438Y-113761904D01*
X133402438Y-113761904D02*
X133450057Y-113714285D01*
X133450057Y-113714285D02*
X133545295Y-113666666D01*
X133545295Y-113666666D02*
X133688152Y-113666666D01*
X133688152Y-113666666D02*
X133783390Y-113714285D01*
X133783390Y-113714285D02*
X133831009Y-113761904D01*
X133831009Y-113761904D02*
X133878628Y-113857142D01*
X133878628Y-113857142D02*
X133878628Y-114238094D01*
X133354819Y-112761904D02*
X133354819Y-113238094D01*
X133354819Y-113238094D02*
X133831009Y-113285713D01*
X133831009Y-113285713D02*
X133783390Y-113238094D01*
X133783390Y-113238094D02*
X133735771Y-113142856D01*
X133735771Y-113142856D02*
X133735771Y-112904761D01*
X133735771Y-112904761D02*
X133783390Y-112809523D01*
X133783390Y-112809523D02*
X133831009Y-112761904D01*
X133831009Y-112761904D02*
X133926247Y-112714285D01*
X133926247Y-112714285D02*
X134164342Y-112714285D01*
X134164342Y-112714285D02*
X134259580Y-112761904D01*
X134259580Y-112761904D02*
X134307200Y-112809523D01*
X134307200Y-112809523D02*
X134354819Y-112904761D01*
X134354819Y-112904761D02*
X134354819Y-113142856D01*
X134354819Y-113142856D02*
X134307200Y-113238094D01*
X134307200Y-113238094D02*
X134259580Y-113285713D01*
X146607142Y-114454819D02*
X146273809Y-113978628D01*
X146035714Y-114454819D02*
X146035714Y-113454819D01*
X146035714Y-113454819D02*
X146416666Y-113454819D01*
X146416666Y-113454819D02*
X146511904Y-113502438D01*
X146511904Y-113502438D02*
X146559523Y-113550057D01*
X146559523Y-113550057D02*
X146607142Y-113645295D01*
X146607142Y-113645295D02*
X146607142Y-113788152D01*
X146607142Y-113788152D02*
X146559523Y-113883390D01*
X146559523Y-113883390D02*
X146511904Y-113931009D01*
X146511904Y-113931009D02*
X146416666Y-113978628D01*
X146416666Y-113978628D02*
X146035714Y-113978628D01*
X147559523Y-114454819D02*
X146988095Y-114454819D01*
X147273809Y-114454819D02*
X147273809Y-113454819D01*
X147273809Y-113454819D02*
X147178571Y-113597676D01*
X147178571Y-113597676D02*
X147083333Y-113692914D01*
X147083333Y-113692914D02*
X146988095Y-113740533D01*
X147892857Y-113454819D02*
X148559523Y-113454819D01*
X148559523Y-113454819D02*
X148130952Y-114454819D01*
X143254819Y-91366666D02*
X143254819Y-91842856D01*
X143254819Y-91842856D02*
X142254819Y-91842856D01*
X143254819Y-90509523D02*
X143254819Y-91080951D01*
X143254819Y-90795237D02*
X142254819Y-90795237D01*
X142254819Y-90795237D02*
X142397676Y-90890475D01*
X142397676Y-90890475D02*
X142492914Y-90985713D01*
X142492914Y-90985713D02*
X142540533Y-91080951D01*
X142057142Y-108159580D02*
X142009523Y-108207200D01*
X142009523Y-108207200D02*
X141866666Y-108254819D01*
X141866666Y-108254819D02*
X141771428Y-108254819D01*
X141771428Y-108254819D02*
X141628571Y-108207200D01*
X141628571Y-108207200D02*
X141533333Y-108111961D01*
X141533333Y-108111961D02*
X141485714Y-108016723D01*
X141485714Y-108016723D02*
X141438095Y-107826247D01*
X141438095Y-107826247D02*
X141438095Y-107683390D01*
X141438095Y-107683390D02*
X141485714Y-107492914D01*
X141485714Y-107492914D02*
X141533333Y-107397676D01*
X141533333Y-107397676D02*
X141628571Y-107302438D01*
X141628571Y-107302438D02*
X141771428Y-107254819D01*
X141771428Y-107254819D02*
X141866666Y-107254819D01*
X141866666Y-107254819D02*
X142009523Y-107302438D01*
X142009523Y-107302438D02*
X142057142Y-107350057D01*
X143009523Y-108254819D02*
X142438095Y-108254819D01*
X142723809Y-108254819D02*
X142723809Y-107254819D01*
X142723809Y-107254819D02*
X142628571Y-107397676D01*
X142628571Y-107397676D02*
X142533333Y-107492914D01*
X142533333Y-107492914D02*
X142438095Y-107540533D01*
X143342857Y-107254819D02*
X144009523Y-107254819D01*
X144009523Y-107254819D02*
X143580952Y-108254819D01*
X154859580Y-103942857D02*
X154907200Y-103990476D01*
X154907200Y-103990476D02*
X154954819Y-104133333D01*
X154954819Y-104133333D02*
X154954819Y-104228571D01*
X154954819Y-104228571D02*
X154907200Y-104371428D01*
X154907200Y-104371428D02*
X154811961Y-104466666D01*
X154811961Y-104466666D02*
X154716723Y-104514285D01*
X154716723Y-104514285D02*
X154526247Y-104561904D01*
X154526247Y-104561904D02*
X154383390Y-104561904D01*
X154383390Y-104561904D02*
X154192914Y-104514285D01*
X154192914Y-104514285D02*
X154097676Y-104466666D01*
X154097676Y-104466666D02*
X154002438Y-104371428D01*
X154002438Y-104371428D02*
X153954819Y-104228571D01*
X153954819Y-104228571D02*
X153954819Y-104133333D01*
X153954819Y-104133333D02*
X154002438Y-103990476D01*
X154002438Y-103990476D02*
X154050057Y-103942857D01*
X154954819Y-102990476D02*
X154954819Y-103561904D01*
X154954819Y-103276190D02*
X153954819Y-103276190D01*
X153954819Y-103276190D02*
X154097676Y-103371428D01*
X154097676Y-103371428D02*
X154192914Y-103466666D01*
X154192914Y-103466666D02*
X154240533Y-103561904D01*
X154954819Y-102038095D02*
X154954819Y-102609523D01*
X154954819Y-102323809D02*
X153954819Y-102323809D01*
X153954819Y-102323809D02*
X154097676Y-102419047D01*
X154097676Y-102419047D02*
X154192914Y-102514285D01*
X154192914Y-102514285D02*
X154240533Y-102609523D01*
X130557142Y-96254819D02*
X130223809Y-95778628D01*
X129985714Y-96254819D02*
X129985714Y-95254819D01*
X129985714Y-95254819D02*
X130366666Y-95254819D01*
X130366666Y-95254819D02*
X130461904Y-95302438D01*
X130461904Y-95302438D02*
X130509523Y-95350057D01*
X130509523Y-95350057D02*
X130557142Y-95445295D01*
X130557142Y-95445295D02*
X130557142Y-95588152D01*
X130557142Y-95588152D02*
X130509523Y-95683390D01*
X130509523Y-95683390D02*
X130461904Y-95731009D01*
X130461904Y-95731009D02*
X130366666Y-95778628D01*
X130366666Y-95778628D02*
X129985714Y-95778628D01*
X131509523Y-96254819D02*
X130938095Y-96254819D01*
X131223809Y-96254819D02*
X131223809Y-95254819D01*
X131223809Y-95254819D02*
X131128571Y-95397676D01*
X131128571Y-95397676D02*
X131033333Y-95492914D01*
X131033333Y-95492914D02*
X130938095Y-95540533D01*
X132366666Y-95254819D02*
X132176190Y-95254819D01*
X132176190Y-95254819D02*
X132080952Y-95302438D01*
X132080952Y-95302438D02*
X132033333Y-95350057D01*
X132033333Y-95350057D02*
X131938095Y-95492914D01*
X131938095Y-95492914D02*
X131890476Y-95683390D01*
X131890476Y-95683390D02*
X131890476Y-96064342D01*
X131890476Y-96064342D02*
X131938095Y-96159580D01*
X131938095Y-96159580D02*
X131985714Y-96207200D01*
X131985714Y-96207200D02*
X132080952Y-96254819D01*
X132080952Y-96254819D02*
X132271428Y-96254819D01*
X132271428Y-96254819D02*
X132366666Y-96207200D01*
X132366666Y-96207200D02*
X132414285Y-96159580D01*
X132414285Y-96159580D02*
X132461904Y-96064342D01*
X132461904Y-96064342D02*
X132461904Y-95826247D01*
X132461904Y-95826247D02*
X132414285Y-95731009D01*
X132414285Y-95731009D02*
X132366666Y-95683390D01*
X132366666Y-95683390D02*
X132271428Y-95635771D01*
X132271428Y-95635771D02*
X132080952Y-95635771D01*
X132080952Y-95635771D02*
X131985714Y-95683390D01*
X131985714Y-95683390D02*
X131938095Y-95731009D01*
X131938095Y-95731009D02*
X131890476Y-95826247D01*
X130957142Y-101559580D02*
X130909523Y-101607200D01*
X130909523Y-101607200D02*
X130766666Y-101654819D01*
X130766666Y-101654819D02*
X130671428Y-101654819D01*
X130671428Y-101654819D02*
X130528571Y-101607200D01*
X130528571Y-101607200D02*
X130433333Y-101511961D01*
X130433333Y-101511961D02*
X130385714Y-101416723D01*
X130385714Y-101416723D02*
X130338095Y-101226247D01*
X130338095Y-101226247D02*
X130338095Y-101083390D01*
X130338095Y-101083390D02*
X130385714Y-100892914D01*
X130385714Y-100892914D02*
X130433333Y-100797676D01*
X130433333Y-100797676D02*
X130528571Y-100702438D01*
X130528571Y-100702438D02*
X130671428Y-100654819D01*
X130671428Y-100654819D02*
X130766666Y-100654819D01*
X130766666Y-100654819D02*
X130909523Y-100702438D01*
X130909523Y-100702438D02*
X130957142Y-100750057D01*
X131338095Y-100750057D02*
X131385714Y-100702438D01*
X131385714Y-100702438D02*
X131480952Y-100654819D01*
X131480952Y-100654819D02*
X131719047Y-100654819D01*
X131719047Y-100654819D02*
X131814285Y-100702438D01*
X131814285Y-100702438D02*
X131861904Y-100750057D01*
X131861904Y-100750057D02*
X131909523Y-100845295D01*
X131909523Y-100845295D02*
X131909523Y-100940533D01*
X131909523Y-100940533D02*
X131861904Y-101083390D01*
X131861904Y-101083390D02*
X131290476Y-101654819D01*
X131290476Y-101654819D02*
X131909523Y-101654819D01*
X132480952Y-101083390D02*
X132385714Y-101035771D01*
X132385714Y-101035771D02*
X132338095Y-100988152D01*
X132338095Y-100988152D02*
X132290476Y-100892914D01*
X132290476Y-100892914D02*
X132290476Y-100845295D01*
X132290476Y-100845295D02*
X132338095Y-100750057D01*
X132338095Y-100750057D02*
X132385714Y-100702438D01*
X132385714Y-100702438D02*
X132480952Y-100654819D01*
X132480952Y-100654819D02*
X132671428Y-100654819D01*
X132671428Y-100654819D02*
X132766666Y-100702438D01*
X132766666Y-100702438D02*
X132814285Y-100750057D01*
X132814285Y-100750057D02*
X132861904Y-100845295D01*
X132861904Y-100845295D02*
X132861904Y-100892914D01*
X132861904Y-100892914D02*
X132814285Y-100988152D01*
X132814285Y-100988152D02*
X132766666Y-101035771D01*
X132766666Y-101035771D02*
X132671428Y-101083390D01*
X132671428Y-101083390D02*
X132480952Y-101083390D01*
X132480952Y-101083390D02*
X132385714Y-101131009D01*
X132385714Y-101131009D02*
X132338095Y-101178628D01*
X132338095Y-101178628D02*
X132290476Y-101273866D01*
X132290476Y-101273866D02*
X132290476Y-101464342D01*
X132290476Y-101464342D02*
X132338095Y-101559580D01*
X132338095Y-101559580D02*
X132385714Y-101607200D01*
X132385714Y-101607200D02*
X132480952Y-101654819D01*
X132480952Y-101654819D02*
X132671428Y-101654819D01*
X132671428Y-101654819D02*
X132766666Y-101607200D01*
X132766666Y-101607200D02*
X132814285Y-101559580D01*
X132814285Y-101559580D02*
X132861904Y-101464342D01*
X132861904Y-101464342D02*
X132861904Y-101273866D01*
X132861904Y-101273866D02*
X132814285Y-101178628D01*
X132814285Y-101178628D02*
X132766666Y-101131009D01*
X132766666Y-101131009D02*
X132671428Y-101083390D01*
X130774819Y-116738094D02*
X129774819Y-116738094D01*
X129774819Y-116738094D02*
X129774819Y-116499999D01*
X129774819Y-116499999D02*
X129822438Y-116357142D01*
X129822438Y-116357142D02*
X129917676Y-116261904D01*
X129917676Y-116261904D02*
X130012914Y-116214285D01*
X130012914Y-116214285D02*
X130203390Y-116166666D01*
X130203390Y-116166666D02*
X130346247Y-116166666D01*
X130346247Y-116166666D02*
X130536723Y-116214285D01*
X130536723Y-116214285D02*
X130631961Y-116261904D01*
X130631961Y-116261904D02*
X130727200Y-116357142D01*
X130727200Y-116357142D02*
X130774819Y-116499999D01*
X130774819Y-116499999D02*
X130774819Y-116738094D01*
X130774819Y-115214285D02*
X130774819Y-115785713D01*
X130774819Y-115499999D02*
X129774819Y-115499999D01*
X129774819Y-115499999D02*
X129917676Y-115595237D01*
X129917676Y-115595237D02*
X130012914Y-115690475D01*
X130012914Y-115690475D02*
X130060533Y-115785713D01*
X132554819Y-107011904D02*
X133364342Y-107011904D01*
X133364342Y-107011904D02*
X133459580Y-106964285D01*
X133459580Y-106964285D02*
X133507200Y-106916666D01*
X133507200Y-106916666D02*
X133554819Y-106821428D01*
X133554819Y-106821428D02*
X133554819Y-106630952D01*
X133554819Y-106630952D02*
X133507200Y-106535714D01*
X133507200Y-106535714D02*
X133459580Y-106488095D01*
X133459580Y-106488095D02*
X133364342Y-106440476D01*
X133364342Y-106440476D02*
X132554819Y-106440476D01*
X132888152Y-105535714D02*
X133554819Y-105535714D01*
X132507200Y-105773809D02*
X133221485Y-106011904D01*
X133221485Y-106011904D02*
X133221485Y-105392857D01*
X135724819Y-116333333D02*
X136439104Y-116333333D01*
X136439104Y-116333333D02*
X136581961Y-116380952D01*
X136581961Y-116380952D02*
X136677200Y-116476190D01*
X136677200Y-116476190D02*
X136724819Y-116619047D01*
X136724819Y-116619047D02*
X136724819Y-116714285D01*
X136724819Y-115333333D02*
X136724819Y-115904761D01*
X136724819Y-115619047D02*
X135724819Y-115619047D01*
X135724819Y-115619047D02*
X135867676Y-115714285D01*
X135867676Y-115714285D02*
X135962914Y-115809523D01*
X135962914Y-115809523D02*
X136010533Y-115904761D01*
X154638095Y-104854819D02*
X154638095Y-105664342D01*
X154638095Y-105664342D02*
X154685714Y-105759580D01*
X154685714Y-105759580D02*
X154733333Y-105807200D01*
X154733333Y-105807200D02*
X154828571Y-105854819D01*
X154828571Y-105854819D02*
X155019047Y-105854819D01*
X155019047Y-105854819D02*
X155114285Y-105807200D01*
X155114285Y-105807200D02*
X155161904Y-105759580D01*
X155161904Y-105759580D02*
X155209523Y-105664342D01*
X155209523Y-105664342D02*
X155209523Y-104854819D01*
X156209523Y-105854819D02*
X155638095Y-105854819D01*
X155923809Y-105854819D02*
X155923809Y-104854819D01*
X155923809Y-104854819D02*
X155828571Y-104997676D01*
X155828571Y-104997676D02*
X155733333Y-105092914D01*
X155733333Y-105092914D02*
X155638095Y-105140533D01*
X130557142Y-99654819D02*
X130223809Y-99178628D01*
X129985714Y-99654819D02*
X129985714Y-98654819D01*
X129985714Y-98654819D02*
X130366666Y-98654819D01*
X130366666Y-98654819D02*
X130461904Y-98702438D01*
X130461904Y-98702438D02*
X130509523Y-98750057D01*
X130509523Y-98750057D02*
X130557142Y-98845295D01*
X130557142Y-98845295D02*
X130557142Y-98988152D01*
X130557142Y-98988152D02*
X130509523Y-99083390D01*
X130509523Y-99083390D02*
X130461904Y-99131009D01*
X130461904Y-99131009D02*
X130366666Y-99178628D01*
X130366666Y-99178628D02*
X129985714Y-99178628D01*
X131509523Y-99654819D02*
X130938095Y-99654819D01*
X131223809Y-99654819D02*
X131223809Y-98654819D01*
X131223809Y-98654819D02*
X131128571Y-98797676D01*
X131128571Y-98797676D02*
X131033333Y-98892914D01*
X131033333Y-98892914D02*
X130938095Y-98940533D01*
X132366666Y-98988152D02*
X132366666Y-99654819D01*
X132128571Y-98607200D02*
X131890476Y-99321485D01*
X131890476Y-99321485D02*
X132509523Y-99321485D01*
X158757142Y-98454819D02*
X158423809Y-97978628D01*
X158185714Y-98454819D02*
X158185714Y-97454819D01*
X158185714Y-97454819D02*
X158566666Y-97454819D01*
X158566666Y-97454819D02*
X158661904Y-97502438D01*
X158661904Y-97502438D02*
X158709523Y-97550057D01*
X158709523Y-97550057D02*
X158757142Y-97645295D01*
X158757142Y-97645295D02*
X158757142Y-97788152D01*
X158757142Y-97788152D02*
X158709523Y-97883390D01*
X158709523Y-97883390D02*
X158661904Y-97931009D01*
X158661904Y-97931009D02*
X158566666Y-97978628D01*
X158566666Y-97978628D02*
X158185714Y-97978628D01*
X159138095Y-97550057D02*
X159185714Y-97502438D01*
X159185714Y-97502438D02*
X159280952Y-97454819D01*
X159280952Y-97454819D02*
X159519047Y-97454819D01*
X159519047Y-97454819D02*
X159614285Y-97502438D01*
X159614285Y-97502438D02*
X159661904Y-97550057D01*
X159661904Y-97550057D02*
X159709523Y-97645295D01*
X159709523Y-97645295D02*
X159709523Y-97740533D01*
X159709523Y-97740533D02*
X159661904Y-97883390D01*
X159661904Y-97883390D02*
X159090476Y-98454819D01*
X159090476Y-98454819D02*
X159709523Y-98454819D01*
X160661904Y-98454819D02*
X160090476Y-98454819D01*
X160376190Y-98454819D02*
X160376190Y-97454819D01*
X160376190Y-97454819D02*
X160280952Y-97597676D01*
X160280952Y-97597676D02*
X160185714Y-97692914D01*
X160185714Y-97692914D02*
X160090476Y-97740533D01*
X147159580Y-95642857D02*
X147207200Y-95690476D01*
X147207200Y-95690476D02*
X147254819Y-95833333D01*
X147254819Y-95833333D02*
X147254819Y-95928571D01*
X147254819Y-95928571D02*
X147207200Y-96071428D01*
X147207200Y-96071428D02*
X147111961Y-96166666D01*
X147111961Y-96166666D02*
X147016723Y-96214285D01*
X147016723Y-96214285D02*
X146826247Y-96261904D01*
X146826247Y-96261904D02*
X146683390Y-96261904D01*
X146683390Y-96261904D02*
X146492914Y-96214285D01*
X146492914Y-96214285D02*
X146397676Y-96166666D01*
X146397676Y-96166666D02*
X146302438Y-96071428D01*
X146302438Y-96071428D02*
X146254819Y-95928571D01*
X146254819Y-95928571D02*
X146254819Y-95833333D01*
X146254819Y-95833333D02*
X146302438Y-95690476D01*
X146302438Y-95690476D02*
X146350057Y-95642857D01*
X146350057Y-95261904D02*
X146302438Y-95214285D01*
X146302438Y-95214285D02*
X146254819Y-95119047D01*
X146254819Y-95119047D02*
X146254819Y-94880952D01*
X146254819Y-94880952D02*
X146302438Y-94785714D01*
X146302438Y-94785714D02*
X146350057Y-94738095D01*
X146350057Y-94738095D02*
X146445295Y-94690476D01*
X146445295Y-94690476D02*
X146540533Y-94690476D01*
X146540533Y-94690476D02*
X146683390Y-94738095D01*
X146683390Y-94738095D02*
X147254819Y-95309523D01*
X147254819Y-95309523D02*
X147254819Y-94690476D01*
X146350057Y-94309523D02*
X146302438Y-94261904D01*
X146302438Y-94261904D02*
X146254819Y-94166666D01*
X146254819Y-94166666D02*
X146254819Y-93928571D01*
X146254819Y-93928571D02*
X146302438Y-93833333D01*
X146302438Y-93833333D02*
X146350057Y-93785714D01*
X146350057Y-93785714D02*
X146445295Y-93738095D01*
X146445295Y-93738095D02*
X146540533Y-93738095D01*
X146540533Y-93738095D02*
X146683390Y-93785714D01*
X146683390Y-93785714D02*
X147254819Y-94357142D01*
X147254819Y-94357142D02*
X147254819Y-93738095D01*
X130557142Y-92654819D02*
X130223809Y-92178628D01*
X129985714Y-92654819D02*
X129985714Y-91654819D01*
X129985714Y-91654819D02*
X130366666Y-91654819D01*
X130366666Y-91654819D02*
X130461904Y-91702438D01*
X130461904Y-91702438D02*
X130509523Y-91750057D01*
X130509523Y-91750057D02*
X130557142Y-91845295D01*
X130557142Y-91845295D02*
X130557142Y-91988152D01*
X130557142Y-91988152D02*
X130509523Y-92083390D01*
X130509523Y-92083390D02*
X130461904Y-92131009D01*
X130461904Y-92131009D02*
X130366666Y-92178628D01*
X130366666Y-92178628D02*
X129985714Y-92178628D01*
X130938095Y-91750057D02*
X130985714Y-91702438D01*
X130985714Y-91702438D02*
X131080952Y-91654819D01*
X131080952Y-91654819D02*
X131319047Y-91654819D01*
X131319047Y-91654819D02*
X131414285Y-91702438D01*
X131414285Y-91702438D02*
X131461904Y-91750057D01*
X131461904Y-91750057D02*
X131509523Y-91845295D01*
X131509523Y-91845295D02*
X131509523Y-91940533D01*
X131509523Y-91940533D02*
X131461904Y-92083390D01*
X131461904Y-92083390D02*
X130890476Y-92654819D01*
X130890476Y-92654819D02*
X131509523Y-92654819D01*
X132128571Y-91654819D02*
X132223809Y-91654819D01*
X132223809Y-91654819D02*
X132319047Y-91702438D01*
X132319047Y-91702438D02*
X132366666Y-91750057D01*
X132366666Y-91750057D02*
X132414285Y-91845295D01*
X132414285Y-91845295D02*
X132461904Y-92035771D01*
X132461904Y-92035771D02*
X132461904Y-92273866D01*
X132461904Y-92273866D02*
X132414285Y-92464342D01*
X132414285Y-92464342D02*
X132366666Y-92559580D01*
X132366666Y-92559580D02*
X132319047Y-92607200D01*
X132319047Y-92607200D02*
X132223809Y-92654819D01*
X132223809Y-92654819D02*
X132128571Y-92654819D01*
X132128571Y-92654819D02*
X132033333Y-92607200D01*
X132033333Y-92607200D02*
X131985714Y-92559580D01*
X131985714Y-92559580D02*
X131938095Y-92464342D01*
X131938095Y-92464342D02*
X131890476Y-92273866D01*
X131890476Y-92273866D02*
X131890476Y-92035771D01*
X131890476Y-92035771D02*
X131938095Y-91845295D01*
X131938095Y-91845295D02*
X131985714Y-91750057D01*
X131985714Y-91750057D02*
X132033333Y-91702438D01*
X132033333Y-91702438D02*
X132128571Y-91654819D01*
X157859580Y-111666666D02*
X157907200Y-111714285D01*
X157907200Y-111714285D02*
X157954819Y-111857142D01*
X157954819Y-111857142D02*
X157954819Y-111952380D01*
X157954819Y-111952380D02*
X157907200Y-112095237D01*
X157907200Y-112095237D02*
X157811961Y-112190475D01*
X157811961Y-112190475D02*
X157716723Y-112238094D01*
X157716723Y-112238094D02*
X157526247Y-112285713D01*
X157526247Y-112285713D02*
X157383390Y-112285713D01*
X157383390Y-112285713D02*
X157192914Y-112238094D01*
X157192914Y-112238094D02*
X157097676Y-112190475D01*
X157097676Y-112190475D02*
X157002438Y-112095237D01*
X157002438Y-112095237D02*
X156954819Y-111952380D01*
X156954819Y-111952380D02*
X156954819Y-111857142D01*
X156954819Y-111857142D02*
X157002438Y-111714285D01*
X157002438Y-111714285D02*
X157050057Y-111666666D01*
X157383390Y-111095237D02*
X157335771Y-111190475D01*
X157335771Y-111190475D02*
X157288152Y-111238094D01*
X157288152Y-111238094D02*
X157192914Y-111285713D01*
X157192914Y-111285713D02*
X157145295Y-111285713D01*
X157145295Y-111285713D02*
X157050057Y-111238094D01*
X157050057Y-111238094D02*
X157002438Y-111190475D01*
X157002438Y-111190475D02*
X156954819Y-111095237D01*
X156954819Y-111095237D02*
X156954819Y-110904761D01*
X156954819Y-110904761D02*
X157002438Y-110809523D01*
X157002438Y-110809523D02*
X157050057Y-110761904D01*
X157050057Y-110761904D02*
X157145295Y-110714285D01*
X157145295Y-110714285D02*
X157192914Y-110714285D01*
X157192914Y-110714285D02*
X157288152Y-110761904D01*
X157288152Y-110761904D02*
X157335771Y-110809523D01*
X157335771Y-110809523D02*
X157383390Y-110904761D01*
X157383390Y-110904761D02*
X157383390Y-111095237D01*
X157383390Y-111095237D02*
X157431009Y-111190475D01*
X157431009Y-111190475D02*
X157478628Y-111238094D01*
X157478628Y-111238094D02*
X157573866Y-111285713D01*
X157573866Y-111285713D02*
X157764342Y-111285713D01*
X157764342Y-111285713D02*
X157859580Y-111238094D01*
X157859580Y-111238094D02*
X157907200Y-111190475D01*
X157907200Y-111190475D02*
X157954819Y-111095237D01*
X157954819Y-111095237D02*
X157954819Y-110904761D01*
X157954819Y-110904761D02*
X157907200Y-110809523D01*
X157907200Y-110809523D02*
X157859580Y-110761904D01*
X157859580Y-110761904D02*
X157764342Y-110714285D01*
X157764342Y-110714285D02*
X157573866Y-110714285D01*
X157573866Y-110714285D02*
X157478628Y-110761904D01*
X157478628Y-110761904D02*
X157431009Y-110809523D01*
X157431009Y-110809523D02*
X157383390Y-110904761D01*
X142959580Y-97242857D02*
X143007200Y-97290476D01*
X143007200Y-97290476D02*
X143054819Y-97433333D01*
X143054819Y-97433333D02*
X143054819Y-97528571D01*
X143054819Y-97528571D02*
X143007200Y-97671428D01*
X143007200Y-97671428D02*
X142911961Y-97766666D01*
X142911961Y-97766666D02*
X142816723Y-97814285D01*
X142816723Y-97814285D02*
X142626247Y-97861904D01*
X142626247Y-97861904D02*
X142483390Y-97861904D01*
X142483390Y-97861904D02*
X142292914Y-97814285D01*
X142292914Y-97814285D02*
X142197676Y-97766666D01*
X142197676Y-97766666D02*
X142102438Y-97671428D01*
X142102438Y-97671428D02*
X142054819Y-97528571D01*
X142054819Y-97528571D02*
X142054819Y-97433333D01*
X142054819Y-97433333D02*
X142102438Y-97290476D01*
X142102438Y-97290476D02*
X142150057Y-97242857D01*
X143054819Y-96290476D02*
X143054819Y-96861904D01*
X143054819Y-96576190D02*
X142054819Y-96576190D01*
X142054819Y-96576190D02*
X142197676Y-96671428D01*
X142197676Y-96671428D02*
X142292914Y-96766666D01*
X142292914Y-96766666D02*
X142340533Y-96861904D01*
X142054819Y-95385714D02*
X142054819Y-95861904D01*
X142054819Y-95861904D02*
X142531009Y-95909523D01*
X142531009Y-95909523D02*
X142483390Y-95861904D01*
X142483390Y-95861904D02*
X142435771Y-95766666D01*
X142435771Y-95766666D02*
X142435771Y-95528571D01*
X142435771Y-95528571D02*
X142483390Y-95433333D01*
X142483390Y-95433333D02*
X142531009Y-95385714D01*
X142531009Y-95385714D02*
X142626247Y-95338095D01*
X142626247Y-95338095D02*
X142864342Y-95338095D01*
X142864342Y-95338095D02*
X142959580Y-95385714D01*
X142959580Y-95385714D02*
X143007200Y-95433333D01*
X143007200Y-95433333D02*
X143054819Y-95528571D01*
X143054819Y-95528571D02*
X143054819Y-95766666D01*
X143054819Y-95766666D02*
X143007200Y-95861904D01*
X143007200Y-95861904D02*
X142959580Y-95909523D01*
X130557142Y-97954819D02*
X130223809Y-97478628D01*
X129985714Y-97954819D02*
X129985714Y-96954819D01*
X129985714Y-96954819D02*
X130366666Y-96954819D01*
X130366666Y-96954819D02*
X130461904Y-97002438D01*
X130461904Y-97002438D02*
X130509523Y-97050057D01*
X130509523Y-97050057D02*
X130557142Y-97145295D01*
X130557142Y-97145295D02*
X130557142Y-97288152D01*
X130557142Y-97288152D02*
X130509523Y-97383390D01*
X130509523Y-97383390D02*
X130461904Y-97431009D01*
X130461904Y-97431009D02*
X130366666Y-97478628D01*
X130366666Y-97478628D02*
X129985714Y-97478628D01*
X131509523Y-97954819D02*
X130938095Y-97954819D01*
X131223809Y-97954819D02*
X131223809Y-96954819D01*
X131223809Y-96954819D02*
X131128571Y-97097676D01*
X131128571Y-97097676D02*
X131033333Y-97192914D01*
X131033333Y-97192914D02*
X130938095Y-97240533D01*
X132080952Y-97383390D02*
X131985714Y-97335771D01*
X131985714Y-97335771D02*
X131938095Y-97288152D01*
X131938095Y-97288152D02*
X131890476Y-97192914D01*
X131890476Y-97192914D02*
X131890476Y-97145295D01*
X131890476Y-97145295D02*
X131938095Y-97050057D01*
X131938095Y-97050057D02*
X131985714Y-97002438D01*
X131985714Y-97002438D02*
X132080952Y-96954819D01*
X132080952Y-96954819D02*
X132271428Y-96954819D01*
X132271428Y-96954819D02*
X132366666Y-97002438D01*
X132366666Y-97002438D02*
X132414285Y-97050057D01*
X132414285Y-97050057D02*
X132461904Y-97145295D01*
X132461904Y-97145295D02*
X132461904Y-97192914D01*
X132461904Y-97192914D02*
X132414285Y-97288152D01*
X132414285Y-97288152D02*
X132366666Y-97335771D01*
X132366666Y-97335771D02*
X132271428Y-97383390D01*
X132271428Y-97383390D02*
X132080952Y-97383390D01*
X132080952Y-97383390D02*
X131985714Y-97431009D01*
X131985714Y-97431009D02*
X131938095Y-97478628D01*
X131938095Y-97478628D02*
X131890476Y-97573866D01*
X131890476Y-97573866D02*
X131890476Y-97764342D01*
X131890476Y-97764342D02*
X131938095Y-97859580D01*
X131938095Y-97859580D02*
X131985714Y-97907200D01*
X131985714Y-97907200D02*
X132080952Y-97954819D01*
X132080952Y-97954819D02*
X132271428Y-97954819D01*
X132271428Y-97954819D02*
X132366666Y-97907200D01*
X132366666Y-97907200D02*
X132414285Y-97859580D01*
X132414285Y-97859580D02*
X132461904Y-97764342D01*
X132461904Y-97764342D02*
X132461904Y-97573866D01*
X132461904Y-97573866D02*
X132414285Y-97478628D01*
X132414285Y-97478628D02*
X132366666Y-97431009D01*
X132366666Y-97431009D02*
X132271428Y-97383390D01*
X131159580Y-103842857D02*
X131207200Y-103890476D01*
X131207200Y-103890476D02*
X131254819Y-104033333D01*
X131254819Y-104033333D02*
X131254819Y-104128571D01*
X131254819Y-104128571D02*
X131207200Y-104271428D01*
X131207200Y-104271428D02*
X131111961Y-104366666D01*
X131111961Y-104366666D02*
X131016723Y-104414285D01*
X131016723Y-104414285D02*
X130826247Y-104461904D01*
X130826247Y-104461904D02*
X130683390Y-104461904D01*
X130683390Y-104461904D02*
X130492914Y-104414285D01*
X130492914Y-104414285D02*
X130397676Y-104366666D01*
X130397676Y-104366666D02*
X130302438Y-104271428D01*
X130302438Y-104271428D02*
X130254819Y-104128571D01*
X130254819Y-104128571D02*
X130254819Y-104033333D01*
X130254819Y-104033333D02*
X130302438Y-103890476D01*
X130302438Y-103890476D02*
X130350057Y-103842857D01*
X130350057Y-103461904D02*
X130302438Y-103414285D01*
X130302438Y-103414285D02*
X130254819Y-103319047D01*
X130254819Y-103319047D02*
X130254819Y-103080952D01*
X130254819Y-103080952D02*
X130302438Y-102985714D01*
X130302438Y-102985714D02*
X130350057Y-102938095D01*
X130350057Y-102938095D02*
X130445295Y-102890476D01*
X130445295Y-102890476D02*
X130540533Y-102890476D01*
X130540533Y-102890476D02*
X130683390Y-102938095D01*
X130683390Y-102938095D02*
X131254819Y-103509523D01*
X131254819Y-103509523D02*
X131254819Y-102890476D01*
X130254819Y-102033333D02*
X130254819Y-102223809D01*
X130254819Y-102223809D02*
X130302438Y-102319047D01*
X130302438Y-102319047D02*
X130350057Y-102366666D01*
X130350057Y-102366666D02*
X130492914Y-102461904D01*
X130492914Y-102461904D02*
X130683390Y-102509523D01*
X130683390Y-102509523D02*
X131064342Y-102509523D01*
X131064342Y-102509523D02*
X131159580Y-102461904D01*
X131159580Y-102461904D02*
X131207200Y-102414285D01*
X131207200Y-102414285D02*
X131254819Y-102319047D01*
X131254819Y-102319047D02*
X131254819Y-102128571D01*
X131254819Y-102128571D02*
X131207200Y-102033333D01*
X131207200Y-102033333D02*
X131159580Y-101985714D01*
X131159580Y-101985714D02*
X131064342Y-101938095D01*
X131064342Y-101938095D02*
X130826247Y-101938095D01*
X130826247Y-101938095D02*
X130731009Y-101985714D01*
X130731009Y-101985714D02*
X130683390Y-102033333D01*
X130683390Y-102033333D02*
X130635771Y-102128571D01*
X130635771Y-102128571D02*
X130635771Y-102319047D01*
X130635771Y-102319047D02*
X130683390Y-102414285D01*
X130683390Y-102414285D02*
X130731009Y-102461904D01*
X130731009Y-102461904D02*
X130826247Y-102509523D01*
X151357142Y-105959580D02*
X151309523Y-106007200D01*
X151309523Y-106007200D02*
X151166666Y-106054819D01*
X151166666Y-106054819D02*
X151071428Y-106054819D01*
X151071428Y-106054819D02*
X150928571Y-106007200D01*
X150928571Y-106007200D02*
X150833333Y-105911961D01*
X150833333Y-105911961D02*
X150785714Y-105816723D01*
X150785714Y-105816723D02*
X150738095Y-105626247D01*
X150738095Y-105626247D02*
X150738095Y-105483390D01*
X150738095Y-105483390D02*
X150785714Y-105292914D01*
X150785714Y-105292914D02*
X150833333Y-105197676D01*
X150833333Y-105197676D02*
X150928571Y-105102438D01*
X150928571Y-105102438D02*
X151071428Y-105054819D01*
X151071428Y-105054819D02*
X151166666Y-105054819D01*
X151166666Y-105054819D02*
X151309523Y-105102438D01*
X151309523Y-105102438D02*
X151357142Y-105150057D01*
X152309523Y-106054819D02*
X151738095Y-106054819D01*
X152023809Y-106054819D02*
X152023809Y-105054819D01*
X152023809Y-105054819D02*
X151928571Y-105197676D01*
X151928571Y-105197676D02*
X151833333Y-105292914D01*
X151833333Y-105292914D02*
X151738095Y-105340533D01*
X153166666Y-105054819D02*
X152976190Y-105054819D01*
X152976190Y-105054819D02*
X152880952Y-105102438D01*
X152880952Y-105102438D02*
X152833333Y-105150057D01*
X152833333Y-105150057D02*
X152738095Y-105292914D01*
X152738095Y-105292914D02*
X152690476Y-105483390D01*
X152690476Y-105483390D02*
X152690476Y-105864342D01*
X152690476Y-105864342D02*
X152738095Y-105959580D01*
X152738095Y-105959580D02*
X152785714Y-106007200D01*
X152785714Y-106007200D02*
X152880952Y-106054819D01*
X152880952Y-106054819D02*
X153071428Y-106054819D01*
X153071428Y-106054819D02*
X153166666Y-106007200D01*
X153166666Y-106007200D02*
X153214285Y-105959580D01*
X153214285Y-105959580D02*
X153261904Y-105864342D01*
X153261904Y-105864342D02*
X153261904Y-105626247D01*
X153261904Y-105626247D02*
X153214285Y-105531009D01*
X153214285Y-105531009D02*
X153166666Y-105483390D01*
X153166666Y-105483390D02*
X153071428Y-105435771D01*
X153071428Y-105435771D02*
X152880952Y-105435771D01*
X152880952Y-105435771D02*
X152785714Y-105483390D01*
X152785714Y-105483390D02*
X152738095Y-105531009D01*
X152738095Y-105531009D02*
X152690476Y-105626247D01*
X158657142Y-105954819D02*
X158323809Y-105478628D01*
X158085714Y-105954819D02*
X158085714Y-104954819D01*
X158085714Y-104954819D02*
X158466666Y-104954819D01*
X158466666Y-104954819D02*
X158561904Y-105002438D01*
X158561904Y-105002438D02*
X158609523Y-105050057D01*
X158609523Y-105050057D02*
X158657142Y-105145295D01*
X158657142Y-105145295D02*
X158657142Y-105288152D01*
X158657142Y-105288152D02*
X158609523Y-105383390D01*
X158609523Y-105383390D02*
X158561904Y-105431009D01*
X158561904Y-105431009D02*
X158466666Y-105478628D01*
X158466666Y-105478628D02*
X158085714Y-105478628D01*
X159609523Y-105954819D02*
X159038095Y-105954819D01*
X159323809Y-105954819D02*
X159323809Y-104954819D01*
X159323809Y-104954819D02*
X159228571Y-105097676D01*
X159228571Y-105097676D02*
X159133333Y-105192914D01*
X159133333Y-105192914D02*
X159038095Y-105240533D01*
X160085714Y-105954819D02*
X160276190Y-105954819D01*
X160276190Y-105954819D02*
X160371428Y-105907200D01*
X160371428Y-105907200D02*
X160419047Y-105859580D01*
X160419047Y-105859580D02*
X160514285Y-105716723D01*
X160514285Y-105716723D02*
X160561904Y-105526247D01*
X160561904Y-105526247D02*
X160561904Y-105145295D01*
X160561904Y-105145295D02*
X160514285Y-105050057D01*
X160514285Y-105050057D02*
X160466666Y-105002438D01*
X160466666Y-105002438D02*
X160371428Y-104954819D01*
X160371428Y-104954819D02*
X160180952Y-104954819D01*
X160180952Y-104954819D02*
X160085714Y-105002438D01*
X160085714Y-105002438D02*
X160038095Y-105050057D01*
X160038095Y-105050057D02*
X159990476Y-105145295D01*
X159990476Y-105145295D02*
X159990476Y-105383390D01*
X159990476Y-105383390D02*
X160038095Y-105478628D01*
X160038095Y-105478628D02*
X160085714Y-105526247D01*
X160085714Y-105526247D02*
X160180952Y-105573866D01*
X160180952Y-105573866D02*
X160371428Y-105573866D01*
X160371428Y-105573866D02*
X160466666Y-105526247D01*
X160466666Y-105526247D02*
X160514285Y-105478628D01*
X160514285Y-105478628D02*
X160561904Y-105383390D01*
X150159580Y-103466666D02*
X150207200Y-103514285D01*
X150207200Y-103514285D02*
X150254819Y-103657142D01*
X150254819Y-103657142D02*
X150254819Y-103752380D01*
X150254819Y-103752380D02*
X150207200Y-103895237D01*
X150207200Y-103895237D02*
X150111961Y-103990475D01*
X150111961Y-103990475D02*
X150016723Y-104038094D01*
X150016723Y-104038094D02*
X149826247Y-104085713D01*
X149826247Y-104085713D02*
X149683390Y-104085713D01*
X149683390Y-104085713D02*
X149492914Y-104038094D01*
X149492914Y-104038094D02*
X149397676Y-103990475D01*
X149397676Y-103990475D02*
X149302438Y-103895237D01*
X149302438Y-103895237D02*
X149254819Y-103752380D01*
X149254819Y-103752380D02*
X149254819Y-103657142D01*
X149254819Y-103657142D02*
X149302438Y-103514285D01*
X149302438Y-103514285D02*
X149350057Y-103466666D01*
X149588152Y-102609523D02*
X150254819Y-102609523D01*
X149207200Y-102847618D02*
X149921485Y-103085713D01*
X149921485Y-103085713D02*
X149921485Y-102466666D01*
X158657142Y-103554819D02*
X158323809Y-103078628D01*
X158085714Y-103554819D02*
X158085714Y-102554819D01*
X158085714Y-102554819D02*
X158466666Y-102554819D01*
X158466666Y-102554819D02*
X158561904Y-102602438D01*
X158561904Y-102602438D02*
X158609523Y-102650057D01*
X158609523Y-102650057D02*
X158657142Y-102745295D01*
X158657142Y-102745295D02*
X158657142Y-102888152D01*
X158657142Y-102888152D02*
X158609523Y-102983390D01*
X158609523Y-102983390D02*
X158561904Y-103031009D01*
X158561904Y-103031009D02*
X158466666Y-103078628D01*
X158466666Y-103078628D02*
X158085714Y-103078628D01*
X159038095Y-102650057D02*
X159085714Y-102602438D01*
X159085714Y-102602438D02*
X159180952Y-102554819D01*
X159180952Y-102554819D02*
X159419047Y-102554819D01*
X159419047Y-102554819D02*
X159514285Y-102602438D01*
X159514285Y-102602438D02*
X159561904Y-102650057D01*
X159561904Y-102650057D02*
X159609523Y-102745295D01*
X159609523Y-102745295D02*
X159609523Y-102840533D01*
X159609523Y-102840533D02*
X159561904Y-102983390D01*
X159561904Y-102983390D02*
X158990476Y-103554819D01*
X158990476Y-103554819D02*
X159609523Y-103554819D01*
X159942857Y-102554819D02*
X160561904Y-102554819D01*
X160561904Y-102554819D02*
X160228571Y-102935771D01*
X160228571Y-102935771D02*
X160371428Y-102935771D01*
X160371428Y-102935771D02*
X160466666Y-102983390D01*
X160466666Y-102983390D02*
X160514285Y-103031009D01*
X160514285Y-103031009D02*
X160561904Y-103126247D01*
X160561904Y-103126247D02*
X160561904Y-103364342D01*
X160561904Y-103364342D02*
X160514285Y-103459580D01*
X160514285Y-103459580D02*
X160466666Y-103507200D01*
X160466666Y-103507200D02*
X160371428Y-103554819D01*
X160371428Y-103554819D02*
X160085714Y-103554819D01*
X160085714Y-103554819D02*
X159990476Y-103507200D01*
X159990476Y-103507200D02*
X159942857Y-103459580D01*
X157859580Y-113366666D02*
X157907200Y-113414285D01*
X157907200Y-113414285D02*
X157954819Y-113557142D01*
X157954819Y-113557142D02*
X157954819Y-113652380D01*
X157954819Y-113652380D02*
X157907200Y-113795237D01*
X157907200Y-113795237D02*
X157811961Y-113890475D01*
X157811961Y-113890475D02*
X157716723Y-113938094D01*
X157716723Y-113938094D02*
X157526247Y-113985713D01*
X157526247Y-113985713D02*
X157383390Y-113985713D01*
X157383390Y-113985713D02*
X157192914Y-113938094D01*
X157192914Y-113938094D02*
X157097676Y-113890475D01*
X157097676Y-113890475D02*
X157002438Y-113795237D01*
X157002438Y-113795237D02*
X156954819Y-113652380D01*
X156954819Y-113652380D02*
X156954819Y-113557142D01*
X156954819Y-113557142D02*
X157002438Y-113414285D01*
X157002438Y-113414285D02*
X157050057Y-113366666D01*
X157954819Y-112414285D02*
X157954819Y-112985713D01*
X157954819Y-112699999D02*
X156954819Y-112699999D01*
X156954819Y-112699999D02*
X157097676Y-112795237D01*
X157097676Y-112795237D02*
X157192914Y-112890475D01*
X157192914Y-112890475D02*
X157240533Y-112985713D01*
X125804819Y-107011904D02*
X126614342Y-107011904D01*
X126614342Y-107011904D02*
X126709580Y-106964285D01*
X126709580Y-106964285D02*
X126757200Y-106916666D01*
X126757200Y-106916666D02*
X126804819Y-106821428D01*
X126804819Y-106821428D02*
X126804819Y-106630952D01*
X126804819Y-106630952D02*
X126757200Y-106535714D01*
X126757200Y-106535714D02*
X126709580Y-106488095D01*
X126709580Y-106488095D02*
X126614342Y-106440476D01*
X126614342Y-106440476D02*
X125804819Y-106440476D01*
X125804819Y-106059523D02*
X125804819Y-105440476D01*
X125804819Y-105440476D02*
X126185771Y-105773809D01*
X126185771Y-105773809D02*
X126185771Y-105630952D01*
X126185771Y-105630952D02*
X126233390Y-105535714D01*
X126233390Y-105535714D02*
X126281009Y-105488095D01*
X126281009Y-105488095D02*
X126376247Y-105440476D01*
X126376247Y-105440476D02*
X126614342Y-105440476D01*
X126614342Y-105440476D02*
X126709580Y-105488095D01*
X126709580Y-105488095D02*
X126757200Y-105535714D01*
X126757200Y-105535714D02*
X126804819Y-105630952D01*
X126804819Y-105630952D02*
X126804819Y-105916666D01*
X126804819Y-105916666D02*
X126757200Y-106011904D01*
X126757200Y-106011904D02*
X126709580Y-106059523D01*
X130557142Y-94454819D02*
X130223809Y-93978628D01*
X129985714Y-94454819D02*
X129985714Y-93454819D01*
X129985714Y-93454819D02*
X130366666Y-93454819D01*
X130366666Y-93454819D02*
X130461904Y-93502438D01*
X130461904Y-93502438D02*
X130509523Y-93550057D01*
X130509523Y-93550057D02*
X130557142Y-93645295D01*
X130557142Y-93645295D02*
X130557142Y-93788152D01*
X130557142Y-93788152D02*
X130509523Y-93883390D01*
X130509523Y-93883390D02*
X130461904Y-93931009D01*
X130461904Y-93931009D02*
X130366666Y-93978628D01*
X130366666Y-93978628D02*
X129985714Y-93978628D01*
X131509523Y-94454819D02*
X130938095Y-94454819D01*
X131223809Y-94454819D02*
X131223809Y-93454819D01*
X131223809Y-93454819D02*
X131128571Y-93597676D01*
X131128571Y-93597676D02*
X131033333Y-93692914D01*
X131033333Y-93692914D02*
X130938095Y-93740533D01*
X132414285Y-93454819D02*
X131938095Y-93454819D01*
X131938095Y-93454819D02*
X131890476Y-93931009D01*
X131890476Y-93931009D02*
X131938095Y-93883390D01*
X131938095Y-93883390D02*
X132033333Y-93835771D01*
X132033333Y-93835771D02*
X132271428Y-93835771D01*
X132271428Y-93835771D02*
X132366666Y-93883390D01*
X132366666Y-93883390D02*
X132414285Y-93931009D01*
X132414285Y-93931009D02*
X132461904Y-94026247D01*
X132461904Y-94026247D02*
X132461904Y-94264342D01*
X132461904Y-94264342D02*
X132414285Y-94359580D01*
X132414285Y-94359580D02*
X132366666Y-94407200D01*
X132366666Y-94407200D02*
X132271428Y-94454819D01*
X132271428Y-94454819D02*
X132033333Y-94454819D01*
X132033333Y-94454819D02*
X131938095Y-94407200D01*
X131938095Y-94407200D02*
X131890476Y-94359580D01*
X146859580Y-107766666D02*
X146907200Y-107814285D01*
X146907200Y-107814285D02*
X146954819Y-107957142D01*
X146954819Y-107957142D02*
X146954819Y-108052380D01*
X146954819Y-108052380D02*
X146907200Y-108195237D01*
X146907200Y-108195237D02*
X146811961Y-108290475D01*
X146811961Y-108290475D02*
X146716723Y-108338094D01*
X146716723Y-108338094D02*
X146526247Y-108385713D01*
X146526247Y-108385713D02*
X146383390Y-108385713D01*
X146383390Y-108385713D02*
X146192914Y-108338094D01*
X146192914Y-108338094D02*
X146097676Y-108290475D01*
X146097676Y-108290475D02*
X146002438Y-108195237D01*
X146002438Y-108195237D02*
X145954819Y-108052380D01*
X145954819Y-108052380D02*
X145954819Y-107957142D01*
X145954819Y-107957142D02*
X146002438Y-107814285D01*
X146002438Y-107814285D02*
X146050057Y-107766666D01*
X145954819Y-107433332D02*
X145954819Y-106814285D01*
X145954819Y-106814285D02*
X146335771Y-107147618D01*
X146335771Y-107147618D02*
X146335771Y-107004761D01*
X146335771Y-107004761D02*
X146383390Y-106909523D01*
X146383390Y-106909523D02*
X146431009Y-106861904D01*
X146431009Y-106861904D02*
X146526247Y-106814285D01*
X146526247Y-106814285D02*
X146764342Y-106814285D01*
X146764342Y-106814285D02*
X146859580Y-106861904D01*
X146859580Y-106861904D02*
X146907200Y-106909523D01*
X146907200Y-106909523D02*
X146954819Y-107004761D01*
X146954819Y-107004761D02*
X146954819Y-107290475D01*
X146954819Y-107290475D02*
X146907200Y-107385713D01*
X146907200Y-107385713D02*
X146859580Y-107433332D01*
X141659580Y-112766666D02*
X141707200Y-112814285D01*
X141707200Y-112814285D02*
X141754819Y-112957142D01*
X141754819Y-112957142D02*
X141754819Y-113052380D01*
X141754819Y-113052380D02*
X141707200Y-113195237D01*
X141707200Y-113195237D02*
X141611961Y-113290475D01*
X141611961Y-113290475D02*
X141516723Y-113338094D01*
X141516723Y-113338094D02*
X141326247Y-113385713D01*
X141326247Y-113385713D02*
X141183390Y-113385713D01*
X141183390Y-113385713D02*
X140992914Y-113338094D01*
X140992914Y-113338094D02*
X140897676Y-113290475D01*
X140897676Y-113290475D02*
X140802438Y-113195237D01*
X140802438Y-113195237D02*
X140754819Y-113052380D01*
X140754819Y-113052380D02*
X140754819Y-112957142D01*
X140754819Y-112957142D02*
X140802438Y-112814285D01*
X140802438Y-112814285D02*
X140850057Y-112766666D01*
X141754819Y-112290475D02*
X141754819Y-112099999D01*
X141754819Y-112099999D02*
X141707200Y-112004761D01*
X141707200Y-112004761D02*
X141659580Y-111957142D01*
X141659580Y-111957142D02*
X141516723Y-111861904D01*
X141516723Y-111861904D02*
X141326247Y-111814285D01*
X141326247Y-111814285D02*
X140945295Y-111814285D01*
X140945295Y-111814285D02*
X140850057Y-111861904D01*
X140850057Y-111861904D02*
X140802438Y-111909523D01*
X140802438Y-111909523D02*
X140754819Y-112004761D01*
X140754819Y-112004761D02*
X140754819Y-112195237D01*
X140754819Y-112195237D02*
X140802438Y-112290475D01*
X140802438Y-112290475D02*
X140850057Y-112338094D01*
X140850057Y-112338094D02*
X140945295Y-112385713D01*
X140945295Y-112385713D02*
X141183390Y-112385713D01*
X141183390Y-112385713D02*
X141278628Y-112338094D01*
X141278628Y-112338094D02*
X141326247Y-112290475D01*
X141326247Y-112290475D02*
X141373866Y-112195237D01*
X141373866Y-112195237D02*
X141373866Y-112004761D01*
X141373866Y-112004761D02*
X141326247Y-111909523D01*
X141326247Y-111909523D02*
X141278628Y-111861904D01*
X141278628Y-111861904D02*
X141183390Y-111814285D01*
X153704819Y-113642857D02*
X153228628Y-113976190D01*
X153704819Y-114214285D02*
X152704819Y-114214285D01*
X152704819Y-114214285D02*
X152704819Y-113833333D01*
X152704819Y-113833333D02*
X152752438Y-113738095D01*
X152752438Y-113738095D02*
X152800057Y-113690476D01*
X152800057Y-113690476D02*
X152895295Y-113642857D01*
X152895295Y-113642857D02*
X153038152Y-113642857D01*
X153038152Y-113642857D02*
X153133390Y-113690476D01*
X153133390Y-113690476D02*
X153181009Y-113738095D01*
X153181009Y-113738095D02*
X153228628Y-113833333D01*
X153228628Y-113833333D02*
X153228628Y-114214285D01*
X153704819Y-112690476D02*
X153704819Y-113261904D01*
X153704819Y-112976190D02*
X152704819Y-112976190D01*
X152704819Y-112976190D02*
X152847676Y-113071428D01*
X152847676Y-113071428D02*
X152942914Y-113166666D01*
X152942914Y-113166666D02*
X152990533Y-113261904D01*
X152704819Y-112357142D02*
X152704819Y-111738095D01*
X152704819Y-111738095D02*
X153085771Y-112071428D01*
X153085771Y-112071428D02*
X153085771Y-111928571D01*
X153085771Y-111928571D02*
X153133390Y-111833333D01*
X153133390Y-111833333D02*
X153181009Y-111785714D01*
X153181009Y-111785714D02*
X153276247Y-111738095D01*
X153276247Y-111738095D02*
X153514342Y-111738095D01*
X153514342Y-111738095D02*
X153609580Y-111785714D01*
X153609580Y-111785714D02*
X153657200Y-111833333D01*
X153657200Y-111833333D02*
X153704819Y-111928571D01*
X153704819Y-111928571D02*
X153704819Y-112214285D01*
X153704819Y-112214285D02*
X153657200Y-112309523D01*
X153657200Y-112309523D02*
X153609580Y-112357142D01*
X139959580Y-112766666D02*
X140007200Y-112814285D01*
X140007200Y-112814285D02*
X140054819Y-112957142D01*
X140054819Y-112957142D02*
X140054819Y-113052380D01*
X140054819Y-113052380D02*
X140007200Y-113195237D01*
X140007200Y-113195237D02*
X139911961Y-113290475D01*
X139911961Y-113290475D02*
X139816723Y-113338094D01*
X139816723Y-113338094D02*
X139626247Y-113385713D01*
X139626247Y-113385713D02*
X139483390Y-113385713D01*
X139483390Y-113385713D02*
X139292914Y-113338094D01*
X139292914Y-113338094D02*
X139197676Y-113290475D01*
X139197676Y-113290475D02*
X139102438Y-113195237D01*
X139102438Y-113195237D02*
X139054819Y-113052380D01*
X139054819Y-113052380D02*
X139054819Y-112957142D01*
X139054819Y-112957142D02*
X139102438Y-112814285D01*
X139102438Y-112814285D02*
X139150057Y-112766666D01*
X139150057Y-112385713D02*
X139102438Y-112338094D01*
X139102438Y-112338094D02*
X139054819Y-112242856D01*
X139054819Y-112242856D02*
X139054819Y-112004761D01*
X139054819Y-112004761D02*
X139102438Y-111909523D01*
X139102438Y-111909523D02*
X139150057Y-111861904D01*
X139150057Y-111861904D02*
X139245295Y-111814285D01*
X139245295Y-111814285D02*
X139340533Y-111814285D01*
X139340533Y-111814285D02*
X139483390Y-111861904D01*
X139483390Y-111861904D02*
X140054819Y-112433332D01*
X140054819Y-112433332D02*
X140054819Y-111814285D01*
X149857142Y-114454819D02*
X149523809Y-113978628D01*
X149285714Y-114454819D02*
X149285714Y-113454819D01*
X149285714Y-113454819D02*
X149666666Y-113454819D01*
X149666666Y-113454819D02*
X149761904Y-113502438D01*
X149761904Y-113502438D02*
X149809523Y-113550057D01*
X149809523Y-113550057D02*
X149857142Y-113645295D01*
X149857142Y-113645295D02*
X149857142Y-113788152D01*
X149857142Y-113788152D02*
X149809523Y-113883390D01*
X149809523Y-113883390D02*
X149761904Y-113931009D01*
X149761904Y-113931009D02*
X149666666Y-113978628D01*
X149666666Y-113978628D02*
X149285714Y-113978628D01*
X150809523Y-114454819D02*
X150238095Y-114454819D01*
X150523809Y-114454819D02*
X150523809Y-113454819D01*
X150523809Y-113454819D02*
X150428571Y-113597676D01*
X150428571Y-113597676D02*
X150333333Y-113692914D01*
X150333333Y-113692914D02*
X150238095Y-113740533D01*
X151190476Y-113550057D02*
X151238095Y-113502438D01*
X151238095Y-113502438D02*
X151333333Y-113454819D01*
X151333333Y-113454819D02*
X151571428Y-113454819D01*
X151571428Y-113454819D02*
X151666666Y-113502438D01*
X151666666Y-113502438D02*
X151714285Y-113550057D01*
X151714285Y-113550057D02*
X151761904Y-113645295D01*
X151761904Y-113645295D02*
X151761904Y-113740533D01*
X151761904Y-113740533D02*
X151714285Y-113883390D01*
X151714285Y-113883390D02*
X151142857Y-114454819D01*
X151142857Y-114454819D02*
X151761904Y-114454819D01*
X148059580Y-92842857D02*
X148107200Y-92890476D01*
X148107200Y-92890476D02*
X148154819Y-93033333D01*
X148154819Y-93033333D02*
X148154819Y-93128571D01*
X148154819Y-93128571D02*
X148107200Y-93271428D01*
X148107200Y-93271428D02*
X148011961Y-93366666D01*
X148011961Y-93366666D02*
X147916723Y-93414285D01*
X147916723Y-93414285D02*
X147726247Y-93461904D01*
X147726247Y-93461904D02*
X147583390Y-93461904D01*
X147583390Y-93461904D02*
X147392914Y-93414285D01*
X147392914Y-93414285D02*
X147297676Y-93366666D01*
X147297676Y-93366666D02*
X147202438Y-93271428D01*
X147202438Y-93271428D02*
X147154819Y-93128571D01*
X147154819Y-93128571D02*
X147154819Y-93033333D01*
X147154819Y-93033333D02*
X147202438Y-92890476D01*
X147202438Y-92890476D02*
X147250057Y-92842857D01*
X147250057Y-92461904D02*
X147202438Y-92414285D01*
X147202438Y-92414285D02*
X147154819Y-92319047D01*
X147154819Y-92319047D02*
X147154819Y-92080952D01*
X147154819Y-92080952D02*
X147202438Y-91985714D01*
X147202438Y-91985714D02*
X147250057Y-91938095D01*
X147250057Y-91938095D02*
X147345295Y-91890476D01*
X147345295Y-91890476D02*
X147440533Y-91890476D01*
X147440533Y-91890476D02*
X147583390Y-91938095D01*
X147583390Y-91938095D02*
X148154819Y-92509523D01*
X148154819Y-92509523D02*
X148154819Y-91890476D01*
X147154819Y-91557142D02*
X147154819Y-90938095D01*
X147154819Y-90938095D02*
X147535771Y-91271428D01*
X147535771Y-91271428D02*
X147535771Y-91128571D01*
X147535771Y-91128571D02*
X147583390Y-91033333D01*
X147583390Y-91033333D02*
X147631009Y-90985714D01*
X147631009Y-90985714D02*
X147726247Y-90938095D01*
X147726247Y-90938095D02*
X147964342Y-90938095D01*
X147964342Y-90938095D02*
X148059580Y-90985714D01*
X148059580Y-90985714D02*
X148107200Y-91033333D01*
X148107200Y-91033333D02*
X148154819Y-91128571D01*
X148154819Y-91128571D02*
X148154819Y-91414285D01*
X148154819Y-91414285D02*
X148107200Y-91509523D01*
X148107200Y-91509523D02*
X148059580Y-91557142D01*
X148709580Y-107692857D02*
X148757200Y-107740476D01*
X148757200Y-107740476D02*
X148804819Y-107883333D01*
X148804819Y-107883333D02*
X148804819Y-107978571D01*
X148804819Y-107978571D02*
X148757200Y-108121428D01*
X148757200Y-108121428D02*
X148661961Y-108216666D01*
X148661961Y-108216666D02*
X148566723Y-108264285D01*
X148566723Y-108264285D02*
X148376247Y-108311904D01*
X148376247Y-108311904D02*
X148233390Y-108311904D01*
X148233390Y-108311904D02*
X148042914Y-108264285D01*
X148042914Y-108264285D02*
X147947676Y-108216666D01*
X147947676Y-108216666D02*
X147852438Y-108121428D01*
X147852438Y-108121428D02*
X147804819Y-107978571D01*
X147804819Y-107978571D02*
X147804819Y-107883333D01*
X147804819Y-107883333D02*
X147852438Y-107740476D01*
X147852438Y-107740476D02*
X147900057Y-107692857D01*
X148804819Y-106740476D02*
X148804819Y-107311904D01*
X148804819Y-107026190D02*
X147804819Y-107026190D01*
X147804819Y-107026190D02*
X147947676Y-107121428D01*
X147947676Y-107121428D02*
X148042914Y-107216666D01*
X148042914Y-107216666D02*
X148090533Y-107311904D01*
X147804819Y-106121428D02*
X147804819Y-106026190D01*
X147804819Y-106026190D02*
X147852438Y-105930952D01*
X147852438Y-105930952D02*
X147900057Y-105883333D01*
X147900057Y-105883333D02*
X147995295Y-105835714D01*
X147995295Y-105835714D02*
X148185771Y-105788095D01*
X148185771Y-105788095D02*
X148423866Y-105788095D01*
X148423866Y-105788095D02*
X148614342Y-105835714D01*
X148614342Y-105835714D02*
X148709580Y-105883333D01*
X148709580Y-105883333D02*
X148757200Y-105930952D01*
X148757200Y-105930952D02*
X148804819Y-106026190D01*
X148804819Y-106026190D02*
X148804819Y-106121428D01*
X148804819Y-106121428D02*
X148757200Y-106216666D01*
X148757200Y-106216666D02*
X148709580Y-106264285D01*
X148709580Y-106264285D02*
X148614342Y-106311904D01*
X148614342Y-106311904D02*
X148423866Y-106359523D01*
X148423866Y-106359523D02*
X148185771Y-106359523D01*
X148185771Y-106359523D02*
X147995295Y-106311904D01*
X147995295Y-106311904D02*
X147900057Y-106264285D01*
X147900057Y-106264285D02*
X147852438Y-106216666D01*
X147852438Y-106216666D02*
X147804819Y-106121428D01*
X164254819Y-110366666D02*
X163778628Y-110699999D01*
X164254819Y-110938094D02*
X163254819Y-110938094D01*
X163254819Y-110938094D02*
X163254819Y-110557142D01*
X163254819Y-110557142D02*
X163302438Y-110461904D01*
X163302438Y-110461904D02*
X163350057Y-110414285D01*
X163350057Y-110414285D02*
X163445295Y-110366666D01*
X163445295Y-110366666D02*
X163588152Y-110366666D01*
X163588152Y-110366666D02*
X163683390Y-110414285D01*
X163683390Y-110414285D02*
X163731009Y-110461904D01*
X163731009Y-110461904D02*
X163778628Y-110557142D01*
X163778628Y-110557142D02*
X163778628Y-110938094D01*
X164254819Y-109890475D02*
X164254819Y-109699999D01*
X164254819Y-109699999D02*
X164207200Y-109604761D01*
X164207200Y-109604761D02*
X164159580Y-109557142D01*
X164159580Y-109557142D02*
X164016723Y-109461904D01*
X164016723Y-109461904D02*
X163826247Y-109414285D01*
X163826247Y-109414285D02*
X163445295Y-109414285D01*
X163445295Y-109414285D02*
X163350057Y-109461904D01*
X163350057Y-109461904D02*
X163302438Y-109509523D01*
X163302438Y-109509523D02*
X163254819Y-109604761D01*
X163254819Y-109604761D02*
X163254819Y-109795237D01*
X163254819Y-109795237D02*
X163302438Y-109890475D01*
X163302438Y-109890475D02*
X163350057Y-109938094D01*
X163350057Y-109938094D02*
X163445295Y-109985713D01*
X163445295Y-109985713D02*
X163683390Y-109985713D01*
X163683390Y-109985713D02*
X163778628Y-109938094D01*
X163778628Y-109938094D02*
X163826247Y-109890475D01*
X163826247Y-109890475D02*
X163873866Y-109795237D01*
X163873866Y-109795237D02*
X163873866Y-109604761D01*
X163873866Y-109604761D02*
X163826247Y-109509523D01*
X163826247Y-109509523D02*
X163778628Y-109461904D01*
X163778628Y-109461904D02*
X163683390Y-109414285D01*
X135269104Y-68566666D02*
X135269104Y-68090476D01*
X135554819Y-68661904D02*
X134554819Y-68328571D01*
X134554819Y-68328571D02*
X135554819Y-67995238D01*
X135031009Y-67661904D02*
X135031009Y-67328571D01*
X135554819Y-67185714D02*
X135554819Y-67661904D01*
X135554819Y-67661904D02*
X134554819Y-67661904D01*
X134554819Y-67661904D02*
X134554819Y-67185714D01*
X134650057Y-66804761D02*
X134602438Y-66757142D01*
X134602438Y-66757142D02*
X134554819Y-66661904D01*
X134554819Y-66661904D02*
X134554819Y-66423809D01*
X134554819Y-66423809D02*
X134602438Y-66328571D01*
X134602438Y-66328571D02*
X134650057Y-66280952D01*
X134650057Y-66280952D02*
X134745295Y-66233333D01*
X134745295Y-66233333D02*
X134840533Y-66233333D01*
X134840533Y-66233333D02*
X134983390Y-66280952D01*
X134983390Y-66280952D02*
X135554819Y-66852380D01*
X135554819Y-66852380D02*
X135554819Y-66233333D01*
X164304819Y-112888094D02*
X163304819Y-112888094D01*
X163304819Y-112888094D02*
X163304819Y-112649999D01*
X163304819Y-112649999D02*
X163352438Y-112507142D01*
X163352438Y-112507142D02*
X163447676Y-112411904D01*
X163447676Y-112411904D02*
X163542914Y-112364285D01*
X163542914Y-112364285D02*
X163733390Y-112316666D01*
X163733390Y-112316666D02*
X163876247Y-112316666D01*
X163876247Y-112316666D02*
X164066723Y-112364285D01*
X164066723Y-112364285D02*
X164161961Y-112411904D01*
X164161961Y-112411904D02*
X164257200Y-112507142D01*
X164257200Y-112507142D02*
X164304819Y-112649999D01*
X164304819Y-112649999D02*
X164304819Y-112888094D01*
X163304819Y-111983332D02*
X163304819Y-111364285D01*
X163304819Y-111364285D02*
X163685771Y-111697618D01*
X163685771Y-111697618D02*
X163685771Y-111554761D01*
X163685771Y-111554761D02*
X163733390Y-111459523D01*
X163733390Y-111459523D02*
X163781009Y-111411904D01*
X163781009Y-111411904D02*
X163876247Y-111364285D01*
X163876247Y-111364285D02*
X164114342Y-111364285D01*
X164114342Y-111364285D02*
X164209580Y-111411904D01*
X164209580Y-111411904D02*
X164257200Y-111459523D01*
X164257200Y-111459523D02*
X164304819Y-111554761D01*
X164304819Y-111554761D02*
X164304819Y-111840475D01*
X164304819Y-111840475D02*
X164257200Y-111935713D01*
X164257200Y-111935713D02*
X164209580Y-111983332D01*
X165666666Y-92374819D02*
X165666666Y-93089104D01*
X165666666Y-93089104D02*
X165619047Y-93231961D01*
X165619047Y-93231961D02*
X165523809Y-93327200D01*
X165523809Y-93327200D02*
X165380952Y-93374819D01*
X165380952Y-93374819D02*
X165285714Y-93374819D01*
X166047619Y-92374819D02*
X166666666Y-92374819D01*
X166666666Y-92374819D02*
X166333333Y-92755771D01*
X166333333Y-92755771D02*
X166476190Y-92755771D01*
X166476190Y-92755771D02*
X166571428Y-92803390D01*
X166571428Y-92803390D02*
X166619047Y-92851009D01*
X166619047Y-92851009D02*
X166666666Y-92946247D01*
X166666666Y-92946247D02*
X166666666Y-93184342D01*
X166666666Y-93184342D02*
X166619047Y-93279580D01*
X166619047Y-93279580D02*
X166571428Y-93327200D01*
X166571428Y-93327200D02*
X166476190Y-93374819D01*
X166476190Y-93374819D02*
X166190476Y-93374819D01*
X166190476Y-93374819D02*
X166095238Y-93327200D01*
X166095238Y-93327200D02*
X166047619Y-93279580D01*
X133159580Y-103842857D02*
X133207200Y-103890476D01*
X133207200Y-103890476D02*
X133254819Y-104033333D01*
X133254819Y-104033333D02*
X133254819Y-104128571D01*
X133254819Y-104128571D02*
X133207200Y-104271428D01*
X133207200Y-104271428D02*
X133111961Y-104366666D01*
X133111961Y-104366666D02*
X133016723Y-104414285D01*
X133016723Y-104414285D02*
X132826247Y-104461904D01*
X132826247Y-104461904D02*
X132683390Y-104461904D01*
X132683390Y-104461904D02*
X132492914Y-104414285D01*
X132492914Y-104414285D02*
X132397676Y-104366666D01*
X132397676Y-104366666D02*
X132302438Y-104271428D01*
X132302438Y-104271428D02*
X132254819Y-104128571D01*
X132254819Y-104128571D02*
X132254819Y-104033333D01*
X132254819Y-104033333D02*
X132302438Y-103890476D01*
X132302438Y-103890476D02*
X132350057Y-103842857D01*
X132350057Y-103461904D02*
X132302438Y-103414285D01*
X132302438Y-103414285D02*
X132254819Y-103319047D01*
X132254819Y-103319047D02*
X132254819Y-103080952D01*
X132254819Y-103080952D02*
X132302438Y-102985714D01*
X132302438Y-102985714D02*
X132350057Y-102938095D01*
X132350057Y-102938095D02*
X132445295Y-102890476D01*
X132445295Y-102890476D02*
X132540533Y-102890476D01*
X132540533Y-102890476D02*
X132683390Y-102938095D01*
X132683390Y-102938095D02*
X133254819Y-103509523D01*
X133254819Y-103509523D02*
X133254819Y-102890476D01*
X132254819Y-101985714D02*
X132254819Y-102461904D01*
X132254819Y-102461904D02*
X132731009Y-102509523D01*
X132731009Y-102509523D02*
X132683390Y-102461904D01*
X132683390Y-102461904D02*
X132635771Y-102366666D01*
X132635771Y-102366666D02*
X132635771Y-102128571D01*
X132635771Y-102128571D02*
X132683390Y-102033333D01*
X132683390Y-102033333D02*
X132731009Y-101985714D01*
X132731009Y-101985714D02*
X132826247Y-101938095D01*
X132826247Y-101938095D02*
X133064342Y-101938095D01*
X133064342Y-101938095D02*
X133159580Y-101985714D01*
X133159580Y-101985714D02*
X133207200Y-102033333D01*
X133207200Y-102033333D02*
X133254819Y-102128571D01*
X133254819Y-102128571D02*
X133254819Y-102366666D01*
X133254819Y-102366666D02*
X133207200Y-102461904D01*
X133207200Y-102461904D02*
X133159580Y-102509523D01*
X155557142Y-118654819D02*
X155223809Y-118178628D01*
X154985714Y-118654819D02*
X154985714Y-117654819D01*
X154985714Y-117654819D02*
X155366666Y-117654819D01*
X155366666Y-117654819D02*
X155461904Y-117702438D01*
X155461904Y-117702438D02*
X155509523Y-117750057D01*
X155509523Y-117750057D02*
X155557142Y-117845295D01*
X155557142Y-117845295D02*
X155557142Y-117988152D01*
X155557142Y-117988152D02*
X155509523Y-118083390D01*
X155509523Y-118083390D02*
X155461904Y-118131009D01*
X155461904Y-118131009D02*
X155366666Y-118178628D01*
X155366666Y-118178628D02*
X154985714Y-118178628D01*
X155938095Y-117750057D02*
X155985714Y-117702438D01*
X155985714Y-117702438D02*
X156080952Y-117654819D01*
X156080952Y-117654819D02*
X156319047Y-117654819D01*
X156319047Y-117654819D02*
X156414285Y-117702438D01*
X156414285Y-117702438D02*
X156461904Y-117750057D01*
X156461904Y-117750057D02*
X156509523Y-117845295D01*
X156509523Y-117845295D02*
X156509523Y-117940533D01*
X156509523Y-117940533D02*
X156461904Y-118083390D01*
X156461904Y-118083390D02*
X155890476Y-118654819D01*
X155890476Y-118654819D02*
X156509523Y-118654819D01*
X157414285Y-117654819D02*
X156938095Y-117654819D01*
X156938095Y-117654819D02*
X156890476Y-118131009D01*
X156890476Y-118131009D02*
X156938095Y-118083390D01*
X156938095Y-118083390D02*
X157033333Y-118035771D01*
X157033333Y-118035771D02*
X157271428Y-118035771D01*
X157271428Y-118035771D02*
X157366666Y-118083390D01*
X157366666Y-118083390D02*
X157414285Y-118131009D01*
X157414285Y-118131009D02*
X157461904Y-118226247D01*
X157461904Y-118226247D02*
X157461904Y-118464342D01*
X157461904Y-118464342D02*
X157414285Y-118559580D01*
X157414285Y-118559580D02*
X157366666Y-118607200D01*
X157366666Y-118607200D02*
X157271428Y-118654819D01*
X157271428Y-118654819D02*
X157033333Y-118654819D01*
X157033333Y-118654819D02*
X156938095Y-118607200D01*
X156938095Y-118607200D02*
X156890476Y-118559580D01*
X138004819Y-112766666D02*
X137528628Y-113099999D01*
X138004819Y-113338094D02*
X137004819Y-113338094D01*
X137004819Y-113338094D02*
X137004819Y-112957142D01*
X137004819Y-112957142D02*
X137052438Y-112861904D01*
X137052438Y-112861904D02*
X137100057Y-112814285D01*
X137100057Y-112814285D02*
X137195295Y-112766666D01*
X137195295Y-112766666D02*
X137338152Y-112766666D01*
X137338152Y-112766666D02*
X137433390Y-112814285D01*
X137433390Y-112814285D02*
X137481009Y-112861904D01*
X137481009Y-112861904D02*
X137528628Y-112957142D01*
X137528628Y-112957142D02*
X137528628Y-113338094D01*
X137100057Y-112385713D02*
X137052438Y-112338094D01*
X137052438Y-112338094D02*
X137004819Y-112242856D01*
X137004819Y-112242856D02*
X137004819Y-112004761D01*
X137004819Y-112004761D02*
X137052438Y-111909523D01*
X137052438Y-111909523D02*
X137100057Y-111861904D01*
X137100057Y-111861904D02*
X137195295Y-111814285D01*
X137195295Y-111814285D02*
X137290533Y-111814285D01*
X137290533Y-111814285D02*
X137433390Y-111861904D01*
X137433390Y-111861904D02*
X138004819Y-112433332D01*
X138004819Y-112433332D02*
X138004819Y-111814285D01*
X149359580Y-95566666D02*
X149407200Y-95614285D01*
X149407200Y-95614285D02*
X149454819Y-95757142D01*
X149454819Y-95757142D02*
X149454819Y-95852380D01*
X149454819Y-95852380D02*
X149407200Y-95995237D01*
X149407200Y-95995237D02*
X149311961Y-96090475D01*
X149311961Y-96090475D02*
X149216723Y-96138094D01*
X149216723Y-96138094D02*
X149026247Y-96185713D01*
X149026247Y-96185713D02*
X148883390Y-96185713D01*
X148883390Y-96185713D02*
X148692914Y-96138094D01*
X148692914Y-96138094D02*
X148597676Y-96090475D01*
X148597676Y-96090475D02*
X148502438Y-95995237D01*
X148502438Y-95995237D02*
X148454819Y-95852380D01*
X148454819Y-95852380D02*
X148454819Y-95757142D01*
X148454819Y-95757142D02*
X148502438Y-95614285D01*
X148502438Y-95614285D02*
X148550057Y-95566666D01*
X148454819Y-95233332D02*
X148454819Y-94566666D01*
X148454819Y-94566666D02*
X149454819Y-94995237D01*
X143357142Y-114359580D02*
X143309523Y-114407200D01*
X143309523Y-114407200D02*
X143166666Y-114454819D01*
X143166666Y-114454819D02*
X143071428Y-114454819D01*
X143071428Y-114454819D02*
X142928571Y-114407200D01*
X142928571Y-114407200D02*
X142833333Y-114311961D01*
X142833333Y-114311961D02*
X142785714Y-114216723D01*
X142785714Y-114216723D02*
X142738095Y-114026247D01*
X142738095Y-114026247D02*
X142738095Y-113883390D01*
X142738095Y-113883390D02*
X142785714Y-113692914D01*
X142785714Y-113692914D02*
X142833333Y-113597676D01*
X142833333Y-113597676D02*
X142928571Y-113502438D01*
X142928571Y-113502438D02*
X143071428Y-113454819D01*
X143071428Y-113454819D02*
X143166666Y-113454819D01*
X143166666Y-113454819D02*
X143309523Y-113502438D01*
X143309523Y-113502438D02*
X143357142Y-113550057D01*
X143738095Y-113550057D02*
X143785714Y-113502438D01*
X143785714Y-113502438D02*
X143880952Y-113454819D01*
X143880952Y-113454819D02*
X144119047Y-113454819D01*
X144119047Y-113454819D02*
X144214285Y-113502438D01*
X144214285Y-113502438D02*
X144261904Y-113550057D01*
X144261904Y-113550057D02*
X144309523Y-113645295D01*
X144309523Y-113645295D02*
X144309523Y-113740533D01*
X144309523Y-113740533D02*
X144261904Y-113883390D01*
X144261904Y-113883390D02*
X143690476Y-114454819D01*
X143690476Y-114454819D02*
X144309523Y-114454819D01*
X145261904Y-114454819D02*
X144690476Y-114454819D01*
X144976190Y-114454819D02*
X144976190Y-113454819D01*
X144976190Y-113454819D02*
X144880952Y-113597676D01*
X144880952Y-113597676D02*
X144785714Y-113692914D01*
X144785714Y-113692914D02*
X144690476Y-113740533D01*
X127607142Y-111359580D02*
X127559523Y-111407200D01*
X127559523Y-111407200D02*
X127416666Y-111454819D01*
X127416666Y-111454819D02*
X127321428Y-111454819D01*
X127321428Y-111454819D02*
X127178571Y-111407200D01*
X127178571Y-111407200D02*
X127083333Y-111311961D01*
X127083333Y-111311961D02*
X127035714Y-111216723D01*
X127035714Y-111216723D02*
X126988095Y-111026247D01*
X126988095Y-111026247D02*
X126988095Y-110883390D01*
X126988095Y-110883390D02*
X127035714Y-110692914D01*
X127035714Y-110692914D02*
X127083333Y-110597676D01*
X127083333Y-110597676D02*
X127178571Y-110502438D01*
X127178571Y-110502438D02*
X127321428Y-110454819D01*
X127321428Y-110454819D02*
X127416666Y-110454819D01*
X127416666Y-110454819D02*
X127559523Y-110502438D01*
X127559523Y-110502438D02*
X127607142Y-110550057D01*
X127988095Y-110550057D02*
X128035714Y-110502438D01*
X128035714Y-110502438D02*
X128130952Y-110454819D01*
X128130952Y-110454819D02*
X128369047Y-110454819D01*
X128369047Y-110454819D02*
X128464285Y-110502438D01*
X128464285Y-110502438D02*
X128511904Y-110550057D01*
X128511904Y-110550057D02*
X128559523Y-110645295D01*
X128559523Y-110645295D02*
X128559523Y-110740533D01*
X128559523Y-110740533D02*
X128511904Y-110883390D01*
X128511904Y-110883390D02*
X127940476Y-111454819D01*
X127940476Y-111454819D02*
X128559523Y-111454819D01*
X129178571Y-110454819D02*
X129273809Y-110454819D01*
X129273809Y-110454819D02*
X129369047Y-110502438D01*
X129369047Y-110502438D02*
X129416666Y-110550057D01*
X129416666Y-110550057D02*
X129464285Y-110645295D01*
X129464285Y-110645295D02*
X129511904Y-110835771D01*
X129511904Y-110835771D02*
X129511904Y-111073866D01*
X129511904Y-111073866D02*
X129464285Y-111264342D01*
X129464285Y-111264342D02*
X129416666Y-111359580D01*
X129416666Y-111359580D02*
X129369047Y-111407200D01*
X129369047Y-111407200D02*
X129273809Y-111454819D01*
X129273809Y-111454819D02*
X129178571Y-111454819D01*
X129178571Y-111454819D02*
X129083333Y-111407200D01*
X129083333Y-111407200D02*
X129035714Y-111359580D01*
X129035714Y-111359580D02*
X128988095Y-111264342D01*
X128988095Y-111264342D02*
X128940476Y-111073866D01*
X128940476Y-111073866D02*
X128940476Y-110835771D01*
X128940476Y-110835771D02*
X128988095Y-110645295D01*
X128988095Y-110645295D02*
X129035714Y-110550057D01*
X129035714Y-110550057D02*
X129083333Y-110502438D01*
X129083333Y-110502438D02*
X129178571Y-110454819D01*
X137959580Y-104442857D02*
X138007200Y-104490476D01*
X138007200Y-104490476D02*
X138054819Y-104633333D01*
X138054819Y-104633333D02*
X138054819Y-104728571D01*
X138054819Y-104728571D02*
X138007200Y-104871428D01*
X138007200Y-104871428D02*
X137911961Y-104966666D01*
X137911961Y-104966666D02*
X137816723Y-105014285D01*
X137816723Y-105014285D02*
X137626247Y-105061904D01*
X137626247Y-105061904D02*
X137483390Y-105061904D01*
X137483390Y-105061904D02*
X137292914Y-105014285D01*
X137292914Y-105014285D02*
X137197676Y-104966666D01*
X137197676Y-104966666D02*
X137102438Y-104871428D01*
X137102438Y-104871428D02*
X137054819Y-104728571D01*
X137054819Y-104728571D02*
X137054819Y-104633333D01*
X137054819Y-104633333D02*
X137102438Y-104490476D01*
X137102438Y-104490476D02*
X137150057Y-104442857D01*
X138054819Y-103490476D02*
X138054819Y-104061904D01*
X138054819Y-103776190D02*
X137054819Y-103776190D01*
X137054819Y-103776190D02*
X137197676Y-103871428D01*
X137197676Y-103871428D02*
X137292914Y-103966666D01*
X137292914Y-103966666D02*
X137340533Y-104061904D01*
X137150057Y-103109523D02*
X137102438Y-103061904D01*
X137102438Y-103061904D02*
X137054819Y-102966666D01*
X137054819Y-102966666D02*
X137054819Y-102728571D01*
X137054819Y-102728571D02*
X137102438Y-102633333D01*
X137102438Y-102633333D02*
X137150057Y-102585714D01*
X137150057Y-102585714D02*
X137245295Y-102538095D01*
X137245295Y-102538095D02*
X137340533Y-102538095D01*
X137340533Y-102538095D02*
X137483390Y-102585714D01*
X137483390Y-102585714D02*
X138054819Y-103157142D01*
X138054819Y-103157142D02*
X138054819Y-102538095D01*
X150159580Y-107666666D02*
X150207200Y-107714285D01*
X150207200Y-107714285D02*
X150254819Y-107857142D01*
X150254819Y-107857142D02*
X150254819Y-107952380D01*
X150254819Y-107952380D02*
X150207200Y-108095237D01*
X150207200Y-108095237D02*
X150111961Y-108190475D01*
X150111961Y-108190475D02*
X150016723Y-108238094D01*
X150016723Y-108238094D02*
X149826247Y-108285713D01*
X149826247Y-108285713D02*
X149683390Y-108285713D01*
X149683390Y-108285713D02*
X149492914Y-108238094D01*
X149492914Y-108238094D02*
X149397676Y-108190475D01*
X149397676Y-108190475D02*
X149302438Y-108095237D01*
X149302438Y-108095237D02*
X149254819Y-107952380D01*
X149254819Y-107952380D02*
X149254819Y-107857142D01*
X149254819Y-107857142D02*
X149302438Y-107714285D01*
X149302438Y-107714285D02*
X149350057Y-107666666D01*
X149254819Y-106809523D02*
X149254819Y-106999999D01*
X149254819Y-106999999D02*
X149302438Y-107095237D01*
X149302438Y-107095237D02*
X149350057Y-107142856D01*
X149350057Y-107142856D02*
X149492914Y-107238094D01*
X149492914Y-107238094D02*
X149683390Y-107285713D01*
X149683390Y-107285713D02*
X150064342Y-107285713D01*
X150064342Y-107285713D02*
X150159580Y-107238094D01*
X150159580Y-107238094D02*
X150207200Y-107190475D01*
X150207200Y-107190475D02*
X150254819Y-107095237D01*
X150254819Y-107095237D02*
X150254819Y-106904761D01*
X150254819Y-106904761D02*
X150207200Y-106809523D01*
X150207200Y-106809523D02*
X150159580Y-106761904D01*
X150159580Y-106761904D02*
X150064342Y-106714285D01*
X150064342Y-106714285D02*
X149826247Y-106714285D01*
X149826247Y-106714285D02*
X149731009Y-106761904D01*
X149731009Y-106761904D02*
X149683390Y-106809523D01*
X149683390Y-106809523D02*
X149635771Y-106904761D01*
X149635771Y-106904761D02*
X149635771Y-107095237D01*
X149635771Y-107095237D02*
X149683390Y-107190475D01*
X149683390Y-107190475D02*
X149731009Y-107238094D01*
X149731009Y-107238094D02*
X149826247Y-107285713D01*
X145254819Y-107766666D02*
X144778628Y-108099999D01*
X145254819Y-108338094D02*
X144254819Y-108338094D01*
X144254819Y-108338094D02*
X144254819Y-107957142D01*
X144254819Y-107957142D02*
X144302438Y-107861904D01*
X144302438Y-107861904D02*
X144350057Y-107814285D01*
X144350057Y-107814285D02*
X144445295Y-107766666D01*
X144445295Y-107766666D02*
X144588152Y-107766666D01*
X144588152Y-107766666D02*
X144683390Y-107814285D01*
X144683390Y-107814285D02*
X144731009Y-107861904D01*
X144731009Y-107861904D02*
X144778628Y-107957142D01*
X144778628Y-107957142D02*
X144778628Y-108338094D01*
X145254819Y-106814285D02*
X145254819Y-107385713D01*
X145254819Y-107099999D02*
X144254819Y-107099999D01*
X144254819Y-107099999D02*
X144397676Y-107195237D01*
X144397676Y-107195237D02*
X144492914Y-107290475D01*
X144492914Y-107290475D02*
X144540533Y-107385713D01*
X134507142Y-100429580D02*
X134459523Y-100477200D01*
X134459523Y-100477200D02*
X134316666Y-100524819D01*
X134316666Y-100524819D02*
X134221428Y-100524819D01*
X134221428Y-100524819D02*
X134078571Y-100477200D01*
X134078571Y-100477200D02*
X133983333Y-100381961D01*
X133983333Y-100381961D02*
X133935714Y-100286723D01*
X133935714Y-100286723D02*
X133888095Y-100096247D01*
X133888095Y-100096247D02*
X133888095Y-99953390D01*
X133888095Y-99953390D02*
X133935714Y-99762914D01*
X133935714Y-99762914D02*
X133983333Y-99667676D01*
X133983333Y-99667676D02*
X134078571Y-99572438D01*
X134078571Y-99572438D02*
X134221428Y-99524819D01*
X134221428Y-99524819D02*
X134316666Y-99524819D01*
X134316666Y-99524819D02*
X134459523Y-99572438D01*
X134459523Y-99572438D02*
X134507142Y-99620057D01*
X134888095Y-99620057D02*
X134935714Y-99572438D01*
X134935714Y-99572438D02*
X135030952Y-99524819D01*
X135030952Y-99524819D02*
X135269047Y-99524819D01*
X135269047Y-99524819D02*
X135364285Y-99572438D01*
X135364285Y-99572438D02*
X135411904Y-99620057D01*
X135411904Y-99620057D02*
X135459523Y-99715295D01*
X135459523Y-99715295D02*
X135459523Y-99810533D01*
X135459523Y-99810533D02*
X135411904Y-99953390D01*
X135411904Y-99953390D02*
X134840476Y-100524819D01*
X134840476Y-100524819D02*
X135459523Y-100524819D01*
X135792857Y-99524819D02*
X136459523Y-99524819D01*
X136459523Y-99524819D02*
X136030952Y-100524819D01*
%TO.C,C24*%
D14*
X145392164Y-89390000D02*
X145607836Y-89390000D01*
X145392164Y-90110000D02*
X145607836Y-90110000D01*
%TO.C,R22*%
X162072742Y-94977500D02*
X162547258Y-94977500D01*
X162072742Y-96022500D02*
X162547258Y-96022500D01*
%TO.C,C5*%
X139890580Y-100990000D02*
X139609420Y-100990000D01*
X139890580Y-102010000D02*
X139609420Y-102010000D01*
%TO.C,C19*%
X134859420Y-108740000D02*
X135140580Y-108740000D01*
X134859420Y-109760000D02*
X135140580Y-109760000D01*
%TO.C,J2*%
X122620000Y-93920000D02*
X124000000Y-93920000D01*
X122620000Y-95300000D02*
X122620000Y-93920000D01*
X122620000Y-96570000D02*
X122620000Y-109380000D01*
X122620000Y-96570000D02*
X125380000Y-96570000D01*
X122620000Y-109380000D02*
X125380000Y-109380000D01*
X125380000Y-96570000D02*
X125380000Y-109380000D01*
%TO.C,R3*%
X130227500Y-109762742D02*
X130227500Y-110237258D01*
X131272500Y-109762742D02*
X131272500Y-110237258D01*
%TO.C,R11*%
X131977500Y-110237258D02*
X131977500Y-109762742D01*
X133022500Y-110237258D02*
X133022500Y-109762742D01*
%TO.C,R24*%
X162072742Y-99977500D02*
X162547258Y-99977500D01*
X162072742Y-101022500D02*
X162547258Y-101022500D01*
%TO.C,D2*%
X158015000Y-115200000D02*
X158015000Y-117485000D01*
X158015000Y-117485000D02*
X159485000Y-117485000D01*
X159485000Y-117485000D02*
X159485000Y-115200000D01*
%TO.C,C18*%
X139609420Y-104490000D02*
X139890580Y-104490000D01*
X139609420Y-105510000D02*
X139890580Y-105510000D01*
%TO.C,R4*%
X152727500Y-98237258D02*
X152727500Y-97762742D01*
X153772500Y-98237258D02*
X153772500Y-97762742D01*
%TO.C,C13*%
X151740000Y-109859420D02*
X151740000Y-110140580D01*
X152760000Y-109859420D02*
X152760000Y-110140580D01*
%TO.C,R7*%
X158227500Y-112512742D02*
X158227500Y-112987258D01*
X159272500Y-112512742D02*
X159272500Y-112987258D01*
%TO.C,U2*%
D15*
X142500000Y-101000000D02*
X142500000Y-101545000D01*
X142500000Y-101000000D02*
X143045000Y-101000000D01*
X142500000Y-106000000D02*
X142500000Y-105455000D01*
X142500000Y-106000000D02*
X143045000Y-106000000D01*
X147500000Y-101000000D02*
X146955000Y-101000000D01*
X147500000Y-101000000D02*
X147500000Y-101545000D01*
X147500000Y-106000000D02*
X146955000Y-106000000D01*
X147500000Y-106000000D02*
X147500000Y-105455000D01*
D12*
X141550000Y-102000000D02*
G75*
G02*
X141350000Y-102000000I-100000J0D01*
G01*
X141350000Y-102000000D02*
G75*
G02*
X141550000Y-102000000I100000J0D01*
G01*
%TO.C,C14*%
D14*
X150240000Y-98140580D02*
X150240000Y-97859420D01*
X151260000Y-98140580D02*
X151260000Y-97859420D01*
%TO.C,R5*%
X133227500Y-116237258D02*
X133227500Y-115762742D01*
X134272500Y-116237258D02*
X134272500Y-115762742D01*
%TO.C,R17*%
X147012742Y-112227500D02*
X147487258Y-112227500D01*
X147012742Y-113272500D02*
X147487258Y-113272500D01*
%TO.C,C17*%
X142490000Y-109859420D02*
X142490000Y-110140580D01*
X143510000Y-109859420D02*
X143510000Y-110140580D01*
%TO.C,C11*%
X152490000Y-103109420D02*
X152490000Y-103390580D01*
X153510000Y-103109420D02*
X153510000Y-103390580D01*
%TO.C,R16*%
X128487258Y-95187500D02*
X128012742Y-95187500D01*
X128487258Y-96232500D02*
X128012742Y-96232500D01*
%TO.C,C28*%
X128109420Y-100990000D02*
X128390580Y-100990000D01*
X128109420Y-102010000D02*
X128390580Y-102010000D01*
%TO.C,D1*%
X131015000Y-115200000D02*
X131015000Y-117485000D01*
X131015000Y-117485000D02*
X132485000Y-117485000D01*
X132485000Y-117485000D02*
X132485000Y-115200000D01*
%TO.C,U4*%
X133940000Y-105340000D02*
X133990000Y-105340000D01*
X133940000Y-107160000D02*
X133940000Y-105340000D01*
X133990000Y-107160000D02*
X133940000Y-107160000D01*
X135110000Y-105340000D02*
X135890000Y-105340000D01*
X137010000Y-105340000D02*
X137060000Y-105340000D01*
X137060000Y-105340000D02*
X137060000Y-107160000D01*
X137060000Y-107160000D02*
X137010000Y-107160000D01*
X133990000Y-107700000D02*
X133660000Y-107940000D01*
X133660000Y-107460000D01*
X133990000Y-107700000D01*
G36*
X133990000Y-107700000D02*
G01*
X133660000Y-107940000D01*
X133660000Y-107460000D01*
X133990000Y-107700000D01*
G37*
%TO.C,J1*%
X137270000Y-117380000D02*
X137270000Y-116000000D01*
X138650000Y-117380000D02*
X137270000Y-117380000D01*
X139920000Y-114620000D02*
X152730000Y-114620000D01*
X139920000Y-117380000D02*
X139920000Y-114620000D01*
X139920000Y-117380000D02*
X152730000Y-117380000D01*
X152730000Y-117380000D02*
X152730000Y-114620000D01*
%TO.C,U1*%
D10*
X153875000Y-106250000D02*
X157125000Y-106250000D01*
X157125000Y-110250000D01*
X153875000Y-110250000D01*
X153875000Y-106250000D01*
D16*
X157678077Y-109800000D02*
G75*
G02*
X157421923Y-109800000I-128077J0D01*
G01*
X157421923Y-109800000D02*
G75*
G02*
X157678077Y-109800000I128077J0D01*
G01*
%TO.C,R14*%
D14*
X128487258Y-98677500D02*
X128012742Y-98677500D01*
X128487258Y-99722500D02*
X128012742Y-99722500D01*
%TO.C,R21*%
X162072742Y-97477500D02*
X162547258Y-97477500D01*
X162072742Y-98522500D02*
X162547258Y-98522500D01*
%TO.C,C22*%
X145990000Y-98140580D02*
X145990000Y-97859420D01*
X147010000Y-98140580D02*
X147010000Y-97859420D01*
%TO.C,R20*%
X128487258Y-91677500D02*
X128012742Y-91677500D01*
X128487258Y-92722500D02*
X128012742Y-92722500D01*
%TO.C,C8*%
X155359420Y-110990000D02*
X155640580Y-110990000D01*
X155359420Y-112010000D02*
X155640580Y-112010000D01*
%TO.C,C15*%
X143490000Y-96359420D02*
X143490000Y-96640580D01*
X144510000Y-96359420D02*
X144510000Y-96640580D01*
%TO.C,R18*%
X128487258Y-96927500D02*
X128012742Y-96927500D01*
X128487258Y-97972500D02*
X128012742Y-97972500D01*
%TO.C,C26*%
X128109420Y-102740000D02*
X128390580Y-102740000D01*
X128109420Y-103760000D02*
X128390580Y-103760000D01*
%TO.C,C16*%
X152140580Y-106490000D02*
X151859420Y-106490000D01*
X152140580Y-107510000D02*
X151859420Y-107510000D01*
%TO.C,R19*%
X162072742Y-104977500D02*
X162547258Y-104977500D01*
X162072742Y-106022500D02*
X162547258Y-106022500D01*
%TO.C,C4*%
X150740000Y-103109420D02*
X150740000Y-103390580D01*
X151760000Y-103109420D02*
X151760000Y-103390580D01*
%TO.C,R23*%
X162072742Y-102477500D02*
X162547258Y-102477500D01*
X162072742Y-103522500D02*
X162547258Y-103522500D01*
%TO.C,C1*%
X155359420Y-112740000D02*
X155640580Y-112740000D01*
X155359420Y-113760000D02*
X155640580Y-113760000D01*
%TO.C,U3*%
X127190000Y-105340000D02*
X127240000Y-105340000D01*
X127190000Y-107160000D02*
X127190000Y-105340000D01*
X127240000Y-107160000D02*
X127190000Y-107160000D01*
X128360000Y-105340000D02*
X129140000Y-105340000D01*
X130260000Y-105340000D02*
X130310000Y-105340000D01*
X130310000Y-105340000D02*
X130310000Y-107160000D01*
X130310000Y-107160000D02*
X130260000Y-107160000D01*
X127240000Y-107700000D02*
X126910000Y-107940000D01*
X126910000Y-107460000D01*
X127240000Y-107700000D01*
G36*
X127240000Y-107700000D02*
G01*
X126910000Y-107940000D01*
X126910000Y-107460000D01*
X127240000Y-107700000D01*
G37*
%TO.C,R15*%
X128487258Y-93427500D02*
X128012742Y-93427500D01*
X128487258Y-94472500D02*
X128012742Y-94472500D01*
%TO.C,C3*%
X145990000Y-109859420D02*
X145990000Y-110140580D01*
X147010000Y-109859420D02*
X147010000Y-110140580D01*
%TO.C,C9*%
X140740000Y-109859420D02*
X140740000Y-110140580D01*
X141760000Y-109859420D02*
X141760000Y-110140580D01*
%TO.C,R13*%
X153977500Y-115762742D02*
X153977500Y-116237258D01*
X155022500Y-115762742D02*
X155022500Y-116237258D01*
%TO.C,C2*%
X138990000Y-109859420D02*
X138990000Y-110140580D01*
X140010000Y-109859420D02*
X140010000Y-110140580D01*
%TO.C,R12*%
X150737258Y-112227500D02*
X150262742Y-112227500D01*
X150737258Y-113272500D02*
X150262742Y-113272500D01*
%TO.C,C23*%
X145392164Y-92390000D02*
X145607836Y-92390000D01*
X145392164Y-93110000D02*
X145607836Y-93110000D01*
%TO.C,C10*%
X147740000Y-109859420D02*
X147740000Y-110140580D01*
X148760000Y-109859420D02*
X148760000Y-110140580D01*
%TO.C,R9*%
X160227500Y-112512742D02*
X160227500Y-112987258D01*
X161272500Y-112512742D02*
X161272500Y-112987258D01*
%TO.C,AE2*%
D10*
X136000000Y-66200000D02*
X136000000Y-84200000D01*
X136000000Y-66200000D02*
X152000000Y-66200000D01*
X154000000Y-68200000D02*
X152000000Y-66200000D01*
X154000000Y-84200000D02*
X136000000Y-84200000D01*
X154000000Y-84200000D02*
X154000000Y-68200000D01*
X154000000Y-84200000D02*
X154000000Y-68250000D01*
%TO.C,D3*%
D14*
X160015000Y-115200000D02*
X160015000Y-117485000D01*
X160015000Y-117485000D02*
X161485000Y-117485000D01*
X161485000Y-117485000D02*
X161485000Y-115200000D01*
%TO.C,J3*%
X164620000Y-93920000D02*
X166000000Y-93920000D01*
X164620000Y-95300000D02*
X164620000Y-93920000D01*
X164620000Y-96570000D02*
X164620000Y-109380000D01*
X164620000Y-96570000D02*
X167380000Y-96570000D01*
X164620000Y-109380000D02*
X167380000Y-109380000D01*
X167380000Y-96570000D02*
X167380000Y-109380000D01*
%TO.C,C25*%
X134859420Y-102740000D02*
X135140580Y-102740000D01*
X134859420Y-103760000D02*
X135140580Y-103760000D01*
%TO.C,R25*%
X155727500Y-115762742D02*
X155727500Y-116237258D01*
X156772500Y-115762742D02*
X156772500Y-116237258D01*
%TO.C,R2*%
X136977500Y-109762742D02*
X136977500Y-110237258D01*
X138022500Y-109762742D02*
X138022500Y-110237258D01*
%TO.C,C7*%
X148490000Y-98140580D02*
X148490000Y-97859420D01*
X149510000Y-98140580D02*
X149510000Y-97859420D01*
%TO.C,C21*%
X144140580Y-112240000D02*
X143859420Y-112240000D01*
X144140580Y-113260000D02*
X143859420Y-113260000D01*
%TO.C,C20*%
X128109420Y-108740000D02*
X128390580Y-108740000D01*
X128109420Y-109760000D02*
X128390580Y-109760000D01*
%TO.C,C12*%
X139890580Y-102740000D02*
X139609420Y-102740000D01*
X139890580Y-103760000D02*
X139609420Y-103760000D01*
%TO.C,C6*%
X149990000Y-109859420D02*
X149990000Y-110140580D01*
X151010000Y-109859420D02*
X151010000Y-110140580D01*
%TO.C,R1*%
X144237500Y-110237258D02*
X144237500Y-109762742D01*
X145282500Y-110237258D02*
X145282500Y-109762742D01*
%TO.C,C27*%
X134859420Y-100990000D02*
X135140580Y-100990000D01*
X134859420Y-102010000D02*
X135140580Y-102010000D01*
%TD*%
%LPC*%
D17*
G36*
X124000000Y-113300000D02*
G01*
X124000000Y-113300000D01*
G75*
G02*
X126700000Y-116000000I0J-2700000D01*
G01*
X126700000Y-120000000D01*
X124000000Y-120000000D01*
G75*
G02*
X120000000Y-116000000I0J4000000D01*
G01*
X120000000Y-113300000D01*
X124000000Y-113300000D01*
G37*
G36*
X126700000Y-54000000D02*
G01*
X126700000Y-54000000D01*
G75*
G02*
X124000000Y-56700000I-2700000J0D01*
G01*
X120000000Y-56700000D01*
X120000000Y-54000000D01*
G75*
G02*
X124000000Y-50000000I4000000J0D01*
G01*
X126700000Y-50000000D01*
X126700000Y-54000000D01*
G37*
G36*
X170000000Y-116000000D02*
G01*
X170000000Y-116000000D01*
G75*
G02*
X166000000Y-120000000I-4000000J0D01*
G01*
X163300000Y-120000000D01*
X163300000Y-116000000D01*
G75*
G02*
X166000000Y-113300000I2700000J0D01*
G01*
X170000000Y-113300000D01*
X170000000Y-116000000D01*
G37*
G36*
X166000000Y-50000000D02*
G01*
X166000000Y-50000000D01*
G75*
G02*
X170000000Y-54000000I0J-4000000D01*
G01*
X170000000Y-56700000D01*
X166000000Y-56700000D01*
G75*
G02*
X163300000Y-54000000I0J2700000D01*
G01*
X163300000Y-50000000D01*
X166000000Y-50000000D01*
G37*
D18*
X120500000Y-54000000D02*
X120500000Y-54000000D01*
G75*
G02*
X124000000Y-50500000I3500000J0D01*
G01*
X166000000Y-50500000D01*
G75*
G02*
X169500000Y-54000000I0J-3500000D01*
G01*
X169500000Y-116000000D01*
G75*
G02*
X166000000Y-119500000I-3500000J0D01*
G01*
X124000000Y-119500000D01*
G75*
G02*
X120500000Y-116000000I0J3500000D01*
G01*
X120500000Y-54000000D01*
D19*
%TO.C,C24*%
X145020000Y-89750000D03*
X145980000Y-89750000D03*
%TD*%
D20*
%TO.C,R22*%
X161485000Y-95500000D03*
X163135000Y-95500000D03*
%TD*%
D21*
%TO.C,C5*%
X140525000Y-101500000D03*
X138975000Y-101500000D03*
%TD*%
D22*
%TO.C,C19*%
X134225000Y-109250000D03*
X135775000Y-109250000D03*
%TD*%
D23*
%TO.C,J2*%
X124000000Y-95300000D03*
D24*
X124000000Y-97840000D03*
X124000000Y-100380000D03*
X124000000Y-102920000D03*
X124000000Y-105460000D03*
X124000000Y-108000000D03*
%TD*%
D25*
%TO.C,R3*%
X130750000Y-109175000D03*
X130750000Y-110825000D03*
%TD*%
D26*
%TO.C,R11*%
X132500000Y-110825000D03*
X132500000Y-109175000D03*
%TD*%
D20*
%TO.C,R24*%
X161485000Y-100500000D03*
X163135000Y-100500000D03*
%TD*%
D27*
%TO.C,D2*%
X158750000Y-116787500D03*
X158750000Y-115212500D03*
%TD*%
D22*
%TO.C,C18*%
X138975000Y-105000000D03*
X140525000Y-105000000D03*
%TD*%
D26*
%TO.C,R4*%
X153250000Y-98825000D03*
X153250000Y-97175000D03*
%TD*%
D28*
%TO.C,C13*%
X152250000Y-109225000D03*
X152250000Y-110775000D03*
%TD*%
D25*
%TO.C,R7*%
X158750000Y-111925000D03*
X158750000Y-113575000D03*
%TD*%
D29*
%TO.C,U2*%
X142640000Y-102000000D03*
X142640000Y-102500000D03*
X142640000Y-103000000D03*
X142640000Y-103500000D03*
X142640000Y-104000000D03*
X142640000Y-104500000D03*
X142640000Y-105000000D03*
D30*
X143500000Y-105860000D03*
X144000000Y-105860000D03*
X144500000Y-105860000D03*
X145000000Y-105860000D03*
X145500000Y-105860000D03*
X146000000Y-105860000D03*
X146500000Y-105860000D03*
D29*
X147360000Y-105000000D03*
X147360000Y-104500000D03*
X147360000Y-104000000D03*
X147360000Y-103500000D03*
X147360000Y-103000000D03*
X147360000Y-102500000D03*
X147360000Y-102000000D03*
D30*
X146500000Y-101140000D03*
X146000000Y-101140000D03*
X145500000Y-101140000D03*
X145000000Y-101140000D03*
X144500000Y-101140000D03*
X144000000Y-101140000D03*
X143500000Y-101140000D03*
D31*
X145000000Y-103500000D03*
%TD*%
D32*
%TO.C,C14*%
X150750000Y-98775000D03*
X150750000Y-97225000D03*
%TD*%
D26*
%TO.C,R5*%
X133750000Y-116825000D03*
X133750000Y-115175000D03*
%TD*%
D20*
%TO.C,R17*%
X146425000Y-112750000D03*
X148075000Y-112750000D03*
%TD*%
D33*
%TO.C,L1*%
X145000000Y-91735000D03*
X145000000Y-90765000D03*
%TD*%
D28*
%TO.C,C17*%
X143000000Y-109225000D03*
X143000000Y-110775000D03*
%TD*%
D34*
%TO.C,H4*%
X163975000Y-116000000D03*
X164568109Y-114568109D03*
X164568109Y-117431891D03*
X166000000Y-113975000D03*
D35*
X166000000Y-116000000D03*
D34*
X166000000Y-118025000D03*
X167431891Y-114568109D03*
X167431891Y-117431891D03*
X168025000Y-116000000D03*
%TD*%
D28*
%TO.C,C11*%
X153000000Y-102475000D03*
X153000000Y-104025000D03*
%TD*%
D36*
%TO.C,R16*%
X129075000Y-95710000D03*
X127425000Y-95710000D03*
%TD*%
D22*
%TO.C,C28*%
X127475000Y-101500000D03*
X129025000Y-101500000D03*
%TD*%
D27*
%TO.C,D1*%
X131750000Y-116787500D03*
X131750000Y-115212500D03*
%TD*%
D37*
%TO.C,U4*%
X134550000Y-107387500D03*
X135500000Y-107387500D03*
X136450000Y-107387500D03*
X136450000Y-105112500D03*
X134550000Y-105112500D03*
%TD*%
D23*
%TO.C,J1*%
X138650000Y-116000000D03*
D24*
X141190000Y-116000000D03*
X143730000Y-116000000D03*
X146270000Y-116000000D03*
X148810000Y-116000000D03*
X151350000Y-116000000D03*
%TD*%
D38*
%TO.C,U1*%
X156385000Y-109490000D03*
X156385000Y-107010000D03*
X154615000Y-107010000D03*
X154615000Y-109490000D03*
%TD*%
D36*
%TO.C,R14*%
X129075000Y-99200000D03*
X127425000Y-99200000D03*
%TD*%
D20*
%TO.C,R21*%
X161485000Y-98000000D03*
X163135000Y-98000000D03*
%TD*%
D34*
%TO.C,H1*%
X121975000Y-54000000D03*
X122568109Y-52568109D03*
X122568109Y-55431891D03*
X124000000Y-51975000D03*
D35*
X124000000Y-54000000D03*
D34*
X124000000Y-56025000D03*
X125431891Y-52568109D03*
X125431891Y-55431891D03*
X126025000Y-54000000D03*
%TD*%
D32*
%TO.C,C22*%
X146500000Y-98775000D03*
X146500000Y-97225000D03*
%TD*%
D36*
%TO.C,R20*%
X129075000Y-92200000D03*
X127425000Y-92200000D03*
%TD*%
D22*
%TO.C,C8*%
X154725000Y-111500000D03*
X156275000Y-111500000D03*
%TD*%
D28*
%TO.C,C15*%
X144000000Y-95725000D03*
X144000000Y-97275000D03*
%TD*%
D36*
%TO.C,R18*%
X129075000Y-97450000D03*
X127425000Y-97450000D03*
%TD*%
D22*
%TO.C,C26*%
X127475000Y-103250000D03*
X129025000Y-103250000D03*
%TD*%
D21*
%TO.C,C16*%
X152775000Y-107000000D03*
X151225000Y-107000000D03*
%TD*%
D20*
%TO.C,R19*%
X161485000Y-105500000D03*
X163135000Y-105500000D03*
%TD*%
D28*
%TO.C,C4*%
X151250000Y-102475000D03*
X151250000Y-104025000D03*
%TD*%
D20*
%TO.C,R23*%
X161485000Y-103000000D03*
X163135000Y-103000000D03*
%TD*%
D22*
%TO.C,C1*%
X154725000Y-113250000D03*
X156275000Y-113250000D03*
%TD*%
D34*
%TO.C,H3*%
X121975000Y-116000000D03*
X122568109Y-114568109D03*
X122568109Y-117431891D03*
X124000000Y-113975000D03*
D35*
X124000000Y-116000000D03*
D34*
X124000000Y-118025000D03*
X125431891Y-114568109D03*
X125431891Y-117431891D03*
X126025000Y-116000000D03*
%TD*%
D37*
%TO.C,U3*%
X127800000Y-107387500D03*
X128750000Y-107387500D03*
X129700000Y-107387500D03*
X129700000Y-105112500D03*
X127800000Y-105112500D03*
%TD*%
D36*
%TO.C,R15*%
X129075000Y-93950000D03*
X127425000Y-93950000D03*
%TD*%
D28*
%TO.C,C3*%
X146500000Y-109225000D03*
X146500000Y-110775000D03*
%TD*%
%TO.C,C9*%
X141250000Y-109225000D03*
X141250000Y-110775000D03*
%TD*%
D25*
%TO.C,R13*%
X154500000Y-115175000D03*
X154500000Y-116825000D03*
%TD*%
D34*
%TO.C,H2*%
X163975000Y-54000000D03*
X164568109Y-52568109D03*
X164568109Y-55431891D03*
X166000000Y-51975000D03*
D35*
X166000000Y-54000000D03*
D34*
X166000000Y-56025000D03*
X167431891Y-52568109D03*
X167431891Y-55431891D03*
X168025000Y-54000000D03*
%TD*%
D28*
%TO.C,C2*%
X139500000Y-109225000D03*
X139500000Y-110775000D03*
%TD*%
D36*
%TO.C,R12*%
X151325000Y-112750000D03*
X149675000Y-112750000D03*
%TD*%
D19*
%TO.C,C23*%
X145020000Y-92750000D03*
X145980000Y-92750000D03*
%TD*%
D28*
%TO.C,C10*%
X148250000Y-109225000D03*
X148250000Y-110775000D03*
%TD*%
D25*
%TO.C,R9*%
X160750000Y-111925000D03*
X160750000Y-113575000D03*
%TD*%
D39*
%TO.C,AE2*%
X145000000Y-77000000D03*
%TD*%
D27*
%TO.C,D3*%
X160750000Y-116787500D03*
X160750000Y-115212500D03*
%TD*%
D23*
%TO.C,J3*%
X166000000Y-95300000D03*
D24*
X166000000Y-97840000D03*
X166000000Y-100380000D03*
X166000000Y-102920000D03*
X166000000Y-105460000D03*
X166000000Y-108000000D03*
%TD*%
D22*
%TO.C,C25*%
X134225000Y-103250000D03*
X135775000Y-103250000D03*
%TD*%
D25*
%TO.C,R25*%
X156250000Y-115175000D03*
X156250000Y-116825000D03*
%TD*%
%TO.C,R2*%
X137500000Y-109175000D03*
X137500000Y-110825000D03*
%TD*%
D32*
%TO.C,C7*%
X149000000Y-98775000D03*
X149000000Y-97225000D03*
%TD*%
D21*
%TO.C,C21*%
X144775000Y-112750000D03*
X143225000Y-112750000D03*
%TD*%
D22*
%TO.C,C20*%
X127475000Y-109250000D03*
X129025000Y-109250000D03*
%TD*%
D21*
%TO.C,C12*%
X140525000Y-103250000D03*
X138975000Y-103250000D03*
%TD*%
D28*
%TO.C,C6*%
X150500000Y-109225000D03*
X150500000Y-110775000D03*
%TD*%
D26*
%TO.C,R1*%
X144760000Y-110825000D03*
X144760000Y-109175000D03*
%TD*%
D22*
%TO.C,C27*%
X134225000Y-101500000D03*
X135775000Y-101500000D03*
%TD*%
%LPD*%
M02*
