%TF.GenerationSoftware,KiCad,Pcbnew,10.0.5*%
%TF.CreationDate,2026-07-30T15:09:33-04:00*%
%TF.ProjectId,MAX2769_Dev_00-A,4d415832-3736-4395-9f44-65765f30302d,rev?*%
%TF.SameCoordinates,Original*%
%TF.FileFunction,Copper,L4,Bot*%
%TF.FilePolarity,Positive*%
%FSLAX46Y46*%
G04 Gerber Fmt 4.6, Leading zero omitted, Abs format (unit mm)*
G04 Created by KiCad (PCBNEW 10.0.5) date 2026-07-30 15:09:33*
%MOMM*%
%LPD*%
G01*
G04 APERTURE LIST*
%TA.AperFunction,ComponentPad*%
%ADD10R,1.700000X1.700000*%
%TD*%
%TA.AperFunction,ComponentPad*%
%ADD11C,1.700000*%
%TD*%
%TA.AperFunction,ComponentPad*%
%ADD12C,0.800000*%
%TD*%
%TA.AperFunction,ComponentPad*%
%ADD13C,5.400000*%
%TD*%
%TA.AperFunction,ComponentPad*%
%ADD14C,2.500000*%
%TD*%
%TA.AperFunction,ViaPad*%
%ADD15C,0.600000*%
%TD*%
%TA.AperFunction,Conductor*%
%ADD16C,0.348700*%
%TD*%
%TA.AperFunction,Conductor*%
%ADD17C,0.200000*%
%TD*%
G04 APERTURE END LIST*
D10*
%TO.P,J2,1,Pin_1_1*%
%TO.N,RF_PLL_LD*%
X124000000Y-95300000D03*
D11*
%TO.P,J2,2,Pin_2_2*%
%TO.N,Net-(J2-Pin_2)*%
X124000000Y-97840000D03*
%TO.P,J2,3,Pin_3_3*%
%TO.N,Net-(J2-Pin_3)*%
X124000000Y-100380000D03*
%TO.P,J2,4,Pin_4_4*%
%TO.N,Net-(J2-Pin_4)*%
X124000000Y-102920000D03*
%TO.P,J2,5,Pin_5_5*%
%TO.N,GND*%
X124000000Y-105460000D03*
%TO.P,J2,6,Pin_6_6*%
X124000000Y-108000000D03*
%TD*%
D12*
%TO.P,H4,1,1_1*%
%TO.N,GND*%
X163975000Y-116000000D03*
X164568109Y-114568109D03*
X164568109Y-117431891D03*
X166000000Y-113975000D03*
D13*
X166000000Y-116000000D03*
D12*
X166000000Y-118025000D03*
X167431891Y-114568109D03*
X167431891Y-117431891D03*
X168025000Y-116000000D03*
%TD*%
D10*
%TO.P,J1,1,Pin_1_1*%
%TO.N,VCC*%
X138650000Y-116000000D03*
D11*
%TO.P,J1,2,Pin_2_2*%
%TO.N,GND*%
X141190000Y-116000000D03*
%TO.P,J1,3,Pin_3_3*%
X143730000Y-116000000D03*
%TO.P,J1,4,Pin_4_4*%
%TO.N,/REG_nSHDN*%
X146270000Y-116000000D03*
%TO.P,J1,5,Pin_5_5*%
%TO.N,Net-(J1-Pin_5)*%
X148810000Y-116000000D03*
%TO.P,J1,6,Pin_6_6*%
%TO.N,Net-(J1-Pin_6)*%
X151350000Y-116000000D03*
%TD*%
D12*
%TO.P,H1,1,1_1*%
%TO.N,GND*%
X121975000Y-54000000D03*
X122568109Y-52568109D03*
X122568109Y-55431891D03*
X124000000Y-51975000D03*
D13*
X124000000Y-54000000D03*
D12*
X124000000Y-56025000D03*
X125431891Y-52568109D03*
X125431891Y-55431891D03*
X126025000Y-54000000D03*
%TD*%
%TO.P,H3,1,1_1*%
%TO.N,GND*%
X121975000Y-116000000D03*
X122568109Y-114568109D03*
X122568109Y-117431891D03*
X124000000Y-113975000D03*
D13*
X124000000Y-116000000D03*
D12*
X124000000Y-118025000D03*
X125431891Y-114568109D03*
X125431891Y-117431891D03*
X126025000Y-116000000D03*
%TD*%
%TO.P,H2,1,1_1*%
%TO.N,GND*%
X163975000Y-54000000D03*
X164568109Y-52568109D03*
X164568109Y-55431891D03*
X166000000Y-51975000D03*
D13*
X166000000Y-54000000D03*
D12*
X166000000Y-56025000D03*
X167431891Y-52568109D03*
X167431891Y-55431891D03*
X168025000Y-54000000D03*
%TD*%
D14*
%TO.P,AE2,1,A_1*%
%TO.N,Net-(AE2-A)*%
X145000000Y-77000000D03*
%TD*%
D10*
%TO.P,J3,1,Pin_1_1*%
%TO.N,RF_I1*%
X166000000Y-95300000D03*
D11*
%TO.P,J3,2,Pin_2_2*%
%TO.N,RF_I0*%
X166000000Y-97840000D03*
%TO.P,J3,3,Pin_3_3*%
%TO.N,RF_Q1*%
X166000000Y-100380000D03*
%TO.P,J3,4,Pin_4_4*%
%TO.N,RF_Q0*%
X166000000Y-102920000D03*
%TO.P,J3,5,Pin_5_5*%
%TO.N,RF_CLKOUT*%
X166000000Y-105460000D03*
%TO.P,J3,6,Pin_6_6*%
%TO.N,GND*%
X166000000Y-108000000D03*
%TD*%
D15*
%TO.N,Net-(AE2-A)*%
X145000000Y-88250000D03*
%TO.N,GND*%
X145000000Y-60000000D03*
X155000000Y-60000000D03*
X125000000Y-70000000D03*
X146000000Y-87000000D03*
X140000000Y-95000000D03*
X146000000Y-88000000D03*
X143000000Y-98500000D03*
X155000000Y-80000000D03*
X144000000Y-84000000D03*
X146000000Y-84000000D03*
X155000000Y-90000000D03*
X138250000Y-101500000D03*
X144250000Y-102750000D03*
X135000000Y-70000000D03*
X139500000Y-111500000D03*
X146000000Y-82000000D03*
X165000000Y-60000000D03*
X165000000Y-90000000D03*
X129930000Y-101500000D03*
X146000000Y-80000000D03*
X146000000Y-79000000D03*
X143000000Y-99500000D03*
X142600000Y-97000000D03*
X141250000Y-111500000D03*
X125000000Y-80000000D03*
X150000000Y-95000000D03*
X146000000Y-86000000D03*
X125000000Y-90000000D03*
X150500000Y-111500000D03*
X146250000Y-91750000D03*
X160000000Y-75000000D03*
X144000000Y-82000000D03*
X160000000Y-65000000D03*
X146750000Y-89750000D03*
X165000000Y-70000000D03*
X143000000Y-94500000D03*
X146500000Y-111500000D03*
X152250000Y-111500000D03*
X140000000Y-55000000D03*
X157000000Y-111500000D03*
X143750000Y-91750000D03*
X157000000Y-113250000D03*
X153000000Y-104750000D03*
X150000000Y-55000000D03*
X130000000Y-75000000D03*
X155000000Y-99750000D03*
X144000000Y-86000000D03*
X143800000Y-92600000D03*
X145750000Y-102750000D03*
X150000000Y-65000000D03*
X160750000Y-117500000D03*
X144000000Y-79000000D03*
X129930000Y-103250000D03*
X158750000Y-117500000D03*
X146750000Y-92750000D03*
X151250000Y-104750000D03*
X129000000Y-110000000D03*
X157240000Y-107010000D03*
X144000000Y-80000000D03*
X143500000Y-93500000D03*
X144000000Y-85000000D03*
X131750000Y-117500000D03*
X148250000Y-97250000D03*
X144000000Y-88000000D03*
X148250000Y-111500000D03*
X142600000Y-95800000D03*
X140000000Y-65000000D03*
X135000000Y-80000000D03*
X144000000Y-81000000D03*
X132000000Y-106250000D03*
X144000000Y-87000000D03*
X160000000Y-85000000D03*
X144250000Y-104250000D03*
X130000000Y-55000000D03*
X146000000Y-81000000D03*
X135000000Y-90000000D03*
X135750000Y-110000000D03*
X130000000Y-65000000D03*
X145750000Y-94000000D03*
X144000000Y-83000000D03*
X125000000Y-60000000D03*
X138250000Y-103250000D03*
X155000000Y-70000000D03*
X165000000Y-80000000D03*
X146000000Y-85000000D03*
X146250000Y-90750000D03*
X140000000Y-85000000D03*
X160000000Y-55000000D03*
X147250000Y-97250000D03*
X151500000Y-97250000D03*
X135000000Y-60000000D03*
X144000000Y-89500000D03*
X145200000Y-96600000D03*
X136750000Y-103250000D03*
X136750000Y-101500000D03*
X142500000Y-112500000D03*
X142500000Y-111500000D03*
X130000000Y-85000000D03*
X145750000Y-104250000D03*
X145250000Y-95000000D03*
X146000000Y-83000000D03*
X143750000Y-90750000D03*
X150000000Y-85000000D03*
%TO.N,VCC_A*%
X134500000Y-100500000D03*
X140000000Y-100750000D03*
X139500000Y-108500000D03*
X148975000Y-109225000D03*
X158750000Y-111250000D03*
X151500000Y-98750000D03*
X152975000Y-109225000D03*
%TO.N,VCC*%
X127500000Y-110000000D03*
X133750000Y-117500000D03*
X134250000Y-110000000D03*
X131000000Y-112000000D03*
X137500000Y-112000000D03*
%TO.N,/REG_nSHDN*%
X132500000Y-108500000D03*
X137750000Y-108500000D03*
%TO.N,Net-(U2-Q1)*%
X160560000Y-100500000D03*
X150250000Y-103250000D03*
%TO.N,/RF_PG*%
X145250000Y-98750000D03*
X154050000Y-98850000D03*
%TO.N,Net-(U2-LD)*%
X129750000Y-92200000D03*
X141500000Y-105750000D03*
%TO.N,RF_nSHDN*%
X142750000Y-105500000D03*
X157000000Y-115250000D03*
%TO.N,RF_DATA*%
X129750000Y-93950000D03*
X142500000Y-106500000D03*
%TO.N,RF_CLK*%
X142000000Y-107150000D03*
X129750000Y-95700000D03*
%TO.N,RF_nCS*%
X129750000Y-97450000D03*
X141250000Y-107750000D03*
%TO.N,Net-(U2-Q0)*%
X160560000Y-103000000D03*
X149287500Y-103287500D03*
%TO.N,VCC_D*%
X160750000Y-111250000D03*
X154000000Y-113250000D03*
X153750000Y-102500000D03*
X153750000Y-115250000D03*
X127500000Y-100750000D03*
X152000000Y-112750000D03*
%TO.N,RF_nIDLE*%
X146425000Y-113500000D03*
X147750000Y-98750000D03*
%TD*%
%TO.N,Net-(AE2-A)*%
D16*
X145000000Y-77000000D02*
X145000000Y-88250000D01*
%TO.N,/REG_nSHDN*%
D17*
X137750000Y-111250000D02*
X137750000Y-108500000D01*
X137750000Y-108500000D02*
X132500000Y-108500000D01*
X139750000Y-113250000D02*
X137750000Y-111250000D01*
X146270000Y-116000000D02*
X143520000Y-113250000D01*
X143520000Y-113250000D02*
X139750000Y-113250000D01*
%TO.N,Net-(U2-Q1)*%
X153000000Y-100500000D02*
X160560000Y-100500000D01*
X150250000Y-103250000D02*
X152250000Y-101250000D01*
X152250000Y-101250000D02*
X153000000Y-100500000D01*
%TO.N,/RF_PG*%
X153250000Y-98000000D02*
X146000000Y-98000000D01*
X146000000Y-98000000D02*
X145250000Y-98750000D01*
X154050000Y-98800000D02*
X153250000Y-98000000D01*
X154050000Y-98850000D02*
X154050000Y-98800000D01*
%TO.N,Net-(U2-LD)*%
X133750000Y-102750000D02*
X133750000Y-96400000D01*
X133750000Y-96200000D02*
X129750000Y-92200000D01*
X141500000Y-105750000D02*
X136750000Y-105750000D01*
X133750000Y-96400000D02*
X133750000Y-96200000D01*
X136750000Y-105750000D02*
X133750000Y-102750000D01*
%TO.N,RF_nSHDN*%
X157000000Y-115000000D02*
X156250000Y-114250000D01*
X143500000Y-112250000D02*
X145500000Y-114250000D01*
X143500000Y-106250000D02*
X143500000Y-112250000D01*
X142750000Y-105500000D02*
X143500000Y-106250000D01*
X145500000Y-114250000D02*
X156250000Y-114250000D01*
X157000000Y-115250000D02*
X157000000Y-115000000D01*
%TO.N,RF_DATA*%
X133250000Y-97450000D02*
X129750000Y-93950000D01*
X133250000Y-103000000D02*
X133250000Y-97600000D01*
X136750000Y-106500000D02*
X133250000Y-103000000D01*
X133250000Y-97600000D02*
X133250000Y-97450000D01*
X142500000Y-106500000D02*
X136750000Y-106500000D01*
%TO.N,RF_CLK*%
X136650000Y-107150000D02*
X132750000Y-103250000D01*
X132750000Y-99000000D02*
X132750000Y-98700000D01*
X132750000Y-98700000D02*
X129750000Y-95700000D01*
X142000000Y-107150000D02*
X136650000Y-107150000D01*
X132750000Y-103250000D02*
X132750000Y-99000000D01*
%TO.N,RF_nCS*%
X136471471Y-107750000D02*
X132250000Y-103528529D01*
X132250000Y-103528529D02*
X132250000Y-100400000D01*
X132250000Y-99950000D02*
X129750000Y-97450000D01*
X132250000Y-100400000D02*
X132250000Y-99950000D01*
X141250000Y-107750000D02*
X136471471Y-107750000D01*
%TO.N,Net-(U2-Q0)*%
X152750000Y-101750000D02*
X157000000Y-101750000D01*
X149287500Y-103287500D02*
X150000000Y-104000000D01*
X150000000Y-104000000D02*
X150500000Y-104000000D01*
X157000000Y-101750000D02*
X159310000Y-101750000D01*
X150500000Y-104000000D02*
X152750000Y-101750000D01*
X159310000Y-101750000D02*
X160560000Y-103000000D01*
%TO.N,RF_nIDLE*%
X146425000Y-113325000D02*
X147250000Y-112500000D01*
X146425000Y-113500000D02*
X146425000Y-113325000D01*
X147250000Y-99250000D02*
X147750000Y-98750000D01*
X147250000Y-112500000D02*
X147250000Y-99250000D01*
%TD*%
%TA.AperFunction,Conductor*%
%TO.N,GND*%
G36*
X143068834Y-106812204D02*
G01*
X143124767Y-106854076D01*
X143149184Y-106919540D01*
X143149500Y-106928386D01*
X143149500Y-112296144D01*
X143163797Y-112349501D01*
X143173385Y-112385286D01*
X143219527Y-112465208D01*
X143219531Y-112465213D01*
X143442137Y-112687819D01*
X143475622Y-112749142D01*
X143470638Y-112818834D01*
X143428766Y-112874767D01*
X143363302Y-112899184D01*
X143354456Y-112899500D01*
X139946544Y-112899500D01*
X139879505Y-112879815D01*
X139858863Y-112863181D01*
X138136819Y-111141137D01*
X138103334Y-111079814D01*
X138100500Y-111053456D01*
X138100500Y-108979386D01*
X138120185Y-108912347D01*
X138136819Y-108891705D01*
X138158339Y-108870185D01*
X138190509Y-108838015D01*
X138262984Y-108712485D01*
X138300500Y-108572475D01*
X138300500Y-108427525D01*
X138262984Y-108287515D01*
X138262982Y-108287511D01*
X138262982Y-108287510D01*
X138262981Y-108287507D01*
X138262397Y-108286496D01*
X138262163Y-108285534D01*
X138259872Y-108280001D01*
X138260734Y-108279643D01*
X138245927Y-108218595D01*
X138268781Y-108152569D01*
X138323704Y-108109381D01*
X138369786Y-108100500D01*
X138880214Y-108100500D01*
X138947253Y-108120185D01*
X138993008Y-108172989D01*
X139002952Y-108242147D01*
X138989885Y-108279900D01*
X138990128Y-108280001D01*
X138988442Y-108284071D01*
X138987603Y-108286496D01*
X138987018Y-108287507D01*
X138987017Y-108287510D01*
X138972460Y-108341837D01*
X138949500Y-108427525D01*
X138949500Y-108572475D01*
X138986891Y-108712017D01*
X138987017Y-108712488D01*
X139059488Y-108838011D01*
X139059490Y-108838013D01*
X139059491Y-108838015D01*
X139161985Y-108940509D01*
X139161986Y-108940510D01*
X139161988Y-108940511D01*
X139287511Y-109012982D01*
X139287512Y-109012982D01*
X139287515Y-109012984D01*
X139427525Y-109050500D01*
X139427528Y-109050500D01*
X139572472Y-109050500D01*
X139572475Y-109050500D01*
X139712485Y-109012984D01*
X139838015Y-108940509D01*
X139940509Y-108838015D01*
X140012984Y-108712485D01*
X140050500Y-108572475D01*
X140050500Y-108427525D01*
X140012984Y-108287515D01*
X140012982Y-108287511D01*
X140012982Y-108287510D01*
X140012981Y-108287507D01*
X140012397Y-108286496D01*
X140012163Y-108285534D01*
X140009872Y-108280001D01*
X140010734Y-108279643D01*
X139995927Y-108218595D01*
X140018781Y-108152569D01*
X140073704Y-108109381D01*
X140119786Y-108100500D01*
X140770614Y-108100500D01*
X140837653Y-108120185D01*
X140858295Y-108136819D01*
X140911985Y-108190509D01*
X140911986Y-108190510D01*
X140911988Y-108190511D01*
X141037511Y-108262982D01*
X141037512Y-108262982D01*
X141037515Y-108262984D01*
X141177525Y-108300500D01*
X141177528Y-108300500D01*
X141322472Y-108300500D01*
X141322475Y-108300500D01*
X141462485Y-108262984D01*
X141588015Y-108190509D01*
X141690509Y-108088015D01*
X141711273Y-108052051D01*
X142000000Y-108052051D01*
X142000000Y-109200000D01*
X142891500Y-109200000D01*
X142891500Y-107679810D01*
X142887082Y-107647004D01*
X142850362Y-107587561D01*
X142787334Y-107557407D01*
X142718010Y-107566114D01*
X142664398Y-107610918D01*
X142628003Y-107665389D01*
X142515389Y-107778003D01*
X142382968Y-107866483D01*
X142235831Y-107927430D01*
X142100081Y-107954432D01*
X142053555Y-107974192D01*
X142009716Y-108028593D01*
X142000000Y-108052051D01*
X141711273Y-108052051D01*
X141762984Y-107962485D01*
X141800500Y-107822475D01*
X141800500Y-107822471D01*
X141801561Y-107814415D01*
X141803390Y-107814655D01*
X141820185Y-107757461D01*
X141872989Y-107711706D01*
X141924500Y-107700500D01*
X142072472Y-107700500D01*
X142072475Y-107700500D01*
X142212485Y-107662984D01*
X142338015Y-107590509D01*
X142440509Y-107488015D01*
X142512984Y-107362485D01*
X142550500Y-107222475D01*
X142550500Y-107151536D01*
X142570185Y-107084497D01*
X142622989Y-107038742D01*
X142642396Y-107031764D01*
X142712485Y-107012984D01*
X142838015Y-106940509D01*
X142937819Y-106840705D01*
X142999142Y-106807220D01*
X143068834Y-106812204D01*
G37*
%TD.AperFunction*%
%TA.AperFunction,Conductor*%
G36*
X166003032Y-50200649D02*
G01*
X166067797Y-50203830D01*
X166366338Y-50218497D01*
X166378440Y-50219689D01*
X166735230Y-50272613D01*
X166747140Y-50274982D01*
X167097046Y-50362629D01*
X167108663Y-50366154D01*
X167448275Y-50487669D01*
X167459497Y-50492317D01*
X167785582Y-50646543D01*
X167796290Y-50652267D01*
X167984308Y-50764961D01*
X168105659Y-50837696D01*
X168115777Y-50844456D01*
X168405488Y-51059321D01*
X168414894Y-51067041D01*
X168682146Y-51309264D01*
X168690735Y-51317853D01*
X168894324Y-51542479D01*
X168932958Y-51585105D01*
X168940678Y-51594511D01*
X169155543Y-51884222D01*
X169162303Y-51894340D01*
X169347725Y-52203697D01*
X169353462Y-52214429D01*
X169507679Y-52540495D01*
X169512335Y-52551737D01*
X169633840Y-52891319D01*
X169637373Y-52902964D01*
X169725014Y-53252846D01*
X169727388Y-53264782D01*
X169780309Y-53621555D01*
X169781502Y-53633664D01*
X169799351Y-53996967D01*
X169799500Y-54003052D01*
X169799500Y-115996947D01*
X169799351Y-116003032D01*
X169781502Y-116366335D01*
X169780309Y-116378444D01*
X169727388Y-116735217D01*
X169725014Y-116747153D01*
X169637373Y-117097035D01*
X169633840Y-117108680D01*
X169512335Y-117448262D01*
X169507679Y-117459504D01*
X169353462Y-117785570D01*
X169347725Y-117796302D01*
X169162303Y-118105659D01*
X169155543Y-118115777D01*
X168940678Y-118405488D01*
X168932958Y-118414894D01*
X168690743Y-118682138D01*
X168682138Y-118690743D01*
X168414894Y-118932958D01*
X168405488Y-118940678D01*
X168115777Y-119155543D01*
X168105659Y-119162303D01*
X167796302Y-119347725D01*
X167785570Y-119353462D01*
X167459504Y-119507679D01*
X167448262Y-119512335D01*
X167108680Y-119633840D01*
X167097035Y-119637373D01*
X166747153Y-119725014D01*
X166735217Y-119727388D01*
X166378444Y-119780309D01*
X166366335Y-119781502D01*
X166003033Y-119799351D01*
X165996948Y-119799500D01*
X124003052Y-119799500D01*
X123996967Y-119799351D01*
X123633664Y-119781502D01*
X123621555Y-119780309D01*
X123264782Y-119727388D01*
X123252846Y-119725014D01*
X122902964Y-119637373D01*
X122891323Y-119633841D01*
X122551734Y-119512334D01*
X122540495Y-119507679D01*
X122214429Y-119353462D01*
X122203702Y-119347727D01*
X121894340Y-119162303D01*
X121884222Y-119155543D01*
X121594511Y-118940678D01*
X121585105Y-118932958D01*
X121542479Y-118894324D01*
X121317853Y-118690735D01*
X121309264Y-118682146D01*
X121067041Y-118414894D01*
X121059321Y-118405488D01*
X120844456Y-118115777D01*
X120837696Y-118105659D01*
X120782149Y-118012984D01*
X120652267Y-117796290D01*
X120646543Y-117785582D01*
X120492319Y-117459501D01*
X120487669Y-117448275D01*
X120480245Y-117427525D01*
X133199500Y-117427525D01*
X133199500Y-117572475D01*
X133233264Y-117698483D01*
X133237017Y-117712488D01*
X133309488Y-117838011D01*
X133309490Y-117838013D01*
X133309491Y-117838015D01*
X133411985Y-117940509D01*
X133411986Y-117940510D01*
X133411988Y-117940511D01*
X133537511Y-118012982D01*
X133537512Y-118012982D01*
X133537515Y-118012984D01*
X133677525Y-118050500D01*
X133677528Y-118050500D01*
X133822472Y-118050500D01*
X133822475Y-118050500D01*
X133962485Y-118012984D01*
X134088015Y-117940509D01*
X134190509Y-117838015D01*
X134262984Y-117712485D01*
X134300500Y-117572475D01*
X134300500Y-117427525D01*
X134262984Y-117287515D01*
X134190509Y-117161985D01*
X134088015Y-117059491D01*
X134088013Y-117059490D01*
X134088011Y-117059488D01*
X133962488Y-116987017D01*
X133962489Y-116987017D01*
X133951006Y-116983940D01*
X133822475Y-116949500D01*
X133677525Y-116949500D01*
X133548993Y-116983940D01*
X133537511Y-116987017D01*
X133411988Y-117059488D01*
X133411982Y-117059493D01*
X133309493Y-117161982D01*
X133309488Y-117161988D01*
X133237017Y-117287511D01*
X133237016Y-117287515D01*
X133199500Y-117427525D01*
X120480245Y-117427525D01*
X120366154Y-117108663D01*
X120362629Y-117097046D01*
X120274982Y-116747140D01*
X120272613Y-116735230D01*
X120219689Y-116378440D01*
X120218497Y-116366334D01*
X120215582Y-116307007D01*
X120200649Y-116003031D01*
X120200500Y-115996947D01*
X120200500Y-111927525D01*
X130449500Y-111927525D01*
X130449500Y-112072475D01*
X130483011Y-112197537D01*
X130487017Y-112212488D01*
X130559488Y-112338011D01*
X130559490Y-112338013D01*
X130559491Y-112338015D01*
X130661985Y-112440509D01*
X130661986Y-112440510D01*
X130661988Y-112440511D01*
X130787511Y-112512982D01*
X130787512Y-112512982D01*
X130787515Y-112512984D01*
X130927525Y-112550500D01*
X130927528Y-112550500D01*
X131072472Y-112550500D01*
X131072475Y-112550500D01*
X131212485Y-112512984D01*
X131338015Y-112440509D01*
X131440509Y-112338015D01*
X131512984Y-112212485D01*
X131550500Y-112072475D01*
X131550500Y-111927525D01*
X131512984Y-111787515D01*
X131456977Y-111690509D01*
X131440511Y-111661988D01*
X131440506Y-111661982D01*
X131338017Y-111559493D01*
X131338011Y-111559488D01*
X131212488Y-111487017D01*
X131212489Y-111487017D01*
X131201006Y-111483940D01*
X131072475Y-111449500D01*
X130927525Y-111449500D01*
X130798993Y-111483940D01*
X130787511Y-111487017D01*
X130661988Y-111559488D01*
X130661982Y-111559493D01*
X130559493Y-111661982D01*
X130559488Y-111661988D01*
X130487017Y-111787511D01*
X130487016Y-111787515D01*
X130449500Y-111927525D01*
X120200500Y-111927525D01*
X120200500Y-109927525D01*
X126949500Y-109927525D01*
X126949500Y-110072475D01*
X126987016Y-110212485D01*
X126987017Y-110212488D01*
X127059488Y-110338011D01*
X127059490Y-110338013D01*
X127059491Y-110338015D01*
X127161985Y-110440509D01*
X127161986Y-110440510D01*
X127161988Y-110440511D01*
X127287511Y-110512982D01*
X127287512Y-110512982D01*
X127287515Y-110512984D01*
X127427525Y-110550500D01*
X127427528Y-110550500D01*
X127572472Y-110550500D01*
X127572475Y-110550500D01*
X127712485Y-110512984D01*
X127838015Y-110440509D01*
X127940509Y-110338015D01*
X128012984Y-110212485D01*
X128050500Y-110072475D01*
X128050500Y-109927525D01*
X133699500Y-109927525D01*
X133699500Y-110072475D01*
X133737016Y-110212485D01*
X133737017Y-110212488D01*
X133809488Y-110338011D01*
X133809490Y-110338013D01*
X133809491Y-110338015D01*
X133911985Y-110440509D01*
X133911986Y-110440510D01*
X133911988Y-110440511D01*
X134037511Y-110512982D01*
X134037512Y-110512982D01*
X134037515Y-110512984D01*
X134177525Y-110550500D01*
X134177528Y-110550500D01*
X134322472Y-110550500D01*
X134322475Y-110550500D01*
X134462485Y-110512984D01*
X134588015Y-110440509D01*
X134690509Y-110338015D01*
X134762984Y-110212485D01*
X134800500Y-110072475D01*
X134800500Y-109927525D01*
X134762984Y-109787515D01*
X134690509Y-109661985D01*
X134588015Y-109559491D01*
X134588013Y-109559490D01*
X134588011Y-109559488D01*
X134462488Y-109487017D01*
X134462489Y-109487017D01*
X134451006Y-109483940D01*
X134322475Y-109449500D01*
X134177525Y-109449500D01*
X134048993Y-109483940D01*
X134037511Y-109487017D01*
X133911988Y-109559488D01*
X133911982Y-109559493D01*
X133809493Y-109661982D01*
X133809488Y-109661988D01*
X133737017Y-109787511D01*
X133737016Y-109787515D01*
X133699500Y-109927525D01*
X128050500Y-109927525D01*
X128012984Y-109787515D01*
X127940509Y-109661985D01*
X127838015Y-109559491D01*
X127838013Y-109559490D01*
X127838011Y-109559488D01*
X127712488Y-109487017D01*
X127712489Y-109487017D01*
X127701006Y-109483940D01*
X127572475Y-109449500D01*
X127427525Y-109449500D01*
X127298993Y-109483940D01*
X127287511Y-109487017D01*
X127161988Y-109559488D01*
X127161982Y-109559493D01*
X127059493Y-109661982D01*
X127059488Y-109661988D01*
X126987017Y-109787511D01*
X126987016Y-109787515D01*
X126949500Y-109927525D01*
X120200500Y-109927525D01*
X120200500Y-105353753D01*
X122650000Y-105353753D01*
X122650000Y-105566246D01*
X122683242Y-105776127D01*
X122683242Y-105776130D01*
X122748904Y-105978217D01*
X122845375Y-106167550D01*
X122884728Y-106221716D01*
X123517037Y-105589408D01*
X123534075Y-105652993D01*
X123599901Y-105767007D01*
X123692993Y-105860099D01*
X123807007Y-105925925D01*
X123870591Y-105942962D01*
X123269971Y-106543581D01*
X123348711Y-106660895D01*
X123349920Y-106664729D01*
X123352844Y-106667491D01*
X123360343Y-106697778D01*
X123369727Y-106727529D01*
X123368671Y-106731408D01*
X123369638Y-106735312D01*
X123359573Y-106764844D01*
X123351383Y-106794947D01*
X123348397Y-106797640D01*
X123347100Y-106801447D01*
X123302051Y-106840483D01*
X123292440Y-106845380D01*
X123238282Y-106884727D01*
X123238282Y-106884728D01*
X123870591Y-107517037D01*
X123807007Y-107534075D01*
X123692993Y-107599901D01*
X123599901Y-107692993D01*
X123534075Y-107807007D01*
X123517037Y-107870591D01*
X122884728Y-107238282D01*
X122884727Y-107238282D01*
X122845380Y-107292439D01*
X122748904Y-107481782D01*
X122683242Y-107683869D01*
X122683242Y-107683872D01*
X122650000Y-107893753D01*
X122650000Y-108106246D01*
X122683242Y-108316127D01*
X122683242Y-108316130D01*
X122748904Y-108518217D01*
X122845375Y-108707550D01*
X122884728Y-108761716D01*
X123517037Y-108129408D01*
X123534075Y-108192993D01*
X123599901Y-108307007D01*
X123692993Y-108400099D01*
X123807007Y-108465925D01*
X123870590Y-108482962D01*
X123238282Y-109115269D01*
X123238282Y-109115270D01*
X123292449Y-109154624D01*
X123481782Y-109251095D01*
X123683870Y-109316757D01*
X123893754Y-109350000D01*
X124106246Y-109350000D01*
X124316127Y-109316757D01*
X124316130Y-109316757D01*
X124518217Y-109251095D01*
X124707554Y-109154622D01*
X124761716Y-109115270D01*
X124761717Y-109115270D01*
X124129408Y-108482962D01*
X124192993Y-108465925D01*
X124307007Y-108400099D01*
X124400099Y-108307007D01*
X124465925Y-108192993D01*
X124482962Y-108129408D01*
X125115270Y-108761717D01*
X125115270Y-108761716D01*
X125154622Y-108707554D01*
X125251095Y-108518217D01*
X125316757Y-108316130D01*
X125316757Y-108316127D01*
X125350000Y-108106246D01*
X125350000Y-107893753D01*
X125316757Y-107683872D01*
X125316757Y-107683869D01*
X125251095Y-107481782D01*
X125154624Y-107292449D01*
X125115270Y-107238282D01*
X125115269Y-107238282D01*
X124482962Y-107870590D01*
X124465925Y-107807007D01*
X124400099Y-107692993D01*
X124307007Y-107599901D01*
X124192993Y-107534075D01*
X124129409Y-107517037D01*
X124761716Y-106884728D01*
X124707550Y-106845375D01*
X124697954Y-106840486D01*
X124647157Y-106792512D01*
X124630361Y-106724692D01*
X124652897Y-106658556D01*
X124697954Y-106619514D01*
X124707554Y-106614622D01*
X124761716Y-106575270D01*
X124761717Y-106575270D01*
X124129408Y-105942962D01*
X124192993Y-105925925D01*
X124307007Y-105860099D01*
X124400099Y-105767007D01*
X124465925Y-105652993D01*
X124482962Y-105589408D01*
X125115270Y-106221717D01*
X125115270Y-106221716D01*
X125154622Y-106167554D01*
X125251095Y-105978217D01*
X125316757Y-105776130D01*
X125316757Y-105776127D01*
X125350000Y-105566246D01*
X125350000Y-105353753D01*
X125316757Y-105143872D01*
X125316757Y-105143869D01*
X125251095Y-104941782D01*
X125154624Y-104752449D01*
X125115270Y-104698282D01*
X125115269Y-104698282D01*
X124482962Y-105330590D01*
X124465925Y-105267007D01*
X124400099Y-105152993D01*
X124307007Y-105059901D01*
X124192993Y-104994075D01*
X124129409Y-104977037D01*
X124761716Y-104344728D01*
X124707550Y-104305375D01*
X124518217Y-104208904D01*
X124419287Y-104176760D01*
X124361611Y-104137323D01*
X124334413Y-104072964D01*
X124346328Y-104004118D01*
X124393572Y-103952642D01*
X124419290Y-103940897D01*
X124422445Y-103939873D01*
X124576788Y-103861232D01*
X124716928Y-103759414D01*
X124839414Y-103636928D01*
X124941232Y-103496788D01*
X125019873Y-103342445D01*
X125073402Y-103177701D01*
X125100500Y-103006611D01*
X125100500Y-102833389D01*
X125073402Y-102662299D01*
X125019873Y-102497555D01*
X124941232Y-102343212D01*
X124839414Y-102203072D01*
X124716928Y-102080586D01*
X124576788Y-101978768D01*
X124422445Y-101900127D01*
X124257701Y-101846598D01*
X124257699Y-101846597D01*
X124257698Y-101846597D01*
X124126271Y-101825781D01*
X124086611Y-101819500D01*
X123913389Y-101819500D01*
X123873728Y-101825781D01*
X123742302Y-101846597D01*
X123577552Y-101900128D01*
X123423211Y-101978768D01*
X123343256Y-102036859D01*
X123283072Y-102080586D01*
X123283070Y-102080588D01*
X123283069Y-102080588D01*
X123160588Y-102203069D01*
X123160588Y-102203070D01*
X123160586Y-102203072D01*
X123149308Y-102218595D01*
X123058768Y-102343211D01*
X122980128Y-102497552D01*
X122926597Y-102662302D01*
X122903285Y-102809491D01*
X122899500Y-102833389D01*
X122899500Y-103006611D01*
X122926598Y-103177701D01*
X122980127Y-103342445D01*
X123058768Y-103496788D01*
X123160586Y-103636928D01*
X123283072Y-103759414D01*
X123423212Y-103861232D01*
X123577555Y-103939873D01*
X123580708Y-103940897D01*
X123581752Y-103941611D01*
X123582048Y-103941734D01*
X123582022Y-103941795D01*
X123638383Y-103980330D01*
X123665585Y-104044688D01*
X123653674Y-104113535D01*
X123606433Y-104165013D01*
X123580712Y-104176760D01*
X123481783Y-104208904D01*
X123292439Y-104305380D01*
X123238282Y-104344727D01*
X123238282Y-104344728D01*
X123870591Y-104977037D01*
X123807007Y-104994075D01*
X123692993Y-105059901D01*
X123599901Y-105152993D01*
X123534075Y-105267007D01*
X123517037Y-105330591D01*
X122884728Y-104698282D01*
X122884727Y-104698282D01*
X122845380Y-104752439D01*
X122748904Y-104941782D01*
X122683242Y-105143869D01*
X122683242Y-105143872D01*
X122650000Y-105353753D01*
X120200500Y-105353753D01*
X120200500Y-100293389D01*
X122899500Y-100293389D01*
X122899500Y-100466610D01*
X122926596Y-100637693D01*
X122926598Y-100637701D01*
X122980127Y-100802445D01*
X123058768Y-100956788D01*
X123160586Y-101096928D01*
X123283072Y-101219414D01*
X123423212Y-101321232D01*
X123577555Y-101399873D01*
X123742299Y-101453402D01*
X123913389Y-101480500D01*
X123913390Y-101480500D01*
X124086610Y-101480500D01*
X124086611Y-101480500D01*
X124257701Y-101453402D01*
X124422445Y-101399873D01*
X124576788Y-101321232D01*
X124716928Y-101219414D01*
X124839414Y-101096928D01*
X124941232Y-100956788D01*
X125019873Y-100802445D01*
X125060462Y-100677525D01*
X126949500Y-100677525D01*
X126949500Y-100822475D01*
X126987016Y-100962485D01*
X126987017Y-100962488D01*
X127059488Y-101088011D01*
X127059490Y-101088013D01*
X127059491Y-101088015D01*
X127161985Y-101190509D01*
X127161986Y-101190510D01*
X127161988Y-101190511D01*
X127287511Y-101262982D01*
X127287512Y-101262982D01*
X127287515Y-101262984D01*
X127427525Y-101300500D01*
X127427528Y-101300500D01*
X127572472Y-101300500D01*
X127572475Y-101300500D01*
X127712485Y-101262984D01*
X127838015Y-101190509D01*
X127940509Y-101088015D01*
X128012984Y-100962485D01*
X128050500Y-100822475D01*
X128050500Y-100677525D01*
X128012984Y-100537515D01*
X127972047Y-100466611D01*
X127940511Y-100411988D01*
X127940506Y-100411982D01*
X127838017Y-100309493D01*
X127838011Y-100309488D01*
X127712488Y-100237017D01*
X127712489Y-100237017D01*
X127701006Y-100233940D01*
X127572475Y-100199500D01*
X127427525Y-100199500D01*
X127298993Y-100233940D01*
X127287511Y-100237017D01*
X127161988Y-100309488D01*
X127161982Y-100309493D01*
X127059493Y-100411982D01*
X127059488Y-100411988D01*
X126987017Y-100537511D01*
X126987016Y-100537515D01*
X126949500Y-100677525D01*
X125060462Y-100677525D01*
X125073402Y-100637701D01*
X125100500Y-100466611D01*
X125100500Y-100293389D01*
X125073402Y-100122299D01*
X125019873Y-99957555D01*
X124941232Y-99803212D01*
X124839414Y-99663072D01*
X124716928Y-99540586D01*
X124576788Y-99438768D01*
X124422445Y-99360127D01*
X124257701Y-99306598D01*
X124257699Y-99306597D01*
X124257698Y-99306597D01*
X124126271Y-99285781D01*
X124086611Y-99279500D01*
X123913389Y-99279500D01*
X123873728Y-99285781D01*
X123742302Y-99306597D01*
X123577552Y-99360128D01*
X123423211Y-99438768D01*
X123343256Y-99496859D01*
X123283072Y-99540586D01*
X123283070Y-99540588D01*
X123283069Y-99540588D01*
X123160588Y-99663069D01*
X123160588Y-99663070D01*
X123160586Y-99663072D01*
X123116859Y-99723256D01*
X123058768Y-99803211D01*
X122980128Y-99957552D01*
X122926597Y-100122302D01*
X122899500Y-100293389D01*
X120200500Y-100293389D01*
X120200500Y-97753389D01*
X122899500Y-97753389D01*
X122899500Y-97926610D01*
X122919748Y-98054456D01*
X122926598Y-98097701D01*
X122980127Y-98262445D01*
X123058768Y-98416788D01*
X123160586Y-98556928D01*
X123283072Y-98679414D01*
X123423212Y-98781232D01*
X123577555Y-98859873D01*
X123742299Y-98913402D01*
X123913389Y-98940500D01*
X123913390Y-98940500D01*
X124086610Y-98940500D01*
X124086611Y-98940500D01*
X124257701Y-98913402D01*
X124422445Y-98859873D01*
X124576788Y-98781232D01*
X124716928Y-98679414D01*
X124839414Y-98556928D01*
X124941232Y-98416788D01*
X125019873Y-98262445D01*
X125073402Y-98097701D01*
X125100500Y-97926611D01*
X125100500Y-97753389D01*
X125073402Y-97582299D01*
X125019873Y-97417555D01*
X124941232Y-97263212D01*
X124839414Y-97123072D01*
X124716928Y-97000586D01*
X124576788Y-96898768D01*
X124422445Y-96820127D01*
X124257701Y-96766598D01*
X124257699Y-96766597D01*
X124257698Y-96766597D01*
X124126271Y-96745781D01*
X124086611Y-96739500D01*
X123913389Y-96739500D01*
X123873728Y-96745781D01*
X123742302Y-96766597D01*
X123577552Y-96820128D01*
X123423211Y-96898768D01*
X123384087Y-96927194D01*
X123283072Y-97000586D01*
X123283070Y-97000588D01*
X123283069Y-97000588D01*
X123160588Y-97123069D01*
X123160588Y-97123070D01*
X123160586Y-97123072D01*
X123116859Y-97183256D01*
X123058768Y-97263211D01*
X122980128Y-97417552D01*
X122926597Y-97582302D01*
X122899500Y-97753389D01*
X120200500Y-97753389D01*
X120200500Y-94425321D01*
X122899500Y-94425321D01*
X122899500Y-96174678D01*
X122914032Y-96247735D01*
X122914033Y-96247739D01*
X122914034Y-96247740D01*
X122969399Y-96330601D01*
X123028642Y-96370185D01*
X123052260Y-96385966D01*
X123052264Y-96385967D01*
X123125321Y-96400499D01*
X123125324Y-96400500D01*
X123125326Y-96400500D01*
X124874676Y-96400500D01*
X124874677Y-96400499D01*
X124947740Y-96385966D01*
X125030601Y-96330601D01*
X125085966Y-96247740D01*
X125100500Y-96174674D01*
X125100500Y-94425326D01*
X125100500Y-94425323D01*
X125100499Y-94425321D01*
X125085967Y-94352264D01*
X125085966Y-94352260D01*
X125030601Y-94269399D01*
X124947740Y-94214034D01*
X124947739Y-94214033D01*
X124947735Y-94214032D01*
X124874677Y-94199500D01*
X124874674Y-94199500D01*
X123125326Y-94199500D01*
X123125323Y-94199500D01*
X123052264Y-94214032D01*
X123052260Y-94214033D01*
X122969399Y-94269399D01*
X122914033Y-94352260D01*
X122914032Y-94352264D01*
X122899500Y-94425321D01*
X120200500Y-94425321D01*
X120200500Y-92127525D01*
X129199500Y-92127525D01*
X129199500Y-92272475D01*
X129204501Y-92291137D01*
X129237017Y-92412488D01*
X129309488Y-92538011D01*
X129309490Y-92538013D01*
X129309491Y-92538015D01*
X129411985Y-92640509D01*
X129411986Y-92640510D01*
X129411988Y-92640511D01*
X129537511Y-92712982D01*
X129537512Y-92712982D01*
X129537515Y-92712984D01*
X129677525Y-92750500D01*
X129753456Y-92750500D01*
X129820495Y-92770185D01*
X129841137Y-92786819D01*
X133363181Y-96308862D01*
X133396666Y-96370185D01*
X133399500Y-96396543D01*
X133399500Y-96804456D01*
X133379815Y-96871495D01*
X133327011Y-96917250D01*
X133257853Y-96927194D01*
X133194297Y-96898169D01*
X133187819Y-96892137D01*
X130336819Y-94041137D01*
X130303334Y-93979814D01*
X130300500Y-93953456D01*
X130300500Y-93877527D01*
X130300500Y-93877525D01*
X130262984Y-93737515D01*
X130190509Y-93611985D01*
X130088015Y-93509491D01*
X130088013Y-93509490D01*
X130088011Y-93509488D01*
X129962488Y-93437017D01*
X129962489Y-93437017D01*
X129951006Y-93433940D01*
X129822475Y-93399500D01*
X129677525Y-93399500D01*
X129548993Y-93433940D01*
X129537511Y-93437017D01*
X129411988Y-93509488D01*
X129411982Y-93509493D01*
X129309493Y-93611982D01*
X129309488Y-93611988D01*
X129237017Y-93737511D01*
X129237016Y-93737515D01*
X129199500Y-93877525D01*
X129199500Y-94022475D01*
X129204501Y-94041137D01*
X129237017Y-94162488D01*
X129309488Y-94288011D01*
X129309490Y-94288013D01*
X129309491Y-94288015D01*
X129411985Y-94390509D01*
X129411986Y-94390510D01*
X129411988Y-94390511D01*
X129537511Y-94462982D01*
X129537512Y-94462982D01*
X129537515Y-94462984D01*
X129677525Y-94500500D01*
X129753456Y-94500500D01*
X129820495Y-94520185D01*
X129841137Y-94536819D01*
X132863181Y-97558863D01*
X132896666Y-97620186D01*
X132899500Y-97646544D01*
X132899500Y-98054456D01*
X132879815Y-98121495D01*
X132827011Y-98167250D01*
X132757853Y-98177194D01*
X132694297Y-98148169D01*
X132687819Y-98142137D01*
X130336819Y-95791137D01*
X130303334Y-95729814D01*
X130300500Y-95703456D01*
X130300500Y-95627527D01*
X130300500Y-95627525D01*
X130262984Y-95487515D01*
X130190509Y-95361985D01*
X130088015Y-95259491D01*
X130088013Y-95259490D01*
X130088011Y-95259488D01*
X129962488Y-95187017D01*
X129962489Y-95187017D01*
X129951006Y-95183940D01*
X129822475Y-95149500D01*
X129677525Y-95149500D01*
X129548993Y-95183940D01*
X129537511Y-95187017D01*
X129411988Y-95259488D01*
X129411982Y-95259493D01*
X129309493Y-95361982D01*
X129309488Y-95361988D01*
X129237017Y-95487511D01*
X129237016Y-95487515D01*
X129199500Y-95627525D01*
X129199500Y-95772475D01*
X129204501Y-95791137D01*
X129237017Y-95912488D01*
X129309488Y-96038011D01*
X129309490Y-96038013D01*
X129309491Y-96038015D01*
X129411985Y-96140509D01*
X129411986Y-96140510D01*
X129411988Y-96140511D01*
X129537511Y-96212982D01*
X129537512Y-96212982D01*
X129537515Y-96212984D01*
X129677525Y-96250500D01*
X129753456Y-96250500D01*
X129820495Y-96270185D01*
X129841137Y-96286819D01*
X132363181Y-98808863D01*
X132396666Y-98870186D01*
X132399500Y-98896544D01*
X132399500Y-99304456D01*
X132379815Y-99371495D01*
X132327011Y-99417250D01*
X132257853Y-99427194D01*
X132194297Y-99398169D01*
X132187819Y-99392137D01*
X130336819Y-97541137D01*
X130303334Y-97479814D01*
X130300500Y-97453456D01*
X130300500Y-97377527D01*
X130300500Y-97377525D01*
X130262984Y-97237515D01*
X130196908Y-97123069D01*
X130190511Y-97111988D01*
X130190506Y-97111982D01*
X130088017Y-97009493D01*
X130088011Y-97009488D01*
X129962488Y-96937017D01*
X129962489Y-96937017D01*
X129925829Y-96927194D01*
X129822475Y-96899500D01*
X129677525Y-96899500D01*
X129574171Y-96927194D01*
X129537511Y-96937017D01*
X129411988Y-97009488D01*
X129411982Y-97009493D01*
X129309493Y-97111982D01*
X129309488Y-97111988D01*
X129237017Y-97237511D01*
X129237016Y-97237515D01*
X129199500Y-97377525D01*
X129199500Y-97522475D01*
X129215531Y-97582302D01*
X129237017Y-97662488D01*
X129309488Y-97788011D01*
X129309490Y-97788013D01*
X129309491Y-97788015D01*
X129411985Y-97890509D01*
X129411986Y-97890510D01*
X129411988Y-97890511D01*
X129537511Y-97962982D01*
X129537512Y-97962982D01*
X129537515Y-97962984D01*
X129677525Y-98000500D01*
X129753456Y-98000500D01*
X129820495Y-98020185D01*
X129841137Y-98036819D01*
X131863181Y-100058863D01*
X131896666Y-100120186D01*
X131899500Y-100146544D01*
X131899500Y-103574675D01*
X131908424Y-103607977D01*
X131908425Y-103607981D01*
X131923384Y-103663814D01*
X131923385Y-103663815D01*
X131969527Y-103743737D01*
X131969531Y-103743742D01*
X136163608Y-107937819D01*
X136197093Y-107999142D01*
X136192109Y-108068834D01*
X136150237Y-108124767D01*
X136084773Y-108149184D01*
X136075927Y-108149500D01*
X132979386Y-108149500D01*
X132912347Y-108129815D01*
X132891705Y-108113181D01*
X132838017Y-108059493D01*
X132838011Y-108059488D01*
X132712488Y-107987017D01*
X132712489Y-107987017D01*
X132701006Y-107983940D01*
X132572475Y-107949500D01*
X132427525Y-107949500D01*
X132298993Y-107983940D01*
X132287511Y-107987017D01*
X132161988Y-108059488D01*
X132161982Y-108059493D01*
X132059493Y-108161982D01*
X132059488Y-108161988D01*
X131987017Y-108287511D01*
X131987016Y-108287515D01*
X131949500Y-108427525D01*
X131949500Y-108572475D01*
X131986891Y-108712017D01*
X131987017Y-108712488D01*
X132059488Y-108838011D01*
X132059490Y-108838013D01*
X132059491Y-108838015D01*
X132161985Y-108940509D01*
X132161986Y-108940510D01*
X132161988Y-108940511D01*
X132287511Y-109012982D01*
X132287512Y-109012982D01*
X132287515Y-109012984D01*
X132427525Y-109050500D01*
X132427528Y-109050500D01*
X132572472Y-109050500D01*
X132572475Y-109050500D01*
X132712485Y-109012984D01*
X132838015Y-108940509D01*
X132891705Y-108886819D01*
X132953028Y-108853334D01*
X132979386Y-108850500D01*
X137270614Y-108850500D01*
X137337653Y-108870185D01*
X137358295Y-108886819D01*
X137363181Y-108891705D01*
X137396666Y-108953028D01*
X137399500Y-108979386D01*
X137399500Y-111296144D01*
X137407623Y-111326459D01*
X137405960Y-111396309D01*
X137366797Y-111454171D01*
X137319944Y-111478326D01*
X137287514Y-111487016D01*
X137287511Y-111487017D01*
X137161988Y-111559488D01*
X137161982Y-111559493D01*
X137059493Y-111661982D01*
X137059488Y-111661988D01*
X136987017Y-111787511D01*
X136987016Y-111787515D01*
X136949500Y-111927525D01*
X136949500Y-112072475D01*
X136983011Y-112197537D01*
X136987017Y-112212488D01*
X137059488Y-112338011D01*
X137059490Y-112338013D01*
X137059491Y-112338015D01*
X137161985Y-112440509D01*
X137161986Y-112440510D01*
X137161988Y-112440511D01*
X137287511Y-112512982D01*
X137287512Y-112512982D01*
X137287515Y-112512984D01*
X137427525Y-112550500D01*
X137427528Y-112550500D01*
X137572472Y-112550500D01*
X137572475Y-112550500D01*
X137712485Y-112512984D01*
X137838015Y-112440509D01*
X137940509Y-112338015D01*
X138006787Y-112223217D01*
X138057354Y-112175002D01*
X138125961Y-112161779D01*
X138190826Y-112187747D01*
X138201855Y-112197537D01*
X139534788Y-113530470D01*
X139604085Y-113570478D01*
X139604087Y-113570480D01*
X139607538Y-113572472D01*
X139614712Y-113576614D01*
X139703856Y-113600500D01*
X143323456Y-113600500D01*
X143390495Y-113620185D01*
X143411137Y-113636819D01*
X144290366Y-114516048D01*
X144323851Y-114577371D01*
X144318867Y-114647063D01*
X144276995Y-114702996D01*
X144211531Y-114727413D01*
X144164367Y-114721660D01*
X144046129Y-114683242D01*
X143836246Y-114650000D01*
X143623754Y-114650000D01*
X143413872Y-114683242D01*
X143413869Y-114683242D01*
X143211782Y-114748904D01*
X143022439Y-114845380D01*
X142968282Y-114884727D01*
X142968282Y-114884728D01*
X143600591Y-115517037D01*
X143537007Y-115534075D01*
X143422993Y-115599901D01*
X143329901Y-115692993D01*
X143264075Y-115807007D01*
X143247037Y-115870591D01*
X142614728Y-115238282D01*
X142614727Y-115238282D01*
X142575380Y-115292440D01*
X142570483Y-115302051D01*
X142522506Y-115352845D01*
X142454684Y-115369638D01*
X142388550Y-115347098D01*
X142349516Y-115302048D01*
X142344626Y-115292452D01*
X142305270Y-115238282D01*
X142305269Y-115238282D01*
X141672962Y-115870590D01*
X141655925Y-115807007D01*
X141590099Y-115692993D01*
X141497007Y-115599901D01*
X141382993Y-115534075D01*
X141319409Y-115517037D01*
X141951716Y-114884728D01*
X141897550Y-114845375D01*
X141708217Y-114748904D01*
X141506129Y-114683242D01*
X141296246Y-114650000D01*
X141083754Y-114650000D01*
X140873872Y-114683242D01*
X140873869Y-114683242D01*
X140671782Y-114748904D01*
X140482439Y-114845380D01*
X140428282Y-114884727D01*
X140428282Y-114884728D01*
X141060591Y-115517037D01*
X140997007Y-115534075D01*
X140882993Y-115599901D01*
X140789901Y-115692993D01*
X140724075Y-115807007D01*
X140707037Y-115870591D01*
X140074728Y-115238282D01*
X140074727Y-115238282D01*
X140035380Y-115292440D01*
X140035378Y-115292443D01*
X139984984Y-115391346D01*
X139937010Y-115442141D01*
X139869188Y-115458936D01*
X139803054Y-115436398D01*
X139759603Y-115381683D01*
X139750500Y-115335050D01*
X139750500Y-115125323D01*
X139750499Y-115125321D01*
X139735967Y-115052264D01*
X139735966Y-115052260D01*
X139702893Y-115002762D01*
X139680601Y-114969399D01*
X139597740Y-114914034D01*
X139597739Y-114914033D01*
X139597735Y-114914032D01*
X139524677Y-114899500D01*
X139524674Y-114899500D01*
X137775326Y-114899500D01*
X137775323Y-114899500D01*
X137702264Y-114914032D01*
X137702260Y-114914033D01*
X137619399Y-114969399D01*
X137564033Y-115052260D01*
X137564032Y-115052264D01*
X137549500Y-115125321D01*
X137549500Y-116874678D01*
X137564032Y-116947735D01*
X137564033Y-116947739D01*
X137564034Y-116947740D01*
X137619399Y-117030601D01*
X137702260Y-117085966D01*
X137702264Y-117085967D01*
X137775321Y-117100499D01*
X137775324Y-117100500D01*
X137775326Y-117100500D01*
X139524676Y-117100500D01*
X139524677Y-117100499D01*
X139597740Y-117085966D01*
X139680601Y-117030601D01*
X139735966Y-116947740D01*
X139750500Y-116874674D01*
X139750500Y-116664949D01*
X139770185Y-116597910D01*
X139822989Y-116552155D01*
X139892147Y-116542211D01*
X139955703Y-116571236D01*
X139984985Y-116608654D01*
X140035375Y-116707550D01*
X140074728Y-116761716D01*
X140707037Y-116129408D01*
X140724075Y-116192993D01*
X140789901Y-116307007D01*
X140882993Y-116400099D01*
X140997007Y-116465925D01*
X141060590Y-116482962D01*
X140428282Y-117115269D01*
X140428282Y-117115270D01*
X140482449Y-117154624D01*
X140671782Y-117251095D01*
X140873870Y-117316757D01*
X141083754Y-117350000D01*
X141296246Y-117350000D01*
X141506127Y-117316757D01*
X141506130Y-117316757D01*
X141708217Y-117251095D01*
X141897554Y-117154622D01*
X141951716Y-117115270D01*
X141951717Y-117115270D01*
X141319408Y-116482962D01*
X141382993Y-116465925D01*
X141497007Y-116400099D01*
X141590099Y-116307007D01*
X141655925Y-116192993D01*
X141672962Y-116129408D01*
X142305270Y-116761717D01*
X142305270Y-116761716D01*
X142344622Y-116707554D01*
X142349514Y-116697954D01*
X142397488Y-116647157D01*
X142465308Y-116630361D01*
X142531444Y-116652897D01*
X142570486Y-116697954D01*
X142575375Y-116707550D01*
X142614728Y-116761716D01*
X143247037Y-116129408D01*
X143264075Y-116192993D01*
X143329901Y-116307007D01*
X143422993Y-116400099D01*
X143537007Y-116465925D01*
X143600590Y-116482962D01*
X142968282Y-117115269D01*
X142968282Y-117115270D01*
X143022449Y-117154624D01*
X143211782Y-117251095D01*
X143413870Y-117316757D01*
X143623754Y-117350000D01*
X143836246Y-117350000D01*
X144046127Y-117316757D01*
X144046130Y-117316757D01*
X144248217Y-117251095D01*
X144437554Y-117154622D01*
X144491716Y-117115270D01*
X144491717Y-117115270D01*
X143859408Y-116482962D01*
X143922993Y-116465925D01*
X144037007Y-116400099D01*
X144130099Y-116307007D01*
X144195925Y-116192993D01*
X144212962Y-116129408D01*
X144845270Y-116761717D01*
X144845270Y-116761716D01*
X144884622Y-116707554D01*
X144981096Y-116518215D01*
X145013239Y-116419288D01*
X145052676Y-116361612D01*
X145117034Y-116334413D01*
X145185880Y-116346327D01*
X145237357Y-116393571D01*
X145249100Y-116419284D01*
X145250127Y-116422446D01*
X145250128Y-116422447D01*
X145328768Y-116576788D01*
X145430586Y-116716928D01*
X145553072Y-116839414D01*
X145693212Y-116941232D01*
X145847555Y-117019873D01*
X146012299Y-117073402D01*
X146183389Y-117100500D01*
X146183390Y-117100500D01*
X146356610Y-117100500D01*
X146356611Y-117100500D01*
X146527701Y-117073402D01*
X146692445Y-117019873D01*
X146846788Y-116941232D01*
X146986928Y-116839414D01*
X147109414Y-116716928D01*
X147211232Y-116576788D01*
X147289873Y-116422445D01*
X147343402Y-116257701D01*
X147370500Y-116086611D01*
X147370500Y-115913389D01*
X147709500Y-115913389D01*
X147709500Y-116086610D01*
X147726540Y-116194201D01*
X147736598Y-116257701D01*
X147790127Y-116422445D01*
X147868768Y-116576788D01*
X147970586Y-116716928D01*
X148093072Y-116839414D01*
X148233212Y-116941232D01*
X148387555Y-117019873D01*
X148552299Y-117073402D01*
X148723389Y-117100500D01*
X148723390Y-117100500D01*
X148896610Y-117100500D01*
X148896611Y-117100500D01*
X149067701Y-117073402D01*
X149232445Y-117019873D01*
X149386788Y-116941232D01*
X149526928Y-116839414D01*
X149649414Y-116716928D01*
X149751232Y-116576788D01*
X149829873Y-116422445D01*
X149883402Y-116257701D01*
X149910500Y-116086611D01*
X149910500Y-115913389D01*
X150249500Y-115913389D01*
X150249500Y-116086610D01*
X150266540Y-116194201D01*
X150276598Y-116257701D01*
X150330127Y-116422445D01*
X150408768Y-116576788D01*
X150510586Y-116716928D01*
X150633072Y-116839414D01*
X150773212Y-116941232D01*
X150927555Y-117019873D01*
X151092299Y-117073402D01*
X151263389Y-117100500D01*
X151263390Y-117100500D01*
X151436610Y-117100500D01*
X151436611Y-117100500D01*
X151607701Y-117073402D01*
X151772445Y-117019873D01*
X151926788Y-116941232D01*
X152066928Y-116839414D01*
X152189414Y-116716928D01*
X152291232Y-116576788D01*
X152369873Y-116422445D01*
X152423402Y-116257701D01*
X152450500Y-116086611D01*
X152450500Y-115913389D01*
X152423402Y-115742299D01*
X152369873Y-115577555D01*
X152291232Y-115423212D01*
X152189414Y-115283072D01*
X152066928Y-115160586D01*
X151926788Y-115058768D01*
X151772445Y-114980127D01*
X151607701Y-114926598D01*
X151607699Y-114926597D01*
X151607698Y-114926597D01*
X151476271Y-114905781D01*
X151436611Y-114899500D01*
X151263389Y-114899500D01*
X151223728Y-114905781D01*
X151092302Y-114926597D01*
X150927552Y-114980128D01*
X150773211Y-115058768D01*
X150693256Y-115116859D01*
X150633072Y-115160586D01*
X150633070Y-115160588D01*
X150633069Y-115160588D01*
X150510588Y-115283069D01*
X150510588Y-115283070D01*
X150510586Y-115283072D01*
X150503780Y-115292440D01*
X150408768Y-115423211D01*
X150330128Y-115577552D01*
X150276597Y-115742302D01*
X150249500Y-115913389D01*
X149910500Y-115913389D01*
X149883402Y-115742299D01*
X149829873Y-115577555D01*
X149751232Y-115423212D01*
X149649414Y-115283072D01*
X149526928Y-115160586D01*
X149386788Y-115058768D01*
X149232445Y-114980127D01*
X149067701Y-114926598D01*
X149067699Y-114926597D01*
X149067698Y-114926597D01*
X148936271Y-114905781D01*
X148896611Y-114899500D01*
X148723389Y-114899500D01*
X148683728Y-114905781D01*
X148552302Y-114926597D01*
X148387552Y-114980128D01*
X148233211Y-115058768D01*
X148153256Y-115116859D01*
X148093072Y-115160586D01*
X148093070Y-115160588D01*
X148093069Y-115160588D01*
X147970588Y-115283069D01*
X147970588Y-115283070D01*
X147970586Y-115283072D01*
X147963780Y-115292440D01*
X147868768Y-115423211D01*
X147790128Y-115577552D01*
X147736597Y-115742302D01*
X147709500Y-115913389D01*
X147370500Y-115913389D01*
X147343402Y-115742299D01*
X147289873Y-115577555D01*
X147211232Y-115423212D01*
X147109414Y-115283072D01*
X146986928Y-115160586D01*
X146846788Y-115058768D01*
X146692445Y-114980127D01*
X146527701Y-114926598D01*
X146527699Y-114926597D01*
X146527698Y-114926597D01*
X146396271Y-114905781D01*
X146356611Y-114899500D01*
X146183389Y-114899500D01*
X146151192Y-114904599D01*
X146012301Y-114926597D01*
X146012297Y-114926598D01*
X145843026Y-114981597D01*
X145773185Y-114983592D01*
X145717028Y-114951347D01*
X145577862Y-114812181D01*
X145544377Y-114750858D01*
X145549361Y-114681166D01*
X145591233Y-114625233D01*
X145656697Y-114600816D01*
X145665543Y-114600500D01*
X153321614Y-114600500D01*
X153388653Y-114620185D01*
X153434408Y-114672989D01*
X153444352Y-114742147D01*
X153415327Y-114805703D01*
X153409295Y-114812181D01*
X153309493Y-114911982D01*
X153309488Y-114911988D01*
X153237017Y-115037511D01*
X153237016Y-115037515D01*
X153199500Y-115177525D01*
X153199500Y-115322475D01*
X153226493Y-115423212D01*
X153237017Y-115462488D01*
X153309488Y-115588011D01*
X153309490Y-115588013D01*
X153309491Y-115588015D01*
X153411985Y-115690509D01*
X153411986Y-115690510D01*
X153411988Y-115690511D01*
X153537511Y-115762982D01*
X153537512Y-115762982D01*
X153537515Y-115762984D01*
X153677525Y-115800500D01*
X153677528Y-115800500D01*
X153822472Y-115800500D01*
X153822475Y-115800500D01*
X153962485Y-115762984D01*
X154088015Y-115690509D01*
X154190509Y-115588015D01*
X154262984Y-115462485D01*
X154300500Y-115322475D01*
X154300500Y-115177525D01*
X154262984Y-115037515D01*
X154242919Y-115002762D01*
X154190511Y-114911988D01*
X154190506Y-114911982D01*
X154090705Y-114812181D01*
X154057220Y-114750858D01*
X154062204Y-114681166D01*
X154104076Y-114625233D01*
X154169540Y-114600816D01*
X154178386Y-114600500D01*
X156053456Y-114600500D01*
X156120495Y-114620185D01*
X156141137Y-114636819D01*
X156447977Y-114943659D01*
X156481462Y-115004982D01*
X156480070Y-115063433D01*
X156449500Y-115177525D01*
X156449500Y-115322475D01*
X156476493Y-115423212D01*
X156487017Y-115462488D01*
X156559488Y-115588011D01*
X156559490Y-115588013D01*
X156559491Y-115588015D01*
X156661985Y-115690509D01*
X156661986Y-115690510D01*
X156661988Y-115690511D01*
X156787511Y-115762982D01*
X156787512Y-115762982D01*
X156787515Y-115762984D01*
X156927525Y-115800500D01*
X156927528Y-115800500D01*
X157072472Y-115800500D01*
X157072475Y-115800500D01*
X157212485Y-115762984D01*
X157338015Y-115690509D01*
X157440509Y-115588015D01*
X157512984Y-115462485D01*
X157550500Y-115322475D01*
X157550500Y-115177525D01*
X157512984Y-115037515D01*
X157492919Y-115002762D01*
X157440511Y-114911988D01*
X157440506Y-114911982D01*
X157338017Y-114809493D01*
X157338015Y-114809491D01*
X157274442Y-114772786D01*
X157248765Y-114753083D01*
X156465213Y-113969531D01*
X156465208Y-113969527D01*
X156385290Y-113923387D01*
X156385289Y-113923386D01*
X156385288Y-113923386D01*
X156296144Y-113899500D01*
X156296143Y-113899500D01*
X154428386Y-113899500D01*
X154361347Y-113879815D01*
X154315592Y-113827011D01*
X154305648Y-113757853D01*
X154334673Y-113694297D01*
X154340705Y-113687819D01*
X154440509Y-113588015D01*
X154512984Y-113462485D01*
X154550500Y-113322475D01*
X154550500Y-113177525D01*
X154512984Y-113037515D01*
X154483828Y-112987016D01*
X154440511Y-112911988D01*
X154440506Y-112911982D01*
X154338017Y-112809493D01*
X154338011Y-112809488D01*
X154212488Y-112737017D01*
X154212489Y-112737017D01*
X154201006Y-112733940D01*
X154072475Y-112699500D01*
X153927525Y-112699500D01*
X153798993Y-112733940D01*
X153787511Y-112737017D01*
X153661988Y-112809488D01*
X153661982Y-112809493D01*
X153559493Y-112911982D01*
X153559488Y-112911988D01*
X153487017Y-113037511D01*
X153487016Y-113037515D01*
X153449500Y-113177525D01*
X153449500Y-113322475D01*
X153477649Y-113427527D01*
X153487017Y-113462488D01*
X153559488Y-113588011D01*
X153559493Y-113588017D01*
X153659295Y-113687819D01*
X153692780Y-113749142D01*
X153687796Y-113818834D01*
X153645924Y-113874767D01*
X153580460Y-113899184D01*
X153571614Y-113899500D01*
X147044786Y-113899500D01*
X146977747Y-113879815D01*
X146931992Y-113827011D01*
X146922048Y-113757853D01*
X146935114Y-113720099D01*
X146934872Y-113719999D01*
X146936557Y-113715928D01*
X146937397Y-113713504D01*
X146937981Y-113712492D01*
X146937982Y-113712489D01*
X146937982Y-113712487D01*
X146937984Y-113712485D01*
X146975500Y-113572475D01*
X146975500Y-113427525D01*
X146960778Y-113372582D01*
X146962441Y-113302734D01*
X146992872Y-113252809D01*
X147208170Y-113037511D01*
X147530470Y-112715212D01*
X147552229Y-112677525D01*
X151449500Y-112677525D01*
X151449500Y-112822475D01*
X151481920Y-112943467D01*
X151487017Y-112962488D01*
X151559488Y-113088011D01*
X151559490Y-113088013D01*
X151559491Y-113088015D01*
X151661985Y-113190509D01*
X151661986Y-113190510D01*
X151661988Y-113190511D01*
X151787511Y-113262982D01*
X151787512Y-113262982D01*
X151787515Y-113262984D01*
X151927525Y-113300500D01*
X151927528Y-113300500D01*
X152072472Y-113300500D01*
X152072475Y-113300500D01*
X152212485Y-113262984D01*
X152338015Y-113190509D01*
X152440509Y-113088015D01*
X152512984Y-112962485D01*
X152550500Y-112822475D01*
X152550500Y-112677525D01*
X152512984Y-112537515D01*
X152471240Y-112465213D01*
X152440511Y-112411988D01*
X152440506Y-112411982D01*
X152338017Y-112309493D01*
X152338011Y-112309488D01*
X152212488Y-112237017D01*
X152212489Y-112237017D01*
X152201006Y-112233940D01*
X152072475Y-112199500D01*
X151927525Y-112199500D01*
X151798993Y-112233940D01*
X151787511Y-112237017D01*
X151661988Y-112309488D01*
X151661982Y-112309493D01*
X151559493Y-112411982D01*
X151559488Y-112411988D01*
X151487017Y-112537511D01*
X151487016Y-112537515D01*
X151449500Y-112677525D01*
X147552229Y-112677525D01*
X147576614Y-112635288D01*
X147587298Y-112595413D01*
X147600500Y-112546144D01*
X147600500Y-111177525D01*
X158199500Y-111177525D01*
X158199500Y-111322475D01*
X158200568Y-111326459D01*
X158237017Y-111462488D01*
X158309488Y-111588011D01*
X158309490Y-111588013D01*
X158309491Y-111588015D01*
X158411985Y-111690509D01*
X158411986Y-111690510D01*
X158411988Y-111690511D01*
X158537511Y-111762982D01*
X158537512Y-111762982D01*
X158537515Y-111762984D01*
X158677525Y-111800500D01*
X158677528Y-111800500D01*
X158822472Y-111800500D01*
X158822475Y-111800500D01*
X158962485Y-111762984D01*
X159088015Y-111690509D01*
X159190509Y-111588015D01*
X159262984Y-111462485D01*
X159300500Y-111322475D01*
X159300500Y-111177525D01*
X160199500Y-111177525D01*
X160199500Y-111322475D01*
X160200568Y-111326459D01*
X160237017Y-111462488D01*
X160309488Y-111588011D01*
X160309490Y-111588013D01*
X160309491Y-111588015D01*
X160411985Y-111690509D01*
X160411986Y-111690510D01*
X160411988Y-111690511D01*
X160537511Y-111762982D01*
X160537512Y-111762982D01*
X160537515Y-111762984D01*
X160677525Y-111800500D01*
X160677528Y-111800500D01*
X160822472Y-111800500D01*
X160822475Y-111800500D01*
X160962485Y-111762984D01*
X161088015Y-111690509D01*
X161190509Y-111588015D01*
X161262984Y-111462485D01*
X161300500Y-111322475D01*
X161300500Y-111177525D01*
X161262984Y-111037515D01*
X161190509Y-110911985D01*
X161088015Y-110809491D01*
X161088013Y-110809490D01*
X161088011Y-110809488D01*
X160962488Y-110737017D01*
X160962489Y-110737017D01*
X160951006Y-110733940D01*
X160822475Y-110699500D01*
X160677525Y-110699500D01*
X160548993Y-110733940D01*
X160537511Y-110737017D01*
X160411988Y-110809488D01*
X160411982Y-110809493D01*
X160309493Y-110911982D01*
X160309488Y-110911988D01*
X160237017Y-111037511D01*
X160237016Y-111037515D01*
X160199500Y-111177525D01*
X159300500Y-111177525D01*
X159262984Y-111037515D01*
X159190509Y-110911985D01*
X159088015Y-110809491D01*
X159088013Y-110809490D01*
X159088011Y-110809488D01*
X158962488Y-110737017D01*
X158962489Y-110737017D01*
X158951006Y-110733940D01*
X158822475Y-110699500D01*
X158677525Y-110699500D01*
X158548993Y-110733940D01*
X158537511Y-110737017D01*
X158411988Y-110809488D01*
X158411982Y-110809493D01*
X158309493Y-110911982D01*
X158309488Y-110911988D01*
X158237017Y-111037511D01*
X158237016Y-111037515D01*
X158199500Y-111177525D01*
X147600500Y-111177525D01*
X147600500Y-101250000D01*
X147858500Y-101250000D01*
X147858500Y-109200000D01*
X148000000Y-109200000D01*
X148000000Y-109152525D01*
X148424500Y-109152525D01*
X148424500Y-109297475D01*
X148462016Y-109437485D01*
X148462017Y-109437488D01*
X148534488Y-109563011D01*
X148534490Y-109563013D01*
X148534491Y-109563015D01*
X148636985Y-109665509D01*
X148636986Y-109665510D01*
X148636988Y-109665511D01*
X148762511Y-109737982D01*
X148762512Y-109737982D01*
X148762515Y-109737984D01*
X148902525Y-109775500D01*
X148902528Y-109775500D01*
X149047472Y-109775500D01*
X149047475Y-109775500D01*
X149187485Y-109737984D01*
X149313015Y-109665509D01*
X149415509Y-109563015D01*
X149487984Y-109437485D01*
X149525500Y-109297475D01*
X149525500Y-109152525D01*
X152424500Y-109152525D01*
X152424500Y-109297475D01*
X152462016Y-109437485D01*
X152462017Y-109437488D01*
X152534488Y-109563011D01*
X152534490Y-109563013D01*
X152534491Y-109563015D01*
X152636985Y-109665509D01*
X152636986Y-109665510D01*
X152636988Y-109665511D01*
X152762511Y-109737982D01*
X152762512Y-109737982D01*
X152762515Y-109737984D01*
X152902525Y-109775500D01*
X152902528Y-109775500D01*
X153047472Y-109775500D01*
X153047475Y-109775500D01*
X153187485Y-109737984D01*
X153313015Y-109665509D01*
X153415509Y-109563015D01*
X153487984Y-109437485D01*
X153525500Y-109297475D01*
X153525500Y-109152525D01*
X153487984Y-109012515D01*
X153446412Y-108940511D01*
X153415511Y-108886988D01*
X153415506Y-108886982D01*
X153313017Y-108784493D01*
X153313011Y-108784488D01*
X153187488Y-108712017D01*
X153187489Y-108712017D01*
X153170818Y-108707550D01*
X153047475Y-108674500D01*
X152902525Y-108674500D01*
X152779182Y-108707550D01*
X152762511Y-108712017D01*
X152636988Y-108784488D01*
X152636982Y-108784493D01*
X152534493Y-108886982D01*
X152534488Y-108886988D01*
X152462017Y-109012511D01*
X152462016Y-109012515D01*
X152424500Y-109152525D01*
X149525500Y-109152525D01*
X149487984Y-109012515D01*
X149446412Y-108940511D01*
X149415511Y-108886988D01*
X149415506Y-108886982D01*
X149313017Y-108784493D01*
X149313011Y-108784488D01*
X149187488Y-108712017D01*
X149187489Y-108712017D01*
X149170818Y-108707550D01*
X149047475Y-108674500D01*
X148902525Y-108674500D01*
X148779182Y-108707550D01*
X148762511Y-108712017D01*
X148636988Y-108784488D01*
X148636982Y-108784493D01*
X148534493Y-108886982D01*
X148534488Y-108886988D01*
X148462017Y-109012511D01*
X148462016Y-109012515D01*
X148424500Y-109152525D01*
X148000000Y-109152525D01*
X148000000Y-107893753D01*
X164650000Y-107893753D01*
X164650000Y-108106246D01*
X164683242Y-108316127D01*
X164683242Y-108316130D01*
X164748904Y-108518217D01*
X164845375Y-108707550D01*
X164884728Y-108761716D01*
X165517037Y-108129408D01*
X165534075Y-108192993D01*
X165599901Y-108307007D01*
X165692993Y-108400099D01*
X165807007Y-108465925D01*
X165870590Y-108482962D01*
X165238282Y-109115269D01*
X165238282Y-109115270D01*
X165292449Y-109154624D01*
X165481782Y-109251095D01*
X165683870Y-109316757D01*
X165893754Y-109350000D01*
X166106246Y-109350000D01*
X166316127Y-109316757D01*
X166316130Y-109316757D01*
X166518217Y-109251095D01*
X166707554Y-109154622D01*
X166761716Y-109115270D01*
X166761717Y-109115270D01*
X166129408Y-108482962D01*
X166192993Y-108465925D01*
X166307007Y-108400099D01*
X166400099Y-108307007D01*
X166465925Y-108192993D01*
X166482962Y-108129408D01*
X167115270Y-108761717D01*
X167115270Y-108761716D01*
X167154622Y-108707554D01*
X167251095Y-108518217D01*
X167316757Y-108316130D01*
X167316757Y-108316127D01*
X167350000Y-108106246D01*
X167350000Y-107893753D01*
X167316757Y-107683872D01*
X167316757Y-107683869D01*
X167251095Y-107481782D01*
X167154624Y-107292449D01*
X167115270Y-107238282D01*
X167115269Y-107238282D01*
X166482962Y-107870590D01*
X166465925Y-107807007D01*
X166400099Y-107692993D01*
X166307007Y-107599901D01*
X166192993Y-107534075D01*
X166129409Y-107517037D01*
X166761716Y-106884728D01*
X166707550Y-106845375D01*
X166518217Y-106748904D01*
X166419287Y-106716760D01*
X166361611Y-106677323D01*
X166334413Y-106612964D01*
X166346328Y-106544118D01*
X166393572Y-106492642D01*
X166419290Y-106480897D01*
X166422445Y-106479873D01*
X166576788Y-106401232D01*
X166716928Y-106299414D01*
X166839414Y-106176928D01*
X166941232Y-106036788D01*
X167019873Y-105882445D01*
X167073402Y-105717701D01*
X167100500Y-105546611D01*
X167100500Y-105373389D01*
X167073402Y-105202299D01*
X167019873Y-105037555D01*
X166941232Y-104883212D01*
X166839414Y-104743072D01*
X166716928Y-104620586D01*
X166576788Y-104518768D01*
X166422445Y-104440127D01*
X166257701Y-104386598D01*
X166257699Y-104386597D01*
X166257698Y-104386597D01*
X166126271Y-104365781D01*
X166086611Y-104359500D01*
X165913389Y-104359500D01*
X165873728Y-104365781D01*
X165742302Y-104386597D01*
X165577552Y-104440128D01*
X165423211Y-104518768D01*
X165343256Y-104576859D01*
X165283072Y-104620586D01*
X165283070Y-104620588D01*
X165283069Y-104620588D01*
X165160588Y-104743069D01*
X165160588Y-104743070D01*
X165160586Y-104743072D01*
X165116859Y-104803256D01*
X165058768Y-104883211D01*
X164980128Y-105037552D01*
X164926597Y-105202302D01*
X164913101Y-105287515D01*
X164899500Y-105373389D01*
X164899500Y-105546611D01*
X164926598Y-105717701D01*
X164980127Y-105882445D01*
X165058768Y-106036788D01*
X165160586Y-106176928D01*
X165283072Y-106299414D01*
X165423212Y-106401232D01*
X165577555Y-106479873D01*
X165580708Y-106480897D01*
X165581752Y-106481611D01*
X165582048Y-106481734D01*
X165582022Y-106481795D01*
X165638383Y-106520330D01*
X165665585Y-106584688D01*
X165653674Y-106653535D01*
X165606433Y-106705013D01*
X165580712Y-106716760D01*
X165481783Y-106748904D01*
X165292439Y-106845380D01*
X165238282Y-106884727D01*
X165238282Y-106884728D01*
X165870591Y-107517037D01*
X165807007Y-107534075D01*
X165692993Y-107599901D01*
X165599901Y-107692993D01*
X165534075Y-107807007D01*
X165517037Y-107870591D01*
X164884728Y-107238282D01*
X164884727Y-107238282D01*
X164845380Y-107292439D01*
X164748904Y-107481782D01*
X164683242Y-107683869D01*
X164683242Y-107683872D01*
X164650000Y-107893753D01*
X148000000Y-107893753D01*
X148000000Y-103215025D01*
X148737000Y-103215025D01*
X148737000Y-103359975D01*
X148774516Y-103499985D01*
X148774517Y-103499988D01*
X148846988Y-103625511D01*
X148846990Y-103625513D01*
X148846991Y-103625515D01*
X148949485Y-103728009D01*
X148949486Y-103728010D01*
X148949488Y-103728011D01*
X149075011Y-103800482D01*
X149075012Y-103800482D01*
X149075015Y-103800484D01*
X149215025Y-103838000D01*
X149290956Y-103838000D01*
X149357995Y-103857685D01*
X149378637Y-103874319D01*
X149784788Y-104280470D01*
X149864712Y-104326614D01*
X149953856Y-104350500D01*
X149953858Y-104350500D01*
X150546142Y-104350500D01*
X150546144Y-104350500D01*
X150635288Y-104326614D01*
X150715212Y-104280470D01*
X152858863Y-102136819D01*
X152920186Y-102103334D01*
X152946544Y-102100500D01*
X153130214Y-102100500D01*
X153197253Y-102120185D01*
X153243008Y-102172989D01*
X153252952Y-102242147D01*
X153239885Y-102279900D01*
X153240128Y-102280001D01*
X153238442Y-102284071D01*
X153237603Y-102286496D01*
X153237018Y-102287507D01*
X153237017Y-102287510D01*
X153237016Y-102287515D01*
X153199500Y-102427525D01*
X153199500Y-102572475D01*
X153233537Y-102699500D01*
X153237017Y-102712488D01*
X153309488Y-102838011D01*
X153309490Y-102838013D01*
X153309491Y-102838015D01*
X153411985Y-102940509D01*
X153411986Y-102940510D01*
X153411988Y-102940511D01*
X153537511Y-103012982D01*
X153537512Y-103012982D01*
X153537515Y-103012984D01*
X153677525Y-103050500D01*
X153677528Y-103050500D01*
X153822472Y-103050500D01*
X153822475Y-103050500D01*
X153962485Y-103012984D01*
X154088015Y-102940509D01*
X154190509Y-102838015D01*
X154262984Y-102712485D01*
X154300500Y-102572475D01*
X154300500Y-102427525D01*
X154262984Y-102287515D01*
X154262982Y-102287512D01*
X154262982Y-102287510D01*
X154262981Y-102287507D01*
X154262397Y-102286496D01*
X154262163Y-102285534D01*
X154259872Y-102280001D01*
X154260734Y-102279643D01*
X154245927Y-102218595D01*
X154268781Y-102152569D01*
X154323704Y-102109381D01*
X154369786Y-102100500D01*
X156953856Y-102100500D01*
X159113456Y-102100500D01*
X159180495Y-102120185D01*
X159201137Y-102136819D01*
X159973181Y-102908863D01*
X160006666Y-102970186D01*
X160009500Y-102996544D01*
X160009500Y-103072475D01*
X160037696Y-103177701D01*
X160047017Y-103212488D01*
X160119488Y-103338011D01*
X160119490Y-103338013D01*
X160119491Y-103338015D01*
X160221985Y-103440509D01*
X160221986Y-103440510D01*
X160221988Y-103440511D01*
X160347511Y-103512982D01*
X160347512Y-103512982D01*
X160347515Y-103512984D01*
X160487525Y-103550500D01*
X160487528Y-103550500D01*
X160632472Y-103550500D01*
X160632475Y-103550500D01*
X160772485Y-103512984D01*
X160898015Y-103440509D01*
X161000509Y-103338015D01*
X161072984Y-103212485D01*
X161110500Y-103072475D01*
X161110500Y-102927525D01*
X161085276Y-102833389D01*
X164899500Y-102833389D01*
X164899500Y-103006611D01*
X164926598Y-103177701D01*
X164980127Y-103342445D01*
X165058768Y-103496788D01*
X165160586Y-103636928D01*
X165283072Y-103759414D01*
X165423212Y-103861232D01*
X165577555Y-103939873D01*
X165742299Y-103993402D01*
X165913389Y-104020500D01*
X165913390Y-104020500D01*
X166086610Y-104020500D01*
X166086611Y-104020500D01*
X166257701Y-103993402D01*
X166422445Y-103939873D01*
X166576788Y-103861232D01*
X166716928Y-103759414D01*
X166839414Y-103636928D01*
X166941232Y-103496788D01*
X167019873Y-103342445D01*
X167073402Y-103177701D01*
X167100500Y-103006611D01*
X167100500Y-102833389D01*
X167073402Y-102662299D01*
X167019873Y-102497555D01*
X166941232Y-102343212D01*
X166839414Y-102203072D01*
X166716928Y-102080586D01*
X166576788Y-101978768D01*
X166422445Y-101900127D01*
X166257701Y-101846598D01*
X166257699Y-101846597D01*
X166257698Y-101846597D01*
X166126271Y-101825781D01*
X166086611Y-101819500D01*
X165913389Y-101819500D01*
X165873728Y-101825781D01*
X165742302Y-101846597D01*
X165577552Y-101900128D01*
X165423211Y-101978768D01*
X165343256Y-102036859D01*
X165283072Y-102080586D01*
X165283070Y-102080588D01*
X165283069Y-102080588D01*
X165160588Y-102203069D01*
X165160588Y-102203070D01*
X165160586Y-102203072D01*
X165149308Y-102218595D01*
X165058768Y-102343211D01*
X164980128Y-102497552D01*
X164926597Y-102662302D01*
X164903285Y-102809491D01*
X164899500Y-102833389D01*
X161085276Y-102833389D01*
X161072984Y-102787515D01*
X161043828Y-102737016D01*
X161000511Y-102661988D01*
X161000506Y-102661982D01*
X160898017Y-102559493D01*
X160898011Y-102559488D01*
X160772488Y-102487017D01*
X160772489Y-102487017D01*
X160761006Y-102483940D01*
X160632475Y-102449500D01*
X160632472Y-102449500D01*
X160556544Y-102449500D01*
X160489505Y-102429815D01*
X160468863Y-102413181D01*
X159525213Y-101469531D01*
X159525208Y-101469527D01*
X159445290Y-101423387D01*
X159445289Y-101423386D01*
X159445288Y-101423386D01*
X159356144Y-101399500D01*
X157046144Y-101399500D01*
X152895544Y-101399500D01*
X152828505Y-101379815D01*
X152782750Y-101327011D01*
X152772806Y-101257853D01*
X152801831Y-101194297D01*
X152807863Y-101187819D01*
X153108863Y-100886819D01*
X153170186Y-100853334D01*
X153196544Y-100850500D01*
X160080614Y-100850500D01*
X160147653Y-100870185D01*
X160168295Y-100886819D01*
X160221985Y-100940509D01*
X160221986Y-100940510D01*
X160221988Y-100940511D01*
X160347511Y-101012982D01*
X160347512Y-101012982D01*
X160347515Y-101012984D01*
X160487525Y-101050500D01*
X160487528Y-101050500D01*
X160632472Y-101050500D01*
X160632475Y-101050500D01*
X160772485Y-101012984D01*
X160898015Y-100940509D01*
X161000509Y-100838015D01*
X161072984Y-100712485D01*
X161110500Y-100572475D01*
X161110500Y-100427525D01*
X161081852Y-100320610D01*
X161081852Y-100320608D01*
X161074558Y-100293389D01*
X164899500Y-100293389D01*
X164899500Y-100466610D01*
X164926596Y-100637693D01*
X164926598Y-100637701D01*
X164980127Y-100802445D01*
X165058768Y-100956788D01*
X165160586Y-101096928D01*
X165283072Y-101219414D01*
X165423212Y-101321232D01*
X165577555Y-101399873D01*
X165742299Y-101453402D01*
X165913389Y-101480500D01*
X165913390Y-101480500D01*
X166086610Y-101480500D01*
X166086611Y-101480500D01*
X166257701Y-101453402D01*
X166422445Y-101399873D01*
X166576788Y-101321232D01*
X166716928Y-101219414D01*
X166839414Y-101096928D01*
X166941232Y-100956788D01*
X167019873Y-100802445D01*
X167073402Y-100637701D01*
X167100500Y-100466611D01*
X167100500Y-100293389D01*
X167073402Y-100122299D01*
X167019873Y-99957555D01*
X166941232Y-99803212D01*
X166839414Y-99663072D01*
X166716928Y-99540586D01*
X166576788Y-99438768D01*
X166422445Y-99360127D01*
X166257701Y-99306598D01*
X166257699Y-99306597D01*
X166257698Y-99306597D01*
X166126271Y-99285781D01*
X166086611Y-99279500D01*
X165913389Y-99279500D01*
X165873728Y-99285781D01*
X165742302Y-99306597D01*
X165577552Y-99360128D01*
X165423211Y-99438768D01*
X165343256Y-99496859D01*
X165283072Y-99540586D01*
X165283070Y-99540588D01*
X165283069Y-99540588D01*
X165160588Y-99663069D01*
X165160588Y-99663070D01*
X165160586Y-99663072D01*
X165116859Y-99723256D01*
X165058768Y-99803211D01*
X164980128Y-99957552D01*
X164926597Y-100122302D01*
X164899500Y-100293389D01*
X161074558Y-100293389D01*
X161072984Y-100287516D01*
X161072982Y-100287511D01*
X161000511Y-100161988D01*
X161000506Y-100161982D01*
X160898017Y-100059493D01*
X160898011Y-100059488D01*
X160772488Y-99987017D01*
X160772489Y-99987017D01*
X160761006Y-99983940D01*
X160632475Y-99949500D01*
X160487525Y-99949500D01*
X160358993Y-99983940D01*
X160347511Y-99987017D01*
X160221988Y-100059488D01*
X160221982Y-100059493D01*
X160168295Y-100113181D01*
X160106972Y-100146666D01*
X160080614Y-100149500D01*
X152953856Y-100149500D01*
X152864712Y-100173386D01*
X152864709Y-100173387D01*
X152784791Y-100219527D01*
X152784786Y-100219531D01*
X150341137Y-102663181D01*
X150279814Y-102696666D01*
X150253456Y-102699500D01*
X150177525Y-102699500D01*
X150048993Y-102733940D01*
X150037511Y-102737017D01*
X149911988Y-102809488D01*
X149911982Y-102809493D01*
X149837681Y-102883795D01*
X149776358Y-102917280D01*
X149706666Y-102912296D01*
X149662319Y-102883795D01*
X149625517Y-102846993D01*
X149625511Y-102846988D01*
X149499988Y-102774517D01*
X149499989Y-102774517D01*
X149488506Y-102771440D01*
X149359975Y-102737000D01*
X149215025Y-102737000D01*
X149086493Y-102771440D01*
X149075011Y-102774517D01*
X148949488Y-102846988D01*
X148949482Y-102846993D01*
X148846993Y-102949482D01*
X148846988Y-102949488D01*
X148774517Y-103075011D01*
X148774516Y-103075015D01*
X148737000Y-103215025D01*
X148000000Y-103215025D01*
X148000000Y-99521560D01*
X148000000Y-99241324D01*
X148088015Y-99190509D01*
X148190509Y-99088015D01*
X148262984Y-98962485D01*
X148300500Y-98822475D01*
X148300500Y-98677525D01*
X148262984Y-98537515D01*
X148262982Y-98537512D01*
X148262982Y-98537510D01*
X148262981Y-98537507D01*
X148262397Y-98536496D01*
X148262163Y-98535534D01*
X148259872Y-98530001D01*
X148260734Y-98529643D01*
X148245927Y-98468595D01*
X148268781Y-98402569D01*
X148323704Y-98359381D01*
X148369786Y-98350500D01*
X150880214Y-98350500D01*
X150947253Y-98370185D01*
X150993008Y-98422989D01*
X151002952Y-98492147D01*
X150989885Y-98529900D01*
X150990128Y-98530001D01*
X150988442Y-98534071D01*
X150987603Y-98536496D01*
X150987018Y-98537507D01*
X150987017Y-98537510D01*
X150972460Y-98591837D01*
X150949500Y-98677525D01*
X150949500Y-98822475D01*
X150981125Y-98940500D01*
X150987017Y-98962488D01*
X151059488Y-99088011D01*
X151059490Y-99088013D01*
X151059491Y-99088015D01*
X151161985Y-99190509D01*
X151161986Y-99190510D01*
X151161988Y-99190511D01*
X151287511Y-99262982D01*
X151287512Y-99262982D01*
X151287515Y-99262984D01*
X151427525Y-99300500D01*
X151427528Y-99300500D01*
X151572472Y-99300500D01*
X151572475Y-99300500D01*
X151712485Y-99262984D01*
X151838015Y-99190509D01*
X151940509Y-99088015D01*
X152012984Y-98962485D01*
X152050500Y-98822475D01*
X152050500Y-98677525D01*
X152012984Y-98537515D01*
X152012982Y-98537512D01*
X152012982Y-98537510D01*
X152012981Y-98537507D01*
X152012397Y-98536496D01*
X152012163Y-98535534D01*
X152009872Y-98530001D01*
X152010734Y-98529643D01*
X151995927Y-98468595D01*
X152018781Y-98402569D01*
X152073704Y-98359381D01*
X152119786Y-98350500D01*
X153053456Y-98350500D01*
X153120495Y-98370185D01*
X153141137Y-98386819D01*
X153463181Y-98708863D01*
X153496666Y-98770186D01*
X153499500Y-98796544D01*
X153499500Y-98922475D01*
X153507909Y-98953856D01*
X153537017Y-99062488D01*
X153609488Y-99188011D01*
X153609490Y-99188013D01*
X153609491Y-99188015D01*
X153711985Y-99290509D01*
X153711986Y-99290510D01*
X153711988Y-99290511D01*
X153837511Y-99362982D01*
X153837512Y-99362982D01*
X153837515Y-99362984D01*
X153977525Y-99400500D01*
X153977528Y-99400500D01*
X154122472Y-99400500D01*
X154122475Y-99400500D01*
X154262485Y-99362984D01*
X154388015Y-99290509D01*
X154490509Y-99188015D01*
X154562984Y-99062485D01*
X154600500Y-98922475D01*
X154600500Y-98777525D01*
X154562984Y-98637515D01*
X154504660Y-98536496D01*
X154490511Y-98511988D01*
X154490506Y-98511982D01*
X154388017Y-98409493D01*
X154388011Y-98409488D01*
X154262488Y-98337017D01*
X154262489Y-98337017D01*
X154251006Y-98333940D01*
X154122475Y-98299500D01*
X154122472Y-98299500D01*
X154096544Y-98299500D01*
X154029505Y-98279815D01*
X154008863Y-98263181D01*
X153499071Y-97753389D01*
X164899500Y-97753389D01*
X164899500Y-97926610D01*
X164919748Y-98054456D01*
X164926598Y-98097701D01*
X164980127Y-98262445D01*
X165058768Y-98416788D01*
X165160586Y-98556928D01*
X165283072Y-98679414D01*
X165423212Y-98781232D01*
X165577555Y-98859873D01*
X165742299Y-98913402D01*
X165913389Y-98940500D01*
X165913390Y-98940500D01*
X166086610Y-98940500D01*
X166086611Y-98940500D01*
X166257701Y-98913402D01*
X166422445Y-98859873D01*
X166576788Y-98781232D01*
X166716928Y-98679414D01*
X166839414Y-98556928D01*
X166941232Y-98416788D01*
X167019873Y-98262445D01*
X167073402Y-98097701D01*
X167100500Y-97926611D01*
X167100500Y-97753389D01*
X167073402Y-97582299D01*
X167019873Y-97417555D01*
X166941232Y-97263212D01*
X166839414Y-97123072D01*
X166716928Y-97000586D01*
X166576788Y-96898768D01*
X166422445Y-96820127D01*
X166257701Y-96766598D01*
X166257699Y-96766597D01*
X166257698Y-96766597D01*
X166126271Y-96745781D01*
X166086611Y-96739500D01*
X165913389Y-96739500D01*
X165873728Y-96745781D01*
X165742302Y-96766597D01*
X165577552Y-96820128D01*
X165423211Y-96898768D01*
X165384087Y-96927194D01*
X165283072Y-97000586D01*
X165283070Y-97000588D01*
X165283069Y-97000588D01*
X165160588Y-97123069D01*
X165160588Y-97123070D01*
X165160586Y-97123072D01*
X165116859Y-97183256D01*
X165058768Y-97263211D01*
X164980128Y-97417552D01*
X164926597Y-97582302D01*
X164899500Y-97753389D01*
X153499071Y-97753389D01*
X153465213Y-97719531D01*
X153465208Y-97719527D01*
X153385290Y-97673387D01*
X153385289Y-97673386D01*
X153385288Y-97673386D01*
X153296144Y-97649500D01*
X148000000Y-97649500D01*
X148000000Y-94425321D01*
X164899500Y-94425321D01*
X164899500Y-96174678D01*
X164914032Y-96247735D01*
X164914033Y-96247739D01*
X164914034Y-96247740D01*
X164969399Y-96330601D01*
X165028642Y-96370185D01*
X165052260Y-96385966D01*
X165052264Y-96385967D01*
X165125321Y-96400499D01*
X165125324Y-96400500D01*
X165125326Y-96400500D01*
X166874676Y-96400500D01*
X166874677Y-96400499D01*
X166947740Y-96385966D01*
X167030601Y-96330601D01*
X167085966Y-96247740D01*
X167100500Y-96174674D01*
X167100500Y-94425326D01*
X167100500Y-94425323D01*
X167100499Y-94425321D01*
X167085967Y-94352264D01*
X167085966Y-94352260D01*
X167030601Y-94269399D01*
X166947740Y-94214034D01*
X166947739Y-94214033D01*
X166947735Y-94214032D01*
X166874677Y-94199500D01*
X166874674Y-94199500D01*
X165125326Y-94199500D01*
X165125323Y-94199500D01*
X165052264Y-94214032D01*
X165052260Y-94214033D01*
X164969399Y-94269399D01*
X164914033Y-94352260D01*
X164914032Y-94352264D01*
X164899500Y-94425321D01*
X148000000Y-94425321D01*
X148000000Y-75000000D01*
X142000000Y-75000000D01*
X142000000Y-76884734D01*
X142000000Y-105075678D01*
X142040902Y-105070542D01*
X142094516Y-105025738D01*
X142121999Y-104984607D01*
X142234605Y-104872001D01*
X142234612Y-104871995D01*
X142367030Y-104783517D01*
X142514168Y-104722570D01*
X142514176Y-104722568D01*
X142670365Y-104691500D01*
X142670370Y-104691500D01*
X142829630Y-104691500D01*
X142829634Y-104691500D01*
X142985823Y-104722568D01*
X142985831Y-104722570D01*
X143132969Y-104783517D01*
X143265387Y-104871995D01*
X143265394Y-104872001D01*
X143377998Y-104984605D01*
X143378004Y-104984612D01*
X143438851Y-105075678D01*
X143466483Y-105117032D01*
X143527430Y-105264169D01*
X143558032Y-105418019D01*
X143558461Y-105420074D01*
X143591946Y-105481397D01*
X143986921Y-105876372D01*
X144067032Y-106015127D01*
X144067032Y-106015128D01*
X144108500Y-106169889D01*
X144108500Y-109200000D01*
X146641500Y-109200000D01*
X146641500Y-101250000D01*
X146899500Y-101250000D01*
X146899500Y-112303455D01*
X146879815Y-112370494D01*
X146863181Y-112391136D01*
X146310849Y-112943467D01*
X146255264Y-112975560D01*
X146212517Y-112987015D01*
X146212511Y-112987017D01*
X146086988Y-113059488D01*
X146086982Y-113059493D01*
X145984493Y-113161982D01*
X145984488Y-113161988D01*
X145912017Y-113287511D01*
X145912016Y-113287515D01*
X145874500Y-113427525D01*
X145874500Y-113572475D01*
X145908940Y-113701006D01*
X145912017Y-113712489D01*
X145912018Y-113712492D01*
X145912603Y-113713504D01*
X145912836Y-113714465D01*
X145915128Y-113719999D01*
X145914265Y-113720356D01*
X145929073Y-113781405D01*
X145906219Y-113847431D01*
X145851296Y-113890619D01*
X145805214Y-113899500D01*
X145696544Y-113899500D01*
X145629505Y-113879815D01*
X145608863Y-113863181D01*
X143886819Y-112141137D01*
X143853334Y-112079814D01*
X143850500Y-112053456D01*
X143850500Y-106203858D01*
X143850500Y-106203856D01*
X143826614Y-106114712D01*
X143823829Y-106109888D01*
X143817831Y-106099499D01*
X143817829Y-106099497D01*
X143794732Y-106059491D01*
X143780470Y-106034788D01*
X143336819Y-105591137D01*
X143303334Y-105529814D01*
X143300500Y-105503456D01*
X143300500Y-105427527D01*
X143300500Y-105427525D01*
X143262984Y-105287515D01*
X143233828Y-105237016D01*
X143190511Y-105161988D01*
X143190506Y-105161982D01*
X143088017Y-105059493D01*
X143088011Y-105059488D01*
X142962488Y-104987017D01*
X142962489Y-104987017D01*
X142951006Y-104983940D01*
X142822475Y-104949500D01*
X142677525Y-104949500D01*
X142548993Y-104983940D01*
X142537511Y-104987017D01*
X142411988Y-105059488D01*
X142411982Y-105059493D01*
X142309493Y-105161982D01*
X142309488Y-105161988D01*
X142237017Y-105287511D01*
X142237016Y-105287515D01*
X142207010Y-105399500D01*
X142197728Y-105434139D01*
X142161362Y-105493799D01*
X142098515Y-105524328D01*
X142029140Y-105516033D01*
X141975262Y-105471547D01*
X141970566Y-105464045D01*
X141968230Y-105459999D01*
X141940509Y-105411985D01*
X141838015Y-105309491D01*
X141838013Y-105309490D01*
X141838011Y-105309488D01*
X141712488Y-105237017D01*
X141712489Y-105237017D01*
X141701006Y-105233940D01*
X141572475Y-105199500D01*
X141427525Y-105199500D01*
X141298993Y-105233940D01*
X141287511Y-105237017D01*
X141161988Y-105309488D01*
X141161982Y-105309493D01*
X141108295Y-105363181D01*
X141046972Y-105396666D01*
X141020614Y-105399500D01*
X136946544Y-105399500D01*
X136879505Y-105379815D01*
X136858863Y-105363181D01*
X134136819Y-102641137D01*
X134103334Y-102579814D01*
X134100500Y-102553456D01*
X134100500Y-101119785D01*
X134120185Y-101052746D01*
X134172989Y-101006991D01*
X134242147Y-100997047D01*
X134279900Y-101010114D01*
X134280001Y-101009872D01*
X134284078Y-101011560D01*
X134286504Y-101012400D01*
X134287515Y-101012984D01*
X134427525Y-101050500D01*
X134427528Y-101050500D01*
X134572472Y-101050500D01*
X134572475Y-101050500D01*
X134712485Y-101012984D01*
X134838015Y-100940509D01*
X134940509Y-100838015D01*
X135012984Y-100712485D01*
X135022352Y-100677525D01*
X139449500Y-100677525D01*
X139449500Y-100822475D01*
X139487016Y-100962485D01*
X139487017Y-100962488D01*
X139559488Y-101088011D01*
X139559490Y-101088013D01*
X139559491Y-101088015D01*
X139661985Y-101190509D01*
X139661986Y-101190510D01*
X139661988Y-101190511D01*
X139787511Y-101262982D01*
X139787512Y-101262982D01*
X139787515Y-101262984D01*
X139927525Y-101300500D01*
X139927528Y-101300500D01*
X140072472Y-101300500D01*
X140072475Y-101300500D01*
X140212485Y-101262984D01*
X140338015Y-101190509D01*
X140440509Y-101088015D01*
X140512984Y-100962485D01*
X140550500Y-100822475D01*
X140550500Y-100677525D01*
X140512984Y-100537515D01*
X140472047Y-100466611D01*
X140440511Y-100411988D01*
X140440506Y-100411982D01*
X140338017Y-100309493D01*
X140338011Y-100309488D01*
X140212488Y-100237017D01*
X140212489Y-100237017D01*
X140201006Y-100233940D01*
X140072475Y-100199500D01*
X139927525Y-100199500D01*
X139798993Y-100233940D01*
X139787511Y-100237017D01*
X139661988Y-100309488D01*
X139661982Y-100309493D01*
X139559493Y-100411982D01*
X139559488Y-100411988D01*
X139487017Y-100537511D01*
X139487016Y-100537515D01*
X139449500Y-100677525D01*
X135022352Y-100677525D01*
X135050500Y-100572475D01*
X135050500Y-100427525D01*
X135012984Y-100287515D01*
X134983828Y-100237016D01*
X134940511Y-100161988D01*
X134940506Y-100161982D01*
X134838017Y-100059493D01*
X134838011Y-100059488D01*
X134712488Y-99987017D01*
X134712489Y-99987017D01*
X134701006Y-99983940D01*
X134572475Y-99949500D01*
X134427525Y-99949500D01*
X134329108Y-99975870D01*
X134287510Y-99987017D01*
X134287507Y-99987018D01*
X134286496Y-99987603D01*
X134285534Y-99987836D01*
X134280001Y-99990128D01*
X134279643Y-99989265D01*
X134218595Y-100004073D01*
X134152569Y-99981219D01*
X134109381Y-99926296D01*
X134100500Y-99880214D01*
X134100500Y-96153858D01*
X134100500Y-96153856D01*
X134076614Y-96064712D01*
X134076611Y-96064706D01*
X134030473Y-95984794D01*
X134030470Y-95984791D01*
X134030469Y-95984788D01*
X133965212Y-95919531D01*
X130336819Y-92291137D01*
X130303334Y-92229814D01*
X130300500Y-92203456D01*
X130300500Y-92127527D01*
X130300500Y-92127525D01*
X130262984Y-91987515D01*
X130190509Y-91861985D01*
X130088015Y-91759491D01*
X130088013Y-91759490D01*
X130088011Y-91759488D01*
X129962488Y-91687017D01*
X129962489Y-91687017D01*
X129951006Y-91683940D01*
X129822475Y-91649500D01*
X129677525Y-91649500D01*
X129548993Y-91683940D01*
X129537511Y-91687017D01*
X129411988Y-91759488D01*
X129411982Y-91759493D01*
X129309493Y-91861982D01*
X129309488Y-91861988D01*
X129237017Y-91987511D01*
X129237016Y-91987515D01*
X129199500Y-92127525D01*
X120200500Y-92127525D01*
X120200500Y-54003052D01*
X120200649Y-53996968D01*
X120218497Y-53633665D01*
X120219690Y-53621555D01*
X120272614Y-53264765D01*
X120274981Y-53252863D01*
X120362631Y-52902947D01*
X120366152Y-52891341D01*
X120487672Y-52551717D01*
X120492314Y-52540509D01*
X120646547Y-52214409D01*
X120652262Y-52203717D01*
X120837704Y-51894327D01*
X120844447Y-51884234D01*
X121059329Y-51594500D01*
X121067032Y-51585115D01*
X121309273Y-51317843D01*
X121317843Y-51309273D01*
X121585115Y-51067032D01*
X121594500Y-51059329D01*
X121884234Y-50844447D01*
X121894327Y-50837704D01*
X122203717Y-50652262D01*
X122214409Y-50646547D01*
X122540509Y-50492314D01*
X122551717Y-50487672D01*
X122891341Y-50366152D01*
X122902947Y-50362631D01*
X123252863Y-50274981D01*
X123264765Y-50272614D01*
X123621561Y-50219689D01*
X123633659Y-50218497D01*
X123942885Y-50203305D01*
X123996968Y-50200649D01*
X124003052Y-50200500D01*
X124039882Y-50200500D01*
X165960118Y-50200500D01*
X165996948Y-50200500D01*
X166003032Y-50200649D01*
G37*
%TD.AperFunction*%
%TD*%
%TA.AperFunction,Conductor*%
%TO.N,GND*%
G36*
X142850362Y-107587561D02*
G01*
X142887082Y-107647004D01*
X142891500Y-107679810D01*
X142891500Y-109200000D01*
X142000000Y-109200000D01*
X142000000Y-108052051D01*
X142009716Y-108028593D01*
X142053555Y-107974192D01*
X142100081Y-107954432D01*
X142235831Y-107927430D01*
X142382968Y-107866483D01*
X142515389Y-107778003D01*
X142628003Y-107665389D01*
X142664398Y-107610918D01*
X142718010Y-107566114D01*
X142787334Y-107557407D01*
X142850362Y-107587561D01*
G37*
%TD.AperFunction*%
%TA.AperFunction,Conductor*%
G36*
X148000000Y-97391500D02*
G01*
X145919889Y-97391500D01*
X145842508Y-97412233D01*
X145842508Y-97412234D01*
X145765127Y-97432968D01*
X145765125Y-97432968D01*
X145765125Y-97432969D01*
X145626372Y-97513079D01*
X145626369Y-97513081D01*
X145231397Y-97908053D01*
X145170074Y-97941538D01*
X145167907Y-97941989D01*
X145014176Y-97972568D01*
X145014168Y-97972570D01*
X144867030Y-98033517D01*
X144734612Y-98121995D01*
X144734605Y-98122001D01*
X144622001Y-98234605D01*
X144621995Y-98234612D01*
X144533517Y-98367030D01*
X144472570Y-98514168D01*
X144472568Y-98514176D01*
X144441500Y-98670365D01*
X144441500Y-98829634D01*
X144472568Y-98985823D01*
X144472570Y-98985831D01*
X144533517Y-99132969D01*
X144621995Y-99265387D01*
X144622001Y-99265394D01*
X144734605Y-99377998D01*
X144734612Y-99378004D01*
X144867030Y-99466482D01*
X144867031Y-99466482D01*
X144867032Y-99466483D01*
X145014169Y-99527430D01*
X145141498Y-99552757D01*
X145170365Y-99558499D01*
X145170369Y-99558500D01*
X145170370Y-99558500D01*
X145329631Y-99558500D01*
X145329632Y-99558499D01*
X145485831Y-99527430D01*
X145632968Y-99466483D01*
X145765389Y-99378003D01*
X145878003Y-99265389D01*
X145966483Y-99132968D01*
X146027430Y-98985831D01*
X146058010Y-98832089D01*
X146090394Y-98770181D01*
X146091835Y-98768713D01*
X146215732Y-98644816D01*
X146277053Y-98611334D01*
X146303411Y-98608500D01*
X146731589Y-98608500D01*
X146798628Y-98628185D01*
X146844383Y-98680989D01*
X146854327Y-98750147D01*
X146825302Y-98813703D01*
X146819270Y-98820181D01*
X146763080Y-98876370D01*
X146763076Y-98876376D01*
X146682967Y-99015126D01*
X146682968Y-99015126D01*
X146682968Y-99015127D01*
X146641500Y-99169889D01*
X146641500Y-109200000D01*
X144108500Y-109200000D01*
X144108500Y-106169889D01*
X144067032Y-106015128D01*
X144067032Y-106015127D01*
X143986921Y-105876372D01*
X143591946Y-105481397D01*
X143558461Y-105420074D01*
X143558032Y-105418019D01*
X143527430Y-105264169D01*
X143466483Y-105117032D01*
X143438851Y-105075678D01*
X143378004Y-104984612D01*
X143377998Y-104984605D01*
X143265394Y-104872001D01*
X143265387Y-104871995D01*
X143132969Y-104783517D01*
X142985831Y-104722570D01*
X142985823Y-104722568D01*
X142829634Y-104691500D01*
X142829630Y-104691500D01*
X142670370Y-104691500D01*
X142670365Y-104691500D01*
X142514176Y-104722568D01*
X142514168Y-104722570D01*
X142367030Y-104783517D01*
X142234612Y-104871995D01*
X142234605Y-104872001D01*
X142121999Y-104984607D01*
X142094516Y-105025738D01*
X142040902Y-105070542D01*
X142000000Y-105075678D01*
X142000000Y-76884734D01*
X143241500Y-76884734D01*
X143241500Y-77115265D01*
X143271588Y-77343798D01*
X143331252Y-77566466D01*
X143331256Y-77566479D01*
X143419460Y-77779423D01*
X143419465Y-77779433D01*
X143534724Y-77979066D01*
X143534729Y-77979072D01*
X143534730Y-77979074D01*
X143675051Y-78161945D01*
X143675057Y-78161952D01*
X143838047Y-78324942D01*
X143838053Y-78324947D01*
X144020934Y-78465276D01*
X144220567Y-78580535D01*
X144240600Y-78588832D01*
X144295003Y-78632670D01*
X144317071Y-78698963D01*
X144317150Y-78703394D01*
X144317150Y-87779081D01*
X144297465Y-87846120D01*
X144296253Y-87847970D01*
X144283517Y-87867031D01*
X144222570Y-88014168D01*
X144222568Y-88014176D01*
X144191500Y-88170365D01*
X144191500Y-88329634D01*
X144222568Y-88485823D01*
X144222570Y-88485831D01*
X144283517Y-88632969D01*
X144371995Y-88765387D01*
X144372001Y-88765394D01*
X144484605Y-88877998D01*
X144484612Y-88878004D01*
X144617030Y-88966482D01*
X144617031Y-88966482D01*
X144617032Y-88966483D01*
X144764169Y-89027430D01*
X144920365Y-89058499D01*
X144920369Y-89058500D01*
X144920370Y-89058500D01*
X145079631Y-89058500D01*
X145079632Y-89058499D01*
X145235831Y-89027430D01*
X145382968Y-88966483D01*
X145515389Y-88878003D01*
X145628003Y-88765389D01*
X145716483Y-88632968D01*
X145777430Y-88485831D01*
X145808500Y-88329630D01*
X145808500Y-88170370D01*
X145777430Y-88014169D01*
X145716483Y-87867032D01*
X145712198Y-87860618D01*
X145703747Y-87847970D01*
X145682870Y-87781293D01*
X145682850Y-87779081D01*
X145682850Y-78703394D01*
X145702535Y-78636355D01*
X145755339Y-78590600D01*
X145759359Y-78588849D01*
X145779433Y-78580535D01*
X145979066Y-78465276D01*
X146161947Y-78324947D01*
X146324947Y-78161947D01*
X146465276Y-77979066D01*
X146580535Y-77779433D01*
X146668749Y-77566464D01*
X146728411Y-77343802D01*
X146758500Y-77115258D01*
X146758500Y-76884742D01*
X146728411Y-76656198D01*
X146668749Y-76433536D01*
X146668744Y-76433525D01*
X146668743Y-76433520D01*
X146580539Y-76220576D01*
X146580534Y-76220566D01*
X146465276Y-76020934D01*
X146324947Y-75838053D01*
X146324942Y-75838047D01*
X146161952Y-75675057D01*
X146161945Y-75675051D01*
X145979074Y-75534730D01*
X145979072Y-75534729D01*
X145979066Y-75534724D01*
X145779433Y-75419465D01*
X145779423Y-75419460D01*
X145566479Y-75331256D01*
X145566466Y-75331252D01*
X145566467Y-75331252D01*
X145566464Y-75331251D01*
X145343802Y-75271589D01*
X145343801Y-75271588D01*
X145343798Y-75271588D01*
X145115265Y-75241500D01*
X145115258Y-75241500D01*
X144884742Y-75241500D01*
X144884734Y-75241500D01*
X144656201Y-75271588D01*
X144544867Y-75301420D01*
X144433536Y-75331251D01*
X144433534Y-75331251D01*
X144433533Y-75331252D01*
X144433520Y-75331256D01*
X144220576Y-75419460D01*
X144220566Y-75419465D01*
X144020934Y-75534724D01*
X144020925Y-75534730D01*
X143838054Y-75675051D01*
X143838047Y-75675057D01*
X143675057Y-75838047D01*
X143675051Y-75838054D01*
X143534730Y-76020925D01*
X143534724Y-76020934D01*
X143419465Y-76220566D01*
X143419460Y-76220576D01*
X143331256Y-76433520D01*
X143331252Y-76433533D01*
X143271588Y-76656201D01*
X143241500Y-76884734D01*
X142000000Y-76884734D01*
X142000000Y-75000000D01*
X148000000Y-75000000D01*
X148000000Y-97391500D01*
G37*
%TD.AperFunction*%
%TA.AperFunction,Conductor*%
G36*
X148000000Y-109200000D02*
G01*
X147858500Y-109200000D01*
X147858500Y-99654521D01*
X147878185Y-99587482D01*
X147930989Y-99541727D01*
X147958306Y-99532904D01*
X147985831Y-99527430D01*
X148000000Y-99521560D01*
X148000000Y-109200000D01*
G37*
%TD.AperFunction*%
%TD*%
M02*
