%TF.GenerationSoftware,KiCad,Pcbnew,10.0.5*%
%TF.CreationDate,2026-07-30T15:09:33-04:00*%
%TF.ProjectId,MAX2769_Dev_00-A,4d415832-3736-4395-9f44-65765f30302d,rev?*%
%TF.SameCoordinates,Original*%
%TF.FileFunction,Copper,L1,Top*%
%TF.FilePolarity,Positive*%
%FSLAX46Y46*%
G04 Gerber Fmt 4.6, Leading zero omitted, Abs format (unit mm)*
G04 Created by KiCad (PCBNEW 10.0.5) date 2026-07-30 15:09:33*
%MOMM*%
%LPD*%
G01*
G04 APERTURE LIST*
G04 Aperture macros list*
%AMRoundRect*
0 Rectangle with rounded corners*
0 $1 Rounding radius*
0 $2 $3 $4 $5 $6 $7 $8 $9 X,Y pos of 4 corners*
0 Add a 4 corners polygon primitive as box body*
4,1,4,$2,$3,$4,$5,$6,$7,$8,$9,$2,$3,0*
0 Add four circle primitives for the rounded corners*
1,1,$1+$1,$2,$3*
1,1,$1+$1,$4,$5*
1,1,$1+$1,$6,$7*
1,1,$1+$1,$8,$9*
0 Add four rect primitives between the rounded corners*
20,1,$1+$1,$2,$3,$4,$5,0*
20,1,$1+$1,$4,$5,$6,$7,0*
20,1,$1+$1,$6,$7,$8,$9,0*
20,1,$1+$1,$8,$9,$2,$3,0*%
G04 Aperture macros list end*
%TA.AperFunction,SMDPad,CuDef*%
%ADD10RoundRect,0.140000X-0.140000X-0.170000X0.140000X-0.170000X0.140000X0.170000X-0.140000X0.170000X0*%
%TD*%
%TA.AperFunction,SMDPad,CuDef*%
%ADD11RoundRect,0.200000X-0.200000X-0.275000X0.200000X-0.275000X0.200000X0.275000X-0.200000X0.275000X0*%
%TD*%
%TA.AperFunction,SMDPad,CuDef*%
%ADD12RoundRect,0.225000X0.225000X0.250000X-0.225000X0.250000X-0.225000X-0.250000X0.225000X-0.250000X0*%
%TD*%
%TA.AperFunction,SMDPad,CuDef*%
%ADD13RoundRect,0.225000X-0.225000X-0.250000X0.225000X-0.250000X0.225000X0.250000X-0.225000X0.250000X0*%
%TD*%
%TA.AperFunction,ComponentPad*%
%ADD14R,1.700000X1.700000*%
%TD*%
%TA.AperFunction,ComponentPad*%
%ADD15C,1.700000*%
%TD*%
%TA.AperFunction,SMDPad,CuDef*%
%ADD16RoundRect,0.200000X-0.275000X0.200000X-0.275000X-0.200000X0.275000X-0.200000X0.275000X0.200000X0*%
%TD*%
%TA.AperFunction,SMDPad,CuDef*%
%ADD17RoundRect,0.200000X0.275000X-0.200000X0.275000X0.200000X-0.275000X0.200000X-0.275000X-0.200000X0*%
%TD*%
%TA.AperFunction,SMDPad,CuDef*%
%ADD18RoundRect,0.218750X0.256250X-0.218750X0.256250X0.218750X-0.256250X0.218750X-0.256250X-0.218750X0*%
%TD*%
%TA.AperFunction,SMDPad,CuDef*%
%ADD19RoundRect,0.225000X-0.250000X0.225000X-0.250000X-0.225000X0.250000X-0.225000X0.250000X0.225000X0*%
%TD*%
%TA.AperFunction,SMDPad,CuDef*%
%ADD20RoundRect,0.033750X-0.461250X-0.101250X0.461250X-0.101250X0.461250X0.101250X-0.461250X0.101250X0*%
%TD*%
%TA.AperFunction,SMDPad,CuDef*%
%ADD21RoundRect,0.033750X-0.101250X-0.461250X0.101250X-0.461250X0.101250X0.461250X-0.101250X0.461250X0*%
%TD*%
%TA.AperFunction,SMDPad,CuDef*%
%ADD22R,3.250000X3.250000*%
%TD*%
%TA.AperFunction,SMDPad,CuDef*%
%ADD23RoundRect,0.225000X0.250000X-0.225000X0.250000X0.225000X-0.250000X0.225000X-0.250000X-0.225000X0*%
%TD*%
%TA.AperFunction,SMDPad,CuDef*%
%ADD24RoundRect,0.147500X0.172500X-0.147500X0.172500X0.147500X-0.172500X0.147500X-0.172500X-0.147500X0*%
%TD*%
%TA.AperFunction,ComponentPad*%
%ADD25C,0.800000*%
%TD*%
%TA.AperFunction,ComponentPad*%
%ADD26C,5.400000*%
%TD*%
%TA.AperFunction,SMDPad,CuDef*%
%ADD27RoundRect,0.200000X0.200000X0.275000X-0.200000X0.275000X-0.200000X-0.275000X0.200000X-0.275000X0*%
%TD*%
%TA.AperFunction,SMDPad,CuDef*%
%ADD28RoundRect,0.150000X0.150000X-0.512500X0.150000X0.512500X-0.150000X0.512500X-0.150000X-0.512500X0*%
%TD*%
%TA.AperFunction,SMDPad,CuDef*%
%ADD29RoundRect,0.044500X-0.425500X-0.400500X0.425500X-0.400500X0.425500X0.400500X-0.425500X0.400500X0*%
%TD*%
%TA.AperFunction,ComponentPad*%
%ADD30C,1.000000*%
%TD*%
%TA.AperFunction,ViaPad*%
%ADD31C,0.600000*%
%TD*%
%TA.AperFunction,Conductor*%
%ADD32C,0.348700*%
%TD*%
%TA.AperFunction,Conductor*%
%ADD33C,0.200000*%
%TD*%
%TA.AperFunction,Conductor*%
%ADD34C,0.600000*%
%TD*%
%TA.AperFunction,Conductor*%
%ADD35C,0.270000*%
%TD*%
%TA.AperFunction,Conductor*%
%ADD36C,0.400000*%
%TD*%
%TA.AperFunction,Conductor*%
%ADD37C,0.275000*%
%TD*%
G04 APERTURE END LIST*
D10*
%TO.P,C24,1*%
%TO.N,Net-(AE2-A)*%
X145020000Y-89750000D03*
%TO.P,C24,2*%
%TO.N,GND*%
X145980000Y-89750000D03*
%TD*%
D11*
%TO.P,R22,1*%
%TO.N,Net-(U2-I1)*%
X161485000Y-95500000D03*
%TO.P,R22,2*%
%TO.N,RF_I1*%
X163135000Y-95500000D03*
%TD*%
D12*
%TO.P,C5,1*%
%TO.N,VCC_A*%
X140525000Y-101500000D03*
%TO.P,C5,2*%
%TO.N,GND*%
X138975000Y-101500000D03*
%TD*%
D13*
%TO.P,C19,1*%
%TO.N,VCC*%
X134225000Y-109250000D03*
%TO.P,C19,2*%
%TO.N,GND*%
X135775000Y-109250000D03*
%TD*%
D14*
%TO.P,J2,1,Pin_1_1*%
%TO.N,RF_PLL_LD*%
X124000000Y-95300000D03*
D15*
%TO.P,J2,2,Pin_2_2*%
%TO.N,Net-(J2-Pin_2)*%
X124000000Y-97840000D03*
%TO.P,J2,3,Pin_3_3*%
%TO.N,Net-(J2-Pin_3)*%
X124000000Y-100380000D03*
%TO.P,J2,4,Pin_4_4*%
%TO.N,Net-(J2-Pin_4)*%
X124000000Y-102920000D03*
%TO.P,J2,5,Pin_5_5*%
%TO.N,GND*%
X124000000Y-105460000D03*
%TO.P,J2,6,Pin_6_6*%
X124000000Y-108000000D03*
%TD*%
D16*
%TO.P,R3,1*%
%TO.N,/REG_nSHDN*%
X130750000Y-109175000D03*
%TO.P,R3,2*%
%TO.N,VCC*%
X130750000Y-110825000D03*
%TD*%
D17*
%TO.P,R11,1*%
%TO.N,VCC*%
X132500000Y-110825000D03*
%TO.P,R11,2*%
%TO.N,/REG_nSHDN*%
X132500000Y-109175000D03*
%TD*%
D11*
%TO.P,R24,1*%
%TO.N,Net-(U2-Q1)*%
X161485000Y-100500000D03*
%TO.P,R24,2*%
%TO.N,RF_Q1*%
X163135000Y-100500000D03*
%TD*%
D18*
%TO.P,D2,1,K_1*%
%TO.N,GND*%
X158750000Y-116787500D03*
%TO.P,D2,2,A_2*%
%TO.N,Net-(D2-A)*%
X158750000Y-115212500D03*
%TD*%
D13*
%TO.P,C18,1*%
%TO.N,/RF_LNAOUT*%
X138975000Y-105000000D03*
%TO.P,C18,2*%
%TO.N,/RF_MIXIN*%
X140525000Y-105000000D03*
%TD*%
D17*
%TO.P,R4,1*%
%TO.N,/RF_PG*%
X153250000Y-98825000D03*
%TO.P,R4,2*%
%TO.N,GND*%
X153250000Y-97175000D03*
%TD*%
D19*
%TO.P,C13,1*%
%TO.N,VCC_A*%
X152250000Y-109225000D03*
%TO.P,C13,2*%
%TO.N,GND*%
X152250000Y-110775000D03*
%TD*%
D16*
%TO.P,R7,1*%
%TO.N,VCC_A*%
X158750000Y-111925000D03*
%TO.P,R7,2*%
%TO.N,Net-(D2-A)*%
X158750000Y-113575000D03*
%TD*%
D20*
%TO.P,U2,1,ANTFLAG_1*%
%TO.N,/RF_ANTFLAG*%
X142640000Y-102000000D03*
%TO.P,U2,2,LNAOUT_2*%
%TO.N,/RF_LNAOUT*%
X142640000Y-102500000D03*
%TO.P,U2,3,ANTBIAS_3*%
%TO.N,/RF_ANTBIAS*%
X142640000Y-103000000D03*
%TO.P,U2,4,VCCRF_4*%
%TO.N,VCC_A*%
X142640000Y-103500000D03*
%TO.P,U2,5,MIXIN_5*%
%TO.N,/RF_MIXIN*%
X142640000Y-104000000D03*
%TO.P,U2,6,LD_6*%
%TO.N,Net-(U2-LD)*%
X142640000Y-104500000D03*
%TO.P,U2,7,~{SHDN}_7*%
%TO.N,RF_nSHDN*%
X142640000Y-105000000D03*
D21*
%TO.P,U2,8,SDATA_8*%
%TO.N,RF_DATA*%
X143500000Y-105860000D03*
%TO.P,U2,9,SCLK_9*%
%TO.N,RF_CLK*%
X144000000Y-105860000D03*
%TO.P,U2,10,~{CS}_10*%
%TO.N,RF_nCS*%
X144500000Y-105860000D03*
%TO.P,U2,11,VCCVCO_11*%
%TO.N,VCC_A*%
X145000000Y-105860000D03*
%TO.P,U2,12,CPOUT_12*%
%TO.N,/RF_CPOUT*%
X145500000Y-105860000D03*
%TO.P,U2,13,VCCCP_13*%
%TO.N,VCC_A*%
X146000000Y-105860000D03*
%TO.P,U2,14,VCCD_14*%
X146500000Y-105860000D03*
D20*
%TO.P,U2,15,XTAL_15*%
%TO.N,/RF_XTAL*%
X147360000Y-105000000D03*
%TO.P,U2,16,CLKOUT_16*%
%TO.N,Net-(U2-CLKOUT)*%
X147360000Y-104500000D03*
%TO.P,U2,17,Q1_17*%
%TO.N,Net-(U2-Q1)*%
X147360000Y-104000000D03*
%TO.P,U2,18,Q0_18*%
%TO.N,Net-(U2-Q0)*%
X147360000Y-103500000D03*
%TO.P,U2,19,VCCADC_19*%
%TO.N,VCC_D*%
X147360000Y-103000000D03*
%TO.P,U2,20,I0_20*%
%TO.N,Net-(U2-I0)*%
X147360000Y-102500000D03*
%TO.P,U2,21,I1_21*%
%TO.N,Net-(U2-I1)*%
X147360000Y-102000000D03*
D21*
%TO.P,U2,22,N.C._22*%
%TO.N,unconnected-(U2-N.C.-Pad22)*%
X146500000Y-101140000D03*
%TO.P,U2,23,VCCIF_23*%
%TO.N,VCC_A*%
X146000000Y-101140000D03*
%TO.P,U2,24,~{IDLE}_24*%
%TO.N,RF_nIDLE*%
X145500000Y-101140000D03*
%TO.P,U2,25,LNA2_25*%
%TO.N,/RF_LNA2*%
X145000000Y-101140000D03*
%TO.P,U2,26,PGM_26*%
%TO.N,/RF_PG*%
X144500000Y-101140000D03*
%TO.P,U2,27,LNA1_27*%
%TO.N,/RF_LNA1*%
X144000000Y-101140000D03*
%TO.P,U2,28,N.C._28*%
%TO.N,unconnected-(U2-N.C.-Pad28)*%
X143500000Y-101140000D03*
D22*
%TO.P,U2,29,EP_29*%
%TO.N,GND*%
X145000000Y-103500000D03*
%TD*%
D23*
%TO.P,C14,1*%
%TO.N,VCC_A*%
X150750000Y-98775000D03*
%TO.P,C14,2*%
%TO.N,GND*%
X150750000Y-97225000D03*
%TD*%
D17*
%TO.P,R5,1*%
%TO.N,VCC*%
X133750000Y-116825000D03*
%TO.P,R5,2*%
%TO.N,Net-(D1-A)*%
X133750000Y-115175000D03*
%TD*%
D11*
%TO.P,R17,1*%
%TO.N,RF_nIDLE*%
X146425000Y-112750000D03*
%TO.P,R17,2*%
%TO.N,Net-(J1-Pin_5)*%
X148075000Y-112750000D03*
%TD*%
D24*
%TO.P,L1,1*%
%TO.N,Net-(C15-Pad1)*%
X145000000Y-91735000D03*
%TO.P,L1,2*%
%TO.N,Net-(AE2-A)*%
X145000000Y-90765000D03*
%TD*%
D19*
%TO.P,C17,1*%
%TO.N,/RF_CPOUT*%
X143000000Y-109225000D03*
%TO.P,C17,2*%
%TO.N,GND*%
X143000000Y-110775000D03*
%TD*%
D25*
%TO.P,H4,1,1_1*%
%TO.N,GND*%
X163975000Y-116000000D03*
X164568109Y-114568109D03*
X164568109Y-117431891D03*
X166000000Y-113975000D03*
D26*
X166000000Y-116000000D03*
D25*
X166000000Y-118025000D03*
X167431891Y-114568109D03*
X167431891Y-117431891D03*
X168025000Y-116000000D03*
%TD*%
D19*
%TO.P,C11,1*%
%TO.N,VCC_D*%
X153000000Y-102475000D03*
%TO.P,C11,2*%
%TO.N,GND*%
X153000000Y-104025000D03*
%TD*%
D27*
%TO.P,R16,1*%
%TO.N,RF_CLK*%
X129075000Y-95710000D03*
%TO.P,R16,2*%
%TO.N,Net-(J2-Pin_3)*%
X127425000Y-95710000D03*
%TD*%
D13*
%TO.P,C28,1*%
%TO.N,VCC_D*%
X127475000Y-101500000D03*
%TO.P,C28,2*%
%TO.N,GND*%
X129025000Y-101500000D03*
%TD*%
D18*
%TO.P,D1,1,K_1*%
%TO.N,GND*%
X131750000Y-116787500D03*
%TO.P,D1,2,A_2*%
%TO.N,Net-(D1-A)*%
X131750000Y-115212500D03*
%TD*%
D28*
%TO.P,U4,1,IN_1*%
%TO.N,VCC*%
X134550000Y-107387500D03*
%TO.P,U4,2,GND_2*%
%TO.N,GND*%
X135500000Y-107387500D03*
%TO.P,U4,3,EN_3*%
%TO.N,/REG_nSHDN*%
X136450000Y-107387500D03*
%TO.P,U4,4,NC_4*%
%TO.N,GND*%
X136450000Y-105112500D03*
%TO.P,U4,5,OUT_5*%
%TO.N,VCC_A*%
X134550000Y-105112500D03*
%TD*%
D14*
%TO.P,J1,1,Pin_1_1*%
%TO.N,VCC*%
X138650000Y-116000000D03*
D15*
%TO.P,J1,2,Pin_2_2*%
%TO.N,GND*%
X141190000Y-116000000D03*
%TO.P,J1,3,Pin_3_3*%
X143730000Y-116000000D03*
%TO.P,J1,4,Pin_4_4*%
%TO.N,/REG_nSHDN*%
X146270000Y-116000000D03*
%TO.P,J1,5,Pin_5_5*%
%TO.N,Net-(J1-Pin_5)*%
X148810000Y-116000000D03*
%TO.P,J1,6,Pin_6_6*%
%TO.N,Net-(J1-Pin_6)*%
X151350000Y-116000000D03*
%TD*%
D29*
%TO.P,U1,1,NC_1*%
%TO.N,unconnected-(U1-NC-Pad1)*%
X156385000Y-109490000D03*
%TO.P,U1,2,GND_2*%
%TO.N,GND*%
X156385000Y-107010000D03*
%TO.P,U1,3,OUT_3*%
%TO.N,Net-(U1-OUT)*%
X154615000Y-107010000D03*
%TO.P,U1,4,VCC_4*%
%TO.N,VCC_D*%
X154615000Y-109490000D03*
%TD*%
D27*
%TO.P,R14,1*%
%TO.N,VCC_D*%
X129075000Y-99200000D03*
%TO.P,R14,2*%
%TO.N,Net-(J2-Pin_4)*%
X127425000Y-99200000D03*
%TD*%
D11*
%TO.P,R21,1*%
%TO.N,Net-(U2-I0)*%
X161485000Y-98000000D03*
%TO.P,R21,2*%
%TO.N,RF_I0*%
X163135000Y-98000000D03*
%TD*%
D25*
%TO.P,H1,1,1_1*%
%TO.N,GND*%
X121975000Y-54000000D03*
X122568109Y-52568109D03*
X122568109Y-55431891D03*
X124000000Y-51975000D03*
D26*
X124000000Y-54000000D03*
D25*
X124000000Y-56025000D03*
X125431891Y-52568109D03*
X125431891Y-55431891D03*
X126025000Y-54000000D03*
%TD*%
D23*
%TO.P,C22,1*%
%TO.N,/RF_LNA2*%
X146500000Y-98775000D03*
%TO.P,C22,2*%
%TO.N,GND*%
X146500000Y-97225000D03*
%TD*%
D27*
%TO.P,R20,1*%
%TO.N,Net-(U2-LD)*%
X129075000Y-92200000D03*
%TO.P,R20,2*%
%TO.N,RF_PLL_LD*%
X127425000Y-92200000D03*
%TD*%
D13*
%TO.P,C8,1*%
%TO.N,VCC_D*%
X154725000Y-111500000D03*
%TO.P,C8,2*%
%TO.N,GND*%
X156275000Y-111500000D03*
%TD*%
D19*
%TO.P,C15,1*%
%TO.N,Net-(C15-Pad1)*%
X144000000Y-95725000D03*
%TO.P,C15,2*%
%TO.N,/RF_LNA1*%
X144000000Y-97275000D03*
%TD*%
D27*
%TO.P,R18,1*%
%TO.N,RF_nCS*%
X129075000Y-97450000D03*
%TO.P,R18,2*%
%TO.N,Net-(J2-Pin_4)*%
X127425000Y-97450000D03*
%TD*%
D13*
%TO.P,C26,1*%
%TO.N,VCC_D*%
X127475000Y-103250000D03*
%TO.P,C26,2*%
%TO.N,GND*%
X129025000Y-103250000D03*
%TD*%
D12*
%TO.P,C16,1*%
%TO.N,Net-(U1-OUT)*%
X152775000Y-107000000D03*
%TO.P,C16,2*%
%TO.N,/RF_XTAL*%
X151225000Y-107000000D03*
%TD*%
D11*
%TO.P,R19,1*%
%TO.N,Net-(U2-CLKOUT)*%
X161485000Y-105500000D03*
%TO.P,R19,2*%
%TO.N,RF_CLKOUT*%
X163135000Y-105500000D03*
%TD*%
D19*
%TO.P,C4,1*%
%TO.N,VCC_D*%
X151250000Y-102475000D03*
%TO.P,C4,2*%
%TO.N,GND*%
X151250000Y-104025000D03*
%TD*%
D11*
%TO.P,R23,1*%
%TO.N,Net-(U2-Q0)*%
X161485000Y-103000000D03*
%TO.P,R23,2*%
%TO.N,RF_Q0*%
X163135000Y-103000000D03*
%TD*%
D13*
%TO.P,C1,1*%
%TO.N,VCC_D*%
X154725000Y-113250000D03*
%TO.P,C1,2*%
%TO.N,GND*%
X156275000Y-113250000D03*
%TD*%
D25*
%TO.P,H3,1,1_1*%
%TO.N,GND*%
X121975000Y-116000000D03*
X122568109Y-114568109D03*
X122568109Y-117431891D03*
X124000000Y-113975000D03*
D26*
X124000000Y-116000000D03*
D25*
X124000000Y-118025000D03*
X125431891Y-114568109D03*
X125431891Y-117431891D03*
X126025000Y-116000000D03*
%TD*%
D28*
%TO.P,U3,1,IN_1*%
%TO.N,VCC*%
X127800000Y-107387500D03*
%TO.P,U3,2,GND_2*%
%TO.N,GND*%
X128750000Y-107387500D03*
%TO.P,U3,3,EN_3*%
%TO.N,/REG_nSHDN*%
X129700000Y-107387500D03*
%TO.P,U3,4,NC_4*%
%TO.N,GND*%
X129700000Y-105112500D03*
%TO.P,U3,5,OUT_5*%
%TO.N,VCC_D*%
X127800000Y-105112500D03*
%TD*%
D27*
%TO.P,R15,1*%
%TO.N,RF_DATA*%
X129075000Y-93950000D03*
%TO.P,R15,2*%
%TO.N,Net-(J2-Pin_2)*%
X127425000Y-93950000D03*
%TD*%
D19*
%TO.P,C3,1*%
%TO.N,VCC_A*%
X146500000Y-109225000D03*
%TO.P,C3,2*%
%TO.N,GND*%
X146500000Y-110775000D03*
%TD*%
%TO.P,C9,1*%
%TO.N,VCC_A*%
X141250000Y-109225000D03*
%TO.P,C9,2*%
%TO.N,GND*%
X141250000Y-110775000D03*
%TD*%
D16*
%TO.P,R13,1*%
%TO.N,VCC_D*%
X154500000Y-115175000D03*
%TO.P,R13,2*%
%TO.N,Net-(J1-Pin_6)*%
X154500000Y-116825000D03*
%TD*%
D25*
%TO.P,H2,1,1_1*%
%TO.N,GND*%
X163975000Y-54000000D03*
X164568109Y-52568109D03*
X164568109Y-55431891D03*
X166000000Y-51975000D03*
D26*
X166000000Y-54000000D03*
D25*
X166000000Y-56025000D03*
X167431891Y-52568109D03*
X167431891Y-55431891D03*
X168025000Y-54000000D03*
%TD*%
D19*
%TO.P,C2,1*%
%TO.N,VCC_A*%
X139500000Y-109225000D03*
%TO.P,C2,2*%
%TO.N,GND*%
X139500000Y-110775000D03*
%TD*%
D27*
%TO.P,R12,1*%
%TO.N,VCC_D*%
X151325000Y-112750000D03*
%TO.P,R12,2*%
%TO.N,Net-(J1-Pin_5)*%
X149675000Y-112750000D03*
%TD*%
D10*
%TO.P,C23,1*%
%TO.N,Net-(C15-Pad1)*%
X145020000Y-92750000D03*
%TO.P,C23,2*%
%TO.N,GND*%
X145980000Y-92750000D03*
%TD*%
D19*
%TO.P,C10,1*%
%TO.N,VCC_A*%
X148250000Y-109225000D03*
%TO.P,C10,2*%
%TO.N,GND*%
X148250000Y-110775000D03*
%TD*%
D16*
%TO.P,R9,1*%
%TO.N,VCC_D*%
X160750000Y-111925000D03*
%TO.P,R9,2*%
%TO.N,Net-(D3-A)*%
X160750000Y-113575000D03*
%TD*%
D30*
%TO.P,AE2,1,A_1*%
%TO.N,Net-(AE2-A)*%
X145000000Y-77000000D03*
%TD*%
D18*
%TO.P,D3,1,K_1*%
%TO.N,GND*%
X160750000Y-116787500D03*
%TO.P,D3,2,A_2*%
%TO.N,Net-(D3-A)*%
X160750000Y-115212500D03*
%TD*%
D14*
%TO.P,J3,1,Pin_1_1*%
%TO.N,RF_I1*%
X166000000Y-95300000D03*
D15*
%TO.P,J3,2,Pin_2_2*%
%TO.N,RF_I0*%
X166000000Y-97840000D03*
%TO.P,J3,3,Pin_3_3*%
%TO.N,RF_Q1*%
X166000000Y-100380000D03*
%TO.P,J3,4,Pin_4_4*%
%TO.N,RF_Q0*%
X166000000Y-102920000D03*
%TO.P,J3,5,Pin_5_5*%
%TO.N,RF_CLKOUT*%
X166000000Y-105460000D03*
%TO.P,J3,6,Pin_6_6*%
%TO.N,GND*%
X166000000Y-108000000D03*
%TD*%
D13*
%TO.P,C25,1*%
%TO.N,VCC_A*%
X134225000Y-103250000D03*
%TO.P,C25,2*%
%TO.N,GND*%
X135775000Y-103250000D03*
%TD*%
D16*
%TO.P,R25,1*%
%TO.N,RF_nSHDN*%
X156250000Y-115175000D03*
%TO.P,R25,2*%
%TO.N,Net-(J1-Pin_6)*%
X156250000Y-116825000D03*
%TD*%
%TO.P,R2,1*%
%TO.N,/REG_nSHDN*%
X137500000Y-109175000D03*
%TO.P,R2,2*%
%TO.N,VCC*%
X137500000Y-110825000D03*
%TD*%
D23*
%TO.P,C7,1*%
%TO.N,VCC_A*%
X149000000Y-98775000D03*
%TO.P,C7,2*%
%TO.N,GND*%
X149000000Y-97225000D03*
%TD*%
D12*
%TO.P,C21,1*%
%TO.N,Net-(C21-Pad1)*%
X144775000Y-112750000D03*
%TO.P,C21,2*%
%TO.N,GND*%
X143225000Y-112750000D03*
%TD*%
D13*
%TO.P,C20,1*%
%TO.N,VCC*%
X127475000Y-109250000D03*
%TO.P,C20,2*%
%TO.N,GND*%
X129025000Y-109250000D03*
%TD*%
D12*
%TO.P,C12,1*%
%TO.N,VCC_A*%
X140525000Y-103250000D03*
%TO.P,C12,2*%
%TO.N,GND*%
X138975000Y-103250000D03*
%TD*%
D19*
%TO.P,C6,1*%
%TO.N,VCC_A*%
X150500000Y-109225000D03*
%TO.P,C6,2*%
%TO.N,GND*%
X150500000Y-110775000D03*
%TD*%
D17*
%TO.P,R1,1*%
%TO.N,Net-(C21-Pad1)*%
X144760000Y-110825000D03*
%TO.P,R1,2*%
%TO.N,/RF_CPOUT*%
X144760000Y-109175000D03*
%TD*%
D13*
%TO.P,C27,1*%
%TO.N,VCC_A*%
X134225000Y-101500000D03*
%TO.P,C27,2*%
%TO.N,GND*%
X135775000Y-101500000D03*
%TD*%
D31*
%TO.N,Net-(AE2-A)*%
X145000000Y-88250000D03*
%TO.N,GND*%
X145000000Y-60000000D03*
X155000000Y-60000000D03*
X125000000Y-70000000D03*
X146000000Y-87000000D03*
X140000000Y-95000000D03*
X146000000Y-88000000D03*
X143000000Y-98500000D03*
X155000000Y-80000000D03*
X144000000Y-84000000D03*
X146000000Y-84000000D03*
X155000000Y-90000000D03*
X138250000Y-101500000D03*
X144250000Y-102750000D03*
X135000000Y-70000000D03*
X139500000Y-111500000D03*
X146000000Y-82000000D03*
X165000000Y-60000000D03*
X165000000Y-90000000D03*
X129930000Y-101500000D03*
X146000000Y-80000000D03*
X146000000Y-79000000D03*
X143000000Y-99500000D03*
X142600000Y-97000000D03*
X141250000Y-111500000D03*
X125000000Y-80000000D03*
X150000000Y-95000000D03*
X146000000Y-86000000D03*
X125000000Y-90000000D03*
X150500000Y-111500000D03*
X146250000Y-91750000D03*
X160000000Y-75000000D03*
X144000000Y-82000000D03*
X160000000Y-65000000D03*
X146750000Y-89750000D03*
X165000000Y-70000000D03*
X143000000Y-94500000D03*
X146500000Y-111500000D03*
X152250000Y-111500000D03*
X140000000Y-55000000D03*
X157000000Y-111500000D03*
X143750000Y-91750000D03*
X157000000Y-113250000D03*
X153000000Y-104750000D03*
X150000000Y-55000000D03*
X130000000Y-75000000D03*
X155000000Y-99750000D03*
X144000000Y-86000000D03*
X143800000Y-92600000D03*
X145750000Y-102750000D03*
X150000000Y-65000000D03*
X160750000Y-117500000D03*
X144000000Y-79000000D03*
X129930000Y-103250000D03*
X158750000Y-117500000D03*
X146750000Y-92750000D03*
X151250000Y-104750000D03*
X129000000Y-110000000D03*
X157240000Y-107010000D03*
X144000000Y-80000000D03*
X143500000Y-93500000D03*
X144000000Y-85000000D03*
X131750000Y-117500000D03*
X148250000Y-97250000D03*
X144000000Y-88000000D03*
X148250000Y-111500000D03*
X142600000Y-95800000D03*
X140000000Y-65000000D03*
X135000000Y-80000000D03*
X144000000Y-81000000D03*
X132000000Y-106250000D03*
X144000000Y-87000000D03*
X160000000Y-85000000D03*
X144250000Y-104250000D03*
X130000000Y-55000000D03*
X146000000Y-81000000D03*
X135000000Y-90000000D03*
X135750000Y-110000000D03*
X130000000Y-65000000D03*
X145750000Y-94000000D03*
X144000000Y-83000000D03*
X125000000Y-60000000D03*
X138250000Y-103250000D03*
X155000000Y-70000000D03*
X165000000Y-80000000D03*
X146000000Y-85000000D03*
X146250000Y-90750000D03*
X140000000Y-85000000D03*
X160000000Y-55000000D03*
X147250000Y-97250000D03*
X151500000Y-97250000D03*
X135000000Y-60000000D03*
X144000000Y-89500000D03*
X145200000Y-96600000D03*
X136750000Y-103250000D03*
X136750000Y-101500000D03*
X142500000Y-112500000D03*
X142500000Y-111500000D03*
X130000000Y-85000000D03*
X145750000Y-104250000D03*
X145250000Y-95000000D03*
X146000000Y-83000000D03*
X143750000Y-90750000D03*
X150000000Y-85000000D03*
%TO.N,VCC_A*%
X134500000Y-100500000D03*
X140000000Y-100750000D03*
X139500000Y-108500000D03*
X148975000Y-109225000D03*
X158750000Y-111250000D03*
X151500000Y-98750000D03*
X152975000Y-109225000D03*
%TO.N,VCC*%
X127500000Y-110000000D03*
X133750000Y-117500000D03*
X134250000Y-110000000D03*
X131000000Y-112000000D03*
X137500000Y-112000000D03*
%TO.N,/REG_nSHDN*%
X132500000Y-108500000D03*
X137750000Y-108500000D03*
%TO.N,Net-(U2-Q1)*%
X160560000Y-100500000D03*
X150250000Y-103250000D03*
%TO.N,/RF_PG*%
X145250000Y-98750000D03*
X154050000Y-98850000D03*
%TO.N,Net-(U2-LD)*%
X129750000Y-92200000D03*
X141500000Y-105750000D03*
%TO.N,RF_nSHDN*%
X142750000Y-105500000D03*
X157000000Y-115250000D03*
%TO.N,RF_DATA*%
X129750000Y-93950000D03*
X142500000Y-106500000D03*
%TO.N,RF_CLK*%
X142000000Y-107150000D03*
X129750000Y-95700000D03*
%TO.N,RF_nCS*%
X129750000Y-97450000D03*
X141250000Y-107750000D03*
%TO.N,Net-(U2-Q0)*%
X160560000Y-103000000D03*
X149287500Y-103287500D03*
%TO.N,VCC_D*%
X160750000Y-111250000D03*
X154000000Y-113250000D03*
X153750000Y-102500000D03*
X153750000Y-115250000D03*
X127500000Y-100750000D03*
X152000000Y-112750000D03*
%TO.N,RF_nIDLE*%
X146425000Y-113500000D03*
X147750000Y-98750000D03*
%TD*%
%TO.N,Net-(AE2-A)*%
D32*
X145000000Y-88250000D02*
X145000475Y-88283868D01*
X145020000Y-89750000D02*
X145020000Y-90716716D01*
X145000475Y-88283868D02*
X145000475Y-89702862D01*
X145020000Y-90716716D02*
G75*
G02*
X144999995Y-90764995I-68300J16D01*
G01*
X145000475Y-89702862D02*
G75*
G03*
X145019989Y-89750011I66625J-38D01*
G01*
X145000000Y-89701716D02*
G75*
G03*
X145020005Y-89749995I68300J16D01*
G01*
%TO.N,GND*%
D33*
X146500000Y-97225000D02*
X147225000Y-97225000D01*
D34*
X139500000Y-110775000D02*
X139500000Y-111500000D01*
X152250000Y-110775000D02*
X152250000Y-111500000D01*
X136025000Y-101500000D02*
X136750000Y-101500000D01*
D33*
X160750000Y-116787500D02*
X160750000Y-117500000D01*
D34*
X146500000Y-110775000D02*
X146500000Y-111500000D01*
X156275000Y-111500000D02*
X157000000Y-111500000D01*
D35*
X149000000Y-97225000D02*
X148275000Y-97225000D01*
D34*
X148250000Y-110775000D02*
X148250000Y-111500000D01*
X138975000Y-101500000D02*
X138250000Y-101500000D01*
X129205000Y-103250000D02*
X129930000Y-103250000D01*
D33*
X147225000Y-97225000D02*
X147250000Y-97250000D01*
D35*
X148275000Y-97225000D02*
X148250000Y-97250000D01*
D33*
X143000000Y-110775000D02*
X143000000Y-111000000D01*
D35*
X151250000Y-104025000D02*
X151250000Y-104750000D01*
D34*
X143225000Y-112500000D02*
X142500000Y-112500000D01*
D33*
X158750000Y-116787500D02*
X158750000Y-117500000D01*
D35*
X151475000Y-97225000D02*
X151500000Y-97250000D01*
D34*
X138975000Y-103250000D02*
X138250000Y-103250000D01*
X141250000Y-110775000D02*
X141250000Y-111500000D01*
X129205000Y-101500000D02*
X129930000Y-101500000D01*
X150500000Y-110775000D02*
X150500000Y-111500000D01*
X129025000Y-109975000D02*
X129000000Y-110000000D01*
X156275000Y-113250000D02*
X157000000Y-113250000D01*
D35*
X150750000Y-97225000D02*
X151475000Y-97225000D01*
D34*
X135775000Y-109975000D02*
X135750000Y-110000000D01*
X135775000Y-109250000D02*
X135775000Y-109975000D01*
X129025000Y-109250000D02*
X129025000Y-109975000D01*
X136025000Y-103250000D02*
X136750000Y-103250000D01*
D33*
X157240000Y-107010000D02*
X156385000Y-107010000D01*
X131750000Y-116787500D02*
X131750000Y-117500000D01*
X143000000Y-111000000D02*
X142500000Y-111500000D01*
D35*
X153000000Y-104025000D02*
X153000000Y-104750000D01*
%TO.N,Net-(U2-I1)*%
D33*
X147360000Y-102000000D02*
X148000000Y-102000000D01*
X149375000Y-100625000D02*
X155500000Y-100625000D01*
X155500000Y-100625000D02*
X160625000Y-95500000D01*
X160625000Y-95500000D02*
X161485000Y-95500000D01*
X148000000Y-102000000D02*
X149375000Y-100625000D01*
X161485000Y-95575000D02*
X161485000Y-95500000D01*
%TO.N,RF_I1*%
X163235000Y-95400000D02*
X163135000Y-95500000D01*
X166060000Y-95400000D02*
X163235000Y-95400000D01*
%TO.N,VCC_A*%
D35*
X140525000Y-101500000D02*
X140525000Y-101275000D01*
X152250000Y-109225000D02*
X150500000Y-109225000D01*
D34*
X134225000Y-103975000D02*
X134225000Y-103250000D01*
D35*
X140525000Y-101500000D02*
X140525000Y-103250000D01*
D36*
X134475000Y-100525000D02*
X134500000Y-100500000D01*
D35*
X151475000Y-98775000D02*
X151500000Y-98750000D01*
X148250000Y-109225000D02*
X146500000Y-109225000D01*
X148000000Y-100000000D02*
X149000000Y-99000000D01*
X140525000Y-101275000D02*
X140000000Y-100750000D01*
X150500000Y-109225000D02*
X150475000Y-109225000D01*
X146000000Y-101140000D02*
X146000000Y-100500000D01*
X150750000Y-98775000D02*
X151475000Y-98775000D01*
X146500000Y-107500000D02*
X146000000Y-107000000D01*
D34*
X139500000Y-109225000D02*
X139500000Y-108500000D01*
D35*
X140525000Y-103250000D02*
X141250000Y-103250000D01*
X141250000Y-109225000D02*
X141525000Y-109225000D01*
X143750000Y-108250000D02*
X145000000Y-107000000D01*
X142640000Y-103500000D02*
X141500000Y-103500000D01*
D33*
X158750000Y-111925000D02*
X158750000Y-111250000D01*
D35*
X146000000Y-107000000D02*
X146000000Y-105860000D01*
X145000000Y-107000000D02*
X145000000Y-105860000D01*
X141500000Y-103500000D02*
X141250000Y-103250000D01*
X146500000Y-105860000D02*
X146500000Y-106500000D01*
X146500000Y-100000000D02*
X148000000Y-100000000D01*
D34*
X134225000Y-103250000D02*
X134225000Y-101500000D01*
D36*
X134475000Y-101500000D02*
X134475000Y-100525000D01*
D35*
X149250000Y-108000000D02*
X148000000Y-108000000D01*
X146500000Y-109225000D02*
X146500000Y-107500000D01*
D34*
X134550000Y-104300000D02*
X134225000Y-103975000D01*
D35*
X152975000Y-109225000D02*
X152250000Y-109225000D01*
D34*
X134550000Y-105112500D02*
X134550000Y-104300000D01*
D35*
X149000000Y-98775000D02*
X150750000Y-98775000D01*
X148975000Y-109225000D02*
X148250000Y-109225000D01*
X141525000Y-109225000D02*
X142500000Y-108250000D01*
X139500000Y-109225000D02*
X141250000Y-109225000D01*
X142500000Y-108250000D02*
X143750000Y-108250000D01*
X146500000Y-106500000D02*
X148000000Y-108000000D01*
X146000000Y-100500000D02*
X146500000Y-100000000D01*
X150475000Y-109225000D02*
X149250000Y-108000000D01*
X149000000Y-99000000D02*
X149000000Y-98775000D01*
%TO.N,VCC*%
D34*
X137500000Y-110825000D02*
X137500000Y-112000000D01*
X134225000Y-109975000D02*
X134250000Y-110000000D01*
X127800000Y-108200000D02*
X127475000Y-108525000D01*
X130750000Y-110825000D02*
X130750000Y-111750000D01*
X134550000Y-107387500D02*
X134550000Y-108200000D01*
X127475000Y-108525000D02*
X127475000Y-109250000D01*
X130750000Y-111750000D02*
X131000000Y-112000000D01*
X132500000Y-110825000D02*
X130750000Y-110825000D01*
X134225000Y-108525000D02*
X134225000Y-109250000D01*
X134225000Y-109250000D02*
X134225000Y-109975000D01*
X134550000Y-108200000D02*
X134225000Y-108525000D01*
X127475000Y-109975000D02*
X127500000Y-110000000D01*
X127475000Y-109250000D02*
X127475000Y-109975000D01*
D33*
X133750000Y-116825000D02*
X133750000Y-117500000D01*
D34*
X127800000Y-107387500D02*
X127800000Y-108200000D01*
%TO.N,RF_PLL_LD*%
D33*
X124000000Y-95300000D02*
X124000000Y-94925000D01*
X124000000Y-95300000D02*
X124325000Y-95300000D01*
X124325000Y-95300000D02*
X127425000Y-92200000D01*
%TO.N,Net-(J2-Pin_2)*%
X124000000Y-97840000D02*
X125750000Y-96090000D01*
X125750000Y-95625000D02*
X127425000Y-93950000D01*
X125750000Y-96090000D02*
X125750000Y-95800000D01*
X125750000Y-95800000D02*
X125750000Y-95625000D01*
%TO.N,Net-(J2-Pin_3)*%
X124000000Y-100250000D02*
X126500000Y-97750000D01*
X126500000Y-97750000D02*
X126500000Y-96635000D01*
X126500000Y-96635000D02*
X127425000Y-95710000D01*
X124000000Y-100380000D02*
X124000000Y-100250000D01*
%TO.N,Net-(J2-Pin_4)*%
X127425000Y-99200000D02*
X127425000Y-97450000D01*
X126512500Y-100112500D02*
X127425000Y-99200000D01*
X126512500Y-100407500D02*
X124000000Y-102920000D01*
X126512500Y-100407500D02*
X126512500Y-100112500D01*
%TO.N,/REG_nSHDN*%
X129700000Y-107387500D02*
X129700000Y-107700000D01*
X132500000Y-109175000D02*
X130750000Y-109175000D01*
X130750000Y-108750000D02*
X130750000Y-109175000D01*
X132500000Y-108500000D02*
X132500000Y-109175000D01*
X137750000Y-109175000D02*
X137750000Y-108500000D01*
X136637500Y-107387500D02*
X137750000Y-108500000D01*
X129700000Y-107700000D02*
X130750000Y-108750000D01*
X136450000Y-107387500D02*
X136637500Y-107387500D01*
%TO.N,Net-(U2-Q1)*%
X149500000Y-104000000D02*
X150250000Y-103250000D01*
X161485000Y-100500000D02*
X160560000Y-100500000D01*
X147360000Y-104000000D02*
X149500000Y-104000000D01*
%TO.N,RF_Q1*%
X163155000Y-100520000D02*
X163135000Y-100500000D01*
X166040000Y-100500000D02*
X166060000Y-100480000D01*
X163135000Y-100500000D02*
X166040000Y-100500000D01*
%TO.N,/RF_LNAOUT*%
X137500000Y-103750000D02*
X138750000Y-105000000D01*
X138250000Y-100000000D02*
X137500000Y-100750000D01*
X142104572Y-102500000D02*
X141500000Y-101895428D01*
X141500000Y-101895428D02*
X141500000Y-100750000D01*
X142640000Y-102500000D02*
X142104572Y-102500000D01*
X140750000Y-100000000D02*
X138250000Y-100000000D01*
X137500000Y-100750000D02*
X137500000Y-103750000D01*
X138750000Y-105000000D02*
X138975000Y-105000000D01*
X141500000Y-100750000D02*
X140750000Y-100000000D01*
%TO.N,/RF_MIXIN*%
X141500000Y-104000000D02*
X142640000Y-104000000D01*
X140525000Y-105000000D02*
X140525000Y-104975000D01*
X140525000Y-104975000D02*
X141500000Y-104000000D01*
%TO.N,/RF_PG*%
X153925000Y-98825000D02*
X153250000Y-98825000D01*
X145250000Y-98750000D02*
X145250000Y-99125000D01*
X153950000Y-98850000D02*
X153925000Y-98825000D01*
X154050000Y-98850000D02*
X153950000Y-98850000D01*
X145250000Y-99125000D02*
X144500000Y-99875000D01*
X144500000Y-99875000D02*
X144500000Y-101140000D01*
%TO.N,Net-(U2-LD)*%
X141500000Y-105000000D02*
X141500000Y-105750000D01*
X142000000Y-104500000D02*
X141500000Y-105000000D01*
D34*
X129075000Y-92200000D02*
X129750000Y-92200000D01*
D33*
X142640000Y-104500000D02*
X142000000Y-104500000D01*
%TO.N,RF_nSHDN*%
X142640000Y-105390000D02*
X142750000Y-105500000D01*
X156250000Y-115175000D02*
X156925000Y-115175000D01*
X142640000Y-105000000D02*
X142640000Y-105390000D01*
X156925000Y-115175000D02*
X157000000Y-115250000D01*
%TO.N,RF_DATA*%
X143500000Y-106250000D02*
X143250000Y-106500000D01*
X143500000Y-105860000D02*
X143500000Y-106250000D01*
X142500000Y-106500000D02*
X143250000Y-106500000D01*
D34*
X129075000Y-93950000D02*
X129750000Y-93950000D01*
%TO.N,RF_CLK*%
D33*
X142250000Y-107250000D02*
X142100000Y-107250000D01*
X144000000Y-106500000D02*
X144000000Y-105860000D01*
D34*
X129740000Y-95710000D02*
X129750000Y-95700000D01*
D33*
X142100000Y-107250000D02*
X142000000Y-107150000D01*
D34*
X129075000Y-95710000D02*
X129740000Y-95710000D01*
D33*
X143250000Y-107250000D02*
X144000000Y-106500000D01*
X142250000Y-107250000D02*
X143250000Y-107250000D01*
%TO.N,RF_nCS*%
X141500000Y-107750000D02*
X141497570Y-107752430D01*
X141252430Y-107752430D02*
X141250000Y-107750000D01*
X143500000Y-107750000D02*
X144500000Y-106750000D01*
D34*
X129075000Y-97450000D02*
X129750000Y-97450000D01*
D33*
X141497570Y-107752430D02*
X141252430Y-107752430D01*
X144500000Y-106750000D02*
X144500000Y-105860000D01*
X141500000Y-107750000D02*
X143500000Y-107750000D01*
%TO.N,/RF_CPOUT*%
X144710000Y-109225000D02*
X144760000Y-109175000D01*
X145500000Y-105860000D02*
X145500000Y-108435000D01*
X143000000Y-109225000D02*
X144710000Y-109225000D01*
X145500000Y-108435000D02*
X144760000Y-109175000D01*
%TO.N,/RF_XTAL*%
X147750000Y-105000000D02*
X149250000Y-106500000D01*
X149750000Y-107000000D02*
X151225000Y-107000000D01*
X149250000Y-106500000D02*
X149750000Y-107000000D01*
X147360000Y-105000000D02*
X147750000Y-105000000D01*
%TO.N,Net-(U2-CLKOUT)*%
X157750000Y-105500000D02*
X161485000Y-105500000D01*
X147360000Y-104500000D02*
X149000000Y-104500000D01*
X150000000Y-105500000D02*
X157750000Y-105500000D01*
X149000000Y-104500000D02*
X150000000Y-105500000D01*
%TO.N,Net-(U2-Q0)*%
X160560000Y-103000000D02*
X161485000Y-103000000D01*
X147360000Y-103500000D02*
X149075000Y-103500000D01*
X149075000Y-103500000D02*
X149287500Y-103287500D01*
%TO.N,VCC_D*%
D34*
X127475000Y-103250000D02*
X127475000Y-101500000D01*
D35*
X149025000Y-102475000D02*
X148500000Y-103000000D01*
D33*
X129075000Y-99200000D02*
X129050000Y-99200000D01*
D34*
X127800000Y-104300000D02*
X127475000Y-103975000D01*
X127475000Y-100775000D02*
X127500000Y-100750000D01*
X127800000Y-105112500D02*
X127800000Y-104300000D01*
D35*
X154615000Y-109490000D02*
X154615000Y-113140000D01*
D33*
X154500000Y-115175000D02*
X153825000Y-115175000D01*
D35*
X151250000Y-102475000D02*
X153000000Y-102475000D01*
D34*
X127475000Y-103975000D02*
X127475000Y-103250000D01*
X127475000Y-101500000D02*
X127475000Y-100775000D01*
D35*
X148500000Y-103000000D02*
X147360000Y-103000000D01*
D34*
X154725000Y-113250000D02*
X154000000Y-113250000D01*
D33*
X129050000Y-99200000D02*
X127500000Y-100750000D01*
X160750000Y-111925000D02*
X160750000Y-111250000D01*
X151325000Y-112750000D02*
X152000000Y-112750000D01*
D35*
X153000000Y-102475000D02*
X153725000Y-102475000D01*
D34*
X154615000Y-113140000D02*
X154725000Y-113250000D01*
D35*
X153725000Y-102475000D02*
X153750000Y-102500000D01*
D33*
X153825000Y-115175000D02*
X153750000Y-115250000D01*
D35*
X151250000Y-102475000D02*
X149025000Y-102475000D01*
D33*
X129075000Y-99200000D02*
X129075000Y-99375000D01*
%TO.N,Net-(U2-I0)*%
X156000000Y-101125000D02*
X157375000Y-101125000D01*
X149625000Y-101125000D02*
X156000000Y-101125000D01*
X157375000Y-101125000D02*
X160500000Y-98000000D01*
X148250000Y-102500000D02*
X149625000Y-101125000D01*
X147360000Y-102500000D02*
X148250000Y-102500000D01*
X160500000Y-98000000D02*
X161485000Y-98000000D01*
%TO.N,RF_nIDLE*%
D34*
X146425000Y-113500000D02*
X146425000Y-112750000D01*
D33*
X146207286Y-99542714D02*
X145500000Y-100250000D01*
X147042714Y-99542714D02*
X146207286Y-99542714D01*
X147750000Y-98835428D02*
X147042714Y-99542714D01*
X147750000Y-98750000D02*
X147750000Y-98835428D01*
X145500000Y-100250000D02*
X145500000Y-101140000D01*
%TO.N,/RF_LNA2*%
X145000000Y-101140000D02*
X145000000Y-100000000D01*
X145000000Y-100000000D02*
X146225000Y-98775000D01*
X146225000Y-98775000D02*
X146500000Y-98775000D01*
%TO.N,/RF_LNA1*%
D32*
X144000000Y-97275000D02*
X144007879Y-97283362D01*
X144007879Y-97283362D02*
X144007879Y-99980978D01*
D37*
X144000000Y-101140000D02*
X144000000Y-100000000D01*
D32*
X144007879Y-99980978D02*
G75*
G02*
X144000006Y-100000006I-26879J-22D01*
G01*
%TO.N,Net-(D1-A)*%
D33*
X131787500Y-115175000D02*
X131750000Y-115212500D01*
X133750000Y-115175000D02*
X131787500Y-115175000D01*
X133712500Y-115212500D02*
X133750000Y-115175000D01*
%TO.N,Net-(J1-Pin_5)*%
X149675000Y-112750000D02*
X148075000Y-112750000D01*
X148810000Y-116000000D02*
X148810000Y-114560000D01*
X148810000Y-114560000D02*
X148075000Y-113825000D01*
X148075000Y-113825000D02*
X148075000Y-112750000D01*
%TO.N,Net-(C15-Pad1)*%
D32*
X145000000Y-91735000D02*
X145000000Y-92701716D01*
X144000000Y-95207107D02*
X144000000Y-95725000D01*
D37*
X144000000Y-95725000D02*
X144000000Y-95457107D01*
D32*
X144503812Y-93996188D02*
X144500000Y-94000000D01*
X145000000Y-92701716D02*
G75*
G03*
X145020005Y-92749995I68300J16D01*
G01*
X145020000Y-92750000D02*
G75*
G02*
X144503817Y-93996193I-1762400J0D01*
G01*
X144500000Y-94000000D02*
G75*
G03*
X144000003Y-95207107I1207100J-1207100D01*
G01*
%TO.N,Net-(J1-Pin_6)*%
D33*
X152175000Y-116825000D02*
X151350000Y-116000000D01*
X156250000Y-116825000D02*
X154500000Y-116825000D01*
X154500000Y-116825000D02*
X152175000Y-116825000D01*
%TO.N,Net-(U1-OUT)*%
X152785000Y-107010000D02*
X152775000Y-107000000D01*
X154615000Y-107010000D02*
X152785000Y-107010000D01*
%TO.N,RF_I0*%
X166060000Y-97940000D02*
X163195000Y-97940000D01*
%TO.N,RF_CLKOUT*%
X166000000Y-105500000D02*
X166060000Y-105560000D01*
X163195000Y-105560000D02*
X163135000Y-105500000D01*
X166060000Y-105560000D02*
X163195000Y-105560000D01*
%TO.N,RF_Q0*%
X166060000Y-103020000D02*
X163155000Y-103020000D01*
%TO.N,Net-(C21-Pad1)*%
X144760000Y-112485000D02*
X144775000Y-112500000D01*
X144760000Y-110825000D02*
X144760000Y-112485000D01*
%TO.N,Net-(D2-A)*%
X158750000Y-113575000D02*
X158750000Y-115212500D01*
%TO.N,Net-(D3-A)*%
X160750000Y-113575000D02*
X160750000Y-115212500D01*
%TD*%
%TA.AperFunction,Conductor*%
%TO.N,GND*%
G36*
X136300000Y-104250000D02*
G01*
X136900000Y-104250000D01*
X136900000Y-106500000D01*
X136746198Y-106500000D01*
X136725301Y-106489352D01*
X136631524Y-106474500D01*
X136268482Y-106474500D01*
X136187519Y-106487323D01*
X136174696Y-106489354D01*
X136153802Y-106500000D01*
X135900000Y-106500000D01*
X135900000Y-106840317D01*
X135899500Y-106843475D01*
X135899500Y-107931517D01*
X135900000Y-107934673D01*
X135900000Y-108300000D01*
X136265324Y-108300000D01*
X136268481Y-108300500D01*
X136450000Y-108300499D01*
X136450000Y-110650000D01*
X135200000Y-110650000D01*
X135200000Y-101000000D01*
X136300000Y-101000000D01*
X136300000Y-104250000D01*
G37*
%TD.AperFunction*%
%TD*%
%TA.AperFunction,Conductor*%
%TO.N,GND*%
G36*
X129550000Y-104250000D02*
G01*
X130150000Y-104250000D01*
X130150000Y-106500000D01*
X129996198Y-106500000D01*
X129975301Y-106489352D01*
X129881524Y-106474500D01*
X129518482Y-106474500D01*
X129437519Y-106487323D01*
X129424696Y-106489354D01*
X129403802Y-106500000D01*
X129150000Y-106500000D01*
X129150000Y-106840317D01*
X129149500Y-106843475D01*
X129149500Y-107931517D01*
X129150000Y-107934673D01*
X129150000Y-108300000D01*
X129515324Y-108300000D01*
X129518481Y-108300500D01*
X129700000Y-108300499D01*
X129700000Y-110650000D01*
X128450000Y-110650000D01*
X128450000Y-101000000D01*
X129550000Y-101000000D01*
X129550000Y-104250000D01*
G37*
%TD.AperFunction*%
%TD*%
%TA.AperFunction,Conductor*%
%TO.N,GND*%
G36*
X139168039Y-101519685D02*
G01*
X139213794Y-101572489D01*
X139225000Y-101624000D01*
X139225000Y-103126000D01*
X139205315Y-103193039D01*
X139152511Y-103238794D01*
X139101000Y-103250000D01*
X138849000Y-103250000D01*
X138781961Y-103230315D01*
X138736206Y-103177511D01*
X138725000Y-103126000D01*
X138725000Y-101624000D01*
X138744685Y-101556961D01*
X138797489Y-101511206D01*
X138849000Y-101500000D01*
X139101000Y-101500000D01*
X139168039Y-101519685D01*
G37*
%TD.AperFunction*%
%TA.AperFunction,Conductor*%
G36*
X166003032Y-50200649D02*
G01*
X166067797Y-50203830D01*
X166366338Y-50218497D01*
X166378440Y-50219689D01*
X166735230Y-50272613D01*
X166747140Y-50274982D01*
X167097046Y-50362629D01*
X167108663Y-50366154D01*
X167448275Y-50487669D01*
X167459497Y-50492317D01*
X167785582Y-50646543D01*
X167796290Y-50652267D01*
X167984308Y-50764961D01*
X168105659Y-50837696D01*
X168115777Y-50844456D01*
X168405488Y-51059321D01*
X168414894Y-51067041D01*
X168682146Y-51309264D01*
X168690735Y-51317853D01*
X168894324Y-51542479D01*
X168932958Y-51585105D01*
X168940678Y-51594511D01*
X169155543Y-51884222D01*
X169162303Y-51894340D01*
X169347725Y-52203697D01*
X169353462Y-52214429D01*
X169507679Y-52540495D01*
X169512335Y-52551737D01*
X169633840Y-52891319D01*
X169637373Y-52902964D01*
X169725014Y-53252846D01*
X169727388Y-53264782D01*
X169780309Y-53621555D01*
X169781502Y-53633664D01*
X169799351Y-53996967D01*
X169799500Y-54003052D01*
X169799500Y-115996947D01*
X169799351Y-116003032D01*
X169781502Y-116366335D01*
X169780309Y-116378444D01*
X169727388Y-116735217D01*
X169725014Y-116747153D01*
X169637373Y-117097035D01*
X169633840Y-117108680D01*
X169512335Y-117448262D01*
X169507679Y-117459504D01*
X169353462Y-117785570D01*
X169347725Y-117796302D01*
X169162303Y-118105659D01*
X169155543Y-118115777D01*
X168940678Y-118405488D01*
X168932958Y-118414894D01*
X168690743Y-118682138D01*
X168682138Y-118690743D01*
X168414894Y-118932958D01*
X168405488Y-118940678D01*
X168115777Y-119155543D01*
X168105659Y-119162303D01*
X167796302Y-119347725D01*
X167785570Y-119353462D01*
X167459504Y-119507679D01*
X167448262Y-119512335D01*
X167108680Y-119633840D01*
X167097035Y-119637373D01*
X166747153Y-119725014D01*
X166735217Y-119727388D01*
X166378444Y-119780309D01*
X166366335Y-119781502D01*
X166003033Y-119799351D01*
X165996948Y-119799500D01*
X124003052Y-119799500D01*
X123996967Y-119799351D01*
X123633664Y-119781502D01*
X123621555Y-119780309D01*
X123264782Y-119727388D01*
X123252846Y-119725014D01*
X122902964Y-119637373D01*
X122891323Y-119633841D01*
X122551734Y-119512334D01*
X122540495Y-119507679D01*
X122214429Y-119353462D01*
X122203702Y-119347727D01*
X121894340Y-119162303D01*
X121884222Y-119155543D01*
X121594511Y-118940678D01*
X121585105Y-118932958D01*
X121542479Y-118894324D01*
X121317853Y-118690735D01*
X121309264Y-118682146D01*
X121067041Y-118414894D01*
X121059321Y-118405488D01*
X120844456Y-118115777D01*
X120837696Y-118105659D01*
X120782149Y-118012984D01*
X120652267Y-117796290D01*
X120646543Y-117785582D01*
X120492317Y-117459497D01*
X120487669Y-117448275D01*
X120366154Y-117108663D01*
X120362628Y-117097041D01*
X120351885Y-117054152D01*
X130775001Y-117054152D01*
X130785056Y-117152583D01*
X130837906Y-117312072D01*
X130837908Y-117312077D01*
X130926114Y-117455080D01*
X131044919Y-117573885D01*
X131187922Y-117662091D01*
X131187927Y-117662093D01*
X131347416Y-117714942D01*
X131445855Y-117724999D01*
X132000000Y-117724999D01*
X132054136Y-117724999D01*
X132054152Y-117724998D01*
X132152583Y-117714943D01*
X132312072Y-117662093D01*
X132312077Y-117662091D01*
X132455080Y-117573885D01*
X132573885Y-117455080D01*
X132662091Y-117312077D01*
X132662093Y-117312072D01*
X132714942Y-117152583D01*
X132724999Y-117054150D01*
X132725000Y-117054137D01*
X132725000Y-117037500D01*
X132000000Y-117037500D01*
X132000000Y-117724999D01*
X131445855Y-117724999D01*
X131499999Y-117724998D01*
X131500000Y-117724998D01*
X131500000Y-117037500D01*
X130775001Y-117037500D01*
X130775001Y-117054152D01*
X120351885Y-117054152D01*
X120274982Y-116747140D01*
X120272613Y-116735230D01*
X120248212Y-116570730D01*
X133024500Y-116570730D01*
X133024500Y-117079269D01*
X133027353Y-117109699D01*
X133027353Y-117109701D01*
X133072206Y-117237880D01*
X133072207Y-117237882D01*
X133152850Y-117347150D01*
X133152853Y-117347152D01*
X133159424Y-117353724D01*
X133157594Y-117355553D01*
X133191379Y-117400040D01*
X133199500Y-117444177D01*
X133199500Y-117572475D01*
X133233264Y-117698483D01*
X133237017Y-117712488D01*
X133309488Y-117838011D01*
X133309490Y-117838013D01*
X133309491Y-117838015D01*
X133411985Y-117940509D01*
X133411986Y-117940510D01*
X133411988Y-117940511D01*
X133537511Y-118012982D01*
X133537512Y-118012982D01*
X133537515Y-118012984D01*
X133677525Y-118050500D01*
X133677528Y-118050500D01*
X133822472Y-118050500D01*
X133822475Y-118050500D01*
X133962485Y-118012984D01*
X134088015Y-117940509D01*
X134190509Y-117838015D01*
X134262984Y-117712485D01*
X134300500Y-117572475D01*
X134300500Y-117444177D01*
X134320185Y-117377138D01*
X134341382Y-117354524D01*
X134340579Y-117353721D01*
X134347146Y-117347152D01*
X134347150Y-117347150D01*
X134427793Y-117237882D01*
X134456927Y-117154622D01*
X134472646Y-117109701D01*
X134472646Y-117109699D01*
X134475500Y-117079269D01*
X134475500Y-116570730D01*
X134472646Y-116540300D01*
X134472646Y-116540298D01*
X134431407Y-116422446D01*
X134427793Y-116412118D01*
X134347150Y-116302850D01*
X134237882Y-116222207D01*
X134237880Y-116222206D01*
X134109700Y-116177353D01*
X134079270Y-116174500D01*
X134079266Y-116174500D01*
X133420734Y-116174500D01*
X133420730Y-116174500D01*
X133390300Y-116177353D01*
X133390298Y-116177353D01*
X133262119Y-116222206D01*
X133262117Y-116222207D01*
X133152850Y-116302850D01*
X133072207Y-116412117D01*
X133072206Y-116412119D01*
X133027353Y-116540298D01*
X133027353Y-116540300D01*
X133024500Y-116570730D01*
X120248212Y-116570730D01*
X120240813Y-116520849D01*
X130775000Y-116520849D01*
X130775000Y-116537500D01*
X132724999Y-116537500D01*
X132724999Y-116520864D01*
X132724998Y-116520847D01*
X132714943Y-116422416D01*
X132662093Y-116262927D01*
X132662091Y-116262922D01*
X132573885Y-116119919D01*
X132455079Y-116001113D01*
X132455075Y-116001110D01*
X132372674Y-115950284D01*
X132325949Y-115898336D01*
X132314728Y-115829374D01*
X132338504Y-115770435D01*
X132341468Y-115766474D01*
X132341472Y-115766472D01*
X132422336Y-115658450D01*
X132441837Y-115606166D01*
X132483709Y-115550233D01*
X132549173Y-115525816D01*
X132558019Y-115525500D01*
X132964520Y-115525500D01*
X133031559Y-115545185D01*
X133065031Y-115581628D01*
X133066689Y-115580405D01*
X133072206Y-115587880D01*
X133072207Y-115587882D01*
X133152850Y-115697150D01*
X133262118Y-115777793D01*
X133304845Y-115792744D01*
X133390299Y-115822646D01*
X133420730Y-115825500D01*
X133420734Y-115825500D01*
X134079270Y-115825500D01*
X134109699Y-115822646D01*
X134109701Y-115822646D01*
X134173790Y-115800219D01*
X134237882Y-115777793D01*
X134347150Y-115697150D01*
X134427793Y-115587882D01*
X134458544Y-115500000D01*
X134472646Y-115459701D01*
X134472646Y-115459699D01*
X134475500Y-115429269D01*
X134475500Y-115125321D01*
X137549500Y-115125321D01*
X137549500Y-116874678D01*
X137564032Y-116947735D01*
X137564033Y-116947739D01*
X137564034Y-116947740D01*
X137619399Y-117030601D01*
X137692233Y-117079266D01*
X137702260Y-117085966D01*
X137702264Y-117085967D01*
X137775321Y-117100499D01*
X137775324Y-117100500D01*
X137775326Y-117100500D01*
X139524676Y-117100500D01*
X139524677Y-117100499D01*
X139597740Y-117085966D01*
X139680601Y-117030601D01*
X139735966Y-116947740D01*
X139750500Y-116874674D01*
X139750500Y-116664949D01*
X139770185Y-116597910D01*
X139822989Y-116552155D01*
X139892147Y-116542211D01*
X139955703Y-116571236D01*
X139984985Y-116608654D01*
X140035375Y-116707550D01*
X140074728Y-116761716D01*
X140707037Y-116129408D01*
X140724075Y-116192993D01*
X140789901Y-116307007D01*
X140882993Y-116400099D01*
X140997007Y-116465925D01*
X141060590Y-116482962D01*
X140428282Y-117115269D01*
X140428282Y-117115270D01*
X140482449Y-117154624D01*
X140671782Y-117251095D01*
X140873870Y-117316757D01*
X141083754Y-117350000D01*
X141296246Y-117350000D01*
X141506127Y-117316757D01*
X141506130Y-117316757D01*
X141708217Y-117251095D01*
X141897554Y-117154622D01*
X141951716Y-117115270D01*
X141951717Y-117115270D01*
X141319408Y-116482962D01*
X141382993Y-116465925D01*
X141497007Y-116400099D01*
X141590099Y-116307007D01*
X141655925Y-116192993D01*
X141672962Y-116129408D01*
X142305270Y-116761717D01*
X142305270Y-116761716D01*
X142344622Y-116707554D01*
X142349514Y-116697954D01*
X142397488Y-116647157D01*
X142465308Y-116630361D01*
X142531444Y-116652897D01*
X142570486Y-116697954D01*
X142575375Y-116707550D01*
X142614728Y-116761716D01*
X143247037Y-116129408D01*
X143264075Y-116192993D01*
X143329901Y-116307007D01*
X143422993Y-116400099D01*
X143537007Y-116465925D01*
X143600590Y-116482962D01*
X142968282Y-117115269D01*
X142968282Y-117115270D01*
X143022449Y-117154624D01*
X143211782Y-117251095D01*
X143413870Y-117316757D01*
X143623754Y-117350000D01*
X143836246Y-117350000D01*
X144046127Y-117316757D01*
X144046130Y-117316757D01*
X144248217Y-117251095D01*
X144437554Y-117154622D01*
X144491716Y-117115270D01*
X144491717Y-117115270D01*
X143859408Y-116482962D01*
X143922993Y-116465925D01*
X144037007Y-116400099D01*
X144130099Y-116307007D01*
X144195925Y-116192993D01*
X144212962Y-116129408D01*
X144845270Y-116761717D01*
X144845270Y-116761716D01*
X144884622Y-116707554D01*
X144981096Y-116518215D01*
X145013239Y-116419288D01*
X145052676Y-116361612D01*
X145117034Y-116334413D01*
X145185880Y-116346327D01*
X145237357Y-116393571D01*
X145249100Y-116419284D01*
X145250127Y-116422446D01*
X145310177Y-116540301D01*
X145328768Y-116576788D01*
X145430586Y-116716928D01*
X145553072Y-116839414D01*
X145693212Y-116941232D01*
X145847555Y-117019873D01*
X146012299Y-117073402D01*
X146183389Y-117100500D01*
X146183390Y-117100500D01*
X146356610Y-117100500D01*
X146356611Y-117100500D01*
X146527701Y-117073402D01*
X146692445Y-117019873D01*
X146846788Y-116941232D01*
X146986928Y-116839414D01*
X147109414Y-116716928D01*
X147211232Y-116576788D01*
X147289873Y-116422445D01*
X147343402Y-116257701D01*
X147370500Y-116086611D01*
X147370500Y-115913389D01*
X147343402Y-115742299D01*
X147289873Y-115577555D01*
X147211232Y-115423212D01*
X147109414Y-115283072D01*
X146986928Y-115160586D01*
X146846788Y-115058768D01*
X146692445Y-114980127D01*
X146527701Y-114926598D01*
X146527699Y-114926597D01*
X146527698Y-114926597D01*
X146396271Y-114905781D01*
X146356611Y-114899500D01*
X146183389Y-114899500D01*
X146143728Y-114905781D01*
X146012302Y-114926597D01*
X145847552Y-114980128D01*
X145693211Y-115058768D01*
X145613256Y-115116859D01*
X145553072Y-115160586D01*
X145553070Y-115160588D01*
X145553069Y-115160588D01*
X145430588Y-115283069D01*
X145430588Y-115283070D01*
X145430586Y-115283072D01*
X145423771Y-115292452D01*
X145328768Y-115423211D01*
X145250128Y-115577550D01*
X145249099Y-115580720D01*
X145248381Y-115581769D01*
X145248266Y-115582048D01*
X145248207Y-115582023D01*
X145209657Y-115638393D01*
X145145297Y-115665587D01*
X145076451Y-115653668D01*
X145024979Y-115606420D01*
X145013239Y-115580711D01*
X144981096Y-115481784D01*
X144884624Y-115292449D01*
X144845270Y-115238282D01*
X144845269Y-115238282D01*
X144212962Y-115870590D01*
X144195925Y-115807007D01*
X144130099Y-115692993D01*
X144037007Y-115599901D01*
X143922993Y-115534075D01*
X143859409Y-115517037D01*
X144491716Y-114884728D01*
X144437550Y-114845375D01*
X144248217Y-114748904D01*
X144046129Y-114683242D01*
X143836246Y-114650000D01*
X143623754Y-114650000D01*
X143413872Y-114683242D01*
X143413869Y-114683242D01*
X143211782Y-114748904D01*
X143022439Y-114845380D01*
X142968282Y-114884727D01*
X142968282Y-114884728D01*
X143600591Y-115517037D01*
X143537007Y-115534075D01*
X143422993Y-115599901D01*
X143329901Y-115692993D01*
X143264075Y-115807007D01*
X143247037Y-115870591D01*
X142614728Y-115238282D01*
X142614727Y-115238282D01*
X142575380Y-115292440D01*
X142570483Y-115302051D01*
X142522506Y-115352845D01*
X142454684Y-115369638D01*
X142388550Y-115347098D01*
X142349516Y-115302048D01*
X142344626Y-115292452D01*
X142305270Y-115238282D01*
X142305269Y-115238282D01*
X141672962Y-115870590D01*
X141655925Y-115807007D01*
X141590099Y-115692993D01*
X141497007Y-115599901D01*
X141382993Y-115534075D01*
X141319409Y-115517037D01*
X141951716Y-114884728D01*
X141897550Y-114845375D01*
X141708217Y-114748904D01*
X141506129Y-114683242D01*
X141296246Y-114650000D01*
X141083754Y-114650000D01*
X140873872Y-114683242D01*
X140873869Y-114683242D01*
X140671782Y-114748904D01*
X140482439Y-114845380D01*
X140428282Y-114884727D01*
X140428282Y-114884728D01*
X141060591Y-115517037D01*
X140997007Y-115534075D01*
X140882993Y-115599901D01*
X140789901Y-115692993D01*
X140724075Y-115807007D01*
X140707037Y-115870591D01*
X140074728Y-115238282D01*
X140074727Y-115238282D01*
X140035380Y-115292440D01*
X140035378Y-115292443D01*
X139984984Y-115391346D01*
X139937010Y-115442141D01*
X139869188Y-115458936D01*
X139803054Y-115436398D01*
X139759603Y-115381683D01*
X139750500Y-115335050D01*
X139750500Y-115125323D01*
X139750499Y-115125321D01*
X139735967Y-115052264D01*
X139735966Y-115052260D01*
X139726111Y-115037511D01*
X139680601Y-114969399D01*
X139616542Y-114926597D01*
X139597739Y-114914033D01*
X139597735Y-114914032D01*
X139524677Y-114899500D01*
X139524674Y-114899500D01*
X137775326Y-114899500D01*
X137775323Y-114899500D01*
X137702264Y-114914032D01*
X137702260Y-114914033D01*
X137619399Y-114969399D01*
X137564033Y-115052260D01*
X137564032Y-115052264D01*
X137549500Y-115125321D01*
X134475500Y-115125321D01*
X134475500Y-114920730D01*
X134472646Y-114890300D01*
X134472646Y-114890298D01*
X134429899Y-114768137D01*
X134427793Y-114762118D01*
X134347150Y-114652850D01*
X134237882Y-114572207D01*
X134237880Y-114572206D01*
X134109700Y-114527353D01*
X134079270Y-114524500D01*
X134079266Y-114524500D01*
X133420734Y-114524500D01*
X133420730Y-114524500D01*
X133390300Y-114527353D01*
X133390298Y-114527353D01*
X133262119Y-114572206D01*
X133262117Y-114572207D01*
X133156712Y-114650000D01*
X133152850Y-114652850D01*
X133081960Y-114748904D01*
X133066689Y-114769595D01*
X133064714Y-114768137D01*
X133025420Y-114808515D01*
X132964520Y-114824500D01*
X132527551Y-114824500D01*
X132460512Y-114804815D01*
X132429921Y-114771950D01*
X132427651Y-114773650D01*
X132341473Y-114658529D01*
X132340221Y-114657592D01*
X132233450Y-114577664D01*
X132233447Y-114577662D01*
X132107024Y-114530509D01*
X132051144Y-114524500D01*
X132051130Y-114524500D01*
X131448870Y-114524500D01*
X131448855Y-114524500D01*
X131392975Y-114530509D01*
X131266552Y-114577662D01*
X131266549Y-114577664D01*
X131158528Y-114658528D01*
X131077664Y-114766549D01*
X131077662Y-114766552D01*
X131030509Y-114892975D01*
X131024500Y-114948855D01*
X131024500Y-115476144D01*
X131030509Y-115532024D01*
X131077662Y-115658447D01*
X131077666Y-115658453D01*
X131161495Y-115770436D01*
X131185912Y-115835900D01*
X131171060Y-115904173D01*
X131127326Y-115950284D01*
X131044921Y-116001112D01*
X130926114Y-116119919D01*
X130837908Y-116262922D01*
X130837906Y-116262927D01*
X130785057Y-116422416D01*
X130775000Y-116520849D01*
X120240813Y-116520849D01*
X120219689Y-116378440D01*
X120218497Y-116366334D01*
X120215582Y-116307007D01*
X120200649Y-116003031D01*
X120200500Y-115996947D01*
X120200500Y-113048322D01*
X142275001Y-113048322D01*
X142285144Y-113147607D01*
X142338452Y-113308481D01*
X142338457Y-113308492D01*
X142427424Y-113452728D01*
X142427427Y-113452732D01*
X142547267Y-113572572D01*
X142547271Y-113572575D01*
X142691507Y-113661542D01*
X142691518Y-113661547D01*
X142852393Y-113714855D01*
X142951683Y-113724999D01*
X142975000Y-113724998D01*
X142975000Y-113000000D01*
X142275001Y-113000000D01*
X142275001Y-113048322D01*
X120200500Y-113048322D01*
X120200500Y-105353753D01*
X122650000Y-105353753D01*
X122650000Y-105566246D01*
X122683242Y-105776127D01*
X122683242Y-105776130D01*
X122748904Y-105978217D01*
X122845375Y-106167550D01*
X122884728Y-106221716D01*
X123517037Y-105589408D01*
X123534075Y-105652993D01*
X123599901Y-105767007D01*
X123692993Y-105860099D01*
X123807007Y-105925925D01*
X123870591Y-105942962D01*
X123269971Y-106543581D01*
X123348711Y-106660895D01*
X123349920Y-106664729D01*
X123352844Y-106667491D01*
X123360343Y-106697778D01*
X123369727Y-106727529D01*
X123368671Y-106731408D01*
X123369638Y-106735312D01*
X123359573Y-106764844D01*
X123351383Y-106794947D01*
X123348397Y-106797640D01*
X123347100Y-106801447D01*
X123302051Y-106840483D01*
X123292440Y-106845380D01*
X123238282Y-106884727D01*
X123238282Y-106884728D01*
X123870591Y-107517037D01*
X123807007Y-107534075D01*
X123692993Y-107599901D01*
X123599901Y-107692993D01*
X123534075Y-107807007D01*
X123517037Y-107870591D01*
X122884728Y-107238282D01*
X122884727Y-107238282D01*
X122845380Y-107292439D01*
X122748904Y-107481782D01*
X122683242Y-107683869D01*
X122683242Y-107683872D01*
X122650000Y-107893753D01*
X122650000Y-108106246D01*
X122683242Y-108316127D01*
X122683242Y-108316130D01*
X122748904Y-108518217D01*
X122845375Y-108707550D01*
X122884728Y-108761716D01*
X123517037Y-108129408D01*
X123534075Y-108192993D01*
X123599901Y-108307007D01*
X123692993Y-108400099D01*
X123807007Y-108465925D01*
X123870590Y-108482962D01*
X123238282Y-109115269D01*
X123238282Y-109115270D01*
X123292449Y-109154624D01*
X123481782Y-109251095D01*
X123683870Y-109316757D01*
X123893754Y-109350000D01*
X124106246Y-109350000D01*
X124316127Y-109316757D01*
X124316130Y-109316757D01*
X124518217Y-109251095D01*
X124707554Y-109154622D01*
X124761716Y-109115270D01*
X124761717Y-109115270D01*
X124685322Y-109038875D01*
X124129408Y-108482962D01*
X124192993Y-108465925D01*
X124307007Y-108400099D01*
X124400099Y-108307007D01*
X124465925Y-108192993D01*
X124482962Y-108129408D01*
X125115270Y-108761717D01*
X125115270Y-108761716D01*
X125154622Y-108707554D01*
X125251095Y-108518217D01*
X125316757Y-108316130D01*
X125316757Y-108316127D01*
X125350000Y-108106246D01*
X125350000Y-107893753D01*
X125316757Y-107683872D01*
X125316757Y-107683869D01*
X125251095Y-107481782D01*
X125154624Y-107292449D01*
X125115270Y-107238282D01*
X125115269Y-107238282D01*
X124482962Y-107870590D01*
X124465925Y-107807007D01*
X124400099Y-107692993D01*
X124307007Y-107599901D01*
X124192993Y-107534075D01*
X124129409Y-107517037D01*
X124761716Y-106884728D01*
X124707550Y-106845375D01*
X124697954Y-106840486D01*
X124647157Y-106792512D01*
X124630361Y-106724692D01*
X124652897Y-106658556D01*
X124697954Y-106619514D01*
X124707554Y-106614622D01*
X124761716Y-106575270D01*
X124761717Y-106575270D01*
X124129408Y-105942962D01*
X124192993Y-105925925D01*
X124307007Y-105860099D01*
X124400099Y-105767007D01*
X124465925Y-105652993D01*
X124482962Y-105589408D01*
X125115270Y-106221717D01*
X125115270Y-106221716D01*
X125154622Y-106167554D01*
X125251095Y-105978217D01*
X125316757Y-105776130D01*
X125316757Y-105776127D01*
X125350000Y-105566246D01*
X125350000Y-105353753D01*
X125316757Y-105143872D01*
X125316757Y-105143869D01*
X125251095Y-104941782D01*
X125154624Y-104752449D01*
X125115270Y-104698282D01*
X125115269Y-104698282D01*
X124482962Y-105330590D01*
X124465925Y-105267007D01*
X124400099Y-105152993D01*
X124307007Y-105059901D01*
X124192993Y-104994075D01*
X124129409Y-104977037D01*
X124761716Y-104344728D01*
X124707550Y-104305375D01*
X124518217Y-104208904D01*
X124419287Y-104176760D01*
X124361611Y-104137323D01*
X124334413Y-104072964D01*
X124346328Y-104004118D01*
X124393572Y-103952642D01*
X124419290Y-103940897D01*
X124422445Y-103939873D01*
X124576788Y-103861232D01*
X124716928Y-103759414D01*
X124839414Y-103636928D01*
X124941232Y-103496788D01*
X125019873Y-103342445D01*
X125073402Y-103177701D01*
X125100500Y-103006611D01*
X125100500Y-102833389D01*
X125073402Y-102662299D01*
X125019873Y-102497555D01*
X125019869Y-102497547D01*
X125018401Y-102493029D01*
X125016406Y-102423188D01*
X125048649Y-102367031D01*
X126712821Y-100702860D01*
X126774142Y-100669377D01*
X126843834Y-100674361D01*
X126899767Y-100716233D01*
X126924184Y-100781697D01*
X126924500Y-100790543D01*
X126924500Y-100850090D01*
X126904815Y-100917129D01*
X126899767Y-100924400D01*
X126828374Y-101019769D01*
X126780587Y-101147889D01*
X126774500Y-101204498D01*
X126774500Y-101795481D01*
X126774501Y-101795490D01*
X126780587Y-101852114D01*
X126821782Y-101962557D01*
X126828372Y-101980226D01*
X126899767Y-102075600D01*
X126924184Y-102141063D01*
X126924500Y-102149909D01*
X126924500Y-102600090D01*
X126904815Y-102667129D01*
X126899767Y-102674400D01*
X126828374Y-102769769D01*
X126828372Y-102769773D01*
X126828372Y-102769774D01*
X126783241Y-102890774D01*
X126780587Y-102897889D01*
X126774500Y-102954498D01*
X126774500Y-103545481D01*
X126774501Y-103545490D01*
X126780587Y-103602114D01*
X126808815Y-103677793D01*
X126828372Y-103730226D01*
X126899767Y-103825600D01*
X126924184Y-103891063D01*
X126924500Y-103899909D01*
X126924500Y-103902526D01*
X126924500Y-104047474D01*
X126962016Y-104187485D01*
X127034489Y-104313014D01*
X127034491Y-104313016D01*
X127213181Y-104491706D01*
X127246666Y-104553029D01*
X127249500Y-104579387D01*
X127249500Y-105656517D01*
X127259190Y-105717697D01*
X127264354Y-105750304D01*
X127321950Y-105863342D01*
X127321952Y-105863344D01*
X127321954Y-105863347D01*
X127411652Y-105953045D01*
X127411654Y-105953046D01*
X127411658Y-105953050D01*
X127524694Y-106010645D01*
X127524698Y-106010647D01*
X127618475Y-106025499D01*
X127618481Y-106025500D01*
X127981518Y-106025499D01*
X128075304Y-106010646D01*
X128188342Y-105953050D01*
X128278050Y-105863342D01*
X128335646Y-105750304D01*
X128335646Y-105750302D01*
X128335647Y-105750301D01*
X128350500Y-105656524D01*
X128350500Y-104286538D01*
X128370185Y-104219499D01*
X128422989Y-104173744D01*
X128450000Y-104169860D01*
X128450000Y-106241701D01*
X128339806Y-106273716D01*
X128339803Y-106273717D01*
X128198447Y-106357314D01*
X128198442Y-106357318D01*
X128112299Y-106443461D01*
X128050975Y-106476945D01*
X128005225Y-106478253D01*
X127981523Y-106474500D01*
X127618482Y-106474500D01*
X127537519Y-106487323D01*
X127524696Y-106489354D01*
X127411658Y-106546950D01*
X127411657Y-106546951D01*
X127411652Y-106546954D01*
X127321954Y-106636652D01*
X127321951Y-106636657D01*
X127321950Y-106636658D01*
X127309601Y-106660895D01*
X127264352Y-106749698D01*
X127249500Y-106843475D01*
X127249500Y-107920613D01*
X127229815Y-107987652D01*
X127213181Y-108008294D01*
X127034491Y-108186983D01*
X127034489Y-108186985D01*
X126985134Y-108272474D01*
X126985133Y-108272475D01*
X126962017Y-108312512D01*
X126962016Y-108312513D01*
X126949499Y-108359228D01*
X126924500Y-108452525D01*
X126924500Y-108452527D01*
X126924500Y-108600090D01*
X126904815Y-108667129D01*
X126899767Y-108674400D01*
X126828374Y-108769769D01*
X126828372Y-108769773D01*
X126828372Y-108769774D01*
X126783417Y-108890301D01*
X126780587Y-108897889D01*
X126774500Y-108954498D01*
X126774500Y-109545481D01*
X126774501Y-109545490D01*
X126780587Y-109602114D01*
X126816035Y-109697150D01*
X126828372Y-109730226D01*
X126899767Y-109825600D01*
X126924184Y-109891063D01*
X126924500Y-109899909D01*
X126924500Y-110047474D01*
X126953200Y-110154586D01*
X126962014Y-110187480D01*
X126962015Y-110187483D01*
X126962016Y-110187485D01*
X127034490Y-110313015D01*
X127161985Y-110440510D01*
X127287515Y-110512984D01*
X127427525Y-110550500D01*
X127427528Y-110550500D01*
X127572472Y-110550500D01*
X127572475Y-110550500D01*
X127712485Y-110512984D01*
X127773338Y-110477850D01*
X127803481Y-110460448D01*
X127823337Y-110448983D01*
X127838014Y-110440510D01*
X127940510Y-110338014D01*
X128012984Y-110212485D01*
X128019683Y-110187485D01*
X128019685Y-110187480D01*
X128028498Y-110154586D01*
X128050500Y-110072475D01*
X128050500Y-110072466D01*
X128051561Y-110064415D01*
X128053579Y-110064680D01*
X128070185Y-110008128D01*
X128122989Y-109962373D01*
X128192147Y-109952429D01*
X128255703Y-109981454D01*
X128262181Y-109987486D01*
X128347267Y-110072572D01*
X128347271Y-110072575D01*
X128450000Y-110135939D01*
X128450000Y-110650000D01*
X129700000Y-110650000D01*
X129700000Y-110570730D01*
X130024500Y-110570730D01*
X130024500Y-111079269D01*
X130027353Y-111109699D01*
X130027353Y-111109701D01*
X130072206Y-111237880D01*
X130072207Y-111237882D01*
X130152849Y-111347149D01*
X130152851Y-111347151D01*
X130159421Y-111353721D01*
X130157590Y-111355551D01*
X130191377Y-111400033D01*
X130199500Y-111444176D01*
X130199500Y-111822477D01*
X130207441Y-111852114D01*
X130207442Y-111852114D01*
X130237016Y-111962485D01*
X130309490Y-112088015D01*
X130661985Y-112440510D01*
X130772105Y-112504087D01*
X130772106Y-112504088D01*
X130772107Y-112504088D01*
X130787515Y-112512984D01*
X130927525Y-112550500D01*
X130927528Y-112550500D01*
X131072472Y-112550500D01*
X131072475Y-112550500D01*
X131212485Y-112512984D01*
X131287748Y-112469531D01*
X131338014Y-112440510D01*
X131440510Y-112338014D01*
X131512984Y-112212485D01*
X131550500Y-112072475D01*
X131550500Y-111927525D01*
X131512984Y-111787515D01*
X131498821Y-111762984D01*
X131440510Y-111661985D01*
X131365706Y-111587181D01*
X131332221Y-111525858D01*
X131337205Y-111456166D01*
X131379077Y-111400233D01*
X131444541Y-111375816D01*
X131453387Y-111375500D01*
X131900460Y-111375500D01*
X131967499Y-111395185D01*
X131974093Y-111399730D01*
X132012113Y-111427790D01*
X132012115Y-111427791D01*
X132012118Y-111427793D01*
X132054845Y-111442744D01*
X132140299Y-111472646D01*
X132170730Y-111475500D01*
X132170734Y-111475500D01*
X132829270Y-111475500D01*
X132859699Y-111472646D01*
X132859701Y-111472646D01*
X132923790Y-111450219D01*
X132987882Y-111427793D01*
X133097150Y-111347150D01*
X133177793Y-111237882D01*
X133209284Y-111147886D01*
X133222646Y-111109701D01*
X133222646Y-111109699D01*
X133225500Y-111079269D01*
X133225500Y-110570730D01*
X133222646Y-110540300D01*
X133222646Y-110540298D01*
X133186645Y-110437417D01*
X133177793Y-110412118D01*
X133097150Y-110302850D01*
X132987882Y-110222207D01*
X132987880Y-110222206D01*
X132859700Y-110177353D01*
X132829270Y-110174500D01*
X132829266Y-110174500D01*
X132170734Y-110174500D01*
X132170730Y-110174500D01*
X132140300Y-110177353D01*
X132140298Y-110177353D01*
X132012119Y-110222206D01*
X132012113Y-110222209D01*
X131974093Y-110250270D01*
X131908464Y-110274241D01*
X131900460Y-110274500D01*
X131349540Y-110274500D01*
X131282501Y-110254815D01*
X131275907Y-110250270D01*
X131237886Y-110222209D01*
X131237880Y-110222206D01*
X131109700Y-110177353D01*
X131079270Y-110174500D01*
X131079266Y-110174500D01*
X130420734Y-110174500D01*
X130420730Y-110174500D01*
X130390300Y-110177353D01*
X130390298Y-110177353D01*
X130262119Y-110222206D01*
X130262117Y-110222207D01*
X130152850Y-110302850D01*
X130072207Y-110412117D01*
X130072206Y-110412119D01*
X130027353Y-110540298D01*
X130027353Y-110540300D01*
X130024500Y-110570730D01*
X129700000Y-110570730D01*
X129700000Y-110074257D01*
X129702728Y-110072575D01*
X129702732Y-110072572D01*
X129822572Y-109952732D01*
X129822575Y-109952728D01*
X129911542Y-109808492D01*
X129911547Y-109808481D01*
X129936471Y-109733266D01*
X129976243Y-109675821D01*
X130040759Y-109648998D01*
X130109535Y-109661313D01*
X130145403Y-109691454D01*
X130146279Y-109690579D01*
X130152848Y-109697148D01*
X130152849Y-109697148D01*
X130152850Y-109697150D01*
X130262118Y-109777793D01*
X130296109Y-109789687D01*
X130390299Y-109822646D01*
X130420730Y-109825500D01*
X130420734Y-109825500D01*
X131079270Y-109825500D01*
X131109699Y-109822646D01*
X131109701Y-109822646D01*
X131173790Y-109800219D01*
X131237882Y-109777793D01*
X131347150Y-109697150D01*
X131427793Y-109587882D01*
X131427794Y-109587880D01*
X131433311Y-109580405D01*
X131435285Y-109581862D01*
X131474580Y-109541485D01*
X131535480Y-109525500D01*
X131714520Y-109525500D01*
X131781559Y-109545185D01*
X131815031Y-109581628D01*
X131816689Y-109580405D01*
X131822206Y-109587880D01*
X131822207Y-109587882D01*
X131902850Y-109697150D01*
X132012118Y-109777793D01*
X132046109Y-109789687D01*
X132140299Y-109822646D01*
X132170730Y-109825500D01*
X132170734Y-109825500D01*
X132829270Y-109825500D01*
X132859699Y-109822646D01*
X132859701Y-109822646D01*
X132923790Y-109800219D01*
X132987882Y-109777793D01*
X133097150Y-109697150D01*
X133177793Y-109587882D01*
X133210119Y-109495500D01*
X133222646Y-109459701D01*
X133222646Y-109459699D01*
X133225500Y-109429269D01*
X133225500Y-108920730D01*
X133222646Y-108890300D01*
X133222646Y-108890298D01*
X133185622Y-108784491D01*
X133177793Y-108762118D01*
X133097150Y-108652850D01*
X133097146Y-108652847D01*
X133090576Y-108646276D01*
X133092404Y-108644448D01*
X133058614Y-108599939D01*
X133050500Y-108555822D01*
X133050500Y-108427527D01*
X133050500Y-108427525D01*
X133012984Y-108287515D01*
X133011904Y-108285645D01*
X132940511Y-108161988D01*
X132940506Y-108161982D01*
X132838017Y-108059493D01*
X132838011Y-108059488D01*
X132712488Y-107987017D01*
X132712489Y-107987017D01*
X132701006Y-107983940D01*
X132572475Y-107949500D01*
X132427525Y-107949500D01*
X132298993Y-107983940D01*
X132287511Y-107987017D01*
X132161988Y-108059488D01*
X132161982Y-108059493D01*
X132059493Y-108161982D01*
X132059488Y-108161988D01*
X131987017Y-108287511D01*
X131987016Y-108287515D01*
X131949500Y-108427525D01*
X131949500Y-108427527D01*
X131949500Y-108555823D01*
X131929815Y-108622862D01*
X131908617Y-108645477D01*
X131909420Y-108646280D01*
X131902851Y-108652848D01*
X131816689Y-108769595D01*
X131814714Y-108768137D01*
X131775420Y-108808515D01*
X131714520Y-108824500D01*
X131535480Y-108824500D01*
X131468441Y-108804815D01*
X131434968Y-108768371D01*
X131433311Y-108769595D01*
X131413800Y-108743158D01*
X131347150Y-108652850D01*
X131237882Y-108572207D01*
X131237880Y-108572206D01*
X131109700Y-108527353D01*
X131079270Y-108524500D01*
X131079266Y-108524500D01*
X131071543Y-108524500D01*
X131004504Y-108504815D01*
X130983862Y-108488181D01*
X130286818Y-107791137D01*
X130253333Y-107729814D01*
X130250499Y-107703456D01*
X130250499Y-106843482D01*
X130250498Y-106843475D01*
X130235646Y-106749696D01*
X130178050Y-106636658D01*
X130178046Y-106636654D01*
X130178045Y-106636652D01*
X130088347Y-106546954D01*
X130088344Y-106546952D01*
X130088342Y-106546950D01*
X129975304Y-106489354D01*
X129975302Y-106489353D01*
X129975299Y-106489351D01*
X129975301Y-106489352D01*
X129996198Y-106500000D01*
X130150000Y-106500000D01*
X130150000Y-106202741D01*
X130251552Y-106142685D01*
X130251561Y-106142678D01*
X130367678Y-106026561D01*
X130367685Y-106026552D01*
X130451282Y-105885196D01*
X130451283Y-105885193D01*
X130497099Y-105727495D01*
X130497100Y-105727489D01*
X130499999Y-105690649D01*
X130500000Y-105690634D01*
X130500000Y-105362500D01*
X130150000Y-105362500D01*
X130150000Y-104862500D01*
X130500000Y-104862500D01*
X130500000Y-104534365D01*
X130499999Y-104534350D01*
X130497100Y-104497510D01*
X130497099Y-104497504D01*
X130451283Y-104339806D01*
X130451282Y-104339803D01*
X130367685Y-104198447D01*
X130367678Y-104198438D01*
X130251561Y-104082321D01*
X130251552Y-104082314D01*
X130110198Y-103998718D01*
X129995084Y-103965275D01*
X129936199Y-103927668D01*
X129906992Y-103864196D01*
X129911973Y-103807193D01*
X129964856Y-103647605D01*
X129974999Y-103548322D01*
X129975000Y-103548309D01*
X129975000Y-103500000D01*
X129550000Y-103500000D01*
X129550000Y-103000000D01*
X129974999Y-103000000D01*
X129974999Y-102951692D01*
X129974998Y-102951677D01*
X129964855Y-102852392D01*
X129911547Y-102691518D01*
X129911542Y-102691507D01*
X129822575Y-102547271D01*
X129822572Y-102547267D01*
X129737986Y-102462681D01*
X129704501Y-102401358D01*
X129709485Y-102331666D01*
X129737986Y-102287319D01*
X129822572Y-102202732D01*
X129822575Y-102202728D01*
X129911542Y-102058492D01*
X129911547Y-102058481D01*
X129964855Y-101897606D01*
X129974999Y-101798322D01*
X129975000Y-101798309D01*
X129975000Y-101750000D01*
X129550000Y-101750000D01*
X129550000Y-101250000D01*
X129974999Y-101250000D01*
X129974999Y-101204498D01*
X133524500Y-101204498D01*
X133524500Y-101795481D01*
X133524501Y-101795490D01*
X133530587Y-101852114D01*
X133571782Y-101962557D01*
X133578372Y-101980226D01*
X133649767Y-102075600D01*
X133674184Y-102141063D01*
X133674500Y-102149909D01*
X133674500Y-102600090D01*
X133654815Y-102667129D01*
X133649767Y-102674400D01*
X133578374Y-102769769D01*
X133578372Y-102769773D01*
X133578372Y-102769774D01*
X133533241Y-102890774D01*
X133530587Y-102897889D01*
X133524500Y-102954498D01*
X133524500Y-103545481D01*
X133524501Y-103545490D01*
X133530587Y-103602114D01*
X133558815Y-103677793D01*
X133578372Y-103730226D01*
X133649767Y-103825600D01*
X133674184Y-103891063D01*
X133674500Y-103899909D01*
X133674500Y-103902526D01*
X133674500Y-104047474D01*
X133712016Y-104187485D01*
X133784489Y-104313014D01*
X133784491Y-104313016D01*
X133963181Y-104491706D01*
X133996666Y-104553029D01*
X133999500Y-104579387D01*
X133999500Y-105656517D01*
X134009190Y-105717697D01*
X134014354Y-105750304D01*
X134071950Y-105863342D01*
X134071952Y-105863344D01*
X134071954Y-105863347D01*
X134161652Y-105953045D01*
X134161654Y-105953046D01*
X134161658Y-105953050D01*
X134274694Y-106010645D01*
X134274698Y-106010647D01*
X134368475Y-106025499D01*
X134368481Y-106025500D01*
X134731518Y-106025499D01*
X134825304Y-106010646D01*
X134938342Y-105953050D01*
X135028050Y-105863342D01*
X135085646Y-105750304D01*
X135085646Y-105750302D01*
X135085647Y-105750301D01*
X135100500Y-105656524D01*
X135100500Y-104286538D01*
X135120185Y-104219499D01*
X135172989Y-104173744D01*
X135200000Y-104169860D01*
X135200000Y-106241701D01*
X135089806Y-106273716D01*
X135089803Y-106273717D01*
X134948447Y-106357314D01*
X134948442Y-106357318D01*
X134862299Y-106443461D01*
X134800975Y-106476945D01*
X134755225Y-106478253D01*
X134731523Y-106474500D01*
X134368482Y-106474500D01*
X134287519Y-106487323D01*
X134274696Y-106489354D01*
X134161658Y-106546950D01*
X134161657Y-106546951D01*
X134161652Y-106546954D01*
X134071954Y-106636652D01*
X134071951Y-106636657D01*
X134071950Y-106636658D01*
X134059601Y-106660895D01*
X134014352Y-106749698D01*
X133999500Y-106843475D01*
X133999500Y-107920613D01*
X133979815Y-107987652D01*
X133963181Y-108008294D01*
X133784491Y-108186983D01*
X133784489Y-108186985D01*
X133735134Y-108272474D01*
X133735133Y-108272475D01*
X133712017Y-108312512D01*
X133712016Y-108312513D01*
X133699499Y-108359228D01*
X133674500Y-108452525D01*
X133674500Y-108452527D01*
X133674500Y-108600090D01*
X133654815Y-108667129D01*
X133649767Y-108674400D01*
X133578374Y-108769769D01*
X133578372Y-108769773D01*
X133578372Y-108769774D01*
X133533417Y-108890301D01*
X133530587Y-108897889D01*
X133524500Y-108954498D01*
X133524500Y-109545481D01*
X133524501Y-109545490D01*
X133530587Y-109602114D01*
X133566035Y-109697150D01*
X133578372Y-109730226D01*
X133649767Y-109825600D01*
X133674184Y-109891063D01*
X133674500Y-109899909D01*
X133674500Y-110047474D01*
X133703200Y-110154586D01*
X133712014Y-110187480D01*
X133712015Y-110187483D01*
X133712016Y-110187485D01*
X133784490Y-110313015D01*
X133911985Y-110440510D01*
X134037515Y-110512984D01*
X134177525Y-110550500D01*
X134177528Y-110550500D01*
X134322472Y-110550500D01*
X134322475Y-110550500D01*
X134462485Y-110512984D01*
X134523338Y-110477850D01*
X134553481Y-110460448D01*
X134573337Y-110448983D01*
X134588014Y-110440510D01*
X134690510Y-110338014D01*
X134762984Y-110212485D01*
X134769683Y-110187485D01*
X134769685Y-110187480D01*
X134778498Y-110154586D01*
X134800500Y-110072475D01*
X134800500Y-110072466D01*
X134801561Y-110064415D01*
X134803579Y-110064680D01*
X134820185Y-110008128D01*
X134872989Y-109962373D01*
X134942147Y-109952429D01*
X135005703Y-109981454D01*
X135012181Y-109987486D01*
X135097267Y-110072572D01*
X135097271Y-110072575D01*
X135200000Y-110135939D01*
X135200000Y-110650000D01*
X136450000Y-110650000D01*
X136450000Y-110570730D01*
X136774500Y-110570730D01*
X136774500Y-111079269D01*
X136777353Y-111109699D01*
X136777353Y-111109701D01*
X136822206Y-111237880D01*
X136822207Y-111237882D01*
X136902849Y-111347149D01*
X136902851Y-111347151D01*
X136909421Y-111353721D01*
X136907590Y-111355551D01*
X136941377Y-111400033D01*
X136949500Y-111444176D01*
X136949500Y-111927525D01*
X136949500Y-112072475D01*
X136986270Y-112209701D01*
X136987017Y-112212488D01*
X137059488Y-112338011D01*
X137059490Y-112338013D01*
X137059491Y-112338015D01*
X137161985Y-112440509D01*
X137161986Y-112440510D01*
X137161988Y-112440511D01*
X137287511Y-112512982D01*
X137287512Y-112512982D01*
X137287515Y-112512984D01*
X137427525Y-112550500D01*
X137427528Y-112550500D01*
X137572472Y-112550500D01*
X137572475Y-112550500D01*
X137712485Y-112512984D01*
X137838015Y-112440509D01*
X137940509Y-112338015D01*
X138012984Y-112212485D01*
X138050500Y-112072475D01*
X138050500Y-111927525D01*
X138050500Y-111444176D01*
X138070185Y-111377137D01*
X138091383Y-111354525D01*
X138090579Y-111353721D01*
X138097146Y-111347152D01*
X138097150Y-111347150D01*
X138177793Y-111237882D01*
X138209284Y-111147886D01*
X138222646Y-111109701D01*
X138222646Y-111109699D01*
X138225500Y-111079269D01*
X138225500Y-111048322D01*
X138525001Y-111048322D01*
X138535144Y-111147607D01*
X138588452Y-111308481D01*
X138588457Y-111308492D01*
X138677424Y-111452728D01*
X138677427Y-111452732D01*
X138797267Y-111572572D01*
X138797271Y-111572575D01*
X138941507Y-111661542D01*
X138941518Y-111661547D01*
X139102393Y-111714855D01*
X139201683Y-111724999D01*
X139750000Y-111724999D01*
X139798308Y-111724999D01*
X139798322Y-111724998D01*
X139897607Y-111714855D01*
X140058481Y-111661547D01*
X140058492Y-111661542D01*
X140202728Y-111572575D01*
X140202732Y-111572572D01*
X140287319Y-111487986D01*
X140348642Y-111454501D01*
X140418334Y-111459485D01*
X140462681Y-111487986D01*
X140547267Y-111572572D01*
X140547271Y-111572575D01*
X140691507Y-111661542D01*
X140691518Y-111661547D01*
X140852393Y-111714855D01*
X140951683Y-111724999D01*
X141500000Y-111724999D01*
X141548308Y-111724999D01*
X141548322Y-111724998D01*
X141647607Y-111714855D01*
X141808481Y-111661547D01*
X141808492Y-111661542D01*
X141952728Y-111572575D01*
X141952732Y-111572572D01*
X142037319Y-111487986D01*
X142098642Y-111454501D01*
X142168334Y-111459485D01*
X142212681Y-111487986D01*
X142297267Y-111572572D01*
X142297271Y-111572575D01*
X142441507Y-111661542D01*
X142441518Y-111661547D01*
X142538301Y-111693618D01*
X142595746Y-111733391D01*
X142622569Y-111797906D01*
X142610254Y-111866682D01*
X142564397Y-111916860D01*
X142547273Y-111927422D01*
X142547267Y-111927427D01*
X142427427Y-112047267D01*
X142427424Y-112047271D01*
X142338457Y-112191507D01*
X142338452Y-112191518D01*
X142285144Y-112352393D01*
X142275000Y-112451677D01*
X142275000Y-112500000D01*
X142975000Y-112500000D01*
X142975000Y-111855000D01*
X142874000Y-111855000D01*
X142806961Y-111835315D01*
X142761206Y-111782511D01*
X142750000Y-111731000D01*
X142750000Y-111025000D01*
X141500000Y-111025000D01*
X141500000Y-111724999D01*
X140951683Y-111724999D01*
X140999999Y-111724998D01*
X141000000Y-111724998D01*
X141000000Y-111025000D01*
X139750000Y-111025000D01*
X139750000Y-111724999D01*
X139201683Y-111724999D01*
X139249999Y-111724998D01*
X139250000Y-111724998D01*
X139250000Y-111025000D01*
X138525001Y-111025000D01*
X138525001Y-111048322D01*
X138225500Y-111048322D01*
X138225500Y-110570730D01*
X138222646Y-110540300D01*
X138222646Y-110540298D01*
X138186645Y-110437417D01*
X138177793Y-110412118D01*
X138097150Y-110302850D01*
X137987882Y-110222207D01*
X137987880Y-110222206D01*
X137859700Y-110177353D01*
X137829270Y-110174500D01*
X137829266Y-110174500D01*
X137170734Y-110174500D01*
X137170730Y-110174500D01*
X137140300Y-110177353D01*
X137140298Y-110177353D01*
X137012119Y-110222206D01*
X137012117Y-110222207D01*
X136902850Y-110302850D01*
X136822207Y-110412117D01*
X136822206Y-110412119D01*
X136777353Y-110540298D01*
X136777353Y-110540300D01*
X136774500Y-110570730D01*
X136450000Y-110570730D01*
X136450000Y-110074257D01*
X136452728Y-110072575D01*
X136452732Y-110072572D01*
X136572572Y-109952732D01*
X136572575Y-109952728D01*
X136661542Y-109808492D01*
X136661547Y-109808481D01*
X136686471Y-109733266D01*
X136726243Y-109675821D01*
X136790759Y-109648998D01*
X136859535Y-109661313D01*
X136895403Y-109691454D01*
X136896279Y-109690579D01*
X136902848Y-109697148D01*
X136902849Y-109697148D01*
X136902850Y-109697150D01*
X137012118Y-109777793D01*
X137046109Y-109789687D01*
X137140299Y-109822646D01*
X137170730Y-109825500D01*
X137170734Y-109825500D01*
X137829270Y-109825500D01*
X137859699Y-109822646D01*
X137859701Y-109822646D01*
X137923790Y-109800219D01*
X137987882Y-109777793D01*
X138097150Y-109697150D01*
X138177793Y-109587882D01*
X138210119Y-109495500D01*
X138222646Y-109459701D01*
X138222646Y-109459699D01*
X138225500Y-109429269D01*
X138225500Y-108920730D01*
X138222646Y-108890301D01*
X138217915Y-108876780D01*
X138214352Y-108807002D01*
X138227568Y-108773825D01*
X138262984Y-108712485D01*
X138300500Y-108572475D01*
X138300500Y-108427525D01*
X138262984Y-108287515D01*
X138261904Y-108285645D01*
X138190511Y-108161988D01*
X138190506Y-108161982D01*
X138088017Y-108059493D01*
X138088011Y-108059488D01*
X137962488Y-107987017D01*
X137962489Y-107987017D01*
X137951006Y-107983940D01*
X137822475Y-107949500D01*
X137822472Y-107949500D01*
X137746544Y-107949500D01*
X137679505Y-107929815D01*
X137658863Y-107913181D01*
X137036818Y-107291136D01*
X137003333Y-107229813D01*
X137000499Y-107203455D01*
X137000499Y-106843482D01*
X137000498Y-106843475D01*
X136985646Y-106749696D01*
X136928050Y-106636658D01*
X136928046Y-106636654D01*
X136928045Y-106636652D01*
X136838347Y-106546954D01*
X136838344Y-106546952D01*
X136838342Y-106546950D01*
X136725304Y-106489354D01*
X136725302Y-106489353D01*
X136725299Y-106489351D01*
X136725301Y-106489352D01*
X136746198Y-106500000D01*
X136900000Y-106500000D01*
X136900000Y-106202741D01*
X137001552Y-106142685D01*
X137001561Y-106142678D01*
X137117678Y-106026561D01*
X137117685Y-106026552D01*
X137201282Y-105885196D01*
X137201283Y-105885193D01*
X137247099Y-105727495D01*
X137247100Y-105727489D01*
X137249999Y-105690649D01*
X137250000Y-105690634D01*
X137250000Y-105362500D01*
X136900000Y-105362500D01*
X136900000Y-104862500D01*
X137250000Y-104862500D01*
X137250000Y-104534365D01*
X137249999Y-104534350D01*
X137247100Y-104497510D01*
X137247099Y-104497504D01*
X137201283Y-104339806D01*
X137201282Y-104339803D01*
X137138639Y-104233879D01*
X137008928Y-104089688D01*
X137001561Y-104082321D01*
X137001552Y-104082314D01*
X136860198Y-103998718D01*
X136745084Y-103965275D01*
X136686199Y-103927668D01*
X136656992Y-103864196D01*
X136661973Y-103807193D01*
X136714856Y-103647605D01*
X136724999Y-103548322D01*
X136725000Y-103548309D01*
X136725000Y-103500000D01*
X136300000Y-103500000D01*
X136300000Y-103000000D01*
X136724999Y-103000000D01*
X136724999Y-102951692D01*
X136724998Y-102951677D01*
X136714855Y-102852392D01*
X136661547Y-102691518D01*
X136661542Y-102691507D01*
X136572575Y-102547271D01*
X136572572Y-102547267D01*
X136487986Y-102462681D01*
X136454501Y-102401358D01*
X136459485Y-102331666D01*
X136487986Y-102287319D01*
X136572572Y-102202732D01*
X136572575Y-102202728D01*
X136661542Y-102058492D01*
X136661547Y-102058481D01*
X136714855Y-101897606D01*
X136724999Y-101798322D01*
X136725000Y-101798309D01*
X136725000Y-101750000D01*
X136300000Y-101750000D01*
X136300000Y-101250000D01*
X136724999Y-101250000D01*
X136724999Y-101201692D01*
X136724998Y-101201677D01*
X136714855Y-101102392D01*
X136661547Y-100941518D01*
X136661542Y-100941507D01*
X136572575Y-100797271D01*
X136572572Y-100797267D01*
X136479161Y-100703856D01*
X137149500Y-100703856D01*
X137149500Y-103796143D01*
X137167734Y-103864196D01*
X137167873Y-103864712D01*
X137173386Y-103885288D01*
X137188442Y-103911366D01*
X137194365Y-103921626D01*
X137219530Y-103965212D01*
X137329087Y-104074769D01*
X138238181Y-104983863D01*
X138271666Y-105045186D01*
X138274500Y-105071543D01*
X138274500Y-105295480D01*
X138274501Y-105295490D01*
X138280587Y-105352114D01*
X138320828Y-105460000D01*
X138328372Y-105480226D01*
X138410313Y-105589687D01*
X138519774Y-105671628D01*
X138647886Y-105719412D01*
X138704515Y-105725500D01*
X139245484Y-105725499D01*
X139302114Y-105719412D01*
X139430226Y-105671628D01*
X139539687Y-105589687D01*
X139621628Y-105480226D01*
X139633819Y-105447538D01*
X139675687Y-105391609D01*
X139741150Y-105367191D01*
X139809424Y-105382042D01*
X139858830Y-105431446D01*
X139866180Y-105447539D01*
X139878372Y-105480227D01*
X139919342Y-105534956D01*
X139960313Y-105589687D01*
X140069774Y-105671628D01*
X140197886Y-105719412D01*
X140254515Y-105725500D01*
X140795484Y-105725499D01*
X140814379Y-105723468D01*
X140883139Y-105735875D01*
X140934275Y-105783487D01*
X140947407Y-105814664D01*
X140949500Y-105822475D01*
X140984487Y-105953048D01*
X140987017Y-105962488D01*
X141059488Y-106088011D01*
X141059490Y-106088013D01*
X141059491Y-106088015D01*
X141161985Y-106190509D01*
X141161986Y-106190510D01*
X141161988Y-106190511D01*
X141287511Y-106262982D01*
X141287512Y-106262982D01*
X141287515Y-106262984D01*
X141427525Y-106300500D01*
X141427528Y-106300500D01*
X141572472Y-106300500D01*
X141572475Y-106300500D01*
X141712485Y-106262984D01*
X141712487Y-106262982D01*
X141712489Y-106262982D01*
X141712490Y-106262981D01*
X141783963Y-106221716D01*
X141785778Y-106220667D01*
X141853678Y-106204194D01*
X141919705Y-106227046D01*
X141962896Y-106281966D01*
X141969538Y-106351520D01*
X141967554Y-106360147D01*
X141949500Y-106427525D01*
X141949500Y-106498463D01*
X141929815Y-106565502D01*
X141877011Y-106611257D01*
X141857595Y-106618237D01*
X141787516Y-106637015D01*
X141787511Y-106637017D01*
X141661988Y-106709488D01*
X141661982Y-106709493D01*
X141559493Y-106811982D01*
X141559488Y-106811988D01*
X141487017Y-106937511D01*
X141449499Y-107077528D01*
X141448439Y-107085585D01*
X141446609Y-107085344D01*
X141429815Y-107142539D01*
X141377011Y-107188294D01*
X141325500Y-107199500D01*
X141322475Y-107199500D01*
X141177525Y-107199500D01*
X141064397Y-107229813D01*
X141037511Y-107237017D01*
X140911988Y-107309488D01*
X140911982Y-107309493D01*
X140809493Y-107411982D01*
X140809488Y-107411988D01*
X140737017Y-107537511D01*
X140737016Y-107537515D01*
X140699500Y-107677525D01*
X140699500Y-107822475D01*
X140729430Y-107934174D01*
X140737017Y-107962488D01*
X140809488Y-108088011D01*
X140809490Y-108088013D01*
X140809491Y-108088015D01*
X140911985Y-108190509D01*
X140911986Y-108190510D01*
X140911988Y-108190511D01*
X141037511Y-108262982D01*
X141037512Y-108262982D01*
X141037515Y-108262984D01*
X141103730Y-108280726D01*
X141163389Y-108317090D01*
X141193918Y-108379936D01*
X141185624Y-108449312D01*
X141141138Y-108503190D01*
X141074587Y-108524465D01*
X141071636Y-108524500D01*
X140954519Y-108524500D01*
X140954509Y-108524501D01*
X140897885Y-108530587D01*
X140769773Y-108578372D01*
X140660313Y-108660313D01*
X140578372Y-108769773D01*
X140575559Y-108774926D01*
X140526154Y-108824332D01*
X140466726Y-108839500D01*
X140283274Y-108839500D01*
X140216235Y-108819815D01*
X140174441Y-108774926D01*
X140171627Y-108769773D01*
X140171494Y-108769595D01*
X140089687Y-108660313D01*
X140089685Y-108660311D01*
X140089684Y-108660310D01*
X140086819Y-108657445D01*
X140084877Y-108653888D01*
X140084372Y-108653214D01*
X140084469Y-108653141D01*
X140053334Y-108596122D01*
X140050500Y-108569764D01*
X140050500Y-108427527D01*
X140050500Y-108427525D01*
X140012984Y-108287515D01*
X140011904Y-108285645D01*
X139940511Y-108161988D01*
X139940506Y-108161982D01*
X139838017Y-108059493D01*
X139838011Y-108059488D01*
X139712488Y-107987017D01*
X139712489Y-107987017D01*
X139701006Y-107983940D01*
X139572475Y-107949500D01*
X139427525Y-107949500D01*
X139298993Y-107983940D01*
X139287511Y-107987017D01*
X139161988Y-108059488D01*
X139161982Y-108059493D01*
X139059493Y-108161982D01*
X139059488Y-108161988D01*
X138987017Y-108287511D01*
X138987016Y-108287515D01*
X138949500Y-108427525D01*
X138949500Y-108427527D01*
X138949500Y-108569764D01*
X138929815Y-108636803D01*
X138913181Y-108657445D01*
X138910315Y-108660310D01*
X138828373Y-108769771D01*
X138828372Y-108769774D01*
X138783418Y-108890300D01*
X138780587Y-108897889D01*
X138774500Y-108954498D01*
X138774500Y-109495481D01*
X138774501Y-109495490D01*
X138780587Y-109552114D01*
X138808097Y-109625867D01*
X138826450Y-109675074D01*
X138828373Y-109680228D01*
X138889438Y-109761802D01*
X138913855Y-109827266D01*
X138899003Y-109895539D01*
X138855270Y-109941649D01*
X138797270Y-109977424D01*
X138677427Y-110097267D01*
X138677424Y-110097271D01*
X138588457Y-110241507D01*
X138588452Y-110241518D01*
X138535144Y-110402393D01*
X138525000Y-110501677D01*
X138525000Y-110525000D01*
X142876000Y-110525000D01*
X142943039Y-110544685D01*
X142988794Y-110597489D01*
X143000000Y-110649000D01*
X143000000Y-110775000D01*
X143126000Y-110775000D01*
X143193039Y-110794685D01*
X143238794Y-110847489D01*
X143250000Y-110899000D01*
X143250000Y-111645000D01*
X143351000Y-111645000D01*
X143418039Y-111664685D01*
X143463794Y-111717489D01*
X143475000Y-111769000D01*
X143475000Y-113724999D01*
X143498308Y-113724999D01*
X143498322Y-113724998D01*
X143597607Y-113714855D01*
X143758481Y-113661547D01*
X143758492Y-113661542D01*
X143902728Y-113572575D01*
X143902732Y-113572572D01*
X144022573Y-113452731D01*
X144058348Y-113394731D01*
X144110296Y-113348006D01*
X144179258Y-113336783D01*
X144238194Y-113360558D01*
X144319774Y-113421628D01*
X144447886Y-113469412D01*
X144504515Y-113475500D01*
X145045484Y-113475499D01*
X145102114Y-113469412D01*
X145230226Y-113421628D01*
X145339687Y-113339687D01*
X145421628Y-113230226D01*
X145469412Y-113102114D01*
X145471868Y-113079266D01*
X145475499Y-113045501D01*
X145475499Y-113045494D01*
X145475500Y-113045485D01*
X145475499Y-112454516D01*
X145473994Y-112440510D01*
X145472981Y-112431086D01*
X145471868Y-112420730D01*
X145774500Y-112420730D01*
X145774500Y-113079269D01*
X145777353Y-113109699D01*
X145777353Y-113109701D01*
X145822206Y-113237880D01*
X145822207Y-113237882D01*
X145850270Y-113275906D01*
X145874241Y-113341533D01*
X145874500Y-113349539D01*
X145874500Y-113427525D01*
X145874500Y-113572475D01*
X145906128Y-113690511D01*
X145912017Y-113712488D01*
X145984488Y-113838011D01*
X145984490Y-113838013D01*
X145984491Y-113838015D01*
X146086985Y-113940509D01*
X146086986Y-113940510D01*
X146086988Y-113940511D01*
X146212511Y-114012982D01*
X146212512Y-114012982D01*
X146212515Y-114012984D01*
X146352525Y-114050500D01*
X146352528Y-114050500D01*
X146497472Y-114050500D01*
X146497475Y-114050500D01*
X146637485Y-114012984D01*
X146763015Y-113940509D01*
X146865509Y-113838015D01*
X146937984Y-113712485D01*
X146975500Y-113572475D01*
X146975500Y-113427525D01*
X146975500Y-113349539D01*
X146995185Y-113282500D01*
X146999722Y-113275916D01*
X147027793Y-113237882D01*
X147054304Y-113162117D01*
X147072646Y-113109701D01*
X147072646Y-113109699D01*
X147075500Y-113079269D01*
X147075500Y-112420730D01*
X147424500Y-112420730D01*
X147424500Y-113079269D01*
X147427353Y-113109699D01*
X147427353Y-113109701D01*
X147472206Y-113237880D01*
X147472207Y-113237882D01*
X147552850Y-113347150D01*
X147653765Y-113421628D01*
X147669595Y-113433311D01*
X147668137Y-113435285D01*
X147708515Y-113474580D01*
X147724500Y-113535480D01*
X147724500Y-113871145D01*
X147743085Y-113940507D01*
X147748385Y-113960286D01*
X147748387Y-113960291D01*
X147794527Y-114040208D01*
X147794531Y-114040213D01*
X148423181Y-114668863D01*
X148456666Y-114730186D01*
X148459500Y-114756544D01*
X148459500Y-114867481D01*
X148439815Y-114934520D01*
X148391795Y-114977966D01*
X148233211Y-115058768D01*
X148153256Y-115116859D01*
X148093072Y-115160586D01*
X148093070Y-115160588D01*
X148093069Y-115160588D01*
X147970588Y-115283069D01*
X147970588Y-115283070D01*
X147970586Y-115283072D01*
X147963771Y-115292452D01*
X147868768Y-115423211D01*
X147790128Y-115577552D01*
X147736597Y-115742302D01*
X147721773Y-115835900D01*
X147709500Y-115913389D01*
X147709500Y-116086611D01*
X147714776Y-116119920D01*
X147736597Y-116257697D01*
X147736597Y-116257699D01*
X147736598Y-116257701D01*
X147790127Y-116422445D01*
X147868768Y-116576788D01*
X147970586Y-116716928D01*
X148093072Y-116839414D01*
X148233212Y-116941232D01*
X148387555Y-117019873D01*
X148552299Y-117073402D01*
X148723389Y-117100500D01*
X148723390Y-117100500D01*
X148896610Y-117100500D01*
X148896611Y-117100500D01*
X149067701Y-117073402D01*
X149232445Y-117019873D01*
X149386788Y-116941232D01*
X149526928Y-116839414D01*
X149649414Y-116716928D01*
X149751232Y-116576788D01*
X149829873Y-116422445D01*
X149883402Y-116257701D01*
X149910500Y-116086611D01*
X149910500Y-115913389D01*
X150249500Y-115913389D01*
X150249500Y-116086611D01*
X150254776Y-116119920D01*
X150276597Y-116257697D01*
X150276597Y-116257699D01*
X150276598Y-116257701D01*
X150330127Y-116422445D01*
X150408768Y-116576788D01*
X150510586Y-116716928D01*
X150633072Y-116839414D01*
X150773212Y-116941232D01*
X150927555Y-117019873D01*
X151092299Y-117073402D01*
X151263389Y-117100500D01*
X151263390Y-117100500D01*
X151436610Y-117100500D01*
X151436611Y-117100500D01*
X151607701Y-117073402D01*
X151772445Y-117019873D01*
X151772447Y-117019871D01*
X151776971Y-117018402D01*
X151846812Y-117016407D01*
X151902970Y-117048652D01*
X151959788Y-117105470D01*
X151959789Y-117105471D01*
X151959791Y-117105472D01*
X151967116Y-117109701D01*
X152039712Y-117151614D01*
X152128856Y-117175500D01*
X153714520Y-117175500D01*
X153781559Y-117195185D01*
X153815031Y-117231628D01*
X153816689Y-117230405D01*
X153822206Y-117237880D01*
X153822207Y-117237882D01*
X153902850Y-117347150D01*
X154012118Y-117427793D01*
X154054845Y-117442744D01*
X154140299Y-117472646D01*
X154170730Y-117475500D01*
X154170734Y-117475500D01*
X154829270Y-117475500D01*
X154859699Y-117472646D01*
X154859701Y-117472646D01*
X154941059Y-117444177D01*
X154987882Y-117427793D01*
X155097150Y-117347150D01*
X155177793Y-117237882D01*
X155177794Y-117237880D01*
X155183311Y-117230405D01*
X155185285Y-117231862D01*
X155224580Y-117191485D01*
X155285480Y-117175500D01*
X155464520Y-117175500D01*
X155531559Y-117195185D01*
X155565031Y-117231628D01*
X155566689Y-117230405D01*
X155572206Y-117237880D01*
X155572207Y-117237882D01*
X155652850Y-117347150D01*
X155762118Y-117427793D01*
X155804845Y-117442744D01*
X155890299Y-117472646D01*
X155920730Y-117475500D01*
X155920734Y-117475500D01*
X156579270Y-117475500D01*
X156609699Y-117472646D01*
X156609701Y-117472646D01*
X156691059Y-117444177D01*
X156737882Y-117427793D01*
X156847150Y-117347150D01*
X156927793Y-117237882D01*
X156956927Y-117154622D01*
X156972646Y-117109701D01*
X156972646Y-117109699D01*
X156975500Y-117079269D01*
X156975500Y-117054152D01*
X157775001Y-117054152D01*
X157785056Y-117152583D01*
X157837906Y-117312072D01*
X157837908Y-117312077D01*
X157926114Y-117455080D01*
X158044919Y-117573885D01*
X158187922Y-117662091D01*
X158187927Y-117662093D01*
X158347416Y-117714942D01*
X158445855Y-117724999D01*
X159000000Y-117724999D01*
X159054136Y-117724999D01*
X159054152Y-117724998D01*
X159152583Y-117714943D01*
X159312072Y-117662093D01*
X159312077Y-117662091D01*
X159455080Y-117573885D01*
X159573885Y-117455080D01*
X159644461Y-117340660D01*
X159696409Y-117293936D01*
X159765372Y-117282714D01*
X159829454Y-117310557D01*
X159855539Y-117340660D01*
X159926114Y-117455080D01*
X160044919Y-117573885D01*
X160187922Y-117662091D01*
X160187927Y-117662093D01*
X160347416Y-117714942D01*
X160445855Y-117724999D01*
X161000000Y-117724999D01*
X161054136Y-117724999D01*
X161054152Y-117724998D01*
X161152583Y-117714943D01*
X161312072Y-117662093D01*
X161312077Y-117662091D01*
X161455080Y-117573885D01*
X161573885Y-117455080D01*
X161662091Y-117312077D01*
X161662093Y-117312072D01*
X161714942Y-117152583D01*
X161724999Y-117054150D01*
X161725000Y-117054137D01*
X161725000Y-117037500D01*
X161000000Y-117037500D01*
X161000000Y-117724999D01*
X160445855Y-117724999D01*
X160499999Y-117724998D01*
X160500000Y-117724998D01*
X160500000Y-117037500D01*
X159000000Y-117037500D01*
X159000000Y-117724999D01*
X158445855Y-117724999D01*
X158499999Y-117724998D01*
X158500000Y-117724998D01*
X158500000Y-117037500D01*
X157775001Y-117037500D01*
X157775001Y-117054152D01*
X156975500Y-117054152D01*
X156975500Y-116570730D01*
X156972647Y-116540306D01*
X156972644Y-116540293D01*
X156965840Y-116520849D01*
X157775000Y-116520849D01*
X157775000Y-116537500D01*
X161724999Y-116537500D01*
X161724999Y-116520864D01*
X161724998Y-116520847D01*
X161714943Y-116422416D01*
X161662093Y-116262927D01*
X161662091Y-116262922D01*
X161573885Y-116119919D01*
X161455079Y-116001113D01*
X161455075Y-116001110D01*
X161372674Y-115950284D01*
X161325949Y-115898336D01*
X161314728Y-115829374D01*
X161338504Y-115770435D01*
X161341468Y-115766474D01*
X161341472Y-115766472D01*
X161422336Y-115658450D01*
X161469491Y-115532022D01*
X161473146Y-115498023D01*
X161475499Y-115476144D01*
X161475500Y-115476129D01*
X161475500Y-114948870D01*
X161475499Y-114948855D01*
X161471755Y-114914034D01*
X161469491Y-114892978D01*
X161468492Y-114890300D01*
X161422337Y-114766552D01*
X161422335Y-114766549D01*
X161419018Y-114762118D01*
X161341472Y-114658528D01*
X161233450Y-114577664D01*
X161233449Y-114577663D01*
X161181166Y-114558163D01*
X161125233Y-114516291D01*
X161100816Y-114450827D01*
X161100500Y-114441981D01*
X161100500Y-114313847D01*
X161120185Y-114246808D01*
X161172989Y-114201053D01*
X161183528Y-114196812D01*
X161237882Y-114177793D01*
X161347150Y-114097150D01*
X161427793Y-113987882D01*
X161468641Y-113871145D01*
X161472646Y-113859701D01*
X161472646Y-113859699D01*
X161475500Y-113829269D01*
X161475500Y-113320730D01*
X161472646Y-113290300D01*
X161472646Y-113290298D01*
X161427793Y-113162119D01*
X161427792Y-113162117D01*
X161396845Y-113120185D01*
X161347150Y-113052850D01*
X161237882Y-112972207D01*
X161237880Y-112972206D01*
X161109700Y-112927353D01*
X161079270Y-112924500D01*
X161079266Y-112924500D01*
X160420734Y-112924500D01*
X160420730Y-112924500D01*
X160390300Y-112927353D01*
X160390298Y-112927353D01*
X160262119Y-112972206D01*
X160262117Y-112972207D01*
X160152850Y-113052850D01*
X160072207Y-113162117D01*
X160072206Y-113162119D01*
X160027353Y-113290298D01*
X160027353Y-113290300D01*
X160024500Y-113320730D01*
X160024500Y-113829269D01*
X160027353Y-113859699D01*
X160027353Y-113859701D01*
X160067874Y-113975499D01*
X160072207Y-113987882D01*
X160152850Y-114097150D01*
X160262118Y-114177793D01*
X160316456Y-114196806D01*
X160373231Y-114237527D01*
X160398978Y-114302480D01*
X160399500Y-114313847D01*
X160399500Y-114441981D01*
X160379815Y-114509020D01*
X160327011Y-114554775D01*
X160318834Y-114558163D01*
X160266550Y-114577663D01*
X160266549Y-114577664D01*
X160158528Y-114658528D01*
X160077664Y-114766549D01*
X160077662Y-114766552D01*
X160030509Y-114892975D01*
X160024500Y-114948855D01*
X160024500Y-115476144D01*
X160030509Y-115532024D01*
X160077662Y-115658447D01*
X160077666Y-115658453D01*
X160161495Y-115770436D01*
X160185912Y-115835900D01*
X160171060Y-115904173D01*
X160127326Y-115950284D01*
X160044921Y-116001112D01*
X159926113Y-116119920D01*
X159926110Y-116119924D01*
X159855538Y-116234339D01*
X159803590Y-116281064D01*
X159734628Y-116292285D01*
X159670546Y-116264442D01*
X159644462Y-116234339D01*
X159573889Y-116119924D01*
X159573886Y-116119920D01*
X159455079Y-116001113D01*
X159455075Y-116001110D01*
X159372674Y-115950284D01*
X159325949Y-115898336D01*
X159314728Y-115829374D01*
X159338504Y-115770435D01*
X159341468Y-115766474D01*
X159341472Y-115766472D01*
X159422336Y-115658450D01*
X159469491Y-115532022D01*
X159473146Y-115498023D01*
X159475499Y-115476144D01*
X159475500Y-115476129D01*
X159475500Y-114948870D01*
X159475499Y-114948855D01*
X159471755Y-114914034D01*
X159469491Y-114892978D01*
X159468492Y-114890300D01*
X159422337Y-114766552D01*
X159422335Y-114766549D01*
X159419018Y-114762118D01*
X159341472Y-114658528D01*
X159233450Y-114577664D01*
X159233449Y-114577663D01*
X159181166Y-114558163D01*
X159125233Y-114516291D01*
X159100816Y-114450827D01*
X159100500Y-114441981D01*
X159100500Y-114313847D01*
X159120185Y-114246808D01*
X159172989Y-114201053D01*
X159183528Y-114196812D01*
X159237882Y-114177793D01*
X159347150Y-114097150D01*
X159427793Y-113987882D01*
X159468641Y-113871145D01*
X159472646Y-113859701D01*
X159472646Y-113859699D01*
X159475500Y-113829269D01*
X159475500Y-113320730D01*
X159472646Y-113290300D01*
X159472646Y-113290298D01*
X159427793Y-113162119D01*
X159427792Y-113162117D01*
X159396845Y-113120185D01*
X159347150Y-113052850D01*
X159237882Y-112972207D01*
X159237880Y-112972206D01*
X159109700Y-112927353D01*
X159079270Y-112924500D01*
X159079266Y-112924500D01*
X158420734Y-112924500D01*
X158420730Y-112924500D01*
X158390300Y-112927353D01*
X158390298Y-112927353D01*
X158262119Y-112972206D01*
X158262117Y-112972207D01*
X158152850Y-113052850D01*
X158072207Y-113162117D01*
X158072206Y-113162119D01*
X158027353Y-113290298D01*
X158027353Y-113290300D01*
X158024500Y-113320730D01*
X158024500Y-113829269D01*
X158027353Y-113859699D01*
X158027353Y-113859701D01*
X158067874Y-113975499D01*
X158072207Y-113987882D01*
X158152850Y-114097150D01*
X158262118Y-114177793D01*
X158316456Y-114196806D01*
X158373231Y-114237527D01*
X158398978Y-114302480D01*
X158399500Y-114313847D01*
X158399500Y-114441981D01*
X158379815Y-114509020D01*
X158327011Y-114554775D01*
X158318834Y-114558163D01*
X158266550Y-114577663D01*
X158266549Y-114577664D01*
X158158528Y-114658528D01*
X158077664Y-114766549D01*
X158077662Y-114766552D01*
X158030509Y-114892975D01*
X158024500Y-114948855D01*
X158024500Y-115476144D01*
X158030509Y-115532024D01*
X158077662Y-115658447D01*
X158077666Y-115658453D01*
X158161495Y-115770436D01*
X158185912Y-115835900D01*
X158171060Y-115904173D01*
X158127326Y-115950284D01*
X158044921Y-116001112D01*
X157926114Y-116119919D01*
X157837908Y-116262922D01*
X157837906Y-116262927D01*
X157785057Y-116422416D01*
X157775000Y-116520849D01*
X156965840Y-116520849D01*
X156931407Y-116422446D01*
X156927793Y-116412118D01*
X156847150Y-116302850D01*
X156737882Y-116222207D01*
X156737880Y-116222206D01*
X156609700Y-116177353D01*
X156579270Y-116174500D01*
X156579266Y-116174500D01*
X155920734Y-116174500D01*
X155920730Y-116174500D01*
X155890300Y-116177353D01*
X155890298Y-116177353D01*
X155762119Y-116222206D01*
X155762117Y-116222207D01*
X155706944Y-116262927D01*
X155652850Y-116302850D01*
X155581078Y-116400099D01*
X155566689Y-116419595D01*
X155564714Y-116418137D01*
X155525420Y-116458515D01*
X155464520Y-116474500D01*
X155285480Y-116474500D01*
X155218441Y-116454815D01*
X155184968Y-116418371D01*
X155183311Y-116419595D01*
X155177792Y-116412117D01*
X155097150Y-116302850D01*
X154987882Y-116222207D01*
X154987880Y-116222206D01*
X154859700Y-116177353D01*
X154829270Y-116174500D01*
X154829266Y-116174500D01*
X154170734Y-116174500D01*
X154170730Y-116174500D01*
X154140300Y-116177353D01*
X154140298Y-116177353D01*
X154012119Y-116222206D01*
X154012117Y-116222207D01*
X153956944Y-116262927D01*
X153902850Y-116302850D01*
X153831078Y-116400099D01*
X153816689Y-116419595D01*
X153814714Y-116418137D01*
X153775420Y-116458515D01*
X153714520Y-116474500D01*
X152523631Y-116474500D01*
X152456592Y-116454815D01*
X152410837Y-116402011D01*
X152400893Y-116332853D01*
X152405700Y-116312182D01*
X152412165Y-116292285D01*
X152423402Y-116257701D01*
X152450500Y-116086611D01*
X152450500Y-115913389D01*
X152423402Y-115742299D01*
X152369873Y-115577555D01*
X152291232Y-115423212D01*
X152189414Y-115283072D01*
X152083867Y-115177525D01*
X153199500Y-115177525D01*
X153199500Y-115322475D01*
X153236270Y-115459701D01*
X153237017Y-115462488D01*
X153309488Y-115588011D01*
X153309490Y-115588013D01*
X153309491Y-115588015D01*
X153411985Y-115690509D01*
X153411986Y-115690510D01*
X153411988Y-115690511D01*
X153537511Y-115762982D01*
X153537512Y-115762982D01*
X153537515Y-115762984D01*
X153677525Y-115800500D01*
X153677528Y-115800500D01*
X153822472Y-115800500D01*
X153822475Y-115800500D01*
X153929822Y-115771736D01*
X153999668Y-115773399D01*
X154003279Y-115774917D01*
X154003347Y-115774724D01*
X154140299Y-115822646D01*
X154170730Y-115825500D01*
X154170734Y-115825500D01*
X154829270Y-115825500D01*
X154859699Y-115822646D01*
X154859701Y-115822646D01*
X154923790Y-115800219D01*
X154987882Y-115777793D01*
X155097150Y-115697150D01*
X155177793Y-115587882D01*
X155208544Y-115500000D01*
X155222646Y-115459701D01*
X155222646Y-115459699D01*
X155225500Y-115429269D01*
X155225500Y-114920730D01*
X155524500Y-114920730D01*
X155524500Y-115429269D01*
X155527353Y-115459699D01*
X155527353Y-115459701D01*
X155572206Y-115587880D01*
X155572207Y-115587882D01*
X155652850Y-115697150D01*
X155762118Y-115777793D01*
X155804845Y-115792744D01*
X155890299Y-115822646D01*
X155920730Y-115825500D01*
X155920734Y-115825500D01*
X156579270Y-115825500D01*
X156609699Y-115822646D01*
X156609701Y-115822646D01*
X156746653Y-115774724D01*
X156747901Y-115778293D01*
X156798445Y-115767944D01*
X156820171Y-115771734D01*
X156927525Y-115800500D01*
X156927528Y-115800500D01*
X157072472Y-115800500D01*
X157072475Y-115800500D01*
X157212485Y-115762984D01*
X157338015Y-115690509D01*
X157440509Y-115588015D01*
X157512984Y-115462485D01*
X157550500Y-115322475D01*
X157550500Y-115177525D01*
X157512984Y-115037515D01*
X157479851Y-114980128D01*
X157440511Y-114911988D01*
X157440506Y-114911982D01*
X157338017Y-114809493D01*
X157338011Y-114809488D01*
X157212488Y-114737017D01*
X157212489Y-114737017D01*
X157186995Y-114730186D01*
X157072475Y-114699500D01*
X156944178Y-114699500D01*
X156877139Y-114679815D01*
X156854527Y-114658620D01*
X156853724Y-114659424D01*
X156847152Y-114652853D01*
X156847150Y-114652850D01*
X156737882Y-114572207D01*
X156737880Y-114572206D01*
X156609700Y-114527353D01*
X156579270Y-114524500D01*
X156579266Y-114524500D01*
X155920734Y-114524500D01*
X155920730Y-114524500D01*
X155890300Y-114527353D01*
X155890298Y-114527353D01*
X155762119Y-114572206D01*
X155762117Y-114572207D01*
X155652850Y-114652850D01*
X155572207Y-114762117D01*
X155572206Y-114762119D01*
X155527353Y-114890298D01*
X155527353Y-114890300D01*
X155524500Y-114920730D01*
X155225500Y-114920730D01*
X155222646Y-114890300D01*
X155222646Y-114890298D01*
X155179899Y-114768137D01*
X155177793Y-114762118D01*
X155097150Y-114652850D01*
X154987882Y-114572207D01*
X154987880Y-114572206D01*
X154859700Y-114527353D01*
X154829270Y-114524500D01*
X154829266Y-114524500D01*
X154170734Y-114524500D01*
X154170730Y-114524500D01*
X154140300Y-114527353D01*
X154140298Y-114527353D01*
X154012119Y-114572206D01*
X154012117Y-114572207D01*
X153902848Y-114652851D01*
X153896280Y-114659420D01*
X153894452Y-114657592D01*
X153849940Y-114691386D01*
X153805823Y-114699500D01*
X153677525Y-114699500D01*
X153563005Y-114730186D01*
X153537511Y-114737017D01*
X153411988Y-114809488D01*
X153411982Y-114809493D01*
X153309493Y-114911982D01*
X153309488Y-114911988D01*
X153237017Y-115037511D01*
X153237016Y-115037515D01*
X153199500Y-115177525D01*
X152083867Y-115177525D01*
X152066928Y-115160586D01*
X151926788Y-115058768D01*
X151772445Y-114980127D01*
X151607701Y-114926598D01*
X151607699Y-114926597D01*
X151607698Y-114926597D01*
X151476271Y-114905781D01*
X151436611Y-114899500D01*
X151263389Y-114899500D01*
X151223728Y-114905781D01*
X151092302Y-114926597D01*
X150927552Y-114980128D01*
X150773211Y-115058768D01*
X150693256Y-115116859D01*
X150633072Y-115160586D01*
X150633070Y-115160588D01*
X150633069Y-115160588D01*
X150510588Y-115283069D01*
X150510588Y-115283070D01*
X150510586Y-115283072D01*
X150503771Y-115292452D01*
X150408768Y-115423211D01*
X150330128Y-115577552D01*
X150276597Y-115742302D01*
X150261773Y-115835900D01*
X150249500Y-115913389D01*
X149910500Y-115913389D01*
X149883402Y-115742299D01*
X149829873Y-115577555D01*
X149751232Y-115423212D01*
X149649414Y-115283072D01*
X149526928Y-115160586D01*
X149386788Y-115058768D01*
X149374015Y-115052260D01*
X149228205Y-114977966D01*
X149177409Y-114929991D01*
X149160500Y-114867481D01*
X149160500Y-114513858D01*
X149160500Y-114513856D01*
X149136614Y-114424712D01*
X149090470Y-114344788D01*
X148461819Y-113716137D01*
X148428334Y-113654814D01*
X148425500Y-113628456D01*
X148425500Y-113535480D01*
X148445185Y-113468441D01*
X148481628Y-113434968D01*
X148480405Y-113433311D01*
X148496235Y-113421628D01*
X148597150Y-113347150D01*
X148677793Y-113237882D01*
X148696806Y-113183543D01*
X148737527Y-113126769D01*
X148802480Y-113101022D01*
X148813847Y-113100500D01*
X148936153Y-113100500D01*
X149003192Y-113120185D01*
X149048947Y-113172989D01*
X149053187Y-113183528D01*
X149072207Y-113237882D01*
X149152850Y-113347150D01*
X149262118Y-113427793D01*
X149283529Y-113435285D01*
X149390299Y-113472646D01*
X149420730Y-113475500D01*
X149420734Y-113475500D01*
X149929270Y-113475500D01*
X149959699Y-113472646D01*
X149959701Y-113472646D01*
X150025501Y-113449621D01*
X150087882Y-113427793D01*
X150197150Y-113347150D01*
X150277793Y-113237882D01*
X150304304Y-113162117D01*
X150322646Y-113109701D01*
X150322646Y-113109699D01*
X150325500Y-113079269D01*
X150325500Y-112420730D01*
X150674500Y-112420730D01*
X150674500Y-113079269D01*
X150677353Y-113109699D01*
X150677353Y-113109701D01*
X150722206Y-113237880D01*
X150722207Y-113237882D01*
X150802850Y-113347150D01*
X150912118Y-113427793D01*
X150933529Y-113435285D01*
X151040299Y-113472646D01*
X151070730Y-113475500D01*
X151070734Y-113475500D01*
X151579270Y-113475500D01*
X151609699Y-113472646D01*
X151609701Y-113472646D01*
X151675501Y-113449621D01*
X151737882Y-113427793D01*
X151847150Y-113347150D01*
X151847152Y-113347146D01*
X151853721Y-113340579D01*
X151855548Y-113342406D01*
X151900054Y-113308616D01*
X151944177Y-113300500D01*
X152072472Y-113300500D01*
X152072475Y-113300500D01*
X152212485Y-113262984D01*
X152338015Y-113190509D01*
X152440509Y-113088015D01*
X152512984Y-112962485D01*
X152550500Y-112822475D01*
X152550500Y-112677525D01*
X152512984Y-112537515D01*
X152507370Y-112527792D01*
X152440511Y-112411988D01*
X152440506Y-112411982D01*
X152338017Y-112309493D01*
X152338011Y-112309488D01*
X152212488Y-112237017D01*
X152212489Y-112237017D01*
X152201006Y-112233940D01*
X152072475Y-112199500D01*
X151944178Y-112199500D01*
X151877139Y-112179815D01*
X151854527Y-112158620D01*
X151853724Y-112159424D01*
X151847152Y-112152853D01*
X151847150Y-112152850D01*
X151737882Y-112072207D01*
X151737880Y-112072206D01*
X151609700Y-112027353D01*
X151579270Y-112024500D01*
X151579266Y-112024500D01*
X151070734Y-112024500D01*
X151070730Y-112024500D01*
X151040300Y-112027353D01*
X151040298Y-112027353D01*
X150912119Y-112072206D01*
X150912117Y-112072207D01*
X150802850Y-112152850D01*
X150722207Y-112262117D01*
X150722206Y-112262119D01*
X150677353Y-112390298D01*
X150677353Y-112390300D01*
X150674500Y-112420730D01*
X150325500Y-112420730D01*
X150322646Y-112390300D01*
X150322646Y-112390298D01*
X150280472Y-112269774D01*
X150277793Y-112262118D01*
X150197150Y-112152850D01*
X150087882Y-112072207D01*
X150087880Y-112072206D01*
X149959700Y-112027353D01*
X149929270Y-112024500D01*
X149929266Y-112024500D01*
X149420734Y-112024500D01*
X149420730Y-112024500D01*
X149390300Y-112027353D01*
X149390298Y-112027353D01*
X149262119Y-112072206D01*
X149262117Y-112072207D01*
X149152850Y-112152850D01*
X149108838Y-112212485D01*
X149072207Y-112262118D01*
X149053193Y-112316456D01*
X149012473Y-112373231D01*
X148947520Y-112398978D01*
X148936153Y-112399500D01*
X148813847Y-112399500D01*
X148746808Y-112379815D01*
X148701053Y-112327011D01*
X148696812Y-112316471D01*
X148677793Y-112262118D01*
X148597150Y-112152850D01*
X148487882Y-112072207D01*
X148487880Y-112072206D01*
X148359700Y-112027353D01*
X148329270Y-112024500D01*
X148329266Y-112024500D01*
X147820734Y-112024500D01*
X147820730Y-112024500D01*
X147790300Y-112027353D01*
X147790298Y-112027353D01*
X147662119Y-112072206D01*
X147662117Y-112072207D01*
X147552850Y-112152850D01*
X147472207Y-112262117D01*
X147472206Y-112262119D01*
X147427353Y-112390298D01*
X147427353Y-112390300D01*
X147424500Y-112420730D01*
X147075500Y-112420730D01*
X147072646Y-112390300D01*
X147072646Y-112390298D01*
X147030472Y-112269774D01*
X147027793Y-112262118D01*
X146947150Y-112152850D01*
X146837882Y-112072207D01*
X146837880Y-112072206D01*
X146709700Y-112027353D01*
X146679270Y-112024500D01*
X146679266Y-112024500D01*
X146170734Y-112024500D01*
X146170730Y-112024500D01*
X146140300Y-112027353D01*
X146140298Y-112027353D01*
X146012119Y-112072206D01*
X146012117Y-112072207D01*
X145902850Y-112152850D01*
X145822207Y-112262117D01*
X145822206Y-112262119D01*
X145777353Y-112390298D01*
X145777353Y-112390300D01*
X145774500Y-112420730D01*
X145471868Y-112420730D01*
X145469529Y-112398978D01*
X145469412Y-112397886D01*
X145421628Y-112269774D01*
X145339687Y-112160313D01*
X145230226Y-112078372D01*
X145230225Y-112078371D01*
X145191164Y-112063802D01*
X145135232Y-112021930D01*
X145110816Y-111956465D01*
X145110500Y-111947621D01*
X145110500Y-111563847D01*
X145130185Y-111496808D01*
X145182989Y-111451053D01*
X145193528Y-111446812D01*
X145247882Y-111427793D01*
X145357150Y-111347150D01*
X145387171Y-111306472D01*
X145442817Y-111264223D01*
X145512473Y-111258764D01*
X145574022Y-111291831D01*
X145592478Y-111315010D01*
X145677424Y-111452728D01*
X145677427Y-111452732D01*
X145797267Y-111572572D01*
X145797271Y-111572575D01*
X145941507Y-111661542D01*
X145941518Y-111661547D01*
X146102393Y-111714855D01*
X146201683Y-111724999D01*
X146750000Y-111724999D01*
X146798308Y-111724999D01*
X146798322Y-111724998D01*
X146897607Y-111714855D01*
X147058481Y-111661547D01*
X147058492Y-111661542D01*
X147202728Y-111572575D01*
X147202732Y-111572572D01*
X147287319Y-111487986D01*
X147348642Y-111454501D01*
X147418334Y-111459485D01*
X147462681Y-111487986D01*
X147547267Y-111572572D01*
X147547271Y-111572575D01*
X147691507Y-111661542D01*
X147691518Y-111661547D01*
X147852393Y-111714855D01*
X147951683Y-111724999D01*
X148500000Y-111724999D01*
X148548308Y-111724999D01*
X148548322Y-111724998D01*
X148647607Y-111714855D01*
X148808481Y-111661547D01*
X148808492Y-111661542D01*
X148952728Y-111572575D01*
X148952732Y-111572572D01*
X149072572Y-111452732D01*
X149072575Y-111452728D01*
X149161542Y-111308492D01*
X149161547Y-111308481D01*
X149214855Y-111147606D01*
X149224999Y-111048322D01*
X149525001Y-111048322D01*
X149535144Y-111147607D01*
X149588452Y-111308481D01*
X149588457Y-111308492D01*
X149677424Y-111452728D01*
X149677427Y-111452732D01*
X149797267Y-111572572D01*
X149797271Y-111572575D01*
X149941507Y-111661542D01*
X149941518Y-111661547D01*
X150102393Y-111714855D01*
X150201683Y-111724999D01*
X150750000Y-111724999D01*
X150798308Y-111724999D01*
X150798322Y-111724998D01*
X150897607Y-111714855D01*
X151058481Y-111661547D01*
X151058492Y-111661542D01*
X151202728Y-111572575D01*
X151202732Y-111572572D01*
X151287319Y-111487986D01*
X151348642Y-111454501D01*
X151418334Y-111459485D01*
X151462681Y-111487986D01*
X151547267Y-111572572D01*
X151547271Y-111572575D01*
X151691507Y-111661542D01*
X151691518Y-111661547D01*
X151852393Y-111714855D01*
X151951683Y-111724999D01*
X152500000Y-111724999D01*
X152548308Y-111724999D01*
X152548322Y-111724998D01*
X152647607Y-111714855D01*
X152808481Y-111661547D01*
X152808492Y-111661542D01*
X152952728Y-111572575D01*
X152952732Y-111572572D01*
X153072572Y-111452732D01*
X153072575Y-111452728D01*
X153161542Y-111308492D01*
X153161547Y-111308481D01*
X153214855Y-111147606D01*
X153224999Y-111048322D01*
X153225000Y-111048309D01*
X153225000Y-111025000D01*
X152500000Y-111025000D01*
X152500000Y-111724999D01*
X151951683Y-111724999D01*
X151999999Y-111724998D01*
X152000000Y-111724998D01*
X152000000Y-111025000D01*
X150750000Y-111025000D01*
X150750000Y-111724999D01*
X150201683Y-111724999D01*
X150249999Y-111724998D01*
X150250000Y-111724998D01*
X150250000Y-111025000D01*
X149525001Y-111025000D01*
X149525001Y-111048322D01*
X149224999Y-111048322D01*
X149225000Y-111048309D01*
X149225000Y-111025000D01*
X148500000Y-111025000D01*
X148500000Y-111724999D01*
X147951683Y-111724999D01*
X147999999Y-111724998D01*
X148000000Y-111724998D01*
X148000000Y-111025000D01*
X146750000Y-111025000D01*
X146750000Y-111724999D01*
X146201683Y-111724999D01*
X146249999Y-111724998D01*
X146250000Y-111724998D01*
X146250000Y-110899000D01*
X146269685Y-110831961D01*
X146322489Y-110786206D01*
X146374000Y-110775000D01*
X146500000Y-110775000D01*
X146500000Y-110649000D01*
X146519685Y-110581961D01*
X146572489Y-110536206D01*
X146624000Y-110525000D01*
X149224999Y-110525000D01*
X149224999Y-110501692D01*
X149224998Y-110501677D01*
X149214855Y-110402392D01*
X149161547Y-110241518D01*
X149161542Y-110241507D01*
X149072575Y-110097271D01*
X149072572Y-110097267D01*
X148962486Y-109987181D01*
X148929001Y-109925858D01*
X148933985Y-109856166D01*
X148975857Y-109800233D01*
X149041321Y-109775816D01*
X149046469Y-109775632D01*
X149047471Y-109775500D01*
X149047475Y-109775500D01*
X149187485Y-109737984D01*
X149313015Y-109665509D01*
X149415509Y-109563015D01*
X149487984Y-109437485D01*
X149525500Y-109297475D01*
X149525500Y-109152525D01*
X149523811Y-109146221D01*
X149525470Y-109076374D01*
X149564630Y-109018510D01*
X149628858Y-108991003D01*
X149697760Y-109002586D01*
X149731265Y-109026444D01*
X149738181Y-109033360D01*
X149771666Y-109094683D01*
X149774500Y-109121041D01*
X149774500Y-109495480D01*
X149774501Y-109495490D01*
X149780587Y-109552114D01*
X149808097Y-109625867D01*
X149826450Y-109675074D01*
X149828373Y-109680228D01*
X149889438Y-109761802D01*
X149913855Y-109827266D01*
X149899003Y-109895539D01*
X149855270Y-109941649D01*
X149797270Y-109977424D01*
X149677427Y-110097267D01*
X149677424Y-110097271D01*
X149588457Y-110241507D01*
X149588452Y-110241518D01*
X149535144Y-110402393D01*
X149525000Y-110501677D01*
X149525000Y-110525000D01*
X153224999Y-110525000D01*
X153224999Y-110501692D01*
X153224998Y-110501677D01*
X153214855Y-110402392D01*
X153161547Y-110241518D01*
X153161542Y-110241507D01*
X153072575Y-110097271D01*
X153072572Y-110097267D01*
X152962486Y-109987181D01*
X152929001Y-109925858D01*
X152933985Y-109856166D01*
X152975857Y-109800233D01*
X153041321Y-109775816D01*
X153046469Y-109775632D01*
X153047471Y-109775500D01*
X153047475Y-109775500D01*
X153187485Y-109737984D01*
X153313015Y-109665509D01*
X153415509Y-109563015D01*
X153487984Y-109437485D01*
X153525500Y-109297475D01*
X153525500Y-109152525D01*
X153487984Y-109012515D01*
X153482251Y-109002586D01*
X153415511Y-108886988D01*
X153415506Y-108886982D01*
X153313017Y-108784493D01*
X153313011Y-108784488D01*
X153187488Y-108712017D01*
X153187489Y-108712017D01*
X153162122Y-108705220D01*
X153047475Y-108674500D01*
X152902525Y-108674500D01*
X152899909Y-108674500D01*
X152832870Y-108654815D01*
X152825613Y-108649777D01*
X152759036Y-108599939D01*
X152730228Y-108578373D01*
X152730226Y-108578372D01*
X152602114Y-108530588D01*
X152602112Y-108530587D01*
X152602110Y-108530587D01*
X152545493Y-108524500D01*
X151954518Y-108524500D01*
X151954509Y-108524501D01*
X151897885Y-108530587D01*
X151769773Y-108578372D01*
X151660313Y-108660313D01*
X151578372Y-108769773D01*
X151575559Y-108774926D01*
X151526154Y-108824332D01*
X151466726Y-108839500D01*
X151283274Y-108839500D01*
X151216235Y-108819815D01*
X151174441Y-108774926D01*
X151171627Y-108769773D01*
X151171494Y-108769595D01*
X151089687Y-108660313D01*
X151009238Y-108600090D01*
X150980228Y-108578373D01*
X150980226Y-108578372D01*
X150852114Y-108530588D01*
X150852112Y-108530587D01*
X150852110Y-108530587D01*
X150795501Y-108524500D01*
X150795485Y-108524500D01*
X150371042Y-108524500D01*
X150304003Y-108504815D01*
X150283361Y-108488181D01*
X149486704Y-107691524D01*
X149486699Y-107691520D01*
X149398801Y-107640774D01*
X149398799Y-107640773D01*
X149398798Y-107640772D01*
X149398797Y-107640772D01*
X149300752Y-107614500D01*
X149300749Y-107614500D01*
X148211042Y-107614500D01*
X148144003Y-107594815D01*
X148123361Y-107578181D01*
X146921819Y-106376639D01*
X146888334Y-106315316D01*
X146885500Y-106288958D01*
X146885500Y-105799259D01*
X146885499Y-105799245D01*
X146885499Y-105767499D01*
X147143499Y-105767499D01*
X147143499Y-105786618D01*
X147143500Y-105786632D01*
X147143500Y-106182091D01*
X147146334Y-106208449D01*
X147179819Y-106269772D01*
X148000000Y-107089953D01*
X148000000Y-106110549D01*
X147569269Y-105679818D01*
X147548627Y-105663184D01*
X147481588Y-105643499D01*
X147267499Y-105643499D01*
X147215988Y-105654705D01*
X147163184Y-105700460D01*
X147143499Y-105767499D01*
X146885499Y-105767499D01*
X146885499Y-105616640D01*
X146905184Y-105549601D01*
X146935188Y-105517373D01*
X146982189Y-105482187D01*
X147017375Y-105435187D01*
X147073309Y-105393317D01*
X147116641Y-105385499D01*
X147588455Y-105385499D01*
X147655494Y-105405184D01*
X147676136Y-105421818D01*
X148965189Y-106710870D01*
X148965210Y-106710893D01*
X149331843Y-107077525D01*
X149534788Y-107280470D01*
X149614712Y-107326614D01*
X149703856Y-107350500D01*
X149796144Y-107350500D01*
X150443892Y-107350500D01*
X150510931Y-107370185D01*
X150556686Y-107422989D01*
X150560073Y-107431166D01*
X150578371Y-107480225D01*
X150598972Y-107507745D01*
X150660313Y-107589687D01*
X150769774Y-107671628D01*
X150897886Y-107719412D01*
X150954515Y-107725500D01*
X151495484Y-107725499D01*
X151552114Y-107719412D01*
X151680226Y-107671628D01*
X151789687Y-107589687D01*
X151871628Y-107480226D01*
X151883819Y-107447538D01*
X151925687Y-107391609D01*
X151991150Y-107367191D01*
X152059424Y-107382042D01*
X152108830Y-107431446D01*
X152116180Y-107447539D01*
X152128372Y-107480227D01*
X152168683Y-107534075D01*
X152210313Y-107589687D01*
X152319774Y-107671628D01*
X152447886Y-107719412D01*
X152504515Y-107725500D01*
X153045484Y-107725499D01*
X153102114Y-107719412D01*
X153230226Y-107671628D01*
X153339687Y-107589687D01*
X153421628Y-107480226D01*
X153436197Y-107441163D01*
X153478068Y-107385233D01*
X153543533Y-107360816D01*
X153552378Y-107360500D01*
X153676000Y-107360500D01*
X153743039Y-107380185D01*
X153788794Y-107432989D01*
X153800000Y-107484500D01*
X153800000Y-110300000D01*
X154105500Y-110300000D01*
X154172539Y-110319685D01*
X154218294Y-110372489D01*
X154229500Y-110424000D01*
X154229500Y-110796450D01*
X154209815Y-110863489D01*
X154179812Y-110895716D01*
X154160313Y-110910312D01*
X154160307Y-110910318D01*
X154078374Y-111019769D01*
X154078372Y-111019773D01*
X154078372Y-111019774D01*
X154030692Y-111147607D01*
X154030587Y-111147889D01*
X154024500Y-111204498D01*
X154024500Y-111795481D01*
X154024501Y-111795490D01*
X154030587Y-111852114D01*
X154071755Y-111962485D01*
X154078372Y-111980226D01*
X154160313Y-112089687D01*
X154160314Y-112089687D01*
X154160314Y-112089688D01*
X154179810Y-112104282D01*
X154221681Y-112160216D01*
X154229500Y-112203550D01*
X154229500Y-112546450D01*
X154209815Y-112613489D01*
X154179812Y-112645716D01*
X154160311Y-112660314D01*
X154157445Y-112663181D01*
X154153887Y-112665123D01*
X154153215Y-112665627D01*
X154153142Y-112665530D01*
X154096122Y-112696666D01*
X154069764Y-112699500D01*
X153927525Y-112699500D01*
X153798993Y-112733940D01*
X153787511Y-112737017D01*
X153661988Y-112809488D01*
X153661982Y-112809493D01*
X153559493Y-112911982D01*
X153559488Y-112911988D01*
X153487017Y-113037511D01*
X153487016Y-113037515D01*
X153449500Y-113177525D01*
X153449500Y-113322475D01*
X153484403Y-113452732D01*
X153487017Y-113462488D01*
X153559488Y-113588011D01*
X153559490Y-113588013D01*
X153559491Y-113588015D01*
X153661985Y-113690509D01*
X153661986Y-113690510D01*
X153661988Y-113690511D01*
X153787511Y-113762982D01*
X153787512Y-113762982D01*
X153787515Y-113762984D01*
X153927525Y-113800500D01*
X154069764Y-113800500D01*
X154136803Y-113820185D01*
X154157445Y-113836819D01*
X154160310Y-113839684D01*
X154160311Y-113839685D01*
X154160313Y-113839687D01*
X154269774Y-113921628D01*
X154397886Y-113969412D01*
X154454515Y-113975500D01*
X154995484Y-113975499D01*
X155052114Y-113969412D01*
X155180226Y-113921628D01*
X155261804Y-113860559D01*
X155327264Y-113836143D01*
X155395538Y-113850994D01*
X155441650Y-113894730D01*
X155477424Y-113952728D01*
X155477427Y-113952732D01*
X155597267Y-114072572D01*
X155597271Y-114072575D01*
X155741507Y-114161542D01*
X155741518Y-114161547D01*
X155902393Y-114214855D01*
X156001683Y-114224999D01*
X156525000Y-114224999D01*
X156548308Y-114224999D01*
X156548322Y-114224998D01*
X156647607Y-114214855D01*
X156808481Y-114161547D01*
X156808492Y-114161542D01*
X156952728Y-114072575D01*
X156952732Y-114072572D01*
X157072572Y-113952732D01*
X157072575Y-113952728D01*
X157161542Y-113808492D01*
X157161547Y-113808481D01*
X157214855Y-113647606D01*
X157224999Y-113548322D01*
X157225000Y-113548309D01*
X157225000Y-113500000D01*
X156525000Y-113500000D01*
X156525000Y-114224999D01*
X156001683Y-114224999D01*
X156025000Y-114224998D01*
X156025000Y-113000000D01*
X156525000Y-113000000D01*
X157224999Y-113000000D01*
X157224999Y-112951692D01*
X157224998Y-112951677D01*
X157214855Y-112852392D01*
X157161547Y-112691518D01*
X157161542Y-112691507D01*
X157072575Y-112547271D01*
X157072572Y-112547267D01*
X156987986Y-112462681D01*
X156954501Y-112401358D01*
X156959485Y-112331666D01*
X156987986Y-112287319D01*
X157072572Y-112202732D01*
X157072575Y-112202728D01*
X157161542Y-112058492D01*
X157161547Y-112058481D01*
X157214855Y-111897606D01*
X157224999Y-111798322D01*
X157225000Y-111798309D01*
X157225000Y-111750000D01*
X156525000Y-111750000D01*
X156525000Y-113000000D01*
X156025000Y-113000000D01*
X156025000Y-111670730D01*
X158024500Y-111670730D01*
X158024500Y-112179269D01*
X158027353Y-112209699D01*
X158027353Y-112209701D01*
X158062273Y-112309493D01*
X158072207Y-112337882D01*
X158152850Y-112447150D01*
X158262118Y-112527793D01*
X158304845Y-112542744D01*
X158390299Y-112572646D01*
X158420730Y-112575500D01*
X158420734Y-112575500D01*
X159079270Y-112575500D01*
X159109699Y-112572646D01*
X159109701Y-112572646D01*
X159184563Y-112546450D01*
X159237882Y-112527793D01*
X159347150Y-112447150D01*
X159427793Y-112337882D01*
X159454305Y-112262116D01*
X159472646Y-112209701D01*
X159472646Y-112209699D01*
X159475500Y-112179269D01*
X159475500Y-111670730D01*
X160024500Y-111670730D01*
X160024500Y-112179269D01*
X160027353Y-112209699D01*
X160027353Y-112209701D01*
X160062273Y-112309493D01*
X160072207Y-112337882D01*
X160152850Y-112447150D01*
X160262118Y-112527793D01*
X160304845Y-112542744D01*
X160390299Y-112572646D01*
X160420730Y-112575500D01*
X160420734Y-112575500D01*
X161079270Y-112575500D01*
X161109699Y-112572646D01*
X161109701Y-112572646D01*
X161184563Y-112546450D01*
X161237882Y-112527793D01*
X161347150Y-112447150D01*
X161427793Y-112337882D01*
X161454305Y-112262116D01*
X161472646Y-112209701D01*
X161472646Y-112209699D01*
X161475500Y-112179269D01*
X161475500Y-111670730D01*
X161472646Y-111640300D01*
X161472646Y-111640298D01*
X161427793Y-111512119D01*
X161427792Y-111512117D01*
X161427120Y-111511206D01*
X161347150Y-111402850D01*
X161347146Y-111402847D01*
X161340576Y-111396276D01*
X161342404Y-111394448D01*
X161308614Y-111349939D01*
X161300500Y-111305822D01*
X161300500Y-111177527D01*
X161300500Y-111177525D01*
X161262984Y-111037515D01*
X161255758Y-111025000D01*
X161190511Y-110911988D01*
X161190506Y-110911982D01*
X161088017Y-110809493D01*
X161088011Y-110809488D01*
X160962488Y-110737017D01*
X160962489Y-110737017D01*
X160951006Y-110733940D01*
X160822475Y-110699500D01*
X160677525Y-110699500D01*
X160548993Y-110733940D01*
X160537511Y-110737017D01*
X160411988Y-110809488D01*
X160411982Y-110809493D01*
X160309493Y-110911982D01*
X160309488Y-110911988D01*
X160237017Y-111037511D01*
X160237016Y-111037515D01*
X160199500Y-111177525D01*
X160199500Y-111177527D01*
X160199500Y-111305823D01*
X160179815Y-111372862D01*
X160158617Y-111395477D01*
X160159420Y-111396280D01*
X160152851Y-111402848D01*
X160072207Y-111512117D01*
X160072206Y-111512119D01*
X160027353Y-111640298D01*
X160027353Y-111640300D01*
X160024500Y-111670730D01*
X159475500Y-111670730D01*
X159472646Y-111640300D01*
X159472646Y-111640298D01*
X159427793Y-111512119D01*
X159427792Y-111512117D01*
X159427120Y-111511206D01*
X159347150Y-111402850D01*
X159347146Y-111402847D01*
X159340576Y-111396276D01*
X159342404Y-111394448D01*
X159308614Y-111349939D01*
X159300500Y-111305822D01*
X159300500Y-111177527D01*
X159300500Y-111177525D01*
X159262984Y-111037515D01*
X159255758Y-111025000D01*
X159190511Y-110911988D01*
X159190506Y-110911982D01*
X159088017Y-110809493D01*
X159088011Y-110809488D01*
X158962488Y-110737017D01*
X158962489Y-110737017D01*
X158951006Y-110733940D01*
X158822475Y-110699500D01*
X158677525Y-110699500D01*
X158548993Y-110733940D01*
X158537511Y-110737017D01*
X158411988Y-110809488D01*
X158411982Y-110809493D01*
X158309493Y-110911982D01*
X158309488Y-110911988D01*
X158237017Y-111037511D01*
X158237016Y-111037515D01*
X158199500Y-111177525D01*
X158199500Y-111177527D01*
X158199500Y-111305823D01*
X158179815Y-111372862D01*
X158158617Y-111395477D01*
X158159420Y-111396280D01*
X158152851Y-111402848D01*
X158072207Y-111512117D01*
X158072206Y-111512119D01*
X158027353Y-111640298D01*
X158027353Y-111640300D01*
X158024500Y-111670730D01*
X156025000Y-111670730D01*
X156025000Y-111624000D01*
X156044685Y-111556961D01*
X156097489Y-111511206D01*
X156149000Y-111500000D01*
X156275000Y-111500000D01*
X156275000Y-111374000D01*
X156294685Y-111306961D01*
X156347489Y-111261206D01*
X156399000Y-111250000D01*
X157224999Y-111250000D01*
X157224999Y-111201692D01*
X157224998Y-111201677D01*
X157214855Y-111102392D01*
X157161547Y-110941518D01*
X157161542Y-110941507D01*
X157072575Y-110797271D01*
X157072572Y-110797267D01*
X156952732Y-110677427D01*
X156952728Y-110677424D01*
X156808492Y-110588457D01*
X156808481Y-110588452D01*
X156667410Y-110541706D01*
X156609965Y-110501933D01*
X156583142Y-110437417D01*
X156595457Y-110368642D01*
X156643000Y-110317442D01*
X156706414Y-110300000D01*
X157200000Y-110300000D01*
X157200000Y-107839702D01*
X157219685Y-107772663D01*
X157225197Y-107764776D01*
X157289580Y-107679875D01*
X157344492Y-107540628D01*
X157355000Y-107453120D01*
X157355000Y-107260000D01*
X156509000Y-107260000D01*
X156441961Y-107240315D01*
X156396206Y-107187511D01*
X156385000Y-107136000D01*
X156385000Y-106884000D01*
X156404685Y-106816961D01*
X156457489Y-106771206D01*
X156509000Y-106760000D01*
X157354999Y-106760000D01*
X157354999Y-106566879D01*
X157344492Y-106479371D01*
X157289580Y-106340124D01*
X157199139Y-106220860D01*
X157079875Y-106130419D01*
X156977010Y-106089855D01*
X156921866Y-106046949D01*
X156898673Y-105981041D01*
X156914793Y-105913057D01*
X156965110Y-105864580D01*
X157022500Y-105850500D01*
X157703856Y-105850500D01*
X160746153Y-105850500D01*
X160813192Y-105870185D01*
X160858947Y-105922989D01*
X160863187Y-105933528D01*
X160882207Y-105987882D01*
X160962850Y-106097150D01*
X161072118Y-106177793D01*
X161108464Y-106190511D01*
X161200299Y-106222646D01*
X161230730Y-106225500D01*
X161230734Y-106225500D01*
X161739270Y-106225500D01*
X161769699Y-106222646D01*
X161769701Y-106222646D01*
X161835484Y-106199627D01*
X161897882Y-106177793D01*
X162007150Y-106097150D01*
X162087793Y-105987882D01*
X162114870Y-105910500D01*
X162132646Y-105859701D01*
X162132646Y-105859699D01*
X162135500Y-105829269D01*
X162135500Y-105170730D01*
X162484500Y-105170730D01*
X162484500Y-105829269D01*
X162487353Y-105859699D01*
X162487353Y-105859701D01*
X162523320Y-105962485D01*
X162532207Y-105987882D01*
X162612850Y-106097150D01*
X162722118Y-106177793D01*
X162758464Y-106190511D01*
X162850299Y-106222646D01*
X162880730Y-106225500D01*
X162880734Y-106225500D01*
X163389270Y-106225500D01*
X163419699Y-106222646D01*
X163419701Y-106222646D01*
X163485484Y-106199627D01*
X163547882Y-106177793D01*
X163657150Y-106097150D01*
X163737793Y-105987882D01*
X163737794Y-105987876D01*
X163742133Y-105979669D01*
X163744766Y-105981060D01*
X163776527Y-105936773D01*
X163841478Y-105911023D01*
X163852852Y-105910500D01*
X164918435Y-105910500D01*
X164985474Y-105930185D01*
X165028918Y-105978204D01*
X165033850Y-105987882D01*
X165058766Y-106036785D01*
X165058770Y-106036792D01*
X165101100Y-106095053D01*
X165160586Y-106176928D01*
X165283072Y-106299414D01*
X165423212Y-106401232D01*
X165577555Y-106479873D01*
X165580708Y-106480897D01*
X165581752Y-106481611D01*
X165582048Y-106481734D01*
X165582022Y-106481795D01*
X165638383Y-106520330D01*
X165665585Y-106584688D01*
X165653674Y-106653535D01*
X165606433Y-106705013D01*
X165580712Y-106716760D01*
X165481783Y-106748904D01*
X165292439Y-106845380D01*
X165238282Y-106884727D01*
X165238282Y-106884728D01*
X165870591Y-107517037D01*
X165807007Y-107534075D01*
X165692993Y-107599901D01*
X165599901Y-107692993D01*
X165534075Y-107807007D01*
X165517037Y-107870591D01*
X164884728Y-107238282D01*
X164884727Y-107238282D01*
X164845380Y-107292439D01*
X164748904Y-107481782D01*
X164683242Y-107683869D01*
X164683242Y-107683872D01*
X164650000Y-107893753D01*
X164650000Y-108106246D01*
X164683242Y-108316127D01*
X164683242Y-108316130D01*
X164748904Y-108518217D01*
X164845375Y-108707550D01*
X164884728Y-108761716D01*
X165517037Y-108129408D01*
X165534075Y-108192993D01*
X165599901Y-108307007D01*
X165692993Y-108400099D01*
X165807007Y-108465925D01*
X165870590Y-108482962D01*
X165238282Y-109115269D01*
X165238282Y-109115270D01*
X165292449Y-109154624D01*
X165481782Y-109251095D01*
X165683870Y-109316757D01*
X165893754Y-109350000D01*
X166106246Y-109350000D01*
X166316127Y-109316757D01*
X166316130Y-109316757D01*
X166518217Y-109251095D01*
X166707554Y-109154622D01*
X166761716Y-109115270D01*
X166761717Y-109115270D01*
X166129408Y-108482962D01*
X166192993Y-108465925D01*
X166307007Y-108400099D01*
X166400099Y-108307007D01*
X166465925Y-108192993D01*
X166482962Y-108129408D01*
X167115270Y-108761717D01*
X167115270Y-108761716D01*
X167154622Y-108707554D01*
X167251095Y-108518217D01*
X167316757Y-108316130D01*
X167316757Y-108316127D01*
X167350000Y-108106246D01*
X167350000Y-107893753D01*
X167316757Y-107683872D01*
X167316757Y-107683869D01*
X167251095Y-107481782D01*
X167154624Y-107292449D01*
X167115270Y-107238282D01*
X167115269Y-107238282D01*
X166482962Y-107870590D01*
X166465925Y-107807007D01*
X166400099Y-107692993D01*
X166307007Y-107599901D01*
X166192993Y-107534075D01*
X166129409Y-107517037D01*
X166761716Y-106884728D01*
X166707550Y-106845375D01*
X166518217Y-106748904D01*
X166419287Y-106716760D01*
X166361611Y-106677323D01*
X166334413Y-106612964D01*
X166346328Y-106544118D01*
X166393572Y-106492642D01*
X166419290Y-106480897D01*
X166422445Y-106479873D01*
X166576788Y-106401232D01*
X166716928Y-106299414D01*
X166839414Y-106176928D01*
X166941232Y-106036788D01*
X167019873Y-105882445D01*
X167073402Y-105717701D01*
X167100500Y-105546611D01*
X167100500Y-105373389D01*
X167073402Y-105202299D01*
X167019873Y-105037555D01*
X166941232Y-104883212D01*
X166839414Y-104743072D01*
X166716928Y-104620586D01*
X166576788Y-104518768D01*
X166523675Y-104491706D01*
X166422447Y-104440128D01*
X166422446Y-104440127D01*
X166422445Y-104440127D01*
X166257701Y-104386598D01*
X166257699Y-104386597D01*
X166257698Y-104386597D01*
X166126271Y-104365781D01*
X166086611Y-104359500D01*
X165913389Y-104359500D01*
X165873728Y-104365781D01*
X165742302Y-104386597D01*
X165577552Y-104440128D01*
X165423211Y-104518768D01*
X165354693Y-104568550D01*
X165283072Y-104620586D01*
X165283070Y-104620588D01*
X165283069Y-104620588D01*
X165160588Y-104743069D01*
X165160588Y-104743070D01*
X165160586Y-104743072D01*
X165135679Y-104777354D01*
X165058768Y-104883211D01*
X164980128Y-105037550D01*
X164952098Y-105123819D01*
X164912660Y-105181494D01*
X164848301Y-105208692D01*
X164834167Y-105209500D01*
X163894843Y-105209500D01*
X163827804Y-105189815D01*
X163782049Y-105137011D01*
X163777802Y-105126455D01*
X163742818Y-105026479D01*
X163737793Y-105012118D01*
X163657150Y-104902850D01*
X163547882Y-104822207D01*
X163547880Y-104822206D01*
X163419700Y-104777353D01*
X163389270Y-104774500D01*
X163389266Y-104774500D01*
X162880734Y-104774500D01*
X162880730Y-104774500D01*
X162850300Y-104777353D01*
X162850298Y-104777353D01*
X162722119Y-104822206D01*
X162722117Y-104822207D01*
X162612850Y-104902850D01*
X162532207Y-105012117D01*
X162532206Y-105012119D01*
X162487353Y-105140298D01*
X162487353Y-105140300D01*
X162484500Y-105170730D01*
X162135500Y-105170730D01*
X162132646Y-105140300D01*
X162132646Y-105140298D01*
X162092818Y-105026479D01*
X162087793Y-105012118D01*
X162007150Y-104902850D01*
X161897882Y-104822207D01*
X161897880Y-104822206D01*
X161769700Y-104777353D01*
X161739270Y-104774500D01*
X161739266Y-104774500D01*
X161230734Y-104774500D01*
X161230730Y-104774500D01*
X161200300Y-104777353D01*
X161200298Y-104777353D01*
X161072119Y-104822206D01*
X161072117Y-104822207D01*
X160962850Y-104902850D01*
X160885355Y-105007853D01*
X160882207Y-105012118D01*
X160863193Y-105066456D01*
X160822473Y-105123231D01*
X160757520Y-105148978D01*
X160746153Y-105149500D01*
X153607519Y-105149500D01*
X153540480Y-105129815D01*
X153494725Y-105077011D01*
X153484781Y-105007853D01*
X153513806Y-104944297D01*
X153555118Y-104913116D01*
X153558489Y-104911543D01*
X153702728Y-104822575D01*
X153702732Y-104822572D01*
X153822572Y-104702732D01*
X153822575Y-104702728D01*
X153911542Y-104558492D01*
X153911547Y-104558481D01*
X153964855Y-104397606D01*
X153974999Y-104298322D01*
X153975000Y-104298309D01*
X153975000Y-104275000D01*
X150275001Y-104275000D01*
X150275001Y-104298322D01*
X150285144Y-104397607D01*
X150338452Y-104558481D01*
X150338457Y-104558492D01*
X150427424Y-104702728D01*
X150427427Y-104702732D01*
X150547267Y-104822572D01*
X150547271Y-104822575D01*
X150691510Y-104911543D01*
X150694882Y-104913116D01*
X150696807Y-104914811D01*
X150697663Y-104915339D01*
X150697572Y-104915485D01*
X150747323Y-104959286D01*
X150766477Y-105026479D01*
X150746264Y-105093361D01*
X150693100Y-105138698D01*
X150642481Y-105149500D01*
X150196544Y-105149500D01*
X150129505Y-105129815D01*
X150108863Y-105113181D01*
X149540306Y-104544624D01*
X149506821Y-104483301D01*
X149511805Y-104413609D01*
X149553677Y-104357676D01*
X149595886Y-104337171D01*
X149635288Y-104326614D01*
X149658842Y-104313015D01*
X149715212Y-104280470D01*
X150158863Y-103836819D01*
X150220186Y-103803334D01*
X150246544Y-103800500D01*
X150322473Y-103800500D01*
X150322475Y-103800500D01*
X150393786Y-103781392D01*
X150401874Y-103779225D01*
X150433967Y-103775000D01*
X153974999Y-103775000D01*
X153974999Y-103751692D01*
X153974998Y-103751677D01*
X153964855Y-103652392D01*
X153911547Y-103491518D01*
X153911542Y-103491507D01*
X153822575Y-103347271D01*
X153822572Y-103347267D01*
X153737486Y-103262181D01*
X153704001Y-103200858D01*
X153708985Y-103131166D01*
X153750857Y-103075233D01*
X153816321Y-103050816D01*
X153821469Y-103050632D01*
X153822471Y-103050500D01*
X153822475Y-103050500D01*
X153962485Y-103012984D01*
X154088015Y-102940509D01*
X154100999Y-102927525D01*
X160009500Y-102927525D01*
X160009500Y-103072475D01*
X160043901Y-103200858D01*
X160047017Y-103212488D01*
X160119488Y-103338011D01*
X160119490Y-103338013D01*
X160119491Y-103338015D01*
X160221985Y-103440509D01*
X160221986Y-103440510D01*
X160221988Y-103440511D01*
X160347511Y-103512982D01*
X160347512Y-103512982D01*
X160347515Y-103512984D01*
X160487525Y-103550500D01*
X160487528Y-103550500D01*
X160632472Y-103550500D01*
X160632475Y-103550500D01*
X160772485Y-103512984D01*
X160772493Y-103512978D01*
X160779989Y-103509875D01*
X160781241Y-103512898D01*
X160834232Y-103499991D01*
X160900280Y-103522782D01*
X160928215Y-103550221D01*
X160962850Y-103597150D01*
X161072118Y-103677793D01*
X161114845Y-103692744D01*
X161200299Y-103722646D01*
X161230730Y-103725500D01*
X161230734Y-103725500D01*
X161739270Y-103725500D01*
X161769699Y-103722646D01*
X161769701Y-103722646D01*
X161833790Y-103700219D01*
X161897882Y-103677793D01*
X162007150Y-103597150D01*
X162087793Y-103487882D01*
X162110219Y-103423790D01*
X162132646Y-103359701D01*
X162132646Y-103359699D01*
X162135500Y-103329269D01*
X162135500Y-102670730D01*
X162484500Y-102670730D01*
X162484500Y-103329269D01*
X162487353Y-103359699D01*
X162487353Y-103359701D01*
X162523320Y-103462485D01*
X162532207Y-103487882D01*
X162612850Y-103597150D01*
X162722118Y-103677793D01*
X162764845Y-103692744D01*
X162850299Y-103722646D01*
X162880730Y-103725500D01*
X162880734Y-103725500D01*
X163389270Y-103725500D01*
X163419699Y-103722646D01*
X163419701Y-103722646D01*
X163483790Y-103700219D01*
X163547882Y-103677793D01*
X163657150Y-103597150D01*
X163737793Y-103487882D01*
X163749808Y-103453543D01*
X163790529Y-103396770D01*
X163855481Y-103371022D01*
X163866849Y-103370500D01*
X164918435Y-103370500D01*
X164985474Y-103390185D01*
X165028918Y-103438204D01*
X165038018Y-103456063D01*
X165058766Y-103496785D01*
X165058770Y-103496792D01*
X165094152Y-103545490D01*
X165160586Y-103636928D01*
X165283072Y-103759414D01*
X165423212Y-103861232D01*
X165577555Y-103939873D01*
X165742299Y-103993402D01*
X165913389Y-104020500D01*
X165913390Y-104020500D01*
X166086610Y-104020500D01*
X166086611Y-104020500D01*
X166257701Y-103993402D01*
X166422445Y-103939873D01*
X166576788Y-103861232D01*
X166716928Y-103759414D01*
X166839414Y-103636928D01*
X166941232Y-103496788D01*
X167019873Y-103342445D01*
X167073402Y-103177701D01*
X167100500Y-103006611D01*
X167100500Y-102833389D01*
X167073402Y-102662299D01*
X167019873Y-102497555D01*
X166941232Y-102343212D01*
X166839414Y-102203072D01*
X166716928Y-102080586D01*
X166576788Y-101978768D01*
X166489848Y-101934470D01*
X166422447Y-101900128D01*
X166422446Y-101900127D01*
X166422445Y-101900127D01*
X166257701Y-101846598D01*
X166257699Y-101846597D01*
X166257698Y-101846597D01*
X166126271Y-101825781D01*
X166086611Y-101819500D01*
X165913389Y-101819500D01*
X165873728Y-101825781D01*
X165742302Y-101846597D01*
X165577552Y-101900128D01*
X165423211Y-101978768D01*
X165366772Y-102019774D01*
X165283072Y-102080586D01*
X165283070Y-102080588D01*
X165283069Y-102080588D01*
X165160588Y-102203069D01*
X165160588Y-102203070D01*
X165160586Y-102203072D01*
X165145496Y-102223842D01*
X165058768Y-102343211D01*
X164980128Y-102497550D01*
X164952098Y-102583819D01*
X164912660Y-102641494D01*
X164848301Y-102668692D01*
X164834167Y-102669500D01*
X163880846Y-102669500D01*
X163813807Y-102649815D01*
X163768052Y-102597011D01*
X163763805Y-102586455D01*
X163748927Y-102543936D01*
X163737793Y-102512118D01*
X163657150Y-102402850D01*
X163547882Y-102322207D01*
X163547880Y-102322206D01*
X163419700Y-102277353D01*
X163389270Y-102274500D01*
X163389266Y-102274500D01*
X162880734Y-102274500D01*
X162880730Y-102274500D01*
X162850300Y-102277353D01*
X162850298Y-102277353D01*
X162722119Y-102322206D01*
X162722117Y-102322207D01*
X162612850Y-102402850D01*
X162532207Y-102512117D01*
X162532206Y-102512119D01*
X162487353Y-102640298D01*
X162487353Y-102640300D01*
X162484500Y-102670730D01*
X162135500Y-102670730D01*
X162132646Y-102640300D01*
X162132646Y-102640298D01*
X162098927Y-102543936D01*
X162087793Y-102512118D01*
X162007150Y-102402850D01*
X161897882Y-102322207D01*
X161897880Y-102322206D01*
X161769700Y-102277353D01*
X161739270Y-102274500D01*
X161739266Y-102274500D01*
X161230734Y-102274500D01*
X161230730Y-102274500D01*
X161200300Y-102277353D01*
X161200298Y-102277353D01*
X161072119Y-102322206D01*
X161072117Y-102322207D01*
X160962850Y-102402850D01*
X160928217Y-102449776D01*
X160872569Y-102492027D01*
X160802913Y-102497484D01*
X160780502Y-102488911D01*
X160779999Y-102490128D01*
X160772489Y-102487017D01*
X160761006Y-102483940D01*
X160632475Y-102449500D01*
X160487525Y-102449500D01*
X160358993Y-102483940D01*
X160347511Y-102487017D01*
X160221988Y-102559488D01*
X160221982Y-102559493D01*
X160119493Y-102661982D01*
X160119488Y-102661988D01*
X160047017Y-102787511D01*
X160047016Y-102787515D01*
X160009500Y-102927525D01*
X154100999Y-102927525D01*
X154190509Y-102838015D01*
X154262984Y-102712485D01*
X154300500Y-102572475D01*
X154300500Y-102427525D01*
X154262984Y-102287515D01*
X154226222Y-102223842D01*
X154190511Y-102161988D01*
X154190506Y-102161982D01*
X154088017Y-102059493D01*
X154088011Y-102059488D01*
X153962488Y-101987017D01*
X153962489Y-101987017D01*
X153951006Y-101983940D01*
X153822475Y-101949500D01*
X153680237Y-101949500D01*
X153613198Y-101929815D01*
X153592561Y-101913186D01*
X153589692Y-101910317D01*
X153578043Y-101901597D01*
X153511942Y-101852114D01*
X153480228Y-101828373D01*
X153480226Y-101828372D01*
X153352114Y-101780588D01*
X153352112Y-101780587D01*
X153352110Y-101780587D01*
X153295493Y-101774500D01*
X152704518Y-101774500D01*
X152704509Y-101774501D01*
X152647885Y-101780587D01*
X152519773Y-101828372D01*
X152410313Y-101910313D01*
X152328372Y-102019773D01*
X152325559Y-102024926D01*
X152276154Y-102074332D01*
X152216726Y-102089500D01*
X152033274Y-102089500D01*
X151966235Y-102069815D01*
X151924441Y-102024926D01*
X151921627Y-102019773D01*
X151839687Y-101910313D01*
X151761942Y-101852114D01*
X151730228Y-101828373D01*
X151730226Y-101828372D01*
X151602114Y-101780588D01*
X151602112Y-101780587D01*
X151602110Y-101780587D01*
X151545493Y-101774500D01*
X150954518Y-101774500D01*
X150954509Y-101774501D01*
X150897885Y-101780587D01*
X150769773Y-101828372D01*
X150660313Y-101910313D01*
X150578372Y-102019773D01*
X150575559Y-102024926D01*
X150526154Y-102074332D01*
X150466726Y-102089500D01*
X149455544Y-102089500D01*
X149388505Y-102069815D01*
X149342750Y-102017011D01*
X149332806Y-101947853D01*
X149361831Y-101884297D01*
X149367863Y-101877819D01*
X149733863Y-101511819D01*
X149795186Y-101478334D01*
X149821544Y-101475500D01*
X157421142Y-101475500D01*
X157421144Y-101475500D01*
X157510288Y-101451614D01*
X157515723Y-101448476D01*
X157590212Y-101405470D01*
X158568157Y-100427525D01*
X160009500Y-100427525D01*
X160009500Y-100572475D01*
X160045049Y-100705143D01*
X160047017Y-100712488D01*
X160119488Y-100838011D01*
X160119490Y-100838013D01*
X160119491Y-100838015D01*
X160221985Y-100940509D01*
X160221986Y-100940510D01*
X160221988Y-100940511D01*
X160347511Y-101012982D01*
X160347512Y-101012982D01*
X160347515Y-101012984D01*
X160487525Y-101050500D01*
X160487528Y-101050500D01*
X160632472Y-101050500D01*
X160632475Y-101050500D01*
X160772485Y-101012984D01*
X160772493Y-101012978D01*
X160779989Y-101009875D01*
X160781241Y-101012898D01*
X160834232Y-100999991D01*
X160900280Y-101022782D01*
X160928215Y-101050221D01*
X160962850Y-101097150D01*
X161072118Y-101177793D01*
X161114845Y-101192744D01*
X161200299Y-101222646D01*
X161230730Y-101225500D01*
X161230734Y-101225500D01*
X161739270Y-101225500D01*
X161769699Y-101222646D01*
X161769701Y-101222646D01*
X161833790Y-101200219D01*
X161897882Y-101177793D01*
X162007150Y-101097150D01*
X162087793Y-100987882D01*
X162112174Y-100918205D01*
X162132646Y-100859701D01*
X162132646Y-100859699D01*
X162135500Y-100829269D01*
X162135500Y-100170730D01*
X162484500Y-100170730D01*
X162484500Y-100829269D01*
X162487353Y-100859699D01*
X162487353Y-100859701D01*
X162523320Y-100962485D01*
X162532207Y-100987882D01*
X162612850Y-101097150D01*
X162722118Y-101177793D01*
X162764845Y-101192744D01*
X162850299Y-101222646D01*
X162880730Y-101225500D01*
X162880734Y-101225500D01*
X163389270Y-101225500D01*
X163419699Y-101222646D01*
X163419701Y-101222646D01*
X163483790Y-101200219D01*
X163547882Y-101177793D01*
X163657150Y-101097150D01*
X163737793Y-100987882D01*
X163756806Y-100933543D01*
X163797527Y-100876769D01*
X163862480Y-100851022D01*
X163873847Y-100850500D01*
X164928624Y-100850500D01*
X164995663Y-100870185D01*
X165039109Y-100918205D01*
X165050982Y-100941507D01*
X165058768Y-100956788D01*
X165160586Y-101096928D01*
X165283072Y-101219414D01*
X165423212Y-101321232D01*
X165577555Y-101399873D01*
X165742299Y-101453402D01*
X165913389Y-101480500D01*
X165913390Y-101480500D01*
X166086610Y-101480500D01*
X166086611Y-101480500D01*
X166257701Y-101453402D01*
X166422445Y-101399873D01*
X166576788Y-101321232D01*
X166716928Y-101219414D01*
X166839414Y-101096928D01*
X166941232Y-100956788D01*
X167019873Y-100802445D01*
X167073402Y-100637701D01*
X167100500Y-100466611D01*
X167100500Y-100293389D01*
X167073402Y-100122299D01*
X167019873Y-99957555D01*
X166941232Y-99803212D01*
X166839414Y-99663072D01*
X166716928Y-99540586D01*
X166576788Y-99438768D01*
X166460381Y-99379456D01*
X166422447Y-99360128D01*
X166422446Y-99360127D01*
X166422445Y-99360127D01*
X166257701Y-99306598D01*
X166257699Y-99306597D01*
X166257698Y-99306597D01*
X166126271Y-99285781D01*
X166086611Y-99279500D01*
X165913389Y-99279500D01*
X165873728Y-99285781D01*
X165742302Y-99306597D01*
X165742299Y-99306598D01*
X165580547Y-99359155D01*
X165577552Y-99360128D01*
X165423211Y-99438768D01*
X165344937Y-99495638D01*
X165283072Y-99540586D01*
X165283070Y-99540588D01*
X165283069Y-99540588D01*
X165160588Y-99663069D01*
X165160588Y-99663070D01*
X165160586Y-99663072D01*
X165119569Y-99719527D01*
X165058768Y-99803211D01*
X164980128Y-99957550D01*
X164945599Y-100063819D01*
X164906160Y-100121494D01*
X164841802Y-100148692D01*
X164827668Y-100149500D01*
X163873847Y-100149500D01*
X163806808Y-100129815D01*
X163761053Y-100077011D01*
X163756812Y-100066471D01*
X163737793Y-100012118D01*
X163657150Y-99902850D01*
X163547882Y-99822207D01*
X163547880Y-99822206D01*
X163419700Y-99777353D01*
X163389270Y-99774500D01*
X163389266Y-99774500D01*
X162880734Y-99774500D01*
X162880730Y-99774500D01*
X162850300Y-99777353D01*
X162850298Y-99777353D01*
X162722119Y-99822206D01*
X162722117Y-99822207D01*
X162612850Y-99902850D01*
X162532207Y-100012117D01*
X162532206Y-100012119D01*
X162487353Y-100140298D01*
X162487353Y-100140300D01*
X162484500Y-100170730D01*
X162135500Y-100170730D01*
X162132646Y-100140300D01*
X162132646Y-100140298D01*
X162087793Y-100012119D01*
X162087792Y-100012117D01*
X162007150Y-99902850D01*
X161897882Y-99822207D01*
X161897880Y-99822206D01*
X161769700Y-99777353D01*
X161739270Y-99774500D01*
X161739266Y-99774500D01*
X161230734Y-99774500D01*
X161230730Y-99774500D01*
X161200300Y-99777353D01*
X161200298Y-99777353D01*
X161072119Y-99822206D01*
X161072117Y-99822207D01*
X160962850Y-99902850D01*
X160928217Y-99949776D01*
X160872569Y-99992027D01*
X160802913Y-99997484D01*
X160780502Y-99988911D01*
X160779999Y-99990128D01*
X160772489Y-99987017D01*
X160735896Y-99977212D01*
X160632475Y-99949500D01*
X160487525Y-99949500D01*
X160384104Y-99977212D01*
X160347511Y-99987017D01*
X160221988Y-100059488D01*
X160221982Y-100059493D01*
X160119493Y-100161982D01*
X160119488Y-100161988D01*
X160047017Y-100287511D01*
X160047016Y-100287515D01*
X160009500Y-100427525D01*
X158568157Y-100427525D01*
X159117889Y-99877793D01*
X160608862Y-98386819D01*
X160670185Y-98353334D01*
X160696543Y-98350500D01*
X160746153Y-98350500D01*
X160813192Y-98370185D01*
X160858947Y-98422989D01*
X160863187Y-98433528D01*
X160882207Y-98487882D01*
X160962850Y-98597150D01*
X161072118Y-98677793D01*
X161076751Y-98679414D01*
X161200299Y-98722646D01*
X161230730Y-98725500D01*
X161230734Y-98725500D01*
X161739270Y-98725500D01*
X161769699Y-98722646D01*
X161769701Y-98722646D01*
X161833790Y-98700219D01*
X161897882Y-98677793D01*
X162007150Y-98597150D01*
X162087793Y-98487882D01*
X162114349Y-98411988D01*
X162132646Y-98359701D01*
X162132646Y-98359699D01*
X162135500Y-98329269D01*
X162135500Y-97670730D01*
X162484500Y-97670730D01*
X162484500Y-98329269D01*
X162487353Y-98359699D01*
X162487353Y-98359701D01*
X162528523Y-98477354D01*
X162532207Y-98487882D01*
X162612850Y-98597150D01*
X162722118Y-98677793D01*
X162726751Y-98679414D01*
X162850299Y-98722646D01*
X162880730Y-98725500D01*
X162880734Y-98725500D01*
X163389270Y-98725500D01*
X163419699Y-98722646D01*
X163419701Y-98722646D01*
X163483790Y-98700219D01*
X163547882Y-98677793D01*
X163657150Y-98597150D01*
X163737793Y-98487882D01*
X163760500Y-98422989D01*
X163777802Y-98373545D01*
X163818524Y-98316769D01*
X163883477Y-98291022D01*
X163894843Y-98290500D01*
X164918435Y-98290500D01*
X164985474Y-98310185D01*
X165028918Y-98358204D01*
X165036261Y-98372614D01*
X165058766Y-98416785D01*
X165058770Y-98416792D01*
X165070943Y-98433546D01*
X165160586Y-98556928D01*
X165283072Y-98679414D01*
X165423212Y-98781232D01*
X165577555Y-98859873D01*
X165742299Y-98913402D01*
X165913389Y-98940500D01*
X165913390Y-98940500D01*
X166086610Y-98940500D01*
X166086611Y-98940500D01*
X166257701Y-98913402D01*
X166422445Y-98859873D01*
X166576788Y-98781232D01*
X166716928Y-98679414D01*
X166839414Y-98556928D01*
X166941232Y-98416788D01*
X167019873Y-98262445D01*
X167073402Y-98097701D01*
X167100500Y-97926611D01*
X167100500Y-97753389D01*
X167073402Y-97582299D01*
X167019873Y-97417555D01*
X166941232Y-97263212D01*
X166839414Y-97123072D01*
X166716928Y-97000586D01*
X166576788Y-96898768D01*
X166539590Y-96879815D01*
X166422447Y-96820128D01*
X166422446Y-96820127D01*
X166422445Y-96820127D01*
X166257701Y-96766598D01*
X166257699Y-96766597D01*
X166257698Y-96766597D01*
X166126271Y-96745781D01*
X166086611Y-96739500D01*
X165913389Y-96739500D01*
X165873728Y-96745781D01*
X165742302Y-96766597D01*
X165577552Y-96820128D01*
X165423211Y-96898768D01*
X165370568Y-96937016D01*
X165283072Y-97000586D01*
X165283070Y-97000588D01*
X165283069Y-97000588D01*
X165160588Y-97123069D01*
X165160588Y-97123070D01*
X165160586Y-97123072D01*
X165116859Y-97183256D01*
X165058768Y-97263211D01*
X164980128Y-97417550D01*
X164975569Y-97431582D01*
X164952655Y-97502106D01*
X164952098Y-97503819D01*
X164912660Y-97561494D01*
X164848301Y-97588692D01*
X164834167Y-97589500D01*
X163852852Y-97589500D01*
X163785813Y-97569815D01*
X163742682Y-97520040D01*
X163742133Y-97520331D01*
X163740879Y-97517958D01*
X163740058Y-97517011D01*
X163739035Y-97514470D01*
X163737792Y-97512117D01*
X163657150Y-97402850D01*
X163547882Y-97322207D01*
X163547880Y-97322206D01*
X163419700Y-97277353D01*
X163389270Y-97274500D01*
X163389266Y-97274500D01*
X162880734Y-97274500D01*
X162880730Y-97274500D01*
X162850300Y-97277353D01*
X162850298Y-97277353D01*
X162722119Y-97322206D01*
X162722117Y-97322207D01*
X162612850Y-97402850D01*
X162532207Y-97512117D01*
X162532206Y-97512119D01*
X162487353Y-97640298D01*
X162487353Y-97640300D01*
X162484500Y-97670730D01*
X162135500Y-97670730D01*
X162132646Y-97640300D01*
X162132646Y-97640298D01*
X162087793Y-97512119D01*
X162087792Y-97512117D01*
X162007150Y-97402850D01*
X161897882Y-97322207D01*
X161897880Y-97322206D01*
X161769700Y-97277353D01*
X161739270Y-97274500D01*
X161739266Y-97274500D01*
X161230734Y-97274500D01*
X161230730Y-97274500D01*
X161200300Y-97277353D01*
X161200298Y-97277353D01*
X161072119Y-97322206D01*
X161072117Y-97322207D01*
X160962850Y-97402850D01*
X160888332Y-97503819D01*
X160882207Y-97512118D01*
X160863193Y-97566456D01*
X160822473Y-97623231D01*
X160757520Y-97648978D01*
X160746153Y-97649500D01*
X160453856Y-97649500D01*
X160364712Y-97673386D01*
X160364711Y-97673386D01*
X160364709Y-97673387D01*
X160364706Y-97673388D01*
X160284794Y-97719526D01*
X160284785Y-97719533D01*
X157266137Y-100738181D01*
X157204814Y-100771666D01*
X157178456Y-100774500D01*
X156145544Y-100774500D01*
X156078505Y-100754815D01*
X156032750Y-100702011D01*
X156022806Y-100632853D01*
X156051831Y-100569297D01*
X156057863Y-100562819D01*
X158362008Y-98258674D01*
X160678016Y-95942665D01*
X160739337Y-95909182D01*
X160809029Y-95914166D01*
X160864962Y-95956038D01*
X160877623Y-95979797D01*
X160877867Y-95979669D01*
X160882206Y-95987880D01*
X160882207Y-95987882D01*
X160962850Y-96097150D01*
X161072118Y-96177793D01*
X161114845Y-96192744D01*
X161200299Y-96222646D01*
X161230730Y-96225500D01*
X161230734Y-96225500D01*
X161739270Y-96225500D01*
X161769699Y-96222646D01*
X161769701Y-96222646D01*
X161840476Y-96197880D01*
X161897882Y-96177793D01*
X162007150Y-96097150D01*
X162087793Y-95987882D01*
X162113587Y-95914166D01*
X162132646Y-95859701D01*
X162132647Y-95859698D01*
X162135500Y-95829269D01*
X162135500Y-95170730D01*
X162484500Y-95170730D01*
X162484500Y-95829269D01*
X162487353Y-95859698D01*
X162487353Y-95859701D01*
X162529333Y-95979669D01*
X162532207Y-95987882D01*
X162612850Y-96097150D01*
X162722118Y-96177793D01*
X162764845Y-96192744D01*
X162850299Y-96222646D01*
X162880730Y-96225500D01*
X162880734Y-96225500D01*
X163389270Y-96225500D01*
X163419699Y-96222646D01*
X163419701Y-96222646D01*
X163490476Y-96197880D01*
X163547882Y-96177793D01*
X163657150Y-96097150D01*
X163737793Y-95987882D01*
X163763587Y-95914166D01*
X163782646Y-95859701D01*
X163784256Y-95852330D01*
X163786379Y-95852793D01*
X163808198Y-95798018D01*
X163865041Y-95757391D01*
X163905802Y-95750500D01*
X164775500Y-95750500D01*
X164842539Y-95770185D01*
X164888294Y-95822989D01*
X164899500Y-95874500D01*
X164899500Y-96174675D01*
X164914032Y-96247735D01*
X164914033Y-96247739D01*
X164914034Y-96247740D01*
X164969399Y-96330601D01*
X165052260Y-96385966D01*
X165052264Y-96385967D01*
X165125321Y-96400499D01*
X165125324Y-96400500D01*
X165125326Y-96400500D01*
X166874676Y-96400500D01*
X166874677Y-96400499D01*
X166947740Y-96385966D01*
X167030601Y-96330601D01*
X167085966Y-96247740D01*
X167100500Y-96174674D01*
X167100500Y-94425326D01*
X167100500Y-94425323D01*
X167100499Y-94425321D01*
X167085967Y-94352264D01*
X167085966Y-94352260D01*
X167051328Y-94300420D01*
X167030601Y-94269399D01*
X166947740Y-94214034D01*
X166947739Y-94214033D01*
X166947735Y-94214032D01*
X166874677Y-94199500D01*
X166874674Y-94199500D01*
X165125326Y-94199500D01*
X165125323Y-94199500D01*
X165052264Y-94214032D01*
X165052260Y-94214033D01*
X164969399Y-94269399D01*
X164914033Y-94352260D01*
X164914032Y-94352264D01*
X164899500Y-94425321D01*
X164899500Y-94925500D01*
X164879815Y-94992539D01*
X164827011Y-95038294D01*
X164775500Y-95049500D01*
X163827980Y-95049500D01*
X163760941Y-95029815D01*
X163728210Y-94999133D01*
X163657151Y-94902851D01*
X163547882Y-94822207D01*
X163547880Y-94822206D01*
X163419700Y-94777353D01*
X163389270Y-94774500D01*
X163389266Y-94774500D01*
X162880734Y-94774500D01*
X162880730Y-94774500D01*
X162850300Y-94777353D01*
X162850298Y-94777353D01*
X162722119Y-94822206D01*
X162722117Y-94822207D01*
X162612850Y-94902850D01*
X162532207Y-95012117D01*
X162532206Y-95012119D01*
X162487353Y-95140298D01*
X162487353Y-95140300D01*
X162484500Y-95170730D01*
X162135500Y-95170730D01*
X162132646Y-95140300D01*
X162132646Y-95140298D01*
X162093985Y-95029815D01*
X162087793Y-95012118D01*
X162007150Y-94902850D01*
X161897882Y-94822207D01*
X161897880Y-94822206D01*
X161769700Y-94777353D01*
X161739270Y-94774500D01*
X161739266Y-94774500D01*
X161230734Y-94774500D01*
X161230730Y-94774500D01*
X161200300Y-94777353D01*
X161200298Y-94777353D01*
X161072119Y-94822206D01*
X161072117Y-94822207D01*
X160962850Y-94902850D01*
X160887826Y-95004505D01*
X160882207Y-95012118D01*
X160863193Y-95066456D01*
X160822473Y-95123231D01*
X160757520Y-95148978D01*
X160746153Y-95149500D01*
X160578856Y-95149500D01*
X160489712Y-95173386D01*
X160489709Y-95173387D01*
X160409791Y-95219527D01*
X160409786Y-95219531D01*
X155391137Y-100238181D01*
X155329814Y-100271666D01*
X155303456Y-100274500D01*
X149328854Y-100274500D01*
X149258362Y-100293387D01*
X149258363Y-100293388D01*
X149239714Y-100298385D01*
X149239709Y-100298387D01*
X149159791Y-100344527D01*
X149159786Y-100344531D01*
X147926136Y-101578181D01*
X147864813Y-101611666D01*
X147838455Y-101614500D01*
X147116640Y-101614500D01*
X147049601Y-101594815D01*
X147017373Y-101564811D01*
X146982188Y-101517810D01*
X146935187Y-101482624D01*
X146893316Y-101426689D01*
X146885499Y-101383358D01*
X146885499Y-101250000D01*
X147147306Y-101250000D01*
X147154705Y-101284011D01*
X147200460Y-101336815D01*
X147267499Y-101356500D01*
X147731588Y-101356500D01*
X147757946Y-101353666D01*
X147819269Y-101320181D01*
X147889450Y-101250000D01*
X148000000Y-101250000D01*
X148000000Y-100385500D01*
X148050749Y-100385500D01*
X148050752Y-100385500D01*
X148148797Y-100359228D01*
X148162853Y-100351113D01*
X148236703Y-100308477D01*
X149033360Y-99511817D01*
X149094683Y-99478333D01*
X149121041Y-99475499D01*
X149295481Y-99475499D01*
X149295484Y-99475499D01*
X149352114Y-99469412D01*
X149480226Y-99421628D01*
X149589687Y-99339687D01*
X149671628Y-99230226D01*
X149671630Y-99230220D01*
X149674441Y-99225074D01*
X149723846Y-99175668D01*
X149783274Y-99160500D01*
X149966726Y-99160500D01*
X150033765Y-99180185D01*
X150075559Y-99225074D01*
X150078372Y-99230226D01*
X150160313Y-99339687D01*
X150269774Y-99421628D01*
X150397886Y-99469412D01*
X150454515Y-99475500D01*
X151045484Y-99475499D01*
X151102114Y-99469412D01*
X151230226Y-99421628D01*
X151339687Y-99339687D01*
X151339689Y-99339683D01*
X151342555Y-99336819D01*
X151346111Y-99334877D01*
X151346786Y-99334372D01*
X151346858Y-99334469D01*
X151403878Y-99303334D01*
X151430236Y-99300500D01*
X151572472Y-99300500D01*
X151572475Y-99300500D01*
X151712485Y-99262984D01*
X151838015Y-99190509D01*
X151940509Y-99088015D01*
X152012984Y-98962485D01*
X152050500Y-98822475D01*
X152050500Y-98677525D01*
X152012984Y-98537515D01*
X152004145Y-98522206D01*
X151940511Y-98411988D01*
X151940506Y-98411982D01*
X151838017Y-98309493D01*
X151838011Y-98309488D01*
X151712488Y-98237017D01*
X151712489Y-98237017D01*
X151572471Y-98199499D01*
X151564415Y-98198439D01*
X151564680Y-98196420D01*
X151508128Y-98179815D01*
X151462373Y-98127011D01*
X151452429Y-98057853D01*
X151481454Y-97994297D01*
X151487486Y-97987819D01*
X151572572Y-97902732D01*
X151572575Y-97902728D01*
X151661542Y-97758492D01*
X151661547Y-97758481D01*
X151714855Y-97597606D01*
X151724999Y-97498322D01*
X151725000Y-97498309D01*
X151725000Y-97475000D01*
X148025001Y-97475000D01*
X148025001Y-97498322D01*
X148035144Y-97597607D01*
X148088452Y-97758481D01*
X148088457Y-97758492D01*
X148177424Y-97902728D01*
X148177427Y-97902732D01*
X148297266Y-98022571D01*
X148355268Y-98058347D01*
X148401992Y-98110295D01*
X148413215Y-98179258D01*
X148389439Y-98238195D01*
X148328371Y-98319773D01*
X148326495Y-98323210D01*
X148323728Y-98325976D01*
X148323058Y-98326872D01*
X148322929Y-98326775D01*
X148277087Y-98372614D01*
X148208814Y-98387463D01*
X148143350Y-98363043D01*
X148129984Y-98351460D01*
X148088017Y-98309493D01*
X148088011Y-98309488D01*
X148000000Y-98258674D01*
X148000000Y-97431582D01*
X152275001Y-97431582D01*
X152281408Y-97502102D01*
X152281409Y-97502107D01*
X152331981Y-97664396D01*
X152419927Y-97809877D01*
X152540122Y-97930072D01*
X152685602Y-98018018D01*
X152700258Y-98022585D01*
X152758407Y-98061322D01*
X152786382Y-98125347D01*
X152775301Y-98194332D01*
X152737004Y-98240741D01*
X152652850Y-98302850D01*
X152572207Y-98412117D01*
X152572206Y-98412119D01*
X152527353Y-98540298D01*
X152527353Y-98540300D01*
X152524500Y-98570730D01*
X152524500Y-99079269D01*
X152527353Y-99109699D01*
X152527353Y-99109701D01*
X152567725Y-99225074D01*
X152572207Y-99237882D01*
X152652850Y-99347150D01*
X152762118Y-99427793D01*
X152793483Y-99438768D01*
X152890299Y-99472646D01*
X152920730Y-99475500D01*
X152920734Y-99475500D01*
X153579270Y-99475500D01*
X153609699Y-99472646D01*
X153609701Y-99472646D01*
X153706517Y-99438768D01*
X153737882Y-99427793D01*
X153780796Y-99396120D01*
X153846424Y-99372149D01*
X153886517Y-99376114D01*
X153977525Y-99400500D01*
X153977528Y-99400500D01*
X154122472Y-99400500D01*
X154122475Y-99400500D01*
X154262485Y-99362984D01*
X154388015Y-99290509D01*
X154490509Y-99188015D01*
X154562984Y-99062485D01*
X154600500Y-98922475D01*
X154600500Y-98777525D01*
X154562984Y-98637515D01*
X154530062Y-98580493D01*
X154490511Y-98511988D01*
X154490506Y-98511982D01*
X154388017Y-98409493D01*
X154388011Y-98409488D01*
X154262488Y-98337017D01*
X154262489Y-98337017D01*
X154233562Y-98329266D01*
X154122475Y-98299500D01*
X153977525Y-98299500D01*
X153977523Y-98299500D01*
X153936224Y-98310566D01*
X153866374Y-98308903D01*
X153830500Y-98290562D01*
X153762995Y-98240741D01*
X153720744Y-98185093D01*
X153715286Y-98115437D01*
X153748354Y-98053888D01*
X153799742Y-98022585D01*
X153814396Y-98018018D01*
X153959877Y-97930072D01*
X154080072Y-97809877D01*
X154168019Y-97664395D01*
X154218590Y-97502106D01*
X154225000Y-97431572D01*
X154225000Y-97425000D01*
X152275001Y-97425000D01*
X152275001Y-97431582D01*
X148000000Y-97431582D01*
X148000000Y-96951677D01*
X148025000Y-96951677D01*
X148025000Y-96975000D01*
X148750000Y-96975000D01*
X148750000Y-96275000D01*
X149250000Y-96275000D01*
X149250000Y-96975000D01*
X150500000Y-96975000D01*
X151000000Y-96975000D01*
X151724999Y-96975000D01*
X151724999Y-96951692D01*
X151724997Y-96951672D01*
X151722602Y-96928215D01*
X151721602Y-96918427D01*
X152275000Y-96918427D01*
X152275000Y-96925000D01*
X153000000Y-96925000D01*
X153500000Y-96925000D01*
X154224999Y-96925000D01*
X154224999Y-96918417D01*
X154218591Y-96847897D01*
X154218590Y-96847892D01*
X154168018Y-96685603D01*
X154080072Y-96540122D01*
X153959877Y-96419927D01*
X153814395Y-96331980D01*
X153814396Y-96331980D01*
X153652105Y-96281409D01*
X153652106Y-96281409D01*
X153581572Y-96275000D01*
X153500000Y-96275000D01*
X153500000Y-96925000D01*
X153000000Y-96925000D01*
X153000000Y-96275000D01*
X152999999Y-96274999D01*
X152918417Y-96275000D01*
X152847897Y-96281408D01*
X152847892Y-96281409D01*
X152685603Y-96331981D01*
X152540122Y-96419927D01*
X152419927Y-96540122D01*
X152331980Y-96685604D01*
X152281409Y-96847893D01*
X152275000Y-96918427D01*
X151721602Y-96918427D01*
X151714855Y-96852392D01*
X151661547Y-96691518D01*
X151661542Y-96691507D01*
X151572575Y-96547271D01*
X151572572Y-96547267D01*
X151452732Y-96427427D01*
X151452728Y-96427424D01*
X151308492Y-96338457D01*
X151308481Y-96338452D01*
X151147606Y-96285144D01*
X151048322Y-96275000D01*
X151000000Y-96275000D01*
X151000000Y-96975000D01*
X150500000Y-96975000D01*
X150500000Y-96275000D01*
X150499999Y-96274999D01*
X150451693Y-96275000D01*
X150451675Y-96275001D01*
X150352392Y-96285144D01*
X150191518Y-96338452D01*
X150191507Y-96338457D01*
X150047271Y-96427424D01*
X149962681Y-96512014D01*
X149901357Y-96545498D01*
X149831666Y-96540514D01*
X149787319Y-96512014D01*
X149702728Y-96427424D01*
X149558492Y-96338457D01*
X149558481Y-96338452D01*
X149397606Y-96285144D01*
X149298322Y-96275000D01*
X149250000Y-96275000D01*
X148750000Y-96275000D01*
X148749999Y-96274999D01*
X148701693Y-96275000D01*
X148701675Y-96275001D01*
X148602392Y-96285144D01*
X148441518Y-96338452D01*
X148441507Y-96338457D01*
X148297271Y-96427424D01*
X148297267Y-96427427D01*
X148177427Y-96547267D01*
X148177424Y-96547271D01*
X148088457Y-96691507D01*
X148088452Y-96691518D01*
X148035144Y-96852393D01*
X148025000Y-96951677D01*
X148000000Y-96951677D01*
X148000000Y-75000000D01*
X142000000Y-75000000D01*
X142000000Y-101250000D01*
X142112307Y-101250000D01*
X142119706Y-101284011D01*
X142165461Y-101336815D01*
X142232500Y-101356500D01*
X142732500Y-101356500D01*
X142784011Y-101345294D01*
X142836815Y-101299539D01*
X142851361Y-101250000D01*
X143114500Y-101250000D01*
X143114500Y-101383359D01*
X143094815Y-101450398D01*
X143064812Y-101482625D01*
X143017810Y-101517810D01*
X142982625Y-101564812D01*
X142926691Y-101606682D01*
X142883359Y-101614500D01*
X142136315Y-101614500D01*
X142136306Y-101614501D01*
X142112905Y-101617215D01*
X142112543Y-101617257D01*
X142024585Y-101656094D01*
X141955307Y-101665165D01*
X141892123Y-101635341D01*
X141855092Y-101576091D01*
X141850500Y-101542659D01*
X141850500Y-100703858D01*
X141850500Y-100703856D01*
X141826614Y-100614712D01*
X141825362Y-100612543D01*
X141780470Y-100534788D01*
X140965212Y-99719530D01*
X140965211Y-99719529D01*
X140965208Y-99719527D01*
X140885290Y-99673387D01*
X140885289Y-99673386D01*
X140885288Y-99673386D01*
X140796144Y-99649500D01*
X138203856Y-99649500D01*
X138114712Y-99673386D01*
X138114709Y-99673387D01*
X138034791Y-99719527D01*
X138034786Y-99719531D01*
X137219532Y-100534785D01*
X137219528Y-100534791D01*
X137174635Y-100612548D01*
X137173386Y-100614710D01*
X137149500Y-100703856D01*
X136479161Y-100703856D01*
X136452732Y-100677427D01*
X136452728Y-100677424D01*
X136308492Y-100588457D01*
X136308481Y-100588452D01*
X136147606Y-100535144D01*
X136048322Y-100525000D01*
X136025000Y-100525000D01*
X136025000Y-101000000D01*
X135525000Y-101000000D01*
X135525000Y-100524999D01*
X135501693Y-100525000D01*
X135501674Y-100525001D01*
X135402392Y-100535144D01*
X135241518Y-100588452D01*
X135241511Y-100588455D01*
X135239595Y-100589638D01*
X135238097Y-100590047D01*
X135234968Y-100591507D01*
X135234718Y-100590972D01*
X135172203Y-100608077D01*
X135105539Y-100587154D01*
X135060771Y-100533511D01*
X135050500Y-100484098D01*
X135050500Y-100427527D01*
X135050500Y-100427525D01*
X135012984Y-100287515D01*
X134998436Y-100262318D01*
X134940511Y-100161988D01*
X134940506Y-100161982D01*
X134838017Y-100059493D01*
X134838011Y-100059488D01*
X134712488Y-99987017D01*
X134712489Y-99987017D01*
X134675896Y-99977212D01*
X134572475Y-99949500D01*
X134427525Y-99949500D01*
X134324104Y-99977212D01*
X134287511Y-99987017D01*
X134161988Y-100059488D01*
X134161982Y-100059493D01*
X134059493Y-100161982D01*
X134059488Y-100161988D01*
X133987017Y-100287511D01*
X133987016Y-100287515D01*
X133949500Y-100427525D01*
X133949500Y-100572475D01*
X133966332Y-100635295D01*
X133964670Y-100705143D01*
X133925508Y-100763006D01*
X133889893Y-100783568D01*
X133769773Y-100828372D01*
X133660313Y-100910313D01*
X133578373Y-101019771D01*
X133530587Y-101147889D01*
X133524500Y-101204498D01*
X129974999Y-101204498D01*
X129974999Y-101201692D01*
X129974998Y-101201677D01*
X129964855Y-101102392D01*
X129911547Y-100941518D01*
X129911542Y-100941507D01*
X129822575Y-100797271D01*
X129822572Y-100797267D01*
X129702732Y-100677427D01*
X129702728Y-100677424D01*
X129558492Y-100588457D01*
X129558481Y-100588452D01*
X129397606Y-100535144D01*
X129298322Y-100525000D01*
X129275000Y-100525000D01*
X129275000Y-101000000D01*
X128775000Y-101000000D01*
X128775000Y-100524999D01*
X128751693Y-100525000D01*
X128751674Y-100525001D01*
X128652391Y-100535144D01*
X128488200Y-100589551D01*
X128418372Y-100591953D01*
X128358330Y-100556221D01*
X128327138Y-100493700D01*
X128334699Y-100424241D01*
X128361512Y-100384168D01*
X128783862Y-99961818D01*
X128845185Y-99928334D01*
X128871543Y-99925500D01*
X129329270Y-99925500D01*
X129359699Y-99922646D01*
X129359701Y-99922646D01*
X129432174Y-99897286D01*
X129487882Y-99877793D01*
X129597150Y-99797150D01*
X129677793Y-99687882D01*
X129703470Y-99614500D01*
X129722646Y-99559701D01*
X129722646Y-99559699D01*
X129725500Y-99529269D01*
X129725500Y-98870730D01*
X129722646Y-98840300D01*
X129722646Y-98840298D01*
X129689006Y-98744163D01*
X129677793Y-98712118D01*
X129597150Y-98602850D01*
X129487882Y-98522207D01*
X129487880Y-98522206D01*
X129359700Y-98477353D01*
X129329270Y-98474500D01*
X129329266Y-98474500D01*
X128820734Y-98474500D01*
X128820730Y-98474500D01*
X128790300Y-98477353D01*
X128790298Y-98477353D01*
X128662119Y-98522206D01*
X128662117Y-98522207D01*
X128552850Y-98602850D01*
X128472207Y-98712117D01*
X128472206Y-98712119D01*
X128427353Y-98840298D01*
X128427353Y-98840300D01*
X128424500Y-98870730D01*
X128424500Y-99278456D01*
X128404815Y-99345495D01*
X128388181Y-99366137D01*
X128287181Y-99467137D01*
X128225858Y-99500622D01*
X128156166Y-99495638D01*
X128100233Y-99453766D01*
X128075816Y-99388302D01*
X128075500Y-99379456D01*
X128075500Y-98870730D01*
X128072646Y-98840300D01*
X128072646Y-98840298D01*
X128039006Y-98744163D01*
X128027793Y-98712118D01*
X127947150Y-98602850D01*
X127837882Y-98522207D01*
X127837881Y-98522206D01*
X127830405Y-98516689D01*
X127831862Y-98514714D01*
X127791485Y-98475420D01*
X127775500Y-98414520D01*
X127775500Y-98235480D01*
X127795185Y-98168441D01*
X127831628Y-98134968D01*
X127830405Y-98133311D01*
X127837883Y-98127792D01*
X127947150Y-98047150D01*
X128027793Y-97937882D01*
X128072584Y-97809877D01*
X128072646Y-97809701D01*
X128072646Y-97809699D01*
X128075500Y-97779269D01*
X128075500Y-97120730D01*
X128424500Y-97120730D01*
X128424500Y-97779269D01*
X128427353Y-97809699D01*
X128427353Y-97809701D01*
X128468263Y-97926611D01*
X128472207Y-97937882D01*
X128552850Y-98047150D01*
X128662118Y-98127793D01*
X128683529Y-98135285D01*
X128790299Y-98172646D01*
X128820730Y-98175500D01*
X128820734Y-98175500D01*
X129329270Y-98175500D01*
X129359699Y-98172646D01*
X129359701Y-98172646D01*
X129425501Y-98149621D01*
X129487882Y-98127793D01*
X129597150Y-98047150D01*
X129597152Y-98047146D01*
X129603721Y-98040579D01*
X129605548Y-98042406D01*
X129650054Y-98008616D01*
X129694177Y-98000500D01*
X129822472Y-98000500D01*
X129822475Y-98000500D01*
X129962485Y-97962984D01*
X130088015Y-97890509D01*
X130190509Y-97788015D01*
X130262984Y-97662485D01*
X130300500Y-97522475D01*
X130300500Y-97377525D01*
X130262984Y-97237515D01*
X130196908Y-97123069D01*
X130190511Y-97111988D01*
X130190506Y-97111982D01*
X130088017Y-97009493D01*
X130088011Y-97009488D01*
X129962488Y-96937017D01*
X129962489Y-96937017D01*
X129951006Y-96933940D01*
X129822475Y-96899500D01*
X129822472Y-96899500D01*
X129694177Y-96899500D01*
X129627138Y-96879815D01*
X129604524Y-96858617D01*
X129603721Y-96859421D01*
X129597151Y-96852851D01*
X129596530Y-96852393D01*
X129487882Y-96772207D01*
X129487880Y-96772206D01*
X129359700Y-96727353D01*
X129329270Y-96724500D01*
X129329266Y-96724500D01*
X128820734Y-96724500D01*
X128820730Y-96724500D01*
X128790300Y-96727353D01*
X128790298Y-96727353D01*
X128662119Y-96772206D01*
X128662117Y-96772207D01*
X128552850Y-96852850D01*
X128472207Y-96962117D01*
X128472206Y-96962119D01*
X128427353Y-97090298D01*
X128427353Y-97090300D01*
X128424500Y-97120730D01*
X128075500Y-97120730D01*
X128072646Y-97090300D01*
X128072646Y-97090298D01*
X128039006Y-96994163D01*
X128027793Y-96962118D01*
X127947150Y-96852850D01*
X127837882Y-96772207D01*
X127837880Y-96772206D01*
X127709700Y-96727353D01*
X127679270Y-96724500D01*
X127679266Y-96724500D01*
X127205544Y-96724500D01*
X127138505Y-96704815D01*
X127092750Y-96652011D01*
X127082806Y-96582853D01*
X127111831Y-96519297D01*
X127117863Y-96512819D01*
X127158863Y-96471819D01*
X127220186Y-96438334D01*
X127246544Y-96435500D01*
X127679270Y-96435500D01*
X127709699Y-96432646D01*
X127709701Y-96432646D01*
X127773790Y-96410219D01*
X127837882Y-96387793D01*
X127947150Y-96307150D01*
X128027793Y-96197882D01*
X128063041Y-96097149D01*
X128072646Y-96069701D01*
X128072646Y-96069699D01*
X128075500Y-96039269D01*
X128075500Y-95380730D01*
X128424500Y-95380730D01*
X128424500Y-96039269D01*
X128427353Y-96069699D01*
X128427353Y-96069701D01*
X128472206Y-96197880D01*
X128472207Y-96197882D01*
X128552850Y-96307150D01*
X128662118Y-96387793D01*
X128698430Y-96400499D01*
X128790299Y-96432646D01*
X128820730Y-96435500D01*
X128820734Y-96435500D01*
X129329270Y-96435500D01*
X129359699Y-96432646D01*
X129359701Y-96432646D01*
X129423790Y-96410219D01*
X129487882Y-96387793D01*
X129597150Y-96307150D01*
X129597152Y-96307146D01*
X129603721Y-96300579D01*
X129605548Y-96302406D01*
X129650054Y-96268616D01*
X129694177Y-96260500D01*
X129812473Y-96260500D01*
X129812474Y-96260500D01*
X129812475Y-96260500D01*
X129952485Y-96222984D01*
X129953023Y-96222672D01*
X129953077Y-96222659D01*
X129953070Y-96222646D01*
X129965080Y-96215712D01*
X130078015Y-96150510D01*
X130190510Y-96038015D01*
X130262984Y-95912485D01*
X130271556Y-95880495D01*
X130277129Y-95859698D01*
X130285682Y-95827772D01*
X130300500Y-95772475D01*
X130300500Y-95627525D01*
X130262984Y-95487515D01*
X130262982Y-95487512D01*
X130262982Y-95487510D01*
X130262981Y-95487509D01*
X130243933Y-95454517D01*
X130243931Y-95454515D01*
X130218108Y-95409788D01*
X130190510Y-95361985D01*
X130088015Y-95259490D01*
X129962485Y-95187016D01*
X129954170Y-95184788D01*
X129954166Y-95184786D01*
X129851974Y-95157404D01*
X129822475Y-95149500D01*
X129685162Y-95149500D01*
X129618123Y-95129815D01*
X129597481Y-95113181D01*
X129597151Y-95112851D01*
X129487882Y-95032207D01*
X129487880Y-95032206D01*
X129359700Y-94987353D01*
X129329270Y-94984500D01*
X129329266Y-94984500D01*
X128820734Y-94984500D01*
X128820730Y-94984500D01*
X128790300Y-94987353D01*
X128790298Y-94987353D01*
X128662119Y-95032206D01*
X128662117Y-95032207D01*
X128552850Y-95112850D01*
X128472207Y-95222117D01*
X128472206Y-95222119D01*
X128427353Y-95350298D01*
X128427353Y-95350300D01*
X128424500Y-95380730D01*
X128075500Y-95380730D01*
X128072646Y-95350300D01*
X128072646Y-95350298D01*
X128027793Y-95222119D01*
X128027792Y-95222117D01*
X127947150Y-95112850D01*
X127837882Y-95032207D01*
X127837880Y-95032206D01*
X127709700Y-94987353D01*
X127679270Y-94984500D01*
X127679266Y-94984500D01*
X127185544Y-94984500D01*
X127118505Y-94964815D01*
X127072750Y-94912011D01*
X127062806Y-94842853D01*
X127091831Y-94779297D01*
X127097863Y-94772819D01*
X127158863Y-94711819D01*
X127220186Y-94678334D01*
X127246544Y-94675500D01*
X127679270Y-94675500D01*
X127709699Y-94672646D01*
X127709701Y-94672646D01*
X127773790Y-94650219D01*
X127837882Y-94627793D01*
X127947150Y-94547150D01*
X128027793Y-94437882D01*
X128057752Y-94352264D01*
X128072646Y-94309701D01*
X128072646Y-94309699D01*
X128075500Y-94279269D01*
X128075500Y-93620730D01*
X128424500Y-93620730D01*
X128424500Y-94279269D01*
X128427353Y-94309699D01*
X128427353Y-94309701D01*
X128467812Y-94425323D01*
X128472207Y-94437882D01*
X128552850Y-94547150D01*
X128662118Y-94627793D01*
X128704845Y-94642744D01*
X128790299Y-94672646D01*
X128820730Y-94675500D01*
X128820734Y-94675500D01*
X129329270Y-94675500D01*
X129359699Y-94672646D01*
X129359701Y-94672646D01*
X129423790Y-94650219D01*
X129487882Y-94627793D01*
X129597150Y-94547150D01*
X129597152Y-94547146D01*
X129603721Y-94540579D01*
X129605548Y-94542406D01*
X129650054Y-94508616D01*
X129694177Y-94500500D01*
X129822472Y-94500500D01*
X129822475Y-94500500D01*
X129962485Y-94462984D01*
X130088015Y-94390509D01*
X130190509Y-94288015D01*
X130262984Y-94162485D01*
X130300500Y-94022475D01*
X130300500Y-93877525D01*
X130262984Y-93737515D01*
X130209884Y-93645544D01*
X130190511Y-93611988D01*
X130190506Y-93611982D01*
X130088017Y-93509493D01*
X130088011Y-93509488D01*
X129962488Y-93437017D01*
X129962489Y-93437017D01*
X129951006Y-93433940D01*
X129822475Y-93399500D01*
X129822472Y-93399500D01*
X129694177Y-93399500D01*
X129627138Y-93379815D01*
X129604524Y-93358617D01*
X129603721Y-93359421D01*
X129597151Y-93352851D01*
X129487882Y-93272207D01*
X129487880Y-93272206D01*
X129359700Y-93227353D01*
X129329270Y-93224500D01*
X129329266Y-93224500D01*
X128820734Y-93224500D01*
X128820730Y-93224500D01*
X128790300Y-93227353D01*
X128790298Y-93227353D01*
X128662119Y-93272206D01*
X128662117Y-93272207D01*
X128552850Y-93352850D01*
X128472207Y-93462117D01*
X128472206Y-93462119D01*
X128427353Y-93590298D01*
X128427353Y-93590300D01*
X128424500Y-93620730D01*
X128075500Y-93620730D01*
X128072646Y-93590300D01*
X128072646Y-93590298D01*
X128027793Y-93462119D01*
X128027792Y-93462117D01*
X127947150Y-93352850D01*
X127837882Y-93272207D01*
X127837880Y-93272206D01*
X127709700Y-93227353D01*
X127679270Y-93224500D01*
X127679266Y-93224500D01*
X127195544Y-93224500D01*
X127128505Y-93204815D01*
X127082750Y-93152011D01*
X127072806Y-93082853D01*
X127101831Y-93019297D01*
X127107863Y-93012819D01*
X127158863Y-92961819D01*
X127220186Y-92928334D01*
X127246544Y-92925500D01*
X127679270Y-92925500D01*
X127709699Y-92922646D01*
X127709701Y-92922646D01*
X127773790Y-92900219D01*
X127837882Y-92877793D01*
X127947150Y-92797150D01*
X128027793Y-92687882D01*
X128050219Y-92623790D01*
X128072646Y-92559701D01*
X128072646Y-92559699D01*
X128075500Y-92529269D01*
X128075500Y-91870730D01*
X128424500Y-91870730D01*
X128424500Y-92529269D01*
X128427353Y-92559699D01*
X128427353Y-92559701D01*
X128472206Y-92687880D01*
X128472207Y-92687882D01*
X128552850Y-92797150D01*
X128662118Y-92877793D01*
X128704845Y-92892744D01*
X128790299Y-92922646D01*
X128820730Y-92925500D01*
X128820734Y-92925500D01*
X129329270Y-92925500D01*
X129359699Y-92922646D01*
X129359701Y-92922646D01*
X129423790Y-92900219D01*
X129487882Y-92877793D01*
X129597150Y-92797150D01*
X129597152Y-92797146D01*
X129603721Y-92790579D01*
X129605548Y-92792406D01*
X129650054Y-92758616D01*
X129694177Y-92750500D01*
X129822472Y-92750500D01*
X129822475Y-92750500D01*
X129962485Y-92712984D01*
X130088015Y-92640509D01*
X130190509Y-92538015D01*
X130262984Y-92412485D01*
X130300500Y-92272475D01*
X130300500Y-92127525D01*
X130262984Y-91987515D01*
X130195560Y-91870734D01*
X130190511Y-91861988D01*
X130190506Y-91861982D01*
X130088017Y-91759493D01*
X130088011Y-91759488D01*
X129962488Y-91687017D01*
X129962489Y-91687017D01*
X129951006Y-91683940D01*
X129822475Y-91649500D01*
X129822472Y-91649500D01*
X129694177Y-91649500D01*
X129627138Y-91629815D01*
X129604524Y-91608617D01*
X129603721Y-91609421D01*
X129597151Y-91602851D01*
X129487882Y-91522207D01*
X129487880Y-91522206D01*
X129359700Y-91477353D01*
X129329270Y-91474500D01*
X129329266Y-91474500D01*
X128820734Y-91474500D01*
X128820730Y-91474500D01*
X128790300Y-91477353D01*
X128790298Y-91477353D01*
X128662119Y-91522206D01*
X128662117Y-91522207D01*
X128552850Y-91602850D01*
X128472207Y-91712117D01*
X128472206Y-91712119D01*
X128427353Y-91840298D01*
X128427353Y-91840300D01*
X128424500Y-91870730D01*
X128075500Y-91870730D01*
X128072646Y-91840300D01*
X128072646Y-91840298D01*
X128027793Y-91712119D01*
X128027792Y-91712117D01*
X127947150Y-91602850D01*
X127837882Y-91522207D01*
X127837880Y-91522206D01*
X127709700Y-91477353D01*
X127679270Y-91474500D01*
X127679266Y-91474500D01*
X127170734Y-91474500D01*
X127170730Y-91474500D01*
X127140300Y-91477353D01*
X127140298Y-91477353D01*
X127012119Y-91522206D01*
X127012117Y-91522207D01*
X126902850Y-91602850D01*
X126822207Y-91712117D01*
X126822206Y-91712119D01*
X126777353Y-91840298D01*
X126777353Y-91840300D01*
X126774500Y-91870730D01*
X126774500Y-92303455D01*
X126754815Y-92370494D01*
X126738181Y-92391136D01*
X124966136Y-94163181D01*
X124904813Y-94196666D01*
X124878455Y-94199500D01*
X123125323Y-94199500D01*
X123052264Y-94214032D01*
X123052260Y-94214033D01*
X122969399Y-94269399D01*
X122914033Y-94352260D01*
X122914032Y-94352264D01*
X122899500Y-94425321D01*
X122899500Y-96174675D01*
X122914032Y-96247735D01*
X122914033Y-96247739D01*
X122914034Y-96247740D01*
X122969399Y-96330601D01*
X123052260Y-96385966D01*
X123052264Y-96385967D01*
X123125321Y-96400499D01*
X123125324Y-96400500D01*
X124644455Y-96400500D01*
X124711494Y-96420185D01*
X124757249Y-96472989D01*
X124767193Y-96542147D01*
X124738168Y-96605703D01*
X124732136Y-96612181D01*
X124552969Y-96791347D01*
X124491646Y-96824832D01*
X124426970Y-96821597D01*
X124257698Y-96766597D01*
X124126271Y-96745781D01*
X124086611Y-96739500D01*
X123913389Y-96739500D01*
X123873728Y-96745781D01*
X123742302Y-96766597D01*
X123577552Y-96820128D01*
X123423211Y-96898768D01*
X123370568Y-96937016D01*
X123283072Y-97000586D01*
X123283070Y-97000588D01*
X123283069Y-97000588D01*
X123160588Y-97123069D01*
X123160588Y-97123070D01*
X123160586Y-97123072D01*
X123116859Y-97183256D01*
X123058768Y-97263211D01*
X122980128Y-97417552D01*
X122926597Y-97582302D01*
X122899500Y-97753389D01*
X122899500Y-97926610D01*
X122923887Y-98080588D01*
X122926598Y-98097701D01*
X122980127Y-98262445D01*
X123058768Y-98416788D01*
X123160586Y-98556928D01*
X123283072Y-98679414D01*
X123423212Y-98781232D01*
X123577555Y-98859873D01*
X123742299Y-98913402D01*
X123913389Y-98940500D01*
X123913390Y-98940500D01*
X124086610Y-98940500D01*
X124086611Y-98940500D01*
X124257701Y-98913402D01*
X124422445Y-98859873D01*
X124576788Y-98781232D01*
X124716928Y-98679414D01*
X124839414Y-98556928D01*
X124941232Y-98416788D01*
X125019873Y-98262445D01*
X125073402Y-98097701D01*
X125100500Y-97926611D01*
X125100500Y-97753389D01*
X125073402Y-97582299D01*
X125019873Y-97417555D01*
X125019869Y-97417547D01*
X125018401Y-97413029D01*
X125016406Y-97343188D01*
X125048649Y-97287031D01*
X126030470Y-96305212D01*
X126076614Y-96225288D01*
X126090176Y-96174674D01*
X126100500Y-96136144D01*
X126100500Y-95821544D01*
X126120185Y-95754505D01*
X126136819Y-95733863D01*
X126562819Y-95307863D01*
X126624142Y-95274378D01*
X126693834Y-95279362D01*
X126749767Y-95321234D01*
X126774184Y-95386698D01*
X126774500Y-95395544D01*
X126774500Y-95813456D01*
X126754815Y-95880495D01*
X126738181Y-95901137D01*
X126285415Y-96353901D01*
X126285409Y-96353908D01*
X126219530Y-96419788D01*
X126173386Y-96499712D01*
X126170821Y-96509282D01*
X126170821Y-96509283D01*
X126149500Y-96588856D01*
X126149500Y-97553455D01*
X126129815Y-97620494D01*
X126113181Y-97641136D01*
X124454850Y-99299466D01*
X124393527Y-99332951D01*
X124328851Y-99329716D01*
X124257698Y-99306597D01*
X124126271Y-99285781D01*
X124086611Y-99279500D01*
X123913389Y-99279500D01*
X123873728Y-99285781D01*
X123742302Y-99306597D01*
X123742299Y-99306598D01*
X123580547Y-99359155D01*
X123577552Y-99360128D01*
X123423211Y-99438768D01*
X123344937Y-99495638D01*
X123283072Y-99540586D01*
X123283070Y-99540588D01*
X123283069Y-99540588D01*
X123160588Y-99663069D01*
X123160588Y-99663070D01*
X123160586Y-99663072D01*
X123119569Y-99719527D01*
X123058768Y-99803211D01*
X122980128Y-99957552D01*
X122926597Y-100122302D01*
X122902492Y-100274500D01*
X122899500Y-100293389D01*
X122899500Y-100466611D01*
X122905436Y-100504087D01*
X122926216Y-100635293D01*
X122926598Y-100637701D01*
X122980127Y-100802445D01*
X123058768Y-100956788D01*
X123160586Y-101096928D01*
X123283072Y-101219414D01*
X123423212Y-101321232D01*
X123577555Y-101399873D01*
X123742299Y-101453402D01*
X123913389Y-101480500D01*
X123913390Y-101480500D01*
X124086610Y-101480500D01*
X124086611Y-101480500D01*
X124257701Y-101453402D01*
X124422445Y-101399873D01*
X124576788Y-101321232D01*
X124716928Y-101219414D01*
X124839414Y-101096928D01*
X124941232Y-100956788D01*
X125019873Y-100802445D01*
X125073402Y-100637701D01*
X125100500Y-100466611D01*
X125100500Y-100293389D01*
X125073402Y-100122299D01*
X125019873Y-99957555D01*
X124982548Y-99884302D01*
X124969653Y-99815634D01*
X124995929Y-99750894D01*
X125005344Y-99740336D01*
X126714203Y-98031478D01*
X126775524Y-97997995D01*
X126845216Y-98002979D01*
X126895920Y-98040937D01*
X126896279Y-98040579D01*
X126898770Y-98043070D01*
X126901149Y-98044851D01*
X126901649Y-98045523D01*
X126902848Y-98047148D01*
X126902849Y-98047148D01*
X126902850Y-98047150D01*
X127012117Y-98127792D01*
X127019595Y-98133311D01*
X127018137Y-98135285D01*
X127058515Y-98174580D01*
X127074500Y-98235480D01*
X127074500Y-98414520D01*
X127054815Y-98481559D01*
X127018371Y-98515031D01*
X127019595Y-98516689D01*
X127012118Y-98522206D01*
X127012118Y-98522207D01*
X126965071Y-98556929D01*
X126902850Y-98602850D01*
X126822207Y-98712117D01*
X126822206Y-98712119D01*
X126777353Y-98840298D01*
X126777353Y-98840300D01*
X126774500Y-98870730D01*
X126774500Y-99303456D01*
X126754815Y-99370495D01*
X126738181Y-99391137D01*
X126232031Y-99897286D01*
X126232029Y-99897289D01*
X126199371Y-99953856D01*
X126199370Y-99953857D01*
X126185886Y-99977210D01*
X126162000Y-100066356D01*
X126162000Y-100210955D01*
X126142315Y-100277994D01*
X126125681Y-100298636D01*
X124552969Y-101871347D01*
X124491646Y-101904832D01*
X124426970Y-101901597D01*
X124257698Y-101846597D01*
X124126271Y-101825781D01*
X124086611Y-101819500D01*
X123913389Y-101819500D01*
X123873728Y-101825781D01*
X123742302Y-101846597D01*
X123577552Y-101900128D01*
X123423211Y-101978768D01*
X123366772Y-102019774D01*
X123283072Y-102080586D01*
X123283070Y-102080588D01*
X123283069Y-102080588D01*
X123160588Y-102203069D01*
X123160588Y-102203070D01*
X123160586Y-102203072D01*
X123145496Y-102223842D01*
X123058768Y-102343211D01*
X122980128Y-102497552D01*
X122980127Y-102497554D01*
X122980127Y-102497555D01*
X122975395Y-102512118D01*
X122926597Y-102662302D01*
X122907349Y-102783833D01*
X122899500Y-102833389D01*
X122899500Y-103006611D01*
X122903060Y-103029089D01*
X122924975Y-103167457D01*
X122926598Y-103177701D01*
X122980127Y-103342445D01*
X123058768Y-103496788D01*
X123160586Y-103636928D01*
X123283072Y-103759414D01*
X123423212Y-103861232D01*
X123577555Y-103939873D01*
X123580708Y-103940897D01*
X123581752Y-103941611D01*
X123582048Y-103941734D01*
X123582022Y-103941795D01*
X123638383Y-103980330D01*
X123665585Y-104044688D01*
X123653674Y-104113535D01*
X123606433Y-104165013D01*
X123580712Y-104176760D01*
X123481783Y-104208904D01*
X123292439Y-104305380D01*
X123238282Y-104344727D01*
X123238282Y-104344728D01*
X123870591Y-104977037D01*
X123807007Y-104994075D01*
X123692993Y-105059901D01*
X123599901Y-105152993D01*
X123534075Y-105267007D01*
X123517037Y-105330591D01*
X122884728Y-104698282D01*
X122884727Y-104698282D01*
X122845380Y-104752439D01*
X122748904Y-104941782D01*
X122683242Y-105143869D01*
X122683242Y-105143872D01*
X122650000Y-105353753D01*
X120200500Y-105353753D01*
X120200500Y-54003052D01*
X120200649Y-53996968D01*
X120218497Y-53633665D01*
X120219690Y-53621555D01*
X120272614Y-53264765D01*
X120274981Y-53252863D01*
X120362631Y-52902947D01*
X120366152Y-52891341D01*
X120487672Y-52551717D01*
X120492314Y-52540509D01*
X120646547Y-52214409D01*
X120652262Y-52203717D01*
X120837704Y-51894327D01*
X120844447Y-51884234D01*
X121059329Y-51594500D01*
X121067032Y-51585115D01*
X121309273Y-51317843D01*
X121317843Y-51309273D01*
X121585115Y-51067032D01*
X121594500Y-51059329D01*
X121884234Y-50844447D01*
X121894327Y-50837704D01*
X122203717Y-50652262D01*
X122214409Y-50646547D01*
X122540509Y-50492314D01*
X122551717Y-50487672D01*
X122891341Y-50366152D01*
X122902947Y-50362631D01*
X123252863Y-50274981D01*
X123264765Y-50272614D01*
X123621561Y-50219689D01*
X123633659Y-50218497D01*
X123942885Y-50203305D01*
X123996968Y-50200649D01*
X124003052Y-50200500D01*
X124039882Y-50200500D01*
X165960118Y-50200500D01*
X165996948Y-50200500D01*
X166003032Y-50200649D01*
G37*
%TD.AperFunction*%
%TD*%
%TA.AperFunction,Conductor*%
%TO.N,GND*%
G36*
X147548627Y-105663184D02*
G01*
X147569269Y-105679818D01*
X148000000Y-106110549D01*
X148000000Y-107089953D01*
X147179819Y-106269772D01*
X147146334Y-106208449D01*
X147143500Y-106182091D01*
X147143500Y-105786632D01*
X147143499Y-105786618D01*
X147143499Y-105767499D01*
X147163184Y-105700460D01*
X147215988Y-105654705D01*
X147267499Y-105643499D01*
X147481588Y-105643499D01*
X147548627Y-105663184D01*
G37*
%TD.AperFunction*%
%TA.AperFunction,Conductor*%
G36*
X148000000Y-97978438D02*
G01*
X147985835Y-97972571D01*
X147985823Y-97972568D01*
X147829634Y-97941500D01*
X147829630Y-97941500D01*
X147670370Y-97941500D01*
X147670365Y-97941500D01*
X147525823Y-97970251D01*
X147456231Y-97964024D01*
X147401054Y-97921160D01*
X147377810Y-97855270D01*
X147393878Y-97787274D01*
X147396094Y-97783536D01*
X147411544Y-97758487D01*
X147411547Y-97758481D01*
X147464855Y-97597606D01*
X147474999Y-97498322D01*
X147475000Y-97498309D01*
X147475000Y-97475000D01*
X145525001Y-97475000D01*
X145525001Y-97498322D01*
X145535144Y-97597607D01*
X145588452Y-97758481D01*
X145588456Y-97758490D01*
X145603906Y-97783538D01*
X145622346Y-97850931D01*
X145601423Y-97917594D01*
X145547781Y-97962363D01*
X145478450Y-97971024D01*
X145474176Y-97970251D01*
X145329634Y-97941500D01*
X145329630Y-97941500D01*
X145170370Y-97941500D01*
X145147419Y-97946065D01*
X145064570Y-97962544D01*
X144994978Y-97956315D01*
X144939802Y-97913452D01*
X144916558Y-97847562D01*
X144922673Y-97801926D01*
X144973236Y-97649336D01*
X144983500Y-97548872D01*
X144983500Y-97001128D01*
X144978449Y-96951692D01*
X144978447Y-96951677D01*
X145525000Y-96951677D01*
X145525000Y-96975000D01*
X146250000Y-96975000D01*
X146750000Y-96975000D01*
X147474999Y-96975000D01*
X147474999Y-96951692D01*
X147474998Y-96951677D01*
X147464855Y-96852392D01*
X147411547Y-96691518D01*
X147411542Y-96691507D01*
X147322575Y-96547271D01*
X147322572Y-96547267D01*
X147202732Y-96427427D01*
X147202728Y-96427424D01*
X147058492Y-96338457D01*
X147058481Y-96338452D01*
X146897606Y-96285144D01*
X146798322Y-96275000D01*
X146750000Y-96275000D01*
X146750000Y-96975000D01*
X146250000Y-96975000D01*
X146250000Y-96275000D01*
X146249999Y-96274999D01*
X146201693Y-96275000D01*
X146201675Y-96275001D01*
X146102392Y-96285144D01*
X145941518Y-96338452D01*
X145941507Y-96338457D01*
X145797271Y-96427424D01*
X145797267Y-96427427D01*
X145677427Y-96547267D01*
X145677424Y-96547271D01*
X145588457Y-96691507D01*
X145588452Y-96691518D01*
X145535144Y-96852393D01*
X145525000Y-96951677D01*
X144978447Y-96951677D01*
X144973236Y-96900663D01*
X144955258Y-96846409D01*
X144919302Y-96737899D01*
X144919298Y-96737893D01*
X144919297Y-96737890D01*
X144829287Y-96591963D01*
X144829284Y-96591959D01*
X144825006Y-96587681D01*
X144791521Y-96526358D01*
X144796505Y-96456666D01*
X144825006Y-96412319D01*
X144829285Y-96408040D01*
X144919302Y-96262101D01*
X144973236Y-96099336D01*
X144983500Y-95998872D01*
X144983500Y-95451128D01*
X144973236Y-95350664D01*
X144919302Y-95187899D01*
X144919298Y-95187893D01*
X144919297Y-95187890D01*
X144829287Y-95041963D01*
X144829284Y-95041959D01*
X144775440Y-94988115D01*
X144741955Y-94926792D01*
X144746939Y-94857100D01*
X144748535Y-94853042D01*
X144790761Y-94751099D01*
X144799576Y-94733799D01*
X144873376Y-94613369D01*
X144884793Y-94597655D01*
X144979705Y-94486527D01*
X144986278Y-94479417D01*
X145037252Y-94428444D01*
X145083761Y-94381935D01*
X145254997Y-94167212D01*
X145401115Y-93934666D01*
X145520278Y-93687222D01*
X145542979Y-93622345D01*
X145583699Y-93565571D01*
X145648651Y-93539822D01*
X145694615Y-93544224D01*
X145730000Y-93554504D01*
X145730000Y-93554503D01*
X146230000Y-93554503D01*
X146376195Y-93512031D01*
X146515374Y-93429721D01*
X146515383Y-93429714D01*
X146629714Y-93315383D01*
X146629721Y-93315374D01*
X146712031Y-93176195D01*
X146712033Y-93176190D01*
X146757144Y-93020918D01*
X146757145Y-93020912D01*
X146758790Y-93000000D01*
X146230000Y-93000000D01*
X146230000Y-93554503D01*
X145730000Y-93554503D01*
X145730000Y-93264067D01*
X145747268Y-93200946D01*
X145759894Y-93179597D01*
X145805606Y-93022254D01*
X145808500Y-92985484D01*
X145808500Y-92514516D01*
X145805606Y-92477746D01*
X145759894Y-92320403D01*
X145755106Y-92312308D01*
X145737922Y-92244586D01*
X145755106Y-92186063D01*
X145779332Y-92145100D01*
X145825573Y-91985937D01*
X145828500Y-91948747D01*
X145828500Y-91945494D01*
X146230000Y-91945494D01*
X146230000Y-92500000D01*
X146758790Y-92500000D01*
X146757145Y-92479089D01*
X146712031Y-92323804D01*
X146629721Y-92184625D01*
X146629714Y-92184616D01*
X146515383Y-92070285D01*
X146515374Y-92070278D01*
X146376193Y-91987967D01*
X146376190Y-91987965D01*
X146230001Y-91945493D01*
X146230000Y-91945494D01*
X145828500Y-91945494D01*
X145828499Y-91521254D01*
X145825573Y-91484063D01*
X145779332Y-91324900D01*
X145772366Y-91313122D01*
X145755182Y-91245401D01*
X145772366Y-91186878D01*
X145779332Y-91175100D01*
X145825573Y-91015937D01*
X145828500Y-90978747D01*
X145828499Y-90554503D01*
X146230000Y-90554503D01*
X146376195Y-90512031D01*
X146515374Y-90429721D01*
X146515383Y-90429714D01*
X146629714Y-90315383D01*
X146629721Y-90315374D01*
X146712031Y-90176195D01*
X146712033Y-90176190D01*
X146757144Y-90020918D01*
X146757145Y-90020912D01*
X146758790Y-90000000D01*
X146230000Y-90000000D01*
X146230000Y-90554503D01*
X145828499Y-90554503D01*
X145828499Y-90551254D01*
X145825573Y-90514063D01*
X145779332Y-90354900D01*
X145755105Y-90313935D01*
X145737922Y-90246213D01*
X145755107Y-90187690D01*
X145759894Y-90179597D01*
X145805606Y-90022254D01*
X145808500Y-89985484D01*
X145808500Y-89514516D01*
X145805606Y-89477746D01*
X145759894Y-89320403D01*
X145759892Y-89320399D01*
X145759891Y-89320397D01*
X145747267Y-89299050D01*
X145730000Y-89235931D01*
X145730000Y-88945494D01*
X146230000Y-88945494D01*
X146230000Y-89500000D01*
X146758790Y-89500000D01*
X146757145Y-89479089D01*
X146712031Y-89323804D01*
X146629721Y-89184625D01*
X146629714Y-89184616D01*
X146515383Y-89070285D01*
X146515374Y-89070278D01*
X146376193Y-88987967D01*
X146376190Y-88987965D01*
X146230001Y-88945493D01*
X146230000Y-88945494D01*
X145730000Y-88945494D01*
X145730000Y-88943801D01*
X145691081Y-88891657D01*
X145683325Y-88848490D01*
X145683325Y-88720206D01*
X145703010Y-88653167D01*
X145704167Y-88651398D01*
X145716483Y-88632968D01*
X145777430Y-88485831D01*
X145808500Y-88329630D01*
X145808500Y-88170370D01*
X145777430Y-88014169D01*
X145716483Y-87867032D01*
X145628003Y-87734611D01*
X145627998Y-87734605D01*
X145515394Y-87622001D01*
X145515387Y-87621995D01*
X145382969Y-87533517D01*
X145235831Y-87472570D01*
X145235823Y-87472568D01*
X145079634Y-87441500D01*
X145079630Y-87441500D01*
X144920370Y-87441500D01*
X144920365Y-87441500D01*
X144764176Y-87472568D01*
X144764168Y-87472570D01*
X144617030Y-87533517D01*
X144484612Y-87621995D01*
X144484605Y-87622001D01*
X144372001Y-87734605D01*
X144371995Y-87734612D01*
X144283517Y-87867030D01*
X144222570Y-88014168D01*
X144222568Y-88014176D01*
X144191500Y-88170365D01*
X144191500Y-88329634D01*
X144222568Y-88485823D01*
X144222570Y-88485831D01*
X144283516Y-88632966D01*
X144296726Y-88652736D01*
X144317605Y-88719413D01*
X144317625Y-88721628D01*
X144317625Y-89223038D01*
X144300357Y-89286159D01*
X144280107Y-89320399D01*
X144280105Y-89320404D01*
X144234394Y-89477741D01*
X144234393Y-89477747D01*
X144231500Y-89514510D01*
X144231500Y-89985489D01*
X144234393Y-90022252D01*
X144234394Y-90022258D01*
X144279707Y-90178224D01*
X144279508Y-90248094D01*
X144267364Y-90275939D01*
X144220669Y-90354898D01*
X144220666Y-90354904D01*
X144174427Y-90514058D01*
X144174426Y-90514064D01*
X144171500Y-90551247D01*
X144171500Y-90978735D01*
X144171501Y-90978757D01*
X144174427Y-91015937D01*
X144174427Y-91015938D01*
X144220666Y-91175095D01*
X144220671Y-91175107D01*
X144227635Y-91186883D01*
X144244815Y-91254607D01*
X144227635Y-91313117D01*
X144220671Y-91324892D01*
X144220666Y-91324904D01*
X144174427Y-91484058D01*
X144174426Y-91484064D01*
X144171500Y-91521247D01*
X144171500Y-91948735D01*
X144171501Y-91948757D01*
X144174427Y-91985937D01*
X144174427Y-91985938D01*
X144220667Y-92145098D01*
X144220669Y-92145103D01*
X144267363Y-92224058D01*
X144284546Y-92291782D01*
X144279708Y-92321773D01*
X144234393Y-92477747D01*
X144231500Y-92514510D01*
X144231500Y-92985489D01*
X144234393Y-93022252D01*
X144234394Y-93022258D01*
X144253298Y-93087323D01*
X144253099Y-93157192D01*
X144248783Y-93169370D01*
X144223223Y-93231078D01*
X144214389Y-93248416D01*
X144136078Y-93376207D01*
X144124641Y-93391949D01*
X144024124Y-93509639D01*
X144017636Y-93516668D01*
X144017152Y-93517152D01*
X143922245Y-93612058D01*
X143754879Y-93821929D01*
X143612063Y-94049220D01*
X143495598Y-94291061D01*
X143495592Y-94291075D01*
X143406940Y-94544427D01*
X143406936Y-94544439D01*
X143347203Y-94806147D01*
X143344214Y-94832681D01*
X143317147Y-94897095D01*
X143296699Y-94915073D01*
X143297621Y-94916239D01*
X143291960Y-94920714D01*
X143170712Y-95041963D01*
X143080702Y-95187890D01*
X143080697Y-95187901D01*
X143026764Y-95350663D01*
X143016500Y-95451120D01*
X143016500Y-95998879D01*
X143026764Y-96099336D01*
X143080697Y-96262098D01*
X143080702Y-96262109D01*
X143170712Y-96408036D01*
X143170715Y-96408040D01*
X143174994Y-96412319D01*
X143208479Y-96473642D01*
X143203495Y-96543334D01*
X143174994Y-96587681D01*
X143170715Y-96591959D01*
X143170712Y-96591963D01*
X143080702Y-96737890D01*
X143080697Y-96737901D01*
X143026764Y-96900663D01*
X143016500Y-97001120D01*
X143016500Y-97548879D01*
X143026764Y-97649336D01*
X143080697Y-97812098D01*
X143080702Y-97812109D01*
X143170712Y-97958036D01*
X143170715Y-97958040D01*
X143288710Y-98076035D01*
X143322195Y-98137358D01*
X143325029Y-98163716D01*
X143325029Y-99884745D01*
X143324250Y-99898623D01*
X143312829Y-100000032D01*
X143312829Y-100000033D01*
X143316187Y-100029830D01*
X143304134Y-100098652D01*
X143256786Y-100150032D01*
X143238457Y-100159070D01*
X143130492Y-100201646D01*
X143130486Y-100201649D01*
X143011717Y-100291717D01*
X142921649Y-100410486D01*
X142866964Y-100549158D01*
X142856500Y-100636298D01*
X142856500Y-101232500D01*
X142836815Y-101299539D01*
X142784011Y-101345294D01*
X142732500Y-101356500D01*
X142232500Y-101356500D01*
X142165461Y-101336815D01*
X142119706Y-101284011D01*
X142108500Y-101232500D01*
X142108500Y-100669891D01*
X142108500Y-100669889D01*
X142067032Y-100515128D01*
X142067032Y-100515127D01*
X142000000Y-100399025D01*
X142000000Y-76984482D01*
X143500000Y-76984482D01*
X143500500Y-77039287D01*
X143508498Y-77148568D01*
X143508500Y-77148582D01*
X143508501Y-77148594D01*
X143522179Y-77241537D01*
X143524459Y-77257029D01*
X143524462Y-77257044D01*
X143548286Y-77363996D01*
X143548292Y-77364018D01*
X143579859Y-77468939D01*
X143579871Y-77468976D01*
X143619020Y-77571337D01*
X143665536Y-77670563D01*
X143665537Y-77670565D01*
X143719184Y-77766155D01*
X143779662Y-77857568D01*
X143846638Y-77944304D01*
X143846643Y-77944310D01*
X143846645Y-77944312D01*
X143919784Y-78025941D01*
X143998688Y-78102013D01*
X144082934Y-78172123D01*
X144082938Y-78172126D01*
X144172063Y-78235890D01*
X144172067Y-78235892D01*
X144172072Y-78235896D01*
X144265628Y-78292993D01*
X144363103Y-78343108D01*
X144463975Y-78385974D01*
X144567707Y-78421362D01*
X144673746Y-78449084D01*
X144724854Y-78458524D01*
X144781507Y-78468989D01*
X144781510Y-78468989D01*
X144781525Y-78468992D01*
X144890470Y-78480980D01*
X144890487Y-78480980D01*
X144890493Y-78480981D01*
X144999992Y-78484983D01*
X145000000Y-78484983D01*
X145000008Y-78484983D01*
X145109506Y-78480981D01*
X145109510Y-78480980D01*
X145109530Y-78480980D01*
X145218475Y-78468992D01*
X145218490Y-78468989D01*
X145218492Y-78468989D01*
X145242926Y-78464475D01*
X145326254Y-78449084D01*
X145432293Y-78421362D01*
X145536025Y-78385974D01*
X145636897Y-78343108D01*
X145734372Y-78292993D01*
X145827928Y-78235896D01*
X145917066Y-78172123D01*
X146001312Y-78102013D01*
X146080216Y-78025941D01*
X146153355Y-77944312D01*
X146220342Y-77857562D01*
X146280817Y-77766153D01*
X146334458Y-77670574D01*
X146380980Y-77571335D01*
X146420133Y-77468964D01*
X146451710Y-77364009D01*
X146475541Y-77257028D01*
X146491499Y-77148594D01*
X146499499Y-77039283D01*
X146499499Y-76929681D01*
X146499499Y-76929676D01*
X146499498Y-76929660D01*
X146491501Y-76820395D01*
X146491500Y-76820392D01*
X146491499Y-76820370D01*
X146475541Y-76711936D01*
X146451710Y-76604955D01*
X146420133Y-76500000D01*
X146380980Y-76397629D01*
X146334458Y-76298390D01*
X146280817Y-76202811D01*
X146220342Y-76111402D01*
X146220337Y-76111395D01*
X146153361Y-76024659D01*
X146153355Y-76024652D01*
X146080216Y-75943023D01*
X146001312Y-75866951D01*
X145917066Y-75796841D01*
X145917064Y-75796840D01*
X145917061Y-75796837D01*
X145827936Y-75733073D01*
X145827928Y-75733068D01*
X145734372Y-75675971D01*
X145636897Y-75625856D01*
X145636888Y-75625852D01*
X145536031Y-75582992D01*
X145432290Y-75547601D01*
X145326246Y-75519878D01*
X145218492Y-75499974D01*
X145218482Y-75499973D01*
X145218478Y-75499972D01*
X145218475Y-75499972D01*
X145181118Y-75495861D01*
X145109534Y-75487984D01*
X145109510Y-75487982D01*
X145000010Y-75483982D01*
X144999990Y-75483982D01*
X144890489Y-75487982D01*
X144890465Y-75487984D01*
X144800984Y-75497830D01*
X144781525Y-75499972D01*
X144781523Y-75499972D01*
X144781517Y-75499973D01*
X144781507Y-75499974D01*
X144673753Y-75519878D01*
X144567709Y-75547601D01*
X144463968Y-75582992D01*
X144363111Y-75625852D01*
X144363105Y-75625855D01*
X144265641Y-75675964D01*
X144265637Y-75675966D01*
X144265628Y-75675971D01*
X144204381Y-75713349D01*
X144172063Y-75733073D01*
X144082938Y-75796837D01*
X144040811Y-75831896D01*
X143998688Y-75866951D01*
X143919784Y-75943023D01*
X143886027Y-75980697D01*
X143846638Y-76024659D01*
X143779662Y-76111395D01*
X143719184Y-76202808D01*
X143665537Y-76298398D01*
X143665536Y-76298400D01*
X143619020Y-76397626D01*
X143579871Y-76499987D01*
X143579859Y-76500024D01*
X143548292Y-76604945D01*
X143548286Y-76604967D01*
X143524462Y-76711919D01*
X143524459Y-76711934D01*
X143524459Y-76711936D01*
X143508501Y-76820370D01*
X143508501Y-76820375D01*
X143508498Y-76820395D01*
X143500500Y-76929676D01*
X143500000Y-76984482D01*
X142000000Y-76984482D01*
X142000000Y-75000000D01*
X148000000Y-75000000D01*
X148000000Y-97978438D01*
G37*
%TD.AperFunction*%
%TA.AperFunction,Conductor*%
G36*
X148000000Y-101139450D02*
G01*
X147819269Y-101320181D01*
X147757946Y-101353666D01*
X147731588Y-101356500D01*
X147267499Y-101356500D01*
X147200460Y-101336815D01*
X147154705Y-101284011D01*
X147143499Y-101232500D01*
X147143499Y-100767500D01*
X147163184Y-100700461D01*
X147215988Y-100654706D01*
X147267499Y-100643500D01*
X148000000Y-100643500D01*
X148000000Y-101139450D01*
G37*
%TD.AperFunction*%
%TD*%
M02*
